M48
; DRILL file {KiCad 7.0.9} date Wed May  7 10:44:44 2025
; FORMAT={-:-/ absolute / metric / decimal}
; #@! TF.CreationDate,2025-05-07T10:44:44+08:00
; #@! TF.GenerationSoftware,Kicad,Pcbnew,7.0.9
; #@! TF.FileFunction,Plated,1,4,PTH
FMAT,2
METRIC
; #@! TA.AperFunction,Plated,PTH,ViaDrill
T1C0.254
; #@! TA.AperFunction,Plated,PTH,ComponentDrill
T2C0.700
; #@! TA.AperFunction,Plated,PTH,ComponentDrill
T3C0.914
; #@! TA.AperFunction,Plated,PTH,ComponentDrill
T4C1.000
; #@! TA.AperFunction,Plated,PTH,ComponentDrill
T5C1.600
; #@! TA.AperFunction,Plated,PTH,ComponentDrill
T6C3.200
%
G90
G05
T1
X109.34Y-118.73
X109.67Y-125.24
X109.7Y-105.8
X109.8Y-86.7
X110.63Y-119.68
X110.9Y-104.1
X111.22Y-124.38
X111.25Y-114.89
X111.4Y-94.1
X111.7Y-96.9
X112.1Y-108.1
X112.33Y-112.92
X112.8Y-90.0
X115.5Y-121.53
X115.51Y-114.71
X115.7Y-86.9
X115.71Y-131.02
X116.43Y-117.12
X116.48Y-124.08
X117.5Y-85.1
X117.99Y-104.48
X118.01Y-124.09
X118.12Y-117.14
X119.0Y-131.7
X119.275Y-88.9
X119.34Y-95.76
X119.45Y-97.18
X119.45Y-104.28
X119.72Y-81.07
X119.72Y-86.92
X120.05Y-120.8
X120.07Y-113.71
X120.72Y-90.73
X120.86Y-93.96
X121.28Y-84.47
X121.39Y-117.93
X121.41Y-113.5
X121.48Y-114.91
X121.67Y-82.49
X121.72Y-100.215
X121.72Y-101.765
X121.8Y-123.09
X122.02Y-120.58
X122.13Y-83.785
X122.59Y-81.84
X123.325Y-105.675
X124.025Y-100.99
X124.05Y-85.74
X124.175Y-83.125
X124.225Y-83.775
X124.275Y-84.425
X124.75Y-92.55
X124.995Y-107.92
X125.0Y-132.1
X125.09Y-110.64
X125.54Y-123.03
X125.65Y-97.15
X125.66Y-95.875
X126.06Y-110.59
X126.225Y-91.171
X126.225Y-92.505
X126.425Y-93.325
X126.54Y-98.7
X126.594Y-98.175
X126.65Y-89.15
X126.69Y-112.8
X126.725Y-105.8
X126.775Y-95.725
X126.8Y-89.6
X127.1Y-110.61
X127.267Y-106.957
X127.35Y-96.0
X127.585Y-102.675
X128.2Y-89.6
X128.51Y-116.57
X128.52Y-120.12
X128.93Y-130.43
X129.23Y-131.98
X129.24Y-127.4
X129.7Y-90.45
X129.75Y-91.55
X130.01Y-122.06
X130.44Y-108.94
X130.625Y-102.525
X130.816Y-117.08
X130.816Y-118.54
X130.816Y-119.85
X130.92Y-114.53
X130.925Y-121.205
X130.94Y-81.12
X130.96Y-86.91
X130.975Y-96.65
X131.11Y-115.96
X131.195Y-110.63
X131.334Y-95.2
X131.34Y-95.8
X131.61Y-120.19
X131.61Y-121.49
X131.76Y-116.44
X131.775Y-97.25
X131.875Y-100.65
X131.975Y-106.15
X132.175Y-96.65
X132.175Y-104.169
X132.459Y-105.028
X132.575Y-80.95
X132.575Y-81.55
X132.575Y-82.225
X132.575Y-97.25
X132.7Y-116.44
X132.875Y-82.75
X133.125Y-81.275
X133.125Y-81.95
X133.375Y-96.65
X133.375Y-97.25
X133.4Y-93.05
X133.4Y-94.4
X133.4Y-95.6
X133.56Y-108.56
X133.6Y-85.525
X133.81Y-104.98
X133.82Y-82.42
X133.825Y-87.425
X134.19Y-116.44
X134.23Y-84.36
X134.36Y-114.58
X134.56Y-108.45
X134.58Y-90.12
X134.68Y-83.07
X134.7Y-81.75
X134.75Y-86.55
X134.85Y-116.44
X134.975Y-88.325
X135.23Y-83.74
X135.475Y-105.875
X135.55Y-85.65
X135.675Y-112.01
X135.73Y-88.1
X135.78Y-94.36
X135.845Y-106.245
X136.04Y-107.72
X136.19Y-109.38
X136.245Y-106.645
X136.8Y-105.85
X137.0Y-122.0
X137.03Y-111.19
X137.04Y-115.665
X137.04Y-116.275
X137.415Y-114.72
X137.72Y-89.93
X138.2Y-102.7
X138.42Y-125.86
X139.27Y-89.05
X139.28Y-119.34
X140.045Y-112.72
X140.07Y-116.46
X140.115Y-114.22
X140.245Y-108.68
X140.3Y-102.2
X140.6Y-81.3
X140.68Y-93.05
X140.77Y-97.18
X140.9Y-102.0
X141.37Y-114.04
X141.46Y-84.12
X141.645Y-115.22
X142.0Y-99.1
X142.3Y-123.6
X142.31Y-92.94
X142.38Y-110.49
X142.44Y-97.18
X143.52Y-126.27
X143.84Y-82.88
X143.84Y-106.35
X143.865Y-117.44
X143.875Y-101.98
X143.95Y-114.04
X144.05Y-93.06
X144.07Y-109.04
X144.16Y-100.9
X144.23Y-97.25
X144.375Y-120.23
X144.885Y-115.59
X145.2Y-110.7
X145.47Y-108.84
X145.829Y-88.459
X146.03Y-126.76
X146.17Y-97.25
X146.38Y-122.71
X146.54Y-89.05
X146.67Y-82.87
X146.875Y-124.28
X147.035Y-114.0
X147.3Y-110.3
X147.37Y-104.66
X147.375Y-123.755
X147.6Y-112.1
X147.87Y-102.33
X147.875Y-123.21
X147.89Y-108.58
X147.99Y-97.885
X148.36Y-99.925
X148.37Y-104.68
X148.375Y-122.21
X148.41Y-106.71
X148.58Y-113.99
X148.64Y-105.46
X148.875Y-121.16
X149.29Y-108.13
X149.375Y-117.45
X149.39Y-109.31
X149.4Y-113.41
X149.57Y-112.37
X149.67Y-106.09
X149.875Y-120.21
X149.9Y-89.07
X149.94Y-108.12
X150.295Y-110.22
X150.325Y-113.23
X150.375Y-115.56
X150.38Y-99.22
X150.39Y-105.47
X150.58Y-108.12
X150.875Y-120.73
X150.895Y-106.52
X150.98Y-84.89
X151.0Y-105.22
X151.02Y-105.78
X151.1Y-125.41
X151.21Y-108.11
X151.3Y-111.85
X151.375Y-121.71
X151.8Y-107.62
X151.84Y-104.71
X151.84Y-105.3
X151.87Y-126.27
X151.92Y-102.2
X152.37Y-126.76
X152.755Y-109.22
X152.835Y-114.22
X152.91Y-125.41
X152.996Y-87.45
X153.44Y-84.12
X153.55Y-89.05
X154.05Y-125.86
X154.1Y-103.9
X154.695Y-99.915
X155.485Y-109.72
X155.518Y-99.905
X155.525Y-112.72
X155.565Y-113.72
X155.615Y-106.21
X155.81Y-108.24
X156.0Y-99.905
X156.07Y-94.55
X156.23Y-106.36
X156.62Y-110.72
X156.74Y-115.22
X156.825Y-118.075
X156.92Y-84.13
X156.95Y-88.26
X157.27Y-111.22
X157.97Y-111.72
X158.25Y-115.19
X158.7Y-112.22
X159.195Y-102.44
X160.0Y-121.4
X160.163Y-86.78
X160.575Y-101.17
X160.585Y-99.83
X160.585Y-100.48
X160.595Y-99.18
X160.7Y-83.49
X160.785Y-94.1
X160.9Y-89.05
X163.4Y-118.0
X163.41Y-108.66
X163.41Y-109.737
X163.41Y-110.813
X163.64Y-106.96
X163.65Y-106.23
X163.66Y-105.64
X163.995Y-96.05
X164.35Y-92.275
X164.35Y-105.65
X164.4Y-106.31
X164.4Y-107.02
X165.3Y-109.4
X165.33Y-83.23
X165.5Y-110.8
X165.75Y-105.5
X165.75Y-106.25
X166.2Y-118.0
X166.43Y-90.29
X166.73Y-120.75
X166.75Y-105.5
X166.75Y-106.25
X167.05Y-122.54
X167.33Y-86.39
X167.45Y-110.4
X167.5Y-103.8
X168.0Y-105.5
X168.0Y-106.25
X168.16Y-88.09
X168.4Y-91.6
X168.5Y-102.1
X169.2Y-118.0
X169.25Y-105.5
X169.25Y-106.25
X169.8Y-81.5
X170.02Y-125.21
X170.15Y-120.025
X170.9Y-97.7
X171.0Y-95.65
X171.0Y-106.375
X171.08Y-122.57
X171.18Y-132.5
X171.575Y-101.55
X171.6Y-118.0
X171.621Y-106.364
X172.575Y-93.775
X172.7Y-102.2
X172.95Y-99.775
X173.4Y-95.3
X173.725Y-83.625
X173.98Y-125.07
X174.13Y-86.71
X174.2Y-118.0
X174.275Y-123.75
X175.69Y-86.51
X176.0Y-116.6
X176.0Y-117.8
X176.075Y-97.525
X176.49Y-106.39
X176.975Y-113.55
X177.0Y-110.2
X177.4Y-108.8
X177.6Y-109.6
X177.625Y-97.525
X178.35Y-102.45
X178.35Y-103.7
X178.35Y-104.95
X178.39Y-120.08
X178.5Y-106.302
X179.0Y-124.5
X179.35Y-102.45
X179.35Y-103.7
X179.35Y-104.95
X179.4Y-82.6
X179.45Y-108.875
X179.52Y-95.8
X179.6Y-109.8
X179.975Y-117.0
X180.0Y-115.4
X180.0Y-116.2
X180.35Y-102.45
X180.35Y-103.7
X180.35Y-104.95
X180.6Y-109.8
X180.725Y-108.8
X180.955Y-115.396
X181.0Y-116.2
X181.0Y-117.0
X181.275Y-108.075
X181.37Y-125.37
X181.38Y-122.95
X181.798Y-93.612
X182.825Y-116.6
X183.325Y-101.35
X183.95Y-100.975
X183.951Y-112.023
X184.125Y-113.5
X184.175Y-115.05
X184.65Y-116.7
X184.7Y-82.6
X185.285Y-125.42
X185.741Y-113.2
X185.75Y-114.375
X185.795Y-124.22
X185.975Y-100.1
X186.1Y-132.0
X186.2Y-111.375
X186.595Y-127.73
X186.755Y-125.22
X186.921Y-113.2
X186.925Y-114.375
X187.59Y-127.62
X187.8Y-100.0
X188.1Y-113.2
X188.1Y-114.375
X188.1Y-115.4
X188.1Y-116.8
X188.1Y-118.0
X188.6Y-87.1
X188.62Y-127.62
X188.9Y-84.4
X189.4Y-132.0
X189.595Y-127.65
X189.6Y-111.5
X190.065Y-124.06
X190.095Y-125.47
X190.3Y-83.2
X190.3Y-114.1
X190.425Y-101.375
X190.65Y-118.475
X190.75Y-121.025
X191.0Y-85.1
X191.125Y-105.7
X191.325Y-125.05
X199.8Y-113.9
X200.4Y-118.6
X200.5Y-122.7
X200.7Y-94.9
X200.7Y-108.9
X201.2Y-101.9
X201.37Y-91.01
X201.44Y-98.62
T3
X145.575Y-81.66
X145.575Y-91.82
X148.115Y-81.66
X148.115Y-91.82
X150.655Y-81.66
X150.655Y-91.82
X153.195Y-81.66
X153.195Y-91.82
X155.735Y-81.66
X155.735Y-91.82
X158.275Y-81.66
X158.275Y-91.82
X160.815Y-81.66
X160.815Y-91.82
T4
X134.62Y-128.11
X134.62Y-130.65
X137.16Y-128.11
X137.16Y-130.65
X139.7Y-128.11
X139.7Y-130.65
X142.24Y-128.11
X142.24Y-130.65
X144.78Y-128.11
X144.78Y-130.65
X147.32Y-128.11
X147.32Y-130.65
X149.86Y-128.11
X149.86Y-130.65
X152.4Y-128.11
X152.4Y-130.65
X154.94Y-128.11
X154.94Y-130.65
X157.48Y-128.11
X157.48Y-130.65
X179.245Y-86.7
X181.785Y-86.7
X184.325Y-86.7
T5
X115.095Y-90.475
X115.095Y-94.285
X115.095Y-98.095
X115.095Y-101.905
X115.095Y-105.715
X115.095Y-109.525
X195.265Y-89.065
X195.265Y-92.875
X195.265Y-96.685
X195.265Y-100.495
X195.265Y-104.305
X195.265Y-108.115
X195.265Y-111.925
X195.265Y-115.735
X195.265Y-119.545
X195.265Y-123.355
T6
X111.175Y-82.153
X111.175Y-130.27
X199.175Y-82.153
X199.175Y-130.27
T2
G00X183.525Y-127.724
M15
G01X183.525Y-126.724
M16
G05
G00X183.525Y-131.754
M15
G01X183.525Y-131.054
M16
G05
G00X192.165Y-127.724
M15
G01X192.165Y-126.724
M16
G05
G00X192.165Y-131.754
M15
G01X192.165Y-131.054
M16
G05
T0
M30
