%TF.GenerationSoftware,KiCad,Pcbnew,7.0.9*%
%TF.CreationDate,2025-05-07T10:44:47+08:00*%
%TF.ProjectId,HPM5300RDCRevB,48504d35-3330-4305-9244-43526576422e,REVC*%
%TF.SameCoordinates,Original*%
%TF.FileFunction,Soldermask,Top*%
%TF.FilePolarity,Negative*%
%FSLAX46Y46*%
G04 Gerber Fmt 4.6, Leading zero omitted, Abs format (unit mm)*
G04 Created by KiCad (PCBNEW 7.0.9) date 2025-05-07 10:44:47*
%MOMM*%
%LPD*%
G01*
G04 APERTURE LIST*
G04 Aperture macros list*
%AMRoundRect*
0 Rectangle with rounded corners*
0 $1 Rounding radius*
0 $2 $3 $4 $5 $6 $7 $8 $9 X,Y pos of 4 corners*
0 Add a 4 corners polygon primitive as box body*
4,1,4,$2,$3,$4,$5,$6,$7,$8,$9,$2,$3,0*
0 Add four circle primitives for the rounded corners*
1,1,$1+$1,$2,$3*
1,1,$1+$1,$4,$5*
1,1,$1+$1,$6,$7*
1,1,$1+$1,$8,$9*
0 Add four rect primitives between the rounded corners*
20,1,$1+$1,$2,$3,$4,$5,0*
20,1,$1+$1,$4,$5,$6,$7,0*
20,1,$1+$1,$6,$7,$8,$9,0*
20,1,$1+$1,$8,$9,$2,$3,0*%
G04 Aperture macros list end*
%ADD10RoundRect,0.200000X0.200000X0.275000X-0.200000X0.275000X-0.200000X-0.275000X0.200000X-0.275000X0*%
%ADD11RoundRect,0.225000X0.225000X0.250000X-0.225000X0.250000X-0.225000X-0.250000X0.225000X-0.250000X0*%
%ADD12R,0.750000X0.400000*%
%ADD13C,1.200000*%
%ADD14C,1.000000*%
%ADD15R,1.400000X0.300000*%
%ADD16RoundRect,0.225000X0.250000X-0.225000X0.250000X0.225000X-0.250000X0.225000X-0.250000X-0.225000X0*%
%ADD17C,0.700000*%
%ADD18O,1.301600X2.101600*%
%ADD19RoundRect,0.050000X-0.150000X-0.650000X0.150000X-0.650000X0.150000X0.650000X-0.150000X0.650000X0*%
%ADD20R,0.980000X2.340000*%
%ADD21R,3.600000X2.340000*%
%ADD22RoundRect,0.200000X-0.275000X0.200000X-0.275000X-0.200000X0.275000X-0.200000X0.275000X0.200000X0*%
%ADD23RoundRect,0.225000X-0.250000X0.225000X-0.250000X-0.225000X0.250000X-0.225000X0.250000X0.225000X0*%
%ADD24RoundRect,0.200000X0.275000X-0.200000X0.275000X0.200000X-0.275000X0.200000X-0.275000X-0.200000X0*%
%ADD25C,1.500000*%
%ADD26R,1.016000X0.508000*%
%ADD27O,1.016000X0.508000*%
%ADD28RoundRect,0.250000X-0.650000X1.000000X-0.650000X-1.000000X0.650000X-1.000000X0.650000X1.000000X0*%
%ADD29RoundRect,0.050800X-0.849650X-0.599450X0.849650X-0.599450X0.849650X0.599450X-0.849650X0.599450X0*%
%ADD30C,2.400000*%
%ADD31RoundRect,0.050800X0.400050X-0.400050X0.400050X0.400050X-0.400050X0.400050X-0.400050X-0.400050X0*%
%ADD32R,1.635000X2.160000*%
%ADD33RoundRect,0.225000X-0.225000X-0.250000X0.225000X-0.250000X0.225000X0.250000X-0.225000X0.250000X0*%
%ADD34R,1.700000X1.700000*%
%ADD35O,1.700000X1.700000*%
%ADD36C,0.950000*%
%ADD37R,1.200000X1.400000*%
%ADD38R,1.650000X4.500000*%
%ADD39RoundRect,0.200000X-0.200000X-0.275000X0.200000X-0.275000X0.200000X0.275000X-0.200000X0.275000X0*%
%ADD40RoundRect,0.250000X0.650000X-1.000000X0.650000X1.000000X-0.650000X1.000000X-0.650000X-1.000000X0*%
%ADD41R,4.700000X1.250000*%
%ADD42C,6.400000*%
%ADD43C,1.524000*%
%ADD44RoundRect,0.050800X-0.400050X0.400050X-0.400050X-0.400050X0.400050X-0.400050X0.400050X0.400050X0*%
%ADD45RoundRect,0.225000X-0.225000X-0.375000X0.225000X-0.375000X0.225000X0.375000X-0.225000X0.375000X0*%
%ADD46RoundRect,0.050800X-0.350000X0.625000X-0.350000X-0.625000X0.350000X-0.625000X0.350000X0.625000X0*%
%ADD47RoundRect,0.250000X0.262500X0.450000X-0.262500X0.450000X-0.262500X-0.450000X0.262500X-0.450000X0*%
%ADD48O,1.865000X0.630000*%
%ADD49R,2.400000X3.300000*%
%ADD50RoundRect,0.250000X0.600000X-0.600000X0.600000X0.600000X-0.600000X0.600000X-0.600000X-0.600000X0*%
%ADD51C,1.700000*%
%ADD52O,2.700000X1.150000*%
%ADD53R,0.700000X1.000000*%
%ADD54R,0.700000X0.600000*%
%ADD55RoundRect,0.075000X0.725000X0.075000X-0.725000X0.075000X-0.725000X-0.075000X0.725000X-0.075000X0*%
%ADD56RoundRect,0.075000X0.075000X0.725000X-0.075000X0.725000X-0.075000X-0.725000X0.075000X-0.725000X0*%
%ADD57R,1.260000X3.610000*%
%ADD58R,1.000000X0.550000*%
G04 APERTURE END LIST*
D10*
%TO.C,R51*%
X112820200Y-122060000D03*
X111170200Y-122060000D03*
%TD*%
D11*
%TO.C,C42*%
X134375000Y-121500000D03*
X132825000Y-121500000D03*
%TD*%
D12*
%TO.C,L9*%
X183720200Y-120430000D03*
X181870200Y-120430000D03*
X181870200Y-119630000D03*
X183720200Y-119630000D03*
%TD*%
D13*
%TO.C,C24*%
X190450000Y-104300000D03*
X190450000Y-102400000D03*
%TD*%
D14*
%TO.C,T5*%
X121760000Y-103450000D03*
%TD*%
D15*
%TO.C,U9*%
X177041990Y-121080000D03*
X177041990Y-120580000D03*
X177041990Y-120080000D03*
X177041990Y-119580000D03*
X177041990Y-119080000D03*
X172641990Y-119080000D03*
X172641990Y-119580000D03*
X172641990Y-120080000D03*
X172641990Y-120580000D03*
X172641990Y-121080000D03*
%TD*%
D16*
%TO.C,C17*%
X131715200Y-113560000D03*
X131715200Y-112010000D03*
%TD*%
D11*
%TO.C,C11*%
X112770200Y-123660000D03*
X111220200Y-123660000D03*
%TD*%
D17*
%TO.C,J1*%
X184955200Y-127754050D03*
X190735200Y-127754050D03*
D18*
X183524900Y-127224050D03*
X192165100Y-127224150D03*
X183525000Y-131404050D03*
X192165200Y-131404150D03*
D19*
X184495200Y-126573950D03*
X185295300Y-126573950D03*
X186595300Y-126573950D03*
X187595300Y-126573950D03*
X188095100Y-126573950D03*
X189094900Y-126573950D03*
X190395400Y-126574150D03*
X191195200Y-126573950D03*
X190895200Y-126573950D03*
X190095100Y-126574150D03*
X189595300Y-126573950D03*
X188595300Y-126573950D03*
X187095100Y-126573950D03*
X186095100Y-126573950D03*
X185595300Y-126573950D03*
X184795200Y-126573950D03*
%TD*%
D14*
%TO.C,TP4*%
X168750000Y-112050000D03*
%TD*%
D16*
%TO.C,C28*%
X176100000Y-100100000D03*
X176100000Y-98550000D03*
%TD*%
D10*
%TO.C,R16*%
X131515000Y-123010000D03*
X129865000Y-123010000D03*
%TD*%
D16*
%TO.C,C76*%
X129710200Y-104975000D03*
X129710200Y-103425000D03*
%TD*%
D20*
%TO.C,U17*%
X125225000Y-87870000D03*
X127525000Y-87870000D03*
X129825000Y-87870000D03*
D21*
X127525000Y-82130000D03*
%TD*%
D16*
%TO.C,C58*%
X149175200Y-101475000D03*
X149175200Y-99925000D03*
%TD*%
D10*
%TO.C,R11*%
X124750000Y-91825000D03*
X123100000Y-91825000D03*
%TD*%
D22*
%TO.C,R120*%
X128235200Y-103375000D03*
X128235200Y-105025000D03*
%TD*%
D23*
%TO.C,C64*%
X126225000Y-90275000D03*
X126225000Y-91825000D03*
%TD*%
D24*
%TO.C,R6*%
X179150000Y-100150000D03*
X179150000Y-98500000D03*
%TD*%
D23*
%TO.C,C16*%
X124445200Y-111980000D03*
X124445200Y-113530000D03*
%TD*%
%TO.C,C77*%
X128160200Y-100425000D03*
X128160200Y-101975000D03*
%TD*%
D24*
%TO.C,R114*%
X131200000Y-105025000D03*
X131200000Y-103375000D03*
%TD*%
D22*
%TO.C,R4*%
X184050000Y-102525000D03*
X184050000Y-104175000D03*
%TD*%
D25*
%TO.C,C27*%
X185950000Y-104225000D03*
X185950000Y-101275000D03*
%TD*%
D24*
%TO.C,R111*%
X125235200Y-105025000D03*
X125235200Y-103375000D03*
%TD*%
D26*
%TO.C,U4*%
X127538200Y-111865002D03*
D27*
X127538200Y-112815012D03*
X127538200Y-113764998D03*
X130332200Y-113764998D03*
X130332200Y-111865002D03*
%TD*%
D25*
%TO.C,C25*%
X188275000Y-104225000D03*
X188275000Y-101275000D03*
%TD*%
D28*
%TO.C,D12*%
X128650000Y-91050000D03*
X128650000Y-95050000D03*
%TD*%
D22*
%TO.C,R115*%
X129670200Y-100395000D03*
X129670200Y-102045000D03*
%TD*%
D10*
%TO.C,R13*%
X135115000Y-107760000D03*
X133465000Y-107760000D03*
%TD*%
D29*
%TO.C,SW2*%
X174068900Y-131251100D03*
X180871100Y-131251100D03*
X180871100Y-128248900D03*
X174068900Y-128248900D03*
%TD*%
D30*
%TO.C,J3*%
X195265200Y-123355000D03*
X195265200Y-119545000D03*
X195265200Y-115735000D03*
X195265200Y-111925000D03*
X195265200Y-108115000D03*
X195265200Y-104305000D03*
X195265200Y-100495000D03*
X195265200Y-96685000D03*
X195265200Y-92875000D03*
X195265200Y-89065000D03*
%TD*%
D10*
%TO.C,R32*%
X177290200Y-122760000D03*
X175640200Y-122760000D03*
%TD*%
D24*
%TO.C,R2*%
X126035200Y-113580000D03*
X126035200Y-111930000D03*
%TD*%
D31*
%TO.C,LED4*%
X118250900Y-127900000D03*
X116549100Y-127900000D03*
%TD*%
D32*
%TO.C,L4*%
X153318000Y-100725000D03*
X150982000Y-100725000D03*
%TD*%
D16*
%TO.C,C5*%
X168630000Y-125505000D03*
X168630000Y-123955000D03*
%TD*%
%TO.C,C56*%
X147695200Y-101475000D03*
X147695200Y-99925000D03*
%TD*%
D33*
%TO.C,C34*%
X156215000Y-103420000D03*
X157765000Y-103420000D03*
%TD*%
D14*
%TO.C,T4*%
X120360000Y-111210000D03*
%TD*%
D34*
%TO.C,J5*%
X179245000Y-86700000D03*
D35*
X181785000Y-86700000D03*
X184325000Y-86700000D03*
%TD*%
D36*
%TO.C,C2*%
X132275000Y-86550000D03*
X133825000Y-86550000D03*
%TD*%
D14*
%TO.C,T6*%
X119800000Y-92550000D03*
%TD*%
D24*
%TO.C,R113*%
X126730200Y-102025000D03*
X126730200Y-100375000D03*
%TD*%
D37*
%TO.C,X1*%
X134760000Y-119920000D03*
X134760000Y-117720000D03*
X133060000Y-117720000D03*
X133060000Y-119920000D03*
%TD*%
D16*
%TO.C,C37*%
X155100000Y-101465000D03*
X155100000Y-99915000D03*
%TD*%
D14*
%TO.C,T9*%
X120360000Y-96510000D03*
%TD*%
D13*
%TO.C,C71*%
X132200000Y-88325000D03*
X134100000Y-88325000D03*
%TD*%
D38*
%TO.C,C23*%
X186150000Y-108225000D03*
X186150000Y-117225000D03*
%TD*%
D39*
%TO.C,R38*%
X119845000Y-130290000D03*
X121495000Y-130290000D03*
%TD*%
%TO.C,R1*%
X126060200Y-109560000D03*
X127710200Y-109560000D03*
%TD*%
D40*
%TO.C,D10*%
X178325000Y-116175000D03*
X178325000Y-112175000D03*
%TD*%
D33*
%TO.C,C29*%
X178750000Y-107600000D03*
X180300000Y-107600000D03*
%TD*%
D28*
%TO.C,D11*%
X132325000Y-91025000D03*
X132325000Y-95025000D03*
%TD*%
D41*
%TO.C,L2*%
X173325000Y-108525000D03*
X173325000Y-111775000D03*
%TD*%
D14*
%TO.C,T3*%
X120360000Y-107300000D03*
%TD*%
D24*
%TO.C,R19*%
X167030000Y-125515000D03*
X167030000Y-123865000D03*
%TD*%
D11*
%TO.C,C12*%
X112770200Y-114060000D03*
X111220200Y-114060000D03*
%TD*%
D42*
%TO.C,FID2*%
X199175200Y-82153000D03*
%TD*%
D43*
%TO.C,LED6*%
X145575200Y-91820000D03*
X148115200Y-91820000D03*
X150655200Y-91820000D03*
X153195200Y-91820000D03*
X155735200Y-91820000D03*
X158275200Y-91820000D03*
X160815200Y-91820000D03*
X160815200Y-81660000D03*
X158275200Y-81660000D03*
X155735200Y-81660000D03*
X153195200Y-81660000D03*
X150655200Y-81660000D03*
X148115200Y-81660000D03*
X145575200Y-81660000D03*
%TD*%
D14*
%TO.C,T2*%
X114840000Y-121030000D03*
%TD*%
D44*
%TO.C,LED1*%
X176949100Y-93800000D03*
X178650900Y-93800000D03*
%TD*%
D10*
%TO.C,R9*%
X175625000Y-126170000D03*
X173975000Y-126170000D03*
%TD*%
D14*
%TO.C,T10*%
X133275000Y-99500000D03*
%TD*%
D33*
%TO.C,C26*%
X133515000Y-109400000D03*
X135065000Y-109400000D03*
%TD*%
D45*
%TO.C,D2*%
X181377700Y-124220000D03*
X184677700Y-124220000D03*
%TD*%
D30*
%TO.C,J4*%
X115095200Y-90475000D03*
X115095200Y-94285000D03*
X115095200Y-98095000D03*
X115095200Y-101905000D03*
X115095200Y-105715000D03*
X115095200Y-109525000D03*
%TD*%
D33*
%TO.C,C4*%
X126110200Y-107920000D03*
X127660200Y-107920000D03*
%TD*%
D23*
%TO.C,C41*%
X131520000Y-117695000D03*
X131520000Y-119245000D03*
%TD*%
D46*
%TO.C,D3*%
X163753800Y-125522450D03*
X165653800Y-125522450D03*
X164703800Y-123522450D03*
%TD*%
D31*
%TO.C,LED5*%
X118270000Y-130330000D03*
X116568200Y-130330000D03*
%TD*%
D47*
%TO.C,L6*%
X134952500Y-105370000D03*
X133127500Y-105370000D03*
%TD*%
D39*
%TO.C,R14*%
X173550000Y-93750000D03*
X175200000Y-93750000D03*
%TD*%
%TO.C,R34*%
X119825000Y-125390000D03*
X121475000Y-125390000D03*
%TD*%
%TO.C,R57*%
X111170200Y-125260000D03*
X112820200Y-125260000D03*
%TD*%
D14*
%TO.C,T11*%
X136300000Y-99800000D03*
%TD*%
D48*
%TO.C,U3*%
X182032000Y-105585000D03*
X182032000Y-104315000D03*
X182032000Y-103045000D03*
X182032000Y-101775000D03*
X176668000Y-101775000D03*
X176668000Y-103045000D03*
X176668000Y-104315000D03*
X176668000Y-105585000D03*
D49*
X179350000Y-103680000D03*
%TD*%
D10*
%TO.C,R12*%
X124750000Y-90300000D03*
X123100000Y-90300000D03*
%TD*%
D50*
%TO.C,J2*%
X134620000Y-130650000D03*
D51*
X134620000Y-128110000D03*
X137160000Y-130650000D03*
X137160000Y-128110000D03*
X139700000Y-130650000D03*
X139700000Y-128110000D03*
X142240000Y-130650000D03*
X142240000Y-128110000D03*
X144780000Y-130650000D03*
X144780000Y-128110000D03*
X147320000Y-130650000D03*
X147320000Y-128110000D03*
X149860000Y-130650000D03*
X149860000Y-128110000D03*
X152400000Y-130650000D03*
X152400000Y-128110000D03*
X154940000Y-130650000D03*
X154940000Y-128110000D03*
X157480000Y-130650000D03*
X157480000Y-128110000D03*
%TD*%
D10*
%TO.C,R5*%
X183475000Y-100175000D03*
X181825000Y-100175000D03*
%TD*%
D52*
%TO.C,C35*%
X170825000Y-114075000D03*
X170825000Y-117025000D03*
%TD*%
D11*
%TO.C,C10*%
X112770200Y-118860000D03*
X111220200Y-118860000D03*
%TD*%
D14*
%TO.C,T8*%
X120360000Y-100340000D03*
%TD*%
D33*
%TO.C,C3*%
X172720200Y-122790000D03*
X174270200Y-122790000D03*
%TD*%
%TO.C,C31*%
X129440000Y-106450000D03*
X130990000Y-106450000D03*
%TD*%
D14*
%TO.C,T7*%
X118225000Y-87800000D03*
%TD*%
D42*
%TO.C,FID3*%
X199175200Y-130270000D03*
%TD*%
D40*
%TO.C,D9*%
X172825000Y-105475000D03*
X172825000Y-101475000D03*
%TD*%
D10*
%TO.C,R52*%
X112820200Y-117260000D03*
X111170200Y-117260000D03*
%TD*%
%TO.C,R21*%
X159650000Y-99975000D03*
X158000000Y-99975000D03*
%TD*%
D14*
%TO.C,T1*%
X114790000Y-117620000D03*
%TD*%
D22*
%TO.C,R112*%
X126730200Y-103375000D03*
X126730200Y-105025000D03*
%TD*%
%TO.C,R10*%
X177625000Y-98500000D03*
X177625000Y-100150000D03*
%TD*%
D53*
%TO.C,U8*%
X188835200Y-123980000D03*
D54*
X188835200Y-122280000D03*
X186835200Y-122280000D03*
X186835200Y-124180000D03*
%TD*%
D55*
%TO.C,U1*%
X154050200Y-117220000D03*
X154050200Y-116720000D03*
X154050200Y-116220000D03*
X154050200Y-115720000D03*
X154050200Y-115220000D03*
X154050200Y-114720000D03*
X154050200Y-114220000D03*
X154050200Y-113720000D03*
X154050200Y-113220000D03*
X154050200Y-112720000D03*
X154050200Y-112220000D03*
X154050200Y-111720000D03*
X154050200Y-111220000D03*
X154050200Y-110720000D03*
X154050200Y-110220000D03*
X154050200Y-109720000D03*
X154050200Y-109220000D03*
X154050200Y-108720000D03*
X154050200Y-108220000D03*
X154050200Y-107720000D03*
X154050200Y-107220000D03*
X154050200Y-106720000D03*
X154050200Y-106220000D03*
X154050200Y-105720000D03*
X154050200Y-105220000D03*
D56*
X152375200Y-103545000D03*
X151875200Y-103545000D03*
X151375200Y-103545000D03*
X150875200Y-103545000D03*
X150375200Y-103545000D03*
X149875200Y-103545000D03*
X149375200Y-103545000D03*
X148875200Y-103545000D03*
X148375200Y-103545000D03*
X147875200Y-103545000D03*
X147375200Y-103545000D03*
X146875200Y-103545000D03*
X146375200Y-103545000D03*
X145875200Y-103545000D03*
X145375200Y-103545000D03*
X144875200Y-103545000D03*
X144375200Y-103545000D03*
X143875200Y-103545000D03*
X143375200Y-103545000D03*
X142875200Y-103545000D03*
X142375200Y-103545000D03*
X141875200Y-103545000D03*
X141375200Y-103545000D03*
X140875200Y-103545000D03*
X140375200Y-103545000D03*
D55*
X138700200Y-105220000D03*
X138700200Y-105720000D03*
X138700200Y-106220000D03*
X138700200Y-106720000D03*
X138700200Y-107220000D03*
X138700200Y-107720000D03*
X138700200Y-108220000D03*
X138700200Y-108720000D03*
X138700200Y-109220000D03*
X138700200Y-109720000D03*
X138700200Y-110220000D03*
X138700200Y-110720000D03*
X138700200Y-111220000D03*
X138700200Y-111720000D03*
X138700200Y-112220000D03*
X138700200Y-112720000D03*
X138700200Y-113220000D03*
X138700200Y-113720000D03*
X138700200Y-114220000D03*
X138700200Y-114720000D03*
X138700200Y-115220000D03*
X138700200Y-115720000D03*
X138700200Y-116220000D03*
X138700200Y-116720000D03*
X138700200Y-117220000D03*
D56*
X140375200Y-118895000D03*
X140875200Y-118895000D03*
X141375200Y-118895000D03*
X141875200Y-118895000D03*
X142375200Y-118895000D03*
X142875200Y-118895000D03*
X143375200Y-118895000D03*
X143875200Y-118895000D03*
X144375200Y-118895000D03*
X144875200Y-118895000D03*
X145375200Y-118895000D03*
X145875200Y-118895000D03*
X146375200Y-118895000D03*
X146875200Y-118895000D03*
X147375200Y-118895000D03*
X147875200Y-118895000D03*
X148375200Y-118895000D03*
X148875200Y-118895000D03*
X149375200Y-118895000D03*
X149875200Y-118895000D03*
X150375200Y-118895000D03*
X150875200Y-118895000D03*
X151375200Y-118895000D03*
X151875200Y-118895000D03*
X152375200Y-118895000D03*
%TD*%
D16*
%TO.C,C18*%
X133275200Y-113560000D03*
X133275200Y-112010000D03*
%TD*%
D52*
%TO.C,C52*%
X174093888Y-114075000D03*
X174093888Y-117025000D03*
%TD*%
%TO.C,C33*%
X167556112Y-114075000D03*
X167556112Y-117025000D03*
%TD*%
D57*
%TO.C,C78*%
X162000000Y-104355000D03*
X162000000Y-110945000D03*
%TD*%
D39*
%TO.C,R36*%
X119815000Y-127890000D03*
X121465000Y-127890000D03*
%TD*%
D16*
%TO.C,C39*%
X156600000Y-101450000D03*
X156600000Y-99900000D03*
%TD*%
D42*
%TO.C,FID4*%
X111175200Y-130270000D03*
%TD*%
D39*
%TO.C,R59*%
X111170200Y-115660000D03*
X112820200Y-115660000D03*
%TD*%
D58*
%TO.C,U2*%
X129045200Y-107980000D03*
X129045200Y-108930000D03*
X129045200Y-109880000D03*
X131845200Y-109880000D03*
X131845200Y-108930000D03*
X131845200Y-107980000D03*
%TD*%
D42*
%TO.C,FID1*%
X111175200Y-82153000D03*
%TD*%
D52*
%TO.C,C30*%
X164287222Y-114075000D03*
X164287222Y-117025000D03*
%TD*%
D11*
%TO.C,C9*%
X112770200Y-120460000D03*
X111220200Y-120460000D03*
%TD*%
D31*
%TO.C,LED3*%
X118350000Y-125330000D03*
X116648200Y-125330000D03*
%TD*%
D16*
%TO.C,C32*%
X134785200Y-113560000D03*
X134785200Y-112010000D03*
%TD*%
D24*
%TO.C,R33*%
X136530000Y-119615000D03*
X136530000Y-117965000D03*
%TD*%
D29*
%TO.C,SW3*%
X164358900Y-131301100D03*
X171161100Y-131301100D03*
X171161100Y-128298900D03*
X164358900Y-128298900D03*
%TD*%
D36*
%TO.C,C88*%
X125525000Y-94875000D03*
X125525000Y-93325000D03*
%TD*%
M02*
