G04 #@! TF.GenerationSoftware,KiCad,Pcbnew,7.0.2*
G04 #@! TF.CreationDate,2023-08-14T15:49:25+08:00*
G04 #@! TF.ProjectId,HPM1500_DDR2_CORE_RevA,48504d31-3530-4305-9f44-4452325f434f,rev?*
G04 #@! TF.SameCoordinates,Original*
G04 #@! TF.FileFunction,Paste,Bot*
G04 #@! TF.FilePolarity,Positive*
%FSLAX46Y46*%
G04 Gerber Fmt 4.6, Leading zero omitted, Abs format (unit mm)*
G04 Created by KiCad (PCBNEW 7.0.2) date 2023-08-14 15:49:25*
%MOMM*%
%LPD*%
G01*
G04 APERTURE LIST*
G04 Aperture macros list*
%AMRoundRect*
0 Rectangle with rounded corners*
0 $1 Rounding radius*
0 $2 $3 $4 $5 $6 $7 $8 $9 X,Y pos of 4 corners*
0 Add a 4 corners polygon primitive as box body*
4,1,4,$2,$3,$4,$5,$6,$7,$8,$9,$2,$3,0*
0 Add four circle primitives for the rounded corners*
1,1,$1+$1,$2,$3*
1,1,$1+$1,$4,$5*
1,1,$1+$1,$6,$7*
1,1,$1+$1,$8,$9*
0 Add four rect primitives between the rounded corners*
20,1,$1+$1,$2,$3,$4,$5,0*
20,1,$1+$1,$4,$5,$6,$7,0*
20,1,$1+$1,$6,$7,$8,$9,0*
20,1,$1+$1,$8,$9,$2,$3,0*%
G04 Aperture macros list end*
%ADD10C,0.635000*%
%ADD11R,0.450000X2.000000*%
%ADD12RoundRect,0.200000X0.275000X-0.200000X0.275000X0.200000X-0.275000X0.200000X-0.275000X-0.200000X0*%
%ADD13R,1.400000X1.200000*%
%ADD14R,2.000000X0.450000*%
%ADD15RoundRect,0.135000X-0.185000X0.135000X-0.185000X-0.135000X0.185000X-0.135000X0.185000X0.135000X0*%
%ADD16RoundRect,0.050800X-0.650250X-0.900450X0.650250X-0.900450X0.650250X0.900450X-0.650250X0.900450X0*%
%ADD17RoundRect,0.135000X-0.135000X-0.185000X0.135000X-0.185000X0.135000X0.185000X-0.135000X0.185000X0*%
%ADD18O,1.143000X0.889000*%
%ADD19O,0.889000X1.143000*%
%ADD20RoundRect,0.250000X0.375000X1.075000X-0.375000X1.075000X-0.375000X-1.075000X0.375000X-1.075000X0*%
%ADD21R,1.016000X0.508000*%
%ADD22O,1.016000X0.508000*%
%ADD23RoundRect,0.250000X-0.450000X0.262500X-0.450000X-0.262500X0.450000X-0.262500X0.450000X0.262500X0*%
%ADD24RoundRect,0.135000X0.135000X0.185000X-0.135000X0.185000X-0.135000X-0.185000X0.135000X-0.185000X0*%
%ADD25R,1.230000X2.220000*%
%ADD26RoundRect,0.135000X0.185000X-0.135000X0.185000X0.135000X-0.185000X0.135000X-0.185000X-0.135000X0*%
G04 APERTURE END LIST*
D10*
X140595000Y-126355000D03*
X140595000Y-125339000D03*
X143742000Y-100490000D03*
X144758000Y-100490000D03*
D11*
X162095292Y-136769894D03*
X162095292Y-132370106D03*
X161295292Y-136769894D03*
X161295292Y-132370106D03*
X160495292Y-136769894D03*
X160495292Y-132370106D03*
X159695292Y-136769894D03*
X159695292Y-132370106D03*
X158895292Y-136769894D03*
X158895292Y-132370106D03*
X158095292Y-136769894D03*
X158095292Y-132370106D03*
X157295292Y-136769894D03*
X157295292Y-132370106D03*
X156495292Y-136769894D03*
X156495292Y-132370106D03*
X155695292Y-136769894D03*
X155695292Y-132370106D03*
X154895292Y-136769894D03*
X154895292Y-132370106D03*
X154095292Y-136769894D03*
X154095292Y-132370106D03*
X153295292Y-136769894D03*
X153295292Y-132370106D03*
X152495292Y-136769894D03*
X152495292Y-132370106D03*
X151695292Y-136769894D03*
X151695292Y-132370106D03*
X150895292Y-136769894D03*
X150895292Y-132370106D03*
X150095292Y-136769894D03*
X150095292Y-132370106D03*
X149295292Y-136769894D03*
X149295292Y-132370106D03*
X148495292Y-136769894D03*
X148495292Y-132370106D03*
X147695292Y-136769894D03*
X147695292Y-132370106D03*
X146895292Y-136769894D03*
X146895292Y-132370106D03*
X146095292Y-136769894D03*
X146095292Y-132370106D03*
X145295292Y-136769894D03*
X145295292Y-132370106D03*
X144495292Y-136769894D03*
X144495292Y-132370106D03*
X143695292Y-136769894D03*
X143695292Y-132370106D03*
X142895292Y-136769894D03*
X142895292Y-132370106D03*
X142095292Y-136769894D03*
X142095292Y-132370106D03*
X141295264Y-136769894D03*
X141295264Y-132370106D03*
X140495252Y-136769894D03*
X140495252Y-132370106D03*
X139695240Y-136769894D03*
X139695240Y-132370106D03*
X138895228Y-136769894D03*
X138895228Y-132370106D03*
X138095216Y-136769894D03*
X138095216Y-132370106D03*
X137295204Y-136769894D03*
X137295204Y-132370106D03*
X136495192Y-136769894D03*
X136495192Y-132370106D03*
X135695180Y-136769894D03*
X135695180Y-132370106D03*
X134895168Y-136769894D03*
X134895168Y-132370106D03*
X134095156Y-136769894D03*
X134095156Y-132370106D03*
X133295144Y-136769894D03*
X133295144Y-132370106D03*
X132495132Y-136769894D03*
X132495132Y-132370106D03*
X131695120Y-136769894D03*
X131695120Y-132370106D03*
X130895108Y-136769894D03*
X130895108Y-132370106D03*
X130095096Y-136769894D03*
X130095096Y-132370106D03*
X129295084Y-136769894D03*
X129295084Y-132370106D03*
X128495072Y-136769894D03*
X128495072Y-132370106D03*
X127695060Y-136769894D03*
X127695060Y-132370106D03*
X126895048Y-136769894D03*
X126895048Y-132370106D03*
X126095036Y-136769894D03*
X126095036Y-132370106D03*
X125295024Y-136769894D03*
X125295024Y-132370106D03*
X124495012Y-136769894D03*
X124495012Y-132370106D03*
X123695000Y-136769894D03*
X123695000Y-132370106D03*
X122894988Y-136769894D03*
X122894988Y-132370106D03*
D12*
X185122500Y-117769200D03*
X185122500Y-116119200D03*
D10*
X140860000Y-117382000D03*
X140860000Y-118398000D03*
X145735000Y-109437000D03*
X145735000Y-110453000D03*
X149093000Y-101795000D03*
X148077000Y-101795000D03*
D13*
X133885000Y-93396000D03*
X136085000Y-93396000D03*
X136085000Y-94996000D03*
X133885000Y-94996000D03*
D10*
X127885000Y-110455000D03*
X127885000Y-111471000D03*
X146248000Y-114645000D03*
X145232000Y-114645000D03*
X172503000Y-107670000D03*
X171487000Y-107670000D03*
X129035000Y-110455000D03*
X129035000Y-111471000D03*
D14*
X111020106Y-119242792D03*
X115419894Y-119242792D03*
X111020106Y-118442792D03*
X115419894Y-118442792D03*
X111020106Y-117642792D03*
X115419894Y-117642792D03*
X111020106Y-116842792D03*
X115419894Y-116842792D03*
X111020106Y-116042792D03*
X115419894Y-116042792D03*
X111020106Y-115242792D03*
X115419894Y-115242792D03*
X111020106Y-114442792D03*
X115419894Y-114442792D03*
X111020106Y-113642792D03*
X115419894Y-113642792D03*
X111020106Y-112842792D03*
X115419894Y-112842792D03*
X111020106Y-112042792D03*
X115419894Y-112042792D03*
X111020106Y-111242792D03*
X115419894Y-111242792D03*
X111020106Y-110442792D03*
X115419894Y-110442792D03*
X111020106Y-109642792D03*
X115419894Y-109642792D03*
X111020106Y-108842792D03*
X115419894Y-108842792D03*
X111020106Y-108042792D03*
X115419894Y-108042792D03*
X111020106Y-107242792D03*
X115419894Y-107242792D03*
X111020106Y-106442792D03*
X115419894Y-106442792D03*
X111020106Y-105642792D03*
X115419894Y-105642792D03*
X111020106Y-104842792D03*
X115419894Y-104842792D03*
X111020106Y-104042792D03*
X115419894Y-104042792D03*
X111020106Y-103242792D03*
X115419894Y-103242792D03*
X111020106Y-102442792D03*
X115419894Y-102442792D03*
X111020106Y-101642792D03*
X115419894Y-101642792D03*
X111020106Y-100842792D03*
X115419894Y-100842792D03*
X111020106Y-100042792D03*
X115419894Y-100042792D03*
X111020106Y-99242792D03*
X115419894Y-99242792D03*
X111020106Y-98442764D03*
X115419894Y-98442764D03*
X111020106Y-97642752D03*
X115419894Y-97642752D03*
X111020106Y-96842740D03*
X115419894Y-96842740D03*
X111020106Y-96042728D03*
X115419894Y-96042728D03*
X111020106Y-95242716D03*
X115419894Y-95242716D03*
X111020106Y-94442704D03*
X115419894Y-94442704D03*
X111020106Y-93642692D03*
X115419894Y-93642692D03*
X111020106Y-92842680D03*
X115419894Y-92842680D03*
X111020106Y-92042668D03*
X115419894Y-92042668D03*
X111020106Y-91242656D03*
X115419894Y-91242656D03*
X111020106Y-90442644D03*
X115419894Y-90442644D03*
X111020106Y-89642632D03*
X115419894Y-89642632D03*
X111020106Y-88842620D03*
X115419894Y-88842620D03*
X111020106Y-88042608D03*
X115419894Y-88042608D03*
X111020106Y-87242596D03*
X115419894Y-87242596D03*
X111020106Y-86442584D03*
X115419894Y-86442584D03*
X111020106Y-85642572D03*
X115419894Y-85642572D03*
X111020106Y-84842560D03*
X115419894Y-84842560D03*
X111020106Y-84042548D03*
X115419894Y-84042548D03*
X111020106Y-83242536D03*
X115419894Y-83242536D03*
X111020106Y-82442524D03*
X115419894Y-82442524D03*
X111020106Y-81642512D03*
X115419894Y-81642512D03*
X111020106Y-80842500D03*
X115419894Y-80842500D03*
X111020106Y-80042488D03*
X115419894Y-80042488D03*
D10*
X142353000Y-101265000D03*
X141337000Y-101265000D03*
X148975000Y-105440000D03*
X148975000Y-104424000D03*
X113053000Y-74420000D03*
X112037000Y-74420000D03*
D12*
X186485000Y-117769200D03*
X186485000Y-116119200D03*
D10*
X116457000Y-71910000D03*
X117473000Y-71910000D03*
X147925000Y-109417000D03*
X147925000Y-110433000D03*
X139860000Y-117382000D03*
X139860000Y-118398000D03*
D15*
X145416900Y-127165299D03*
X145416900Y-128185299D03*
D16*
X143337000Y-113020000D03*
X146253000Y-113020000D03*
D10*
X162765000Y-98868000D03*
X162765000Y-97852000D03*
X133009000Y-107105000D03*
X131993000Y-107105000D03*
X142127000Y-98500000D03*
X143143000Y-98500000D03*
X169480900Y-127864297D03*
X168464900Y-127864297D03*
X116003000Y-73800000D03*
X114987000Y-73800000D03*
X140135000Y-111847000D03*
X140135000Y-112863000D03*
X138463000Y-105190000D03*
X137447000Y-105190000D03*
X143843000Y-114645000D03*
X142827000Y-114645000D03*
D17*
X134245000Y-92210000D03*
X135265000Y-92210000D03*
D10*
X150065000Y-95338000D03*
X150065000Y-94322000D03*
D18*
X137495000Y-111770000D03*
X137495000Y-113294000D03*
D15*
X128475000Y-89060000D03*
X128475000Y-90080000D03*
D10*
X148175000Y-95368000D03*
X148175000Y-94352000D03*
D17*
X171545000Y-136220000D03*
X172565000Y-136220000D03*
D10*
X146803000Y-101295000D03*
X145787000Y-101295000D03*
X149633000Y-100175000D03*
X148617000Y-100175000D03*
X142908000Y-100200000D03*
X141892000Y-100200000D03*
X111725000Y-70522000D03*
X111725000Y-71538000D03*
X138353000Y-103985000D03*
X137337000Y-103985000D03*
X146323000Y-98765000D03*
X145307000Y-98765000D03*
D15*
X174364900Y-126712297D03*
X174364900Y-127732297D03*
D17*
X135175000Y-96310000D03*
X136195000Y-96310000D03*
D10*
X146823000Y-103885000D03*
X145807000Y-103885000D03*
X151045000Y-95358000D03*
X151045000Y-94342000D03*
D11*
X162095292Y-66919894D03*
X162095292Y-62520106D03*
X161295292Y-66919894D03*
X161295292Y-62520106D03*
X160495292Y-66919894D03*
X160495292Y-62520106D03*
X159695292Y-66919894D03*
X159695292Y-62520106D03*
X158895292Y-66919894D03*
X158895292Y-62520106D03*
X158095292Y-66919894D03*
X158095292Y-62520106D03*
X157295292Y-66919894D03*
X157295292Y-62520106D03*
X156495292Y-66919894D03*
X156495292Y-62520106D03*
X155695292Y-66919894D03*
X155695292Y-62520106D03*
X154895292Y-66919894D03*
X154895292Y-62520106D03*
X154095292Y-66919894D03*
X154095292Y-62520106D03*
X153295292Y-66919894D03*
X153295292Y-62520106D03*
X152495292Y-66919894D03*
X152495292Y-62520106D03*
X151695292Y-66919894D03*
X151695292Y-62520106D03*
X150895292Y-66919894D03*
X150895292Y-62520106D03*
X150095292Y-66919894D03*
X150095292Y-62520106D03*
X149295292Y-66919894D03*
X149295292Y-62520106D03*
X148495292Y-66919894D03*
X148495292Y-62520106D03*
X147695292Y-66919894D03*
X147695292Y-62520106D03*
X146895292Y-66919894D03*
X146895292Y-62520106D03*
X146095292Y-66919894D03*
X146095292Y-62520106D03*
X145295292Y-66919894D03*
X145295292Y-62520106D03*
X144495292Y-66919894D03*
X144495292Y-62520106D03*
X143695292Y-66919894D03*
X143695292Y-62520106D03*
X142895292Y-66919894D03*
X142895292Y-62520106D03*
X142095292Y-66919894D03*
X142095292Y-62520106D03*
X141295264Y-66919894D03*
X141295264Y-62520106D03*
X140495252Y-66919894D03*
X140495252Y-62520106D03*
X139695240Y-66919894D03*
X139695240Y-62520106D03*
X138895228Y-66919894D03*
X138895228Y-62520106D03*
X138095216Y-66919894D03*
X138095216Y-62520106D03*
X137295204Y-66919894D03*
X137295204Y-62520106D03*
X136495192Y-66919894D03*
X136495192Y-62520106D03*
X135695180Y-66919894D03*
X135695180Y-62520106D03*
X134895168Y-66919894D03*
X134895168Y-62520106D03*
X134095156Y-66919894D03*
X134095156Y-62520106D03*
X133295144Y-66919894D03*
X133295144Y-62520106D03*
X132495132Y-66919894D03*
X132495132Y-62520106D03*
X131695120Y-66919894D03*
X131695120Y-62520106D03*
X130895108Y-66919894D03*
X130895108Y-62520106D03*
X130095096Y-66919894D03*
X130095096Y-62520106D03*
X129295084Y-66919894D03*
X129295084Y-62520106D03*
X128495072Y-66919894D03*
X128495072Y-62520106D03*
X127695060Y-66919894D03*
X127695060Y-62520106D03*
X126895048Y-66919894D03*
X126895048Y-62520106D03*
X126095036Y-66919894D03*
X126095036Y-62520106D03*
X125295024Y-66919894D03*
X125295024Y-62520106D03*
X124495012Y-66919894D03*
X124495012Y-62520106D03*
X123695000Y-66919894D03*
X123695000Y-62520106D03*
X122894988Y-66919894D03*
X122894988Y-62520106D03*
D10*
X184400000Y-85567000D03*
X184400000Y-86583000D03*
X175635000Y-124868000D03*
X175635000Y-123852000D03*
X170723000Y-104340000D03*
X169707000Y-104340000D03*
X149973000Y-106380000D03*
X148957000Y-106380000D03*
X144925000Y-109442000D03*
X144925000Y-110458000D03*
X139627000Y-99525000D03*
X140643000Y-99525000D03*
D15*
X142045000Y-69935000D03*
X142045000Y-70955000D03*
D10*
X143762000Y-102170000D03*
X144778000Y-102170000D03*
X145813000Y-99635000D03*
X144797000Y-99635000D03*
X138483000Y-110715000D03*
X137467000Y-110715000D03*
X147025000Y-95348000D03*
X147025000Y-94332000D03*
D19*
X166485000Y-123510000D03*
X164961000Y-123510000D03*
D10*
X155513000Y-93660000D03*
X154497000Y-93660000D03*
X113707000Y-67790000D03*
X114723000Y-67790000D03*
D12*
X181035000Y-117769200D03*
X181035000Y-116119200D03*
D10*
X145265000Y-95368000D03*
X145265000Y-94352000D03*
X143742000Y-103020000D03*
X144758000Y-103020000D03*
X194407000Y-116414000D03*
X195423000Y-116414000D03*
D18*
X137260000Y-117390000D03*
X137260000Y-118914000D03*
D15*
X129365000Y-89100000D03*
X129365000Y-90120000D03*
D10*
X177823000Y-135730000D03*
X176807000Y-135730000D03*
X137047000Y-96300000D03*
X138063000Y-96300000D03*
X143792000Y-103840000D03*
X144808000Y-103840000D03*
D18*
X130135000Y-109317000D03*
X130135000Y-107793000D03*
D20*
X134985000Y-109055000D03*
X132185000Y-109055000D03*
D12*
X183760000Y-117769200D03*
X183760000Y-116119200D03*
D10*
X152185000Y-97663000D03*
X152185000Y-96647000D03*
X162557000Y-126540000D03*
X163573000Y-126540000D03*
D19*
X168023000Y-123560000D03*
X169547000Y-123560000D03*
D10*
X151483000Y-111620000D03*
X150467000Y-111620000D03*
X113063000Y-73580000D03*
X112047000Y-73580000D03*
D17*
X133883000Y-107105000D03*
X134903000Y-107105000D03*
X170512900Y-127864297D03*
X171532900Y-127864297D03*
D10*
X141555000Y-126355000D03*
X141555000Y-125339000D03*
D21*
X170241000Y-126759996D03*
D22*
X170241000Y-125809986D03*
X170241000Y-124860000D03*
X173035000Y-124860000D03*
X173035000Y-126759996D03*
D10*
X194707000Y-107614000D03*
X195723000Y-107614000D03*
X147933000Y-105825000D03*
X146917000Y-105825000D03*
D21*
X143513900Y-127285301D03*
D22*
X143513900Y-128235311D03*
X143513900Y-129185297D03*
X140719900Y-129185297D03*
X140719900Y-127285301D03*
D10*
X146858000Y-100485000D03*
X145842000Y-100485000D03*
X146803000Y-103015000D03*
X145787000Y-103015000D03*
X174414900Y-124872297D03*
X174414900Y-123856297D03*
X148215000Y-103950000D03*
X148215000Y-104966000D03*
D18*
X127325000Y-109317000D03*
X127325000Y-107793000D03*
D10*
X143185000Y-95398000D03*
X143185000Y-94382000D03*
X138335000Y-102030000D03*
X137319000Y-102030000D03*
X146803000Y-102115000D03*
X145787000Y-102115000D03*
D23*
X125535000Y-107392500D03*
X125535000Y-109217500D03*
D10*
X143975000Y-109422000D03*
X143975000Y-110438000D03*
D24*
X163575000Y-127630000D03*
X162555000Y-127630000D03*
D10*
X111705000Y-69658000D03*
X111705000Y-68642000D03*
D18*
X138610000Y-117390000D03*
X138610000Y-118914000D03*
D10*
X143125000Y-109422000D03*
X143125000Y-110438000D03*
D12*
X182397500Y-117769200D03*
X182397500Y-116119200D03*
D25*
X168399900Y-125971297D03*
X166229899Y-125971297D03*
D10*
X149175000Y-109442000D03*
X149175000Y-110458000D03*
D17*
X176815000Y-136620000D03*
X177835000Y-136620000D03*
D10*
X139417000Y-110700000D03*
X140433000Y-110700000D03*
X142300000Y-95383000D03*
X142300000Y-94367000D03*
D25*
X139670000Y-115455000D03*
X137499999Y-115455000D03*
D10*
X130185000Y-110455000D03*
X130185000Y-111471000D03*
X162495000Y-108578000D03*
X162495000Y-107562000D03*
D18*
X128735000Y-109317000D03*
X128735000Y-107793000D03*
D10*
X195723000Y-110114000D03*
X194707000Y-110114000D03*
D26*
X176635000Y-127719996D03*
X176635000Y-126699996D03*
D10*
X151473000Y-110495000D03*
X150457000Y-110495000D03*
X176973400Y-124864200D03*
X176973400Y-123848200D03*
X172533000Y-137090000D03*
X171517000Y-137090000D03*
D18*
X138935000Y-111755000D03*
X138935000Y-113279000D03*
D10*
X138403000Y-102985000D03*
X137387000Y-102985000D03*
D24*
X137175000Y-92220000D03*
X136155000Y-92220000D03*
D10*
X195723000Y-112647333D03*
X194707000Y-112647333D03*
X144536900Y-127167299D03*
X144536900Y-128183299D03*
X114977000Y-72970000D03*
X115993000Y-72970000D03*
X143762000Y-101320000D03*
X144778000Y-101320000D03*
X155045000Y-94595000D03*
X154029000Y-94595000D03*
X173015000Y-98358000D03*
X173015000Y-97342000D03*
X135287000Y-91270000D03*
X136303000Y-91270000D03*
X147312000Y-114645000D03*
X148328000Y-114645000D03*
X139523000Y-106330000D03*
X138507000Y-106330000D03*
X164935000Y-126068000D03*
X164935000Y-125052000D03*
X175535000Y-127750297D03*
X175535000Y-126734297D03*
M02*
