M48
; DRILL file {KiCad 7.0.2} date Mon Aug 14 15:49:42 2023
; FORMAT={-:-/ absolute / metric / decimal}
; #@! TF.CreationDate,2023-08-14T15:49:42+08:00
; #@! TF.GenerationSoftware,Kicad,Pcbnew,7.0.2
; #@! TF.FileFunction,Plated,1,4,PTH
FMAT,2
METRIC
; #@! TA.AperFunction,Plated,PTH,ViaDrill
T1C0.254
; #@! TA.AperFunction,Plated,PTH,ViaDrill
T2C0.300
; #@! TA.AperFunction,Plated,PTH,ComponentDrill
T3C0.700
; #@! TA.AperFunction,Plated,PTH,ComponentDrill
T4C1.000
; #@! TA.AperFunction,Plated,PTH,ComponentDrill
T5C1.100
; #@! TA.AperFunction,Plated,PTH,ComponentDrill
T6C1.390
; #@! TA.AperFunction,Plated,PTH,ComponentDrill
T7C3.500
%
G90
G05
T1
X108.241Y-66.235
X108.241Y-68.521
X108.241Y-73.093
X108.241Y-75.379
X108.241Y-77.665
X108.241Y-79.951
X108.285Y-82.511
X108.285Y-84.797
X108.285Y-87.083
X108.285Y-89.369
X108.285Y-91.655
X108.285Y-93.941
X108.285Y-96.227
X108.285Y-99.111
X108.285Y-101.397
X108.285Y-103.683
X108.285Y-105.969
X108.285Y-108.255
X108.285Y-110.541
X108.285Y-112.827
X108.535Y-70.73
X108.585Y-115.455
X109.54Y-84.842
X109.67Y-101.42
X109.715Y-82.44
X109.715Y-87.24
X109.715Y-89.64
X109.715Y-92.04
X109.715Y-94.44
X109.715Y-96.84
X109.715Y-99.24
X109.715Y-102.44
X109.715Y-107.24
X109.715Y-109.64
X109.715Y-112.04
X109.731Y-83.338
X109.731Y-83.947
X109.731Y-85.738
X109.731Y-86.347
X109.731Y-88.138
X109.731Y-88.747
X109.731Y-100.138
X109.731Y-100.748
X109.731Y-103.338
X109.731Y-103.948
X109.731Y-105.738
X109.731Y-106.348
X110.105Y-75.369
X110.105Y-77.655
X110.955Y-71.101
X110.98Y-70.576
X111.005Y-69.526
X111.005Y-70.051
X111.825Y-120.425
X112.125Y-67.891
X112.295Y-80.045
X112.309Y-80.938
X112.309Y-81.547
X112.309Y-90.538
X112.309Y-91.147
X112.309Y-92.938
X112.309Y-93.547
X112.309Y-95.338
X112.309Y-95.948
X112.309Y-97.738
X112.309Y-98.348
X112.309Y-108.138
X112.309Y-108.748
X112.309Y-110.538
X112.309Y-111.148
X112.309Y-112.938
X112.309Y-113.548
X112.309Y-115.338
X112.309Y-115.948
X112.309Y-117.738
X112.309Y-118.348
X112.325Y-119.246
X112.559Y-123.945
X112.745Y-102.595
X112.795Y-71.055
X112.925Y-103.845
X112.975Y-67.71
X113.055Y-99.305
X113.125Y-70.025
X113.265Y-94.885
X113.275Y-87.375
X113.285Y-89.635
X113.335Y-84.865
X113.375Y-106.855
X113.685Y-67.09
X113.815Y-73.515
X113.905Y-75.86
X113.945Y-71.511
X113.957Y-64.632
X114.067Y-58.515
X114.075Y-109.635
X114.093Y-80.938
X114.093Y-81.547
X114.105Y-70.035
X114.115Y-102.44
X114.115Y-112.04
X114.115Y-119.24
X114.131Y-90.538
X114.131Y-91.147
X114.131Y-92.938
X114.131Y-93.547
X114.131Y-95.338
X114.131Y-95.948
X114.131Y-97.738
X114.131Y-98.348
X114.131Y-100.138
X114.131Y-100.748
X114.131Y-103.338
X114.131Y-103.948
X114.131Y-105.738
X114.131Y-106.348
X114.131Y-108.138
X114.131Y-108.748
X114.131Y-110.538
X114.131Y-111.148
X114.131Y-112.938
X114.131Y-113.548
X114.131Y-115.338
X114.131Y-115.948
X114.131Y-117.738
X114.131Y-118.348
X114.145Y-80.04
X114.385Y-71.066
X114.385Y-73.525
X114.795Y-72.448
X114.845Y-123.945
X114.985Y-65.58
X115.099Y-77.665
X115.185Y-136.255
X115.185Y-138.205
X115.435Y-72.36
X115.445Y-67.855
X115.785Y-136.655
X115.785Y-137.905
X115.885Y-67.035
X116.095Y-67.655
X116.353Y-58.515
X116.385Y-70.541
X116.415Y-71.291
X116.709Y-83.338
X116.709Y-83.947
X116.709Y-85.738
X116.709Y-86.347
X116.925Y-65.985
X116.955Y-116.875
X117.085Y-121.805
X117.125Y-98.715
X117.155Y-93.125
X117.344Y-88.138
X117.344Y-88.747
X117.365Y-94.545
X117.385Y-77.665
X117.545Y-102.335
X117.605Y-87.155
X117.655Y-96.265
X118.135Y-134.855
X118.195Y-123.345
X118.295Y-118.085
X118.306Y-66.884
X118.385Y-69.075
X118.985Y-87.655
X119.035Y-112.605
X119.045Y-114.295
X119.185Y-68.145
X119.465Y-71.235
X119.485Y-76.455
X119.675Y-77.715
X119.715Y-70.275
X119.745Y-96.305
X119.935Y-86.685
X120.065Y-118.111
X120.11Y-75.093
X120.115Y-97.605
X120.365Y-67.725
X120.465Y-133.005
X120.555Y-135.635
X120.905Y-60.525
X121.505Y-97.025
X121.615Y-85.625
X121.675Y-88.045
X121.685Y-98.265
X121.755Y-81.675
X121.795Y-75.485
X121.855Y-77.925
X122.195Y-92.955
X122.205Y-62.545
X122.45Y-69.476
X122.615Y-102.235
X122.705Y-82.995
X123.06Y-69.476
X123.191Y-60.525
X123.328Y-127.505
X123.335Y-128.755
X123.395Y-84.87
X123.545Y-78.825
X123.555Y-75.56
X123.813Y-63.873
X123.905Y-88.135
X123.935Y-90.335
X124.565Y-99.525
X124.71Y-129.255
X124.725Y-63.885
X124.845Y-84.885
X124.985Y-77.355
X125.125Y-108.505
X125.275Y-94.995
X125.335Y-80.655
X125.413Y-63.873
X125.413Y-68.273
X125.477Y-60.525
X125.565Y-108.505
X125.645Y-134.185
X125.885Y-93.215
X125.955Y-102.885
X125.972Y-63.873
X125.972Y-68.273
X126.025Y-86.265
X126.025Y-108.505
X126.035Y-129.195
X126.095Y-65.635
X126.243Y-131.1
X126.243Y-135.5
X126.615Y-107.995
X126.765Y-94.985
X126.77Y-131.1
X126.77Y-135.5
X126.855Y-76.635
X126.895Y-70.325
X126.895Y-96.305
X126.965Y-73.615
X127.013Y-63.873
X127.013Y-68.273
X127.017Y-78.667
X127.405Y-87.465
X127.525Y-97.025
X127.572Y-63.873
X127.572Y-68.273
X127.645Y-134.195
X127.705Y-83.085
X127.895Y-89.06
X128.065Y-107.995
X128.255Y-64.945
X128.331Y-124.757
X128.365Y-88.07
X128.395Y-122.755
X128.415Y-121.075
X128.445Y-73.535
X128.455Y-69.745
X128.465Y-71.845
X128.485Y-111.455
X128.493Y-63.795
X128.525Y-68.315
X128.643Y-131.1
X128.643Y-135.5
X128.675Y-117.965
X129.015Y-80.575
X129.17Y-131.1
X129.17Y-135.5
X129.413Y-63.873
X129.413Y-68.273
X129.425Y-84.785
X129.465Y-107.995
X129.585Y-111.455
X129.735Y-114.005
X129.972Y-63.873
X129.972Y-68.273
X129.975Y-127.585
X130.145Y-134.205
X130.245Y-129.535
X130.515Y-65.205
X130.921Y-60.525
X131.013Y-63.873
X131.025Y-126.055
X131.043Y-131.1
X131.043Y-135.5
X131.165Y-86.515
X131.465Y-82.905
X131.545Y-96.625
X131.57Y-131.1
X131.57Y-135.5
X131.572Y-63.873
X131.665Y-125.515
X131.835Y-77.255
X131.885Y-74.655
X132.025Y-127.715
X132.215Y-93.06
X132.485Y-121.805
X132.485Y-123.455
X132.493Y-63.795
X132.613Y-68.273
X132.625Y-118.85
X132.665Y-68.955
X132.665Y-93.35
X132.675Y-120.685
X132.675Y-134.225
X132.865Y-64.735
X133.172Y-68.273
X133.207Y-60.525
X133.315Y-63.805
X133.425Y-78.745
X133.443Y-131.1
X133.443Y-135.5
X133.495Y-84.925
X133.97Y-131.1
X133.97Y-135.5
X134.213Y-63.873
X134.213Y-68.273
X134.245Y-77.465
X134.455Y-75.625
X134.485Y-119.805
X134.625Y-65.285
X134.772Y-63.873
X134.772Y-68.273
X134.785Y-118.365
X134.815Y-130.065
X134.835Y-117.525
X134.895Y-97.845
X134.9Y-94.25
X135.493Y-60.525
X135.585Y-124.165
X135.635Y-120.305
X135.785Y-81.135
X135.785Y-134.155
X135.813Y-63.873
X135.813Y-68.273
X135.835Y-108.205
X135.843Y-131.1
X135.843Y-135.5
X135.845Y-108.682
X135.845Y-109.158
X135.845Y-109.635
X136.315Y-127.335
X136.335Y-95.82
X136.37Y-131.1
X136.37Y-135.5
X136.372Y-63.873
X136.372Y-68.273
X136.385Y-74.155
X136.435Y-65.105
X136.435Y-118.425
X136.435Y-118.905
X136.475Y-99.105
X136.705Y-102.445
X136.755Y-105.825
X136.835Y-72.655
X136.895Y-69.445
X137.025Y-93.4
X137.045Y-76.985
X137.11Y-95.175
X137.24Y-109.755
X137.285Y-116.755
X137.413Y-63.873
X137.413Y-68.273
X137.515Y-122.295
X137.565Y-118.445
X137.565Y-130.125
X137.635Y-82.835
X137.779Y-60.525
X137.805Y-64.535
X137.81Y-108.1
X137.825Y-125.905
X137.845Y-110.365
X137.972Y-63.873
X137.972Y-68.273
X138.185Y-112.715
X138.243Y-135.5
X138.315Y-89.61
X138.335Y-74.105
X138.335Y-134.235
X138.38Y-109.81
X138.415Y-76.065
X138.645Y-63.885
X138.655Y-125.305
X138.77Y-135.5
X138.8Y-70.3
X138.835Y-141.205
X138.845Y-69.145
X138.935Y-112.705
X138.95Y-96.7
X138.95Y-97.84
X138.95Y-98.98
X138.95Y-100.12
X138.95Y-101.26
X138.95Y-103.54
X138.95Y-104.68
X138.95Y-105.82
X138.95Y-106.96
X138.95Y-110.38
X138.96Y-108.1
X139.35Y-70.325
X139.46Y-114.14
X139.52Y-97.27
X139.52Y-98.41
X139.52Y-100.69
X139.52Y-101.83
X139.52Y-104.11
X139.52Y-105.25
X139.52Y-107.53
X139.52Y-109.81
X139.545Y-102.97
X139.595Y-84.805
X139.635Y-112.705
X139.813Y-63.873
X139.843Y-131.1
X139.843Y-135.5
X139.845Y-125.305
X139.91Y-114.14
X139.935Y-109.255
X140.065Y-60.525
X140.09Y-97.84
X140.09Y-98.98
X140.09Y-100.12
X140.09Y-101.26
X140.09Y-102.4
X140.09Y-103.54
X140.09Y-105.82
X140.09Y-106.96
X140.115Y-123.645
X140.245Y-108.1
X140.25Y-92.45
X140.37Y-114.145
X140.37Y-131.1
X140.37Y-135.5
X140.372Y-63.873
X140.485Y-141.105
X140.66Y-96.13
X140.66Y-97.27
X140.66Y-98.41
X140.66Y-100.69
X140.66Y-101.83
X140.66Y-102.97
X140.66Y-104.11
X140.66Y-105.25
X140.66Y-106.39
X140.66Y-107.53
X140.75Y-128.231
X140.845Y-69.145
X140.845Y-71.295
X141.115Y-86.765
X141.19Y-65.495
X141.23Y-98.98
X141.23Y-100.12
X141.23Y-103.54
X141.23Y-104.68
X141.245Y-105.81
X141.295Y-111.46
X141.315Y-111.0
X141.335Y-116.005
X141.385Y-72.705
X141.413Y-63.873
X141.413Y-68.273
X141.535Y-112.03
X141.585Y-122.155
X141.62Y-115.42
X141.625Y-112.85
X141.735Y-114.655
X141.745Y-65.495
X141.78Y-110.77
X141.8Y-96.13
X141.8Y-97.27
X141.8Y-99.55
X141.8Y-100.69
X141.8Y-101.83
X141.818Y-93.925
X141.972Y-63.873
X141.972Y-68.273
X142.125Y-134.205
X142.235Y-64.68
X142.243Y-135.5
X142.243Y-131.1
X142.335Y-83.785
X142.351Y-60.525
X142.37Y-96.7
X142.37Y-97.84
X142.37Y-98.98
X142.37Y-102.4
X142.37Y-103.54
X142.37Y-104.68
X142.37Y-105.82
X142.37Y-106.96
X142.485Y-80.105
X142.685Y-82.115
X142.77Y-135.5
X142.77Y-131.1
X142.94Y-96.13
X142.94Y-97.27
X142.94Y-100.69
X142.94Y-101.83
X142.94Y-102.97
X142.94Y-106.39
X142.94Y-108.67
X143.135Y-74.455
X143.135Y-123.055
X143.205Y-63.835
X143.285Y-122.405
X143.51Y-96.7
X143.51Y-97.84
X143.51Y-98.98
X143.51Y-104.68
X143.523Y-107.925
X143.813Y-63.873
X143.813Y-68.273
X143.905Y-70.175
X144.08Y-96.13
X144.08Y-97.27
X144.08Y-108.67
X144.089Y-107.484
X144.315Y-70.625
X144.315Y-71.205
X144.372Y-63.873
X144.372Y-68.273
X144.385Y-121.605
X144.637Y-60.525
X144.643Y-131.1
X144.643Y-135.5
X144.65Y-98.98
X144.65Y-96.7
X144.65Y-97.84
X144.65Y-106.96
X144.65Y-108.1
X144.725Y-112.275
X145.145Y-65.245
X145.17Y-131.1
X145.17Y-135.5
X145.22Y-96.13
X145.22Y-97.27
X145.22Y-100.69
X145.22Y-101.83
X145.22Y-106.39
X145.22Y-108.67
X145.22Y-102.97
X145.225Y-111.025
X145.233Y-112.275
X145.235Y-114.055
X145.275Y-103.925
X145.285Y-76.545
X145.3Y-92.025
X145.413Y-63.873
X145.445Y-125.895
X145.615Y-130.065
X145.695Y-65.245
X145.79Y-96.7
X145.79Y-105.82
X145.79Y-106.96
X145.79Y-108.1
X145.795Y-97.825
X145.885Y-125.315
X145.972Y-63.873
X145.995Y-120.105
X146.176Y-68.655
X146.255Y-134.185
X146.327Y-127.075
X146.36Y-96.13
X146.36Y-97.27
X146.36Y-99.55
X146.36Y-107.53
X146.36Y-108.67
X146.905Y-63.935
X146.93Y-96.7
X146.93Y-97.84
X146.93Y-106.96
X146.93Y-108.1
X147.043Y-131.1
X147.043Y-135.5
X147.355Y-101.83
X147.5Y-96.13
X147.5Y-97.27
X147.5Y-99.55
X147.5Y-102.97
X147.5Y-105.25
X147.5Y-106.39
X147.5Y-107.53
X147.5Y-108.67
X147.505Y-104.11
X147.57Y-131.1
X147.57Y-135.5
X147.79Y-69.647
X147.795Y-65.225
X147.813Y-63.873
X148.07Y-96.7
X148.07Y-97.84
X148.07Y-106.96
X148.07Y-108.1
X148.125Y-126.045
X148.215Y-101.235
X148.245Y-102.405
X148.255Y-124.095
X148.365Y-128.845
X148.372Y-63.873
X148.4Y-69.647
X148.545Y-134.175
X148.555Y-70.625
X148.605Y-100.675
X148.64Y-93.85
X148.64Y-96.13
X148.64Y-97.27
X148.64Y-98.41
X148.64Y-99.55
X148.64Y-107.53
X148.64Y-108.67
X148.835Y-111.735
X148.957Y-113.082
X148.975Y-114.05
X148.975Y-125.255
X149.21Y-96.7
X149.21Y-103.54
X149.21Y-108.1
X149.413Y-63.873
X149.413Y-68.273
X149.435Y-101.26
X149.443Y-131.1
X149.443Y-135.5
X149.675Y-105.255
X149.721Y-60.525
X149.78Y-96.13
X149.78Y-97.27
X149.78Y-98.41
X149.78Y-99.55
X149.78Y-100.69
X149.78Y-101.83
X149.78Y-102.97
X149.78Y-108.67
X149.785Y-104.1
X149.805Y-71.795
X149.805Y-75.035
X149.815Y-82.835
X149.838Y-78.93
X149.97Y-131.1
X149.97Y-135.5
X149.972Y-63.873
X149.972Y-68.273
X150.165Y-98.98
X150.35Y-96.7
X150.35Y-97.84
X150.35Y-100.12
X150.35Y-101.26
X150.35Y-102.4
X150.35Y-103.54
X150.35Y-104.68
X150.35Y-105.82
X150.35Y-106.96
X150.453Y-127.086
X150.535Y-124.255
X150.555Y-123.355
X150.585Y-122.555
X150.605Y-125.655
X150.775Y-98.41
X150.865Y-64.705
X150.893Y-63.795
X150.92Y-96.13
X150.92Y-97.27
X150.92Y-99.55
X150.92Y-100.69
X150.92Y-101.83
X150.92Y-102.97
X150.92Y-104.11
X150.92Y-105.25
X150.92Y-106.39
X150.92Y-107.53
X150.965Y-130.23
X150.985Y-123.765
X151.025Y-112.155
X151.47Y-96.74
X151.49Y-100.12
X151.49Y-102.4
X151.49Y-103.54
X151.49Y-104.68
X151.49Y-106.96
X151.49Y-109.24
X151.62Y-105.81
X151.675Y-99.045
X151.813Y-63.873
X151.813Y-68.273
X152.007Y-60.525
X152.06Y-93.85
X152.06Y-94.99
X152.075Y-110.765
X152.372Y-63.873
X152.372Y-68.273
X152.875Y-93.7
X152.995Y-64.945
X153.285Y-94.57
X153.345Y-76.445
X153.345Y-79.585
X153.375Y-109.78
X153.375Y-112.1
X153.395Y-82.935
X153.413Y-63.873
X153.413Y-68.273
X153.435Y-74.195
X153.435Y-120.715
X153.475Y-127.195
X153.485Y-71.855
X153.795Y-135.195
X153.8Y-100.775
X153.875Y-104.11
X153.972Y-63.873
X153.972Y-68.273
X154.048Y-130.74
X154.145Y-99.445
X154.285Y-115.99
X154.293Y-60.525
X154.395Y-68.935
X154.415Y-107.54
X154.535Y-124.685
X154.893Y-63.795
X154.995Y-130.945
X155.025Y-100.77
X155.145Y-110.24
X155.245Y-121.54
X155.445Y-64.945
X155.555Y-76.195
X155.695Y-130.945
X155.813Y-63.873
X155.813Y-68.273
X156.165Y-91.35
X156.372Y-63.873
X156.372Y-68.273
X156.46Y-98.795
X156.579Y-60.525
X157.275Y-115.08
X157.405Y-134.705
X157.413Y-63.873
X157.413Y-68.273
X157.495Y-114.45
X157.635Y-111.17
X157.972Y-63.873
X157.972Y-68.273
X158.055Y-114.16
X158.095Y-133.795
X158.385Y-93.43
X158.725Y-75.685
X158.725Y-78.805
X158.765Y-73.105
X158.865Y-60.525
X158.9Y-133.8
X159.013Y-63.873
X159.013Y-68.273
X159.015Y-65.045
X159.165Y-112.76
X159.405Y-88.04
X159.465Y-69.505
X159.572Y-63.873
X159.572Y-68.273
X159.695Y-133.795
X160.265Y-112.3
X160.495Y-135.505
X160.613Y-63.873
X160.613Y-68.273
X160.795Y-89.4
X160.815Y-113.69
X160.975Y-87.445
X161.151Y-60.525
X161.172Y-63.873
X161.172Y-68.273
X161.285Y-113.22
X161.295Y-135.505
X161.645Y-78.805
X161.685Y-70.605
X161.705Y-75.735
X161.715Y-73.095
X161.855Y-114.15
X162.093Y-63.795
X162.095Y-135.505
X162.098Y-65.645
X162.455Y-114.79
X162.515Y-109.15
X162.555Y-127.06
X162.685Y-99.44
X162.865Y-97.25
X162.925Y-64.775
X162.955Y-107.24
X163.437Y-60.525
X163.446Y-103.709
X163.525Y-84.405
X163.535Y-82.935
X163.575Y-128.18
X163.625Y-85.8
X163.695Y-74.37
X163.795Y-69.195
X163.795Y-70.27
X163.845Y-72.595
X163.985Y-102.455
X164.005Y-111.17
X164.135Y-100.805
X164.22Y-104.08
X164.22Y-105.68
X164.335Y-87.455
X164.495Y-66.825
X164.605Y-108.755
X164.625Y-97.605
X164.625Y-108.16
X164.635Y-69.278
X164.66Y-68.278
X164.975Y-100.015
X164.995Y-102.465
X165.02Y-100.855
X165.02Y-105.68
X165.525Y-61.525
X165.535Y-64.105
X165.755Y-77.01
X165.765Y-98.505
X165.81Y-100.87
X166.185Y-63.905
X166.545Y-99.98
X166.565Y-104.145
X166.65Y-81.625
X166.65Y-84.354
X166.655Y-102.895
X166.67Y-85.718
X166.695Y-75.295
X166.695Y-75.728
X166.695Y-76.162
X166.695Y-76.595
X166.735Y-83.3
X166.735Y-100.755
X166.81Y-79.98
X166.815Y-104.85
X166.825Y-78.9
X166.825Y-105.77
X167.065Y-109.3
X167.165Y-103.41
X167.355Y-83.78
X167.359Y-68.135
X167.525Y-85.1
X167.535Y-82.05
X167.55Y-102.445
X167.585Y-74.555
X167.665Y-105.3
X167.855Y-103.79
X167.855Y-127.88
X167.865Y-97.585
X167.965Y-107.09
X167.995Y-112.3
X168.105Y-66.105
X168.135Y-101.21
X168.16Y-102.445
X168.275Y-103.24
X168.615Y-106.69
X168.665Y-60.935
X168.975Y-99.675
X168.985Y-104.505
X169.02Y-103.28
X169.071Y-108.045
X169.114Y-109.682
X169.415Y-97.61
X169.495Y-66.105
X169.645Y-68.135
X169.82Y-102.48
X169.82Y-103.28
X169.82Y-104.88
X170.095Y-112.99
X170.595Y-68.395
X170.62Y-102.48
X170.62Y-104.88
X170.915Y-61.955
X170.975Y-80.264
X170.975Y-82.975
X171.025Y-107.99
X171.045Y-106.1
X171.095Y-97.525
X171.135Y-63.895
X171.275Y-61.365
X171.42Y-101.68
X171.42Y-103.28
X171.485Y-125.21
X171.535Y-135.61
X171.586Y-105.28
X171.59Y-67.15
X171.59Y-68.421
X171.985Y-125.21
X172.335Y-71.135
X172.345Y-70.095
X172.345Y-72.196
X172.475Y-97.35
X172.555Y-105.1
X172.945Y-70.095
X173.055Y-107.46
X173.105Y-100.82
X173.114Y-68.526
X173.115Y-99.8
X173.145Y-67.145
X173.145Y-98.91
X173.155Y-101.69
X173.155Y-102.72
X173.285Y-75.005
X173.285Y-75.955
X173.335Y-74.255
X173.345Y-106.49
X173.365Y-103.84
X173.38Y-73.51
X173.75Y-84.85
X173.835Y-78.955
X173.835Y-81.705
X174.065Y-63.385
X174.085Y-128.61
X174.595Y-68.545
X174.745Y-121.705
X174.759Y-78.185
X174.835Y-136.85
X175.735Y-84.031
X175.745Y-69.345
X175.885Y-81.1
X176.185Y-60.545
X176.235Y-136.63
X177.045Y-78.185
X177.145Y-62.185
X177.165Y-64.245
X177.325Y-88.665
X177.745Y-118.615
X177.845Y-92.129
X177.94Y-125.215
X178.089Y-68.265
X178.255Y-81.735
X178.255Y-84.021
X178.335Y-125.61
X178.345Y-61.875
X178.455Y-63.545
X178.485Y-134.85
X179.035Y-134.85
X179.059Y-78.995
X179.119Y-74.585
X179.435Y-122.85
X179.785Y-63.535
X179.87Y-66.055
X179.87Y-66.605
X179.925Y-137.575
X180.285Y-65.8
X180.32Y-66.29
X180.375Y-68.265
X180.525Y-64.315
X180.785Y-77.165
X180.785Y-77.715
X181.036Y-136.106
X181.2Y-76.91
X181.235Y-77.4
X181.345Y-78.995
X181.405Y-74.585
X181.785Y-65.205
X182.155Y-94.495
X182.56Y-127.03
X182.56Y-127.53
X182.65Y-86.575
X183.035Y-127.05
X183.035Y-127.55
X183.184Y-67.647
X183.475Y-85.555
X184.42Y-87.195
X184.435Y-88.655
X184.435Y-121.905
X184.535Y-62.605
X184.785Y-90.2
X185.05Y-85.55
X185.575Y-70.725
X185.85Y-93.88
X186.085Y-88.605
X186.135Y-124.605
X186.135Y-125.555
X186.415Y-130.045
X186.425Y-129.585
X186.435Y-129.115
X186.655Y-63.795
X186.825Y-137.845
X186.855Y-76.375
X187.145Y-78.995
X187.35Y-81.875
X187.375Y-107.563
X187.375Y-112.135
X187.555Y-92.973
X187.555Y-97.545
X187.555Y-102.117
X187.625Y-71.295
X187.625Y-71.905
X187.745Y-74.355
X187.969Y-83.67
X187.969Y-84.28
X188.205Y-87.345
X188.585Y-137.825
X188.845Y-60.835
X189.337Y-136.952
X189.355Y-77.0
X189.385Y-65.515
X189.405Y-64.265
X189.635Y-134.3
X189.715Y-134.765
X189.825Y-84.725
X189.848Y-70.295
X189.848Y-70.905
X189.975Y-72.325
X189.975Y-81.725
X190.034Y-82.67
X190.034Y-83.28
X190.035Y-134.0
X190.1Y-69.675
X190.135Y-134.5
X190.385Y-130.005
X190.735Y-131.005
X190.805Y-90.675
X190.805Y-92.961
X190.935Y-125.809
X191.131Y-60.835
X191.211Y-134.248
X191.261Y-132.598
X191.4Y-85.375
X191.68Y-78.115
X191.71Y-76.025
X193.115Y-90.675
X193.115Y-92.961
X193.225Y-77.545
X193.695Y-119.165
X193.865Y-69.555
X193.865Y-71.841
X194.735Y-119.155
X195.435Y-106.855
X195.617Y-64.965
X195.617Y-67.251
X195.617Y-69.537
X195.617Y-71.823
X195.617Y-73.855
X195.617Y-76.141
X195.617Y-78.427
X195.617Y-80.713
X195.617Y-82.999
X195.617Y-85.285
X195.617Y-87.571
X195.617Y-90.619
X195.617Y-92.905
X195.617Y-95.191
X195.617Y-97.477
X195.617Y-99.763
X195.617Y-102.049
X195.617Y-104.335
X195.635Y-118.655
X195.885Y-120.055
X195.885Y-122.341
X195.885Y-124.627
X195.885Y-126.913
X195.885Y-129.199
X195.885Y-131.485
X195.885Y-133.771
T2
X134.745Y-121.335
T4
X114.24Y-60.36
X114.545Y-126.705
X114.545Y-129.355
X114.545Y-132.005
X116.78Y-60.36
X117.085Y-126.705
X117.085Y-129.355
X117.085Y-132.005
X119.32Y-60.36
X122.875Y-115.955
X123.045Y-111.505
X124.005Y-119.115
X124.005Y-123.427
X125.415Y-115.955
X125.585Y-111.505
X126.545Y-119.115
X126.545Y-123.427
X136.31Y-128.705
X138.85Y-128.705
X157.315Y-121.07
X159.855Y-121.07
X162.58Y-121.06
X165.12Y-121.06
X170.455Y-141.21
X171.185Y-58.865
X172.995Y-141.21
X173.725Y-58.865
X175.675Y-141.21
X177.765Y-58.865
X178.215Y-141.21
X180.305Y-58.865
X180.915Y-141.21
X183.455Y-141.21
X184.345Y-58.865
X186.195Y-141.21
X186.885Y-58.865
X188.735Y-141.21
T5
X190.53Y-94.854
X190.53Y-97.394
X190.53Y-99.934
X190.53Y-102.474
X190.53Y-105.014
X190.53Y-107.554
X190.53Y-110.094
X190.53Y-112.634
X190.53Y-115.174
X190.53Y-117.714
X193.07Y-94.854
X193.07Y-97.394
X193.07Y-99.934
X193.07Y-102.474
X193.07Y-105.014
X193.07Y-107.554
X193.07Y-110.094
X193.07Y-112.634
X193.07Y-115.174
X193.07Y-117.714
T6
X177.485Y-120.6
T7
X109.945Y-140.045
X110.125Y-60.348
X193.725Y-60.43
X193.725Y-139.83
T3
G00X190.1Y-66.78
M15
G01X189.1Y-66.78
M16
G05
G00X190.1Y-75.42
M15
G01X189.1Y-75.42
M16
G05
G00X190.1Y-79.155
M15
G01X189.1Y-79.155
M16
G05
G00X190.1Y-87.795
M15
G01X189.1Y-87.795
M16
G05
G00X194.13Y-66.78
M15
G01X193.43Y-66.78
M16
G05
G00X194.13Y-75.42
M15
G01X193.43Y-75.42
M16
G05
G00X194.13Y-79.155
M15
G01X193.43Y-79.155
M16
G05
G00X194.13Y-87.795
M15
G01X193.43Y-87.795
M16
G05
T0
M30
