%TF.GenerationSoftware,KiCad,Pcbnew,7.0.9*%
%TF.CreationDate,2025-05-07T10:44:46+08:00*%
%TF.ProjectId,HPM5300RDCRevB,48504d35-3330-4305-9244-43526576422e,REVC*%
%TF.SameCoordinates,Original*%
%TF.FileFunction,Copper,L4,Bot*%
%TF.FilePolarity,Positive*%
%FSLAX46Y46*%
G04 Gerber Fmt 4.6, Leading zero omitted, Abs format (unit mm)*
G04 Created by KiCad (PCBNEW 7.0.9) date 2025-05-07 10:44:46*
%MOMM*%
%LPD*%
G01*
G04 APERTURE LIST*
G04 Aperture macros list*
%AMRoundRect*
0 Rectangle with rounded corners*
0 $1 Rounding radius*
0 $2 $3 $4 $5 $6 $7 $8 $9 X,Y pos of 4 corners*
0 Add a 4 corners polygon primitive as box body*
4,1,4,$2,$3,$4,$5,$6,$7,$8,$9,$2,$3,0*
0 Add four circle primitives for the rounded corners*
1,1,$1+$1,$2,$3*
1,1,$1+$1,$4,$5*
1,1,$1+$1,$6,$7*
1,1,$1+$1,$8,$9*
0 Add four rect primitives between the rounded corners*
20,1,$1+$1,$2,$3,$4,$5,0*
20,1,$1+$1,$4,$5,$6,$7,0*
20,1,$1+$1,$6,$7,$8,$9,0*
20,1,$1+$1,$8,$9,$2,$3,0*%
G04 Aperture macros list end*
%TA.AperFunction,ComponentPad*%
%ADD10O,1.200000X2.000000*%
%TD*%
%TA.AperFunction,ComponentPad*%
%ADD11C,2.400000*%
%TD*%
%TA.AperFunction,ComponentPad*%
%ADD12R,1.700000X1.700000*%
%TD*%
%TA.AperFunction,ComponentPad*%
%ADD13O,1.700000X1.700000*%
%TD*%
%TA.AperFunction,ComponentPad*%
%ADD14C,6.400000*%
%TD*%
%TA.AperFunction,ComponentPad*%
%ADD15C,1.524000*%
%TD*%
%TA.AperFunction,ComponentPad*%
%ADD16RoundRect,0.250000X0.600000X-0.600000X0.600000X0.600000X-0.600000X0.600000X-0.600000X-0.600000X0*%
%TD*%
%TA.AperFunction,ComponentPad*%
%ADD17C,1.700000*%
%TD*%
%TA.AperFunction,SMDPad,CuDef*%
%ADD18R,1.250000X0.700000*%
%TD*%
%TA.AperFunction,SMDPad,CuDef*%
%ADD19RoundRect,0.200000X-0.200000X-0.275000X0.200000X-0.275000X0.200000X0.275000X-0.200000X0.275000X0*%
%TD*%
%TA.AperFunction,SMDPad,CuDef*%
%ADD20RoundRect,0.225000X0.225000X0.250000X-0.225000X0.250000X-0.225000X-0.250000X0.225000X-0.250000X0*%
%TD*%
%TA.AperFunction,SMDPad,CuDef*%
%ADD21RoundRect,0.200000X0.200000X0.275000X-0.200000X0.275000X-0.200000X-0.275000X0.200000X-0.275000X0*%
%TD*%
%TA.AperFunction,SMDPad,CuDef*%
%ADD22RoundRect,0.200000X-0.275000X0.200000X-0.275000X-0.200000X0.275000X-0.200000X0.275000X0.200000X0*%
%TD*%
%TA.AperFunction,SMDPad,CuDef*%
%ADD23RoundRect,0.225000X-0.225000X-0.250000X0.225000X-0.250000X0.225000X0.250000X-0.225000X0.250000X0*%
%TD*%
%TA.AperFunction,SMDPad,CuDef*%
%ADD24RoundRect,0.250000X-0.450000X0.262500X-0.450000X-0.262500X0.450000X-0.262500X0.450000X0.262500X0*%
%TD*%
%TA.AperFunction,SMDPad,CuDef*%
%ADD25RoundRect,0.200000X0.275000X-0.200000X0.275000X0.200000X-0.275000X0.200000X-0.275000X-0.200000X0*%
%TD*%
%TA.AperFunction,SMDPad,CuDef*%
%ADD26C,1.000000*%
%TD*%
%TA.AperFunction,SMDPad,CuDef*%
%ADD27R,1.400000X0.900000*%
%TD*%
%TA.AperFunction,SMDPad,CuDef*%
%ADD28RoundRect,0.225000X0.250000X-0.225000X0.250000X0.225000X-0.250000X0.225000X-0.250000X-0.225000X0*%
%TD*%
%TA.AperFunction,SMDPad,CuDef*%
%ADD29R,0.406400X0.406400*%
%TD*%
%TA.AperFunction,SMDPad,CuDef*%
%ADD30O,1.950000X0.568000*%
%TD*%
%TA.AperFunction,SMDPad,CuDef*%
%ADD31C,0.950000*%
%TD*%
%TA.AperFunction,SMDPad,CuDef*%
%ADD32RoundRect,0.225000X-0.250000X0.225000X-0.250000X-0.225000X0.250000X-0.225000X0.250000X0.225000X0*%
%TD*%
%TA.AperFunction,SMDPad,CuDef*%
%ADD33C,1.200000*%
%TD*%
%TA.AperFunction,SMDPad,CuDef*%
%ADD34R,1.000000X0.550000*%
%TD*%
%TA.AperFunction,SMDPad,CuDef*%
%ADD35O,0.568000X1.950000*%
%TD*%
%TA.AperFunction,SMDPad,CuDef*%
%ADD36O,1.731000X0.343000*%
%TD*%
%TA.AperFunction,SMDPad,CuDef*%
%ADD37R,0.700000X1.250000*%
%TD*%
%TA.AperFunction,SMDPad,CuDef*%
%ADD38R,1.635000X2.160000*%
%TD*%
%TA.AperFunction,SMDPad,CuDef*%
%ADD39RoundRect,0.250000X0.450000X-0.262500X0.450000X0.262500X-0.450000X0.262500X-0.450000X-0.262500X0*%
%TD*%
%TA.AperFunction,SMDPad,CuDef*%
%ADD40R,1.700000X0.400000*%
%TD*%
%TA.AperFunction,ViaPad*%
%ADD41C,0.406400*%
%TD*%
%TA.AperFunction,Conductor*%
%ADD42C,0.254000*%
%TD*%
%TA.AperFunction,Conductor*%
%ADD43C,0.152400*%
%TD*%
%TA.AperFunction,Conductor*%
%ADD44C,0.508000*%
%TD*%
%TA.AperFunction,Conductor*%
%ADD45C,0.300000*%
%TD*%
%TA.AperFunction,Conductor*%
%ADD46C,0.381000*%
%TD*%
%TA.AperFunction,Conductor*%
%ADD47C,0.101600*%
%TD*%
%TA.AperFunction,Conductor*%
%ADD48C,0.762000*%
%TD*%
%TA.AperFunction,Conductor*%
%ADD49C,0.203200*%
%TD*%
G04 APERTURE END LIST*
D10*
%TO.P,J1,1,EP*%
%TO.N,GND*%
X183524900Y-127224050D03*
%TO.P,J1,2,EP*%
X192165100Y-127224150D03*
%TO.P,J1,3,EP*%
X183525000Y-131404050D03*
%TO.P,J1,4,EP*%
X192165200Y-131404150D03*
%TD*%
D11*
%TO.P,J3,1,Pin_1*%
%TO.N,Net-(J3-Pin_1)*%
X195265200Y-123355000D03*
%TO.P,J3,2,Pin_2*%
%TO.N,Net-(J3-Pin_2)*%
X195265200Y-119545000D03*
%TO.P,J3,3,Pin_3*%
%TO.N,Net-(J3-Pin_3)*%
X195265200Y-115735000D03*
%TO.P,J3,4,Pin_4*%
%TO.N,GND*%
X195265200Y-111925000D03*
%TO.P,J3,5,Pin_5*%
%TO.N,VCC*%
X195265200Y-108115000D03*
%TO.P,J3,6,Pin_6*%
%TO.N,Net-(J3-Pin_6)*%
X195265200Y-104305000D03*
%TO.P,J3,7,Pin_7*%
%TO.N,/HPM5300RDC MAINENTRY/07-MISC/SEI_DATA_N*%
X195265200Y-100495000D03*
%TO.P,J3,8,Pin_8*%
%TO.N,/HPM5300RDC MAINENTRY/07-MISC/SEI_DATA_P*%
X195265200Y-96685000D03*
%TO.P,J3,9,Pin_9*%
%TO.N,/HPM5300RDC MAINENTRY/07-MISC/SEI_CLK_OUT_N*%
X195265200Y-92875000D03*
%TO.P,J3,10,Pin_10*%
%TO.N,/HPM5300RDC MAINENTRY/07-MISC/SEI_CLK_OUT_P*%
X195265200Y-89065000D03*
%TD*%
D12*
%TO.P,J5,1,Pin_1*%
%TO.N,+3.3V*%
X179245000Y-86700000D03*
D13*
%TO.P,J5,2,Pin_2*%
%TO.N,+5V*%
X181785000Y-86700000D03*
%TO.P,J5,3,Pin_3*%
%TO.N,GND*%
X184325000Y-86700000D03*
%TD*%
D14*
%TO.P,FID2,1,1*%
%TO.N,GND*%
X199175200Y-82153000D03*
%TD*%
D15*
%TO.P,LED6,1,E*%
%TO.N,Net-(LED6-E)*%
X145575200Y-91820000D03*
%TO.P,LED6,2,D*%
%TO.N,Net-(LED6-D)*%
X148115200Y-91820000D03*
%TO.P,LED6,3,DP*%
%TO.N,Net-(LED6-DP)*%
X150655200Y-91820000D03*
%TO.P,LED6,4,C*%
%TO.N,Net-(LED6-C)*%
X153195200Y-91820000D03*
%TO.P,LED6,5,G*%
%TO.N,Net-(LED6-G)*%
X155735200Y-91820000D03*
%TO.P,LED6,6,DIG4*%
%TO.N,/HPM5300RDC MAINENTRY/07-MISC/DIG4_PWR*%
X158275200Y-91820000D03*
%TO.P,LED6,7,NC*%
%TO.N,unconnected-(LED6-NC-Pad7)*%
X160815200Y-91820000D03*
%TO.P,LED6,8,DIG5*%
%TO.N,/HPM5300RDC MAINENTRY/07-MISC/DIG5_PWR*%
X160815200Y-81660000D03*
%TO.P,LED6,9,B*%
%TO.N,Net-(LED6-B)*%
X158275200Y-81660000D03*
%TO.P,LED6,10,DIG3*%
%TO.N,/HPM5300RDC MAINENTRY/07-MISC/DIG3_PWR*%
X155735200Y-81660000D03*
%TO.P,LED6,11,DIG2*%
%TO.N,/HPM5300RDC MAINENTRY/07-MISC/DIG2_PWR*%
X153195200Y-81660000D03*
%TO.P,LED6,12,F*%
%TO.N,Net-(LED6-F)*%
X150655200Y-81660000D03*
%TO.P,LED6,13,A*%
%TO.N,Net-(LED6-A)*%
X148115200Y-81660000D03*
%TO.P,LED6,14,DIG1*%
%TO.N,/HPM5300RDC MAINENTRY/07-MISC/DIG1_PWR*%
X145575200Y-81660000D03*
%TD*%
D11*
%TO.P,J4,1,Pin_1*%
%TO.N,/HPM5300RDC MAINENTRY/05-RDC_SINCOS/COS+*%
X115095200Y-90475000D03*
%TO.P,J4,2,Pin_2*%
%TO.N,/HPM5300RDC MAINENTRY/05-RDC_SINCOS/COS-*%
X115095200Y-94285000D03*
%TO.P,J4,3,Pin_3*%
%TO.N,/HPM5300RDC MAINENTRY/05-RDC_SINCOS/SIN+*%
X115095200Y-98095000D03*
%TO.P,J4,4,Pin_4*%
%TO.N,/HPM5300RDC MAINENTRY/05-RDC_SINCOS/SIN-*%
X115095200Y-101905000D03*
%TO.P,J4,5,Pin_5*%
%TO.N,/HPM5300RDC MAINENTRY/04-RDC_EXCT/EXC+*%
X115095200Y-105715000D03*
%TO.P,J4,6,Pin_6*%
%TO.N,/HPM5300RDC MAINENTRY/04-RDC_EXCT/EXC-*%
X115095200Y-109525000D03*
%TD*%
D16*
%TO.P,J2,1,VTREF*%
%TO.N,+3.3V*%
X134620000Y-130650000D03*
D17*
%TO.P,J2,2,VCC/NC*%
%TO.N,unconnected-(J2-VCC{slash}NC-Pad2)*%
X134620000Y-128110000D03*
%TO.P,J2,3,~{TRST}*%
%TO.N,/HPM5300RDC MAINENTRY/03-HPM5300_IO/JTAG_TRST*%
X137160000Y-130650000D03*
%TO.P,J2,4,GND*%
%TO.N,GND*%
X137160000Y-128110000D03*
%TO.P,J2,5,TDI*%
%TO.N,/HPM5300RDC MAINENTRY/03-HPM5300_IO/JTAG_TDI*%
X139700000Y-130650000D03*
%TO.P,J2,6,GND*%
%TO.N,GND*%
X139700000Y-128110000D03*
%TO.P,J2,7,TMS/SWDIO*%
%TO.N,/HPM5300RDC MAINENTRY/03-HPM5300_IO/JTAG_TMS*%
X142240000Y-130650000D03*
%TO.P,J2,8,GND*%
%TO.N,GND*%
X142240000Y-128110000D03*
%TO.P,J2,9,TCK/SWDCLK*%
%TO.N,/HPM5300RDC MAINENTRY/03-HPM5300_IO/JTAG_TCK*%
X144780000Y-130650000D03*
%TO.P,J2,10,GND*%
%TO.N,GND*%
X144780000Y-128110000D03*
%TO.P,J2,11,RTCK*%
%TO.N,unconnected-(J2-RTCK-Pad11)*%
X147320000Y-130650000D03*
%TO.P,J2,12,GND*%
%TO.N,GND*%
X147320000Y-128110000D03*
%TO.P,J2,13,TDO/SWO*%
%TO.N,/HPM5300RDC MAINENTRY/03-HPM5300_IO/JTAG_TDO*%
X149860000Y-130650000D03*
%TO.P,J2,14,GND*%
%TO.N,GND*%
X149860000Y-128110000D03*
%TO.P,J2,15,~{SRST}*%
%TO.N,unconnected-(J2-~{SRST}-Pad15)*%
X152400000Y-130650000D03*
%TO.P,J2,16,GND*%
%TO.N,GND*%
X152400000Y-128110000D03*
%TO.P,J2,17,DBGRQ/NC*%
%TO.N,unconnected-(J2-DBGRQ{slash}NC-Pad17)*%
X154940000Y-130650000D03*
%TO.P,J2,18,GND*%
%TO.N,GND*%
X154940000Y-128110000D03*
%TO.P,J2,19,DBGACK/NC*%
%TO.N,unconnected-(J2-DBGACK{slash}NC-Pad19)*%
X157480000Y-130650000D03*
%TO.P,J2,20,GND*%
%TO.N,GND*%
X157480000Y-128110000D03*
%TD*%
D14*
%TO.P,FID3,1,1*%
%TO.N,GND*%
X199175200Y-130270000D03*
%TD*%
%TO.P,FID4,1,1*%
%TO.N,GND*%
X111175200Y-130270000D03*
%TD*%
%TO.P,FID1,1,1*%
%TO.N,unconnected-(FID1-Pad1)*%
X111175200Y-82153000D03*
%TD*%
D18*
%TO.P,Q7,1,B*%
%TO.N,Net-(Q2-E)*%
X116457650Y-120573800D03*
%TO.P,Q7,2,E*%
%TO.N,Net-(Q7-E)*%
X116457650Y-122473800D03*
%TO.P,Q7,3,C*%
%TO.N,GNDA*%
X114457650Y-121523800D03*
%TD*%
D19*
%TO.P,R60,1*%
%TO.N,GND*%
X147435000Y-89050000D03*
%TO.P,R60,2*%
%TO.N,/HPM5300RDC MAINENTRY/03-HPM5300_IO/PA12*%
X149085000Y-89050000D03*
%TD*%
%TO.P,R71,1*%
%TO.N,Net-(U6A-VINA-)*%
X124010200Y-103300000D03*
%TO.P,R71,2*%
%TO.N,Net-(U6A-VOUTA)*%
X125660200Y-103300000D03*
%TD*%
D20*
%TO.P,C7,1*%
%TO.N,Net-(C7-Pad1)*%
X124365000Y-123090000D03*
%TO.P,C7,2*%
%TO.N,GNDA*%
X122815000Y-123090000D03*
%TD*%
D21*
%TO.P,R22,1*%
%TO.N,GND*%
X183300000Y-113525000D03*
%TO.P,R22,2*%
%TO.N,Net-(U16-VFB)*%
X181650000Y-113525000D03*
%TD*%
%TO.P,R24,1*%
%TO.N,/HPM5300RDC MAINENTRY/03-HPM5300_IO/PA12*%
X149085000Y-87570000D03*
%TO.P,R24,2*%
%TO.N,Net-(Q12-G)*%
X147435000Y-87570000D03*
%TD*%
D18*
%TO.P,Q1,1,B*%
%TO.N,Net-(Q1-B)*%
X131947550Y-111756200D03*
%TO.P,Q1,2,E*%
%TO.N,/HPM5300RDC MAINENTRY/04-RDC_EXCT/EXC_N*%
X131947550Y-109856200D03*
%TO.P,Q1,3,C*%
%TO.N,Net-(Q1-C)*%
X133947550Y-110806200D03*
%TD*%
D19*
%TO.P,R28,1*%
%TO.N,/HPM5300RDC MAINENTRY/03-HPM5300_IO/PA14*%
X158520200Y-97730000D03*
%TO.P,R28,2*%
%TO.N,Net-(Q16-G)*%
X160170200Y-97730000D03*
%TD*%
D22*
%TO.P,R100,1*%
%TO.N,Net-(LED6-B)*%
X144334692Y-94285000D03*
%TO.P,R100,2*%
%TO.N,/HPM5300RDC MAINENTRY/03-HPM5300_IO/PY02*%
X144334692Y-95935000D03*
%TD*%
D20*
%TO.P,C46,1*%
%TO.N,+3.3V*%
X142370200Y-107520000D03*
%TO.P,C46,2*%
%TO.N,GND*%
X140820200Y-107520000D03*
%TD*%
D19*
%TO.P,R86,1*%
%TO.N,/HPM5300RDC MAINENTRY/05-RDC_SINCOS/SIN+*%
X117790200Y-98645000D03*
%TO.P,R86,2*%
%TO.N,GNDA*%
X119440200Y-98645000D03*
%TD*%
D21*
%TO.P,R125,1*%
%TO.N,+5V*%
X183300000Y-115025000D03*
%TO.P,R125,2*%
%TO.N,Net-(U16-EN)*%
X181650000Y-115025000D03*
%TD*%
D23*
%TO.P,C43,1*%
%TO.N,Net-(U1B-USBVBUS)*%
X140860200Y-111830000D03*
%TO.P,C43,2*%
%TO.N,GND*%
X142410200Y-111830000D03*
%TD*%
D24*
%TO.P,R91,1*%
%TO.N,/HPM5300RDC MAINENTRY/07-MISC/SEI_CLK_OUT_P*%
X192160000Y-90117500D03*
%TO.P,R91,2*%
%TO.N,/HPM5300RDC MAINENTRY/07-MISC/SEI_CLK_OUT_N*%
X192160000Y-91942500D03*
%TD*%
D19*
%TO.P,R83,1*%
%TO.N,/HPM5300RDC MAINENTRY/05-RDC_SINCOS/COS-*%
X119210200Y-93080000D03*
%TO.P,R83,2*%
%TO.N,/HPM5300RDC MAINENTRY/05-RDC_SINCOS/ICOS-*%
X120860200Y-93080000D03*
%TD*%
D20*
%TO.P,C38,1*%
%TO.N,VDD_SOC*%
X151920200Y-109310000D03*
%TO.P,C38,2*%
%TO.N,GND*%
X150370200Y-109310000D03*
%TD*%
D19*
%TO.P,R17,1*%
%TO.N,/HPM5300RDC MAINENTRY/03-HPM5300_IO/PB07*%
X121030200Y-107170000D03*
%TO.P,R17,2*%
%TO.N,Net-(U5D-OUTD)*%
X122680200Y-107170000D03*
%TD*%
D20*
%TO.P,C59,1*%
%TO.N,+3.3V*%
X142425000Y-117970000D03*
%TO.P,C59,2*%
%TO.N,GND*%
X140875000Y-117970000D03*
%TD*%
D25*
%TO.P,R80,1*%
%TO.N,/HPM5300RDC MAINENTRY/05-RDC_SINCOS/ICOS-*%
X122355200Y-93105000D03*
%TO.P,R80,2*%
%TO.N,/HPM5300RDC MAINENTRY/05-RDC_SINCOS/ICOS+*%
X122355200Y-91455000D03*
%TD*%
D21*
%TO.P,R25,1*%
%TO.N,+3.3V*%
X152553826Y-89050000D03*
%TO.P,R25,2*%
%TO.N,Net-(Q12-D)*%
X150903826Y-89050000D03*
%TD*%
%TO.P,R64,1*%
%TO.N,Net-(Q5-E)*%
X112860200Y-118790000D03*
%TO.P,R64,2*%
%TO.N,/HPM5300RDC MAINENTRY/04-RDC_EXCT/VOPA*%
X111210200Y-118790000D03*
%TD*%
D26*
%TO.P,TP3,1,1*%
%TO.N,/HPM5300RDC MAINENTRY/02-HPM5300_MISC/USB0_N*%
X138710000Y-116990000D03*
%TD*%
D20*
%TO.P,C1,1*%
%TO.N,+3.3V*%
X131715000Y-131970000D03*
%TO.P,C1,2*%
%TO.N,GND*%
X130165000Y-131970000D03*
%TD*%
%TO.P,C36,1*%
%TO.N,VDD_SOC*%
X151890200Y-114220000D03*
%TO.P,C36,2*%
%TO.N,GND*%
X150340200Y-114220000D03*
%TD*%
D27*
%TO.P,L1,1*%
%TO.N,/HPM5300RDC MAINENTRY/07-MISC/DA_-*%
X184700000Y-100090000D03*
%TO.P,L1,2,2*%
%TO.N,/HPM5300RDC MAINENTRY/07-MISC/DA_+*%
X184700000Y-97590000D03*
%TO.P,L1,3*%
%TO.N,/HPM5300RDC MAINENTRY/07-MISC/SEI_DATA_P*%
X189260000Y-97590000D03*
%TO.P,L1,4,4*%
%TO.N,/HPM5300RDC MAINENTRY/07-MISC/SEI_DATA_N*%
X189260000Y-100090000D03*
%TD*%
D22*
%TO.P,R105,1*%
%TO.N,GND*%
X157040000Y-94275000D03*
%TO.P,R105,2*%
%TO.N,/HPM5300RDC MAINENTRY/03-HPM5300_IO/PA14*%
X157040000Y-95925000D03*
%TD*%
D28*
%TO.P,C51,1*%
%TO.N,VDD_SOC*%
X147035200Y-116475000D03*
%TO.P,C51,2*%
%TO.N,GND*%
X147035200Y-114925000D03*
%TD*%
D22*
%TO.P,R48,1*%
%TO.N,/HPM5300RDC MAINENTRY/04-RDC_EXCT/EXC_P*%
X134350000Y-106025000D03*
%TO.P,R48,2*%
%TO.N,/HPM5300RDC MAINENTRY/04-RDC_EXCT/VOPA*%
X134350000Y-107675000D03*
%TD*%
D21*
%TO.P,R27,1*%
%TO.N,+3.3V*%
X159689510Y-89050000D03*
%TO.P,R27,2*%
%TO.N,Net-(Q14-D)*%
X158039510Y-89050000D03*
%TD*%
D18*
%TO.P,Q11,1,G*%
%TO.N,Net-(Q11-G)*%
X140245200Y-86020000D03*
%TO.P,Q11,2,S*%
%TO.N,GND*%
X140245200Y-84120000D03*
%TO.P,Q11,3,D*%
%TO.N,Net-(Q10-G)*%
X142245200Y-85070000D03*
%TD*%
D29*
%TO.P,D8,1*%
%TO.N,Net-(J3-Pin_6)*%
X192575024Y-105148984D03*
%TO.P,D8,2*%
%TO.N,GND*%
X191174976Y-105148984D03*
%TD*%
D18*
%TO.P,Q9,1,B*%
%TO.N,Net-(Q3-E)*%
X116425200Y-113770000D03*
%TO.P,Q9,2,E*%
%TO.N,Net-(Q9-E)*%
X116425200Y-115670000D03*
%TO.P,Q9,3,C*%
%TO.N,GNDA*%
X114425200Y-114720000D03*
%TD*%
D21*
%TO.P,R116,1*%
%TO.N,/HPM5300RDC MAINENTRY/04-RDC_EXCT/VOPA*%
X137445000Y-88960000D03*
%TO.P,R116,2*%
%TO.N,/HPM5300RDC MAINENTRY/05-RDC_SINCOS/CTRL_CMOS*%
X135795000Y-88960000D03*
%TD*%
D22*
%TO.P,R98,1*%
%TO.N,Net-(LED6-A)*%
X140680000Y-94285000D03*
%TO.P,R98,2*%
%TO.N,/HPM5300RDC MAINENTRY/03-HPM5300_IO/PY00*%
X140680000Y-95935000D03*
%TD*%
D30*
%TO.P,U10,1,VCC*%
%TO.N,+3.3V*%
X174295000Y-93988500D03*
%TO.P,U10,2,RO*%
%TO.N,/HPM5300RDC MAINENTRY/03-HPM5300_IO/PA11*%
X174295000Y-92718500D03*
%TO.P,U10,3,DI*%
%TO.N,/HPM5300RDC MAINENTRY/03-HPM5300_IO/PA17*%
X174295000Y-91448500D03*
%TO.P,U10,4,GND*%
%TO.N,GND*%
X174295000Y-90178500D03*
%TO.P,U10,5,Y*%
%TO.N,/HPM5300RDC MAINENTRY/07-MISC/CO_+*%
X179705000Y-90178500D03*
%TO.P,U10,6,Z*%
%TO.N,/HPM5300RDC MAINENTRY/07-MISC/CO_-*%
X179705000Y-91448500D03*
%TO.P,U10,7,B*%
%TO.N,Net-(U10-B)*%
X179705000Y-92718500D03*
%TO.P,U10,8,A*%
%TO.N,Net-(U10-A)*%
X179705000Y-93988500D03*
%TD*%
D24*
%TO.P,FB1,1*%
%TO.N,+3.3V*%
X169050000Y-107412500D03*
%TO.P,FB1,2*%
%TO.N,Net-(C83-Pad1)*%
X169050000Y-109237500D03*
%TD*%
D26*
%TO.P,TP2,1,1*%
%TO.N,/HPM5300RDC MAINENTRY/02-HPM5300_MISC/USB0_P*%
X138700000Y-115060000D03*
%TD*%
D19*
%TO.P,R124,1*%
%TO.N,/HPM5300RDC MAINENTRY/03-HPM5300_IO/PA22*%
X191100000Y-123075000D03*
%TO.P,R124,2*%
%TO.N,Net-(J3-Pin_1)*%
X192750000Y-123075000D03*
%TD*%
D23*
%TO.P,C44,1*%
%TO.N,VDD_SOC*%
X140830200Y-109070000D03*
%TO.P,C44,2*%
%TO.N,GND*%
X142380200Y-109070000D03*
%TD*%
D21*
%TO.P,R85,1*%
%TO.N,/HPM5300RDC MAINENTRY/04-RDC_EXCT/VOPA*%
X119420200Y-103295000D03*
%TO.P,R85,2*%
%TO.N,/HPM5300RDC MAINENTRY/05-RDC_SINCOS/SIN-*%
X117770200Y-103295000D03*
%TD*%
%TO.P,R55,1*%
%TO.N,Net-(U5C-INC+)*%
X124515000Y-117910000D03*
%TO.P,R55,2*%
%TO.N,/HPM5300RDC MAINENTRY/04-RDC_EXCT/VOPA*%
X122865000Y-117910000D03*
%TD*%
D19*
%TO.P,R90,1*%
%TO.N,/HPM5300RDC MAINENTRY/03-HPM5300_IO/PA19*%
X173525000Y-103750000D03*
%TO.P,R90,2*%
%TO.N,+3.3V*%
X175175000Y-103750000D03*
%TD*%
%TO.P,R61,1*%
%TO.N,GNDA*%
X111150200Y-120600000D03*
%TO.P,R61,2*%
%TO.N,Net-(Q2-E)*%
X112800200Y-120600000D03*
%TD*%
%TO.P,R15,1*%
%TO.N,Net-(U16-VFB)*%
X181650000Y-112041666D03*
%TO.P,R15,2*%
%TO.N,Net-(C83-Pad1)*%
X183300000Y-112041666D03*
%TD*%
D18*
%TO.P,Q6,1,B*%
%TO.N,Net-(Q4-E)*%
X114475200Y-125800000D03*
%TO.P,Q6,2,E*%
%TO.N,Net-(Q6-E)*%
X114475200Y-123900000D03*
%TO.P,Q6,3,C*%
%TO.N,/HPM5300RDC MAINENTRY/04-RDC_EXCT/VOPA*%
X116475200Y-124850000D03*
%TD*%
D22*
%TO.P,R50,1*%
%TO.N,GNDA*%
X131230000Y-106035000D03*
%TO.P,R50,2*%
%TO.N,/HPM5300RDC MAINENTRY/04-RDC_EXCT/EXC_N*%
X131230000Y-107685000D03*
%TD*%
D19*
%TO.P,R81,1*%
%TO.N,/HPM5300RDC MAINENTRY/05-RDC_SINCOS/SIN-*%
X119350200Y-101765000D03*
%TO.P,R81,2*%
%TO.N,/HPM5300RDC MAINENTRY/05-RDC_SINCOS/ISIN-*%
X121000200Y-101765000D03*
%TD*%
%TO.P,R67,1*%
%TO.N,/HPM5300RDC MAINENTRY/04-RDC_EXCT/EXC-*%
X111210200Y-117190000D03*
%TO.P,R67,2*%
%TO.N,Net-(Q8-E)*%
X112860200Y-117190000D03*
%TD*%
D21*
%TO.P,R110,1*%
%TO.N,/HPM5300RDC MAINENTRY/07-MISC/CO_-*%
X184555000Y-93620000D03*
%TO.P,R110,2*%
%TO.N,Net-(U10-B)*%
X182905000Y-93620000D03*
%TD*%
D25*
%TO.P,R79,1*%
%TO.N,/HPM5300RDC MAINENTRY/05-RDC_SINCOS/ISIN-*%
X122505200Y-101800000D03*
%TO.P,R79,2*%
%TO.N,/HPM5300RDC MAINENTRY/05-RDC_SINCOS/ISIN+*%
X122505200Y-100150000D03*
%TD*%
D31*
%TO.P,C84,1*%
%TO.N,Net-(C83-Pad1)*%
X174725000Y-109300000D03*
%TO.P,C84,2*%
%TO.N,GND*%
X174725000Y-107750000D03*
%TD*%
D18*
%TO.P,Q10,1,G*%
%TO.N,Net-(Q10-G)*%
X143828757Y-86020000D03*
%TO.P,Q10,2,S*%
%TO.N,+3.3V*%
X143828757Y-84120000D03*
%TO.P,Q10,3,D*%
%TO.N,/HPM5300RDC MAINENTRY/07-MISC/DIG1_PWR*%
X145828757Y-85070000D03*
%TD*%
D20*
%TO.P,C61,1*%
%TO.N,Net-(U1C-VDD_OTPCAP)*%
X155615000Y-105610000D03*
%TO.P,C61,2*%
%TO.N,GND*%
X154065000Y-105610000D03*
%TD*%
D19*
%TO.P,FB4,1*%
%TO.N,DCDC_IN*%
X150340200Y-106120000D03*
%TO.P,FB4,2*%
%TO.N,+3.3V*%
X151990200Y-106120000D03*
%TD*%
D28*
%TO.P,C15,1*%
%TO.N,/HPM5300RDC MAINENTRY/05-RDC_SINCOS/SIN-*%
X117845200Y-101740000D03*
%TO.P,C15,2*%
%TO.N,/HPM5300RDC MAINENTRY/05-RDC_SINCOS/SIN+*%
X117845200Y-100190000D03*
%TD*%
D23*
%TO.P,C49,1*%
%TO.N,GND*%
X146320200Y-107590000D03*
%TO.P,C49,2*%
%TO.N,+3.3V*%
X147870200Y-107590000D03*
%TD*%
D18*
%TO.P,Q15,1,G*%
%TO.N,Net-(Q14-D)*%
X158162985Y-86020000D03*
%TO.P,Q15,2,S*%
%TO.N,+3.3V*%
X158162985Y-84120000D03*
%TO.P,Q15,3,D*%
%TO.N,/HPM5300RDC MAINENTRY/07-MISC/DIG3_PWR*%
X160162985Y-85070000D03*
%TD*%
%TO.P,Q16,1,G*%
%TO.N,Net-(Q16-G)*%
X158505200Y-96080000D03*
%TO.P,Q16,2,S*%
%TO.N,GND*%
X158505200Y-94180000D03*
%TO.P,Q16,3,D*%
%TO.N,Net-(Q16-D)*%
X160505200Y-95130000D03*
%TD*%
D19*
%TO.P,R78,1*%
%TO.N,/HPM5300RDC MAINENTRY/05-RDC_SINCOS/ICOS+*%
X120720200Y-89890000D03*
%TO.P,R78,2*%
%TO.N,Net-(U6B-VINB+)*%
X122370200Y-89890000D03*
%TD*%
D21*
%TO.P,R40,1*%
%TO.N,+3.3V*%
X166825200Y-89050000D03*
%TO.P,R40,2*%
%TO.N,Net-(Q18-D)*%
X165175200Y-89050000D03*
%TD*%
D19*
%TO.P,R58,1*%
%TO.N,GND*%
X140255000Y-89050000D03*
%TO.P,R58,2*%
%TO.N,/HPM5300RDC MAINENTRY/03-HPM5300_IO/PA15*%
X141905000Y-89050000D03*
%TD*%
D23*
%TO.P,C6,1*%
%TO.N,/HPM5300RDC MAINENTRY/03-HPM5300_IO/PB07*%
X121060200Y-105640000D03*
%TO.P,C6,2*%
%TO.N,GNDA*%
X122610200Y-105640000D03*
%TD*%
D21*
%TO.P,R8,1*%
%TO.N,/HPM5300RDC MAINENTRY/03-HPM5300_IO/JTAG_TDI*%
X131775000Y-130440000D03*
%TO.P,R8,2*%
%TO.N,+3.3V*%
X130125000Y-130440000D03*
%TD*%
%TO.P,R3,1*%
%TO.N,/HPM5300RDC MAINENTRY/03-HPM5300_IO/JTAG_TMS*%
X131800000Y-128940000D03*
%TO.P,R3,2*%
%TO.N,+3.3V*%
X130150000Y-128940000D03*
%TD*%
D19*
%TO.P,R62,1*%
%TO.N,GNDA*%
X111180200Y-114040000D03*
%TO.P,R62,2*%
%TO.N,Net-(Q3-E)*%
X112830200Y-114040000D03*
%TD*%
D22*
%TO.P,R30,1*%
%TO.N,Net-(J1-CC1)*%
X186535200Y-128685000D03*
%TO.P,R30,2*%
%TO.N,GND*%
X186535200Y-130335000D03*
%TD*%
%TO.P,R42,1*%
%TO.N,Net-(U5A-INA+)*%
X131850000Y-113515000D03*
%TO.P,R42,2*%
%TO.N,/HPM5300RDC MAINENTRY/04-RDC_EXCT/VOPA*%
X131850000Y-115165000D03*
%TD*%
D19*
%TO.P,R65,1*%
%TO.N,/HPM5300RDC MAINENTRY/04-RDC_EXCT/EXC+*%
X111100200Y-123700000D03*
%TO.P,R65,2*%
%TO.N,Net-(Q6-E)*%
X112750200Y-123700000D03*
%TD*%
D23*
%TO.P,C22,1*%
%TO.N,DCDC_IN*%
X150370200Y-104630000D03*
%TO.P,C22,2*%
%TO.N,DCDC_GND*%
X151920200Y-104630000D03*
%TD*%
D19*
%TO.P,R94,1*%
%TO.N,GND*%
X173530000Y-102190000D03*
%TO.P,R94,2*%
%TO.N,/HPM5300RDC MAINENTRY/03-HPM5300_IO/PA16*%
X175180000Y-102190000D03*
%TD*%
D18*
%TO.P,Q2,1,B*%
%TO.N,Net-(Q2-B)*%
X118035200Y-122480000D03*
%TO.P,Q2,2,E*%
%TO.N,Net-(Q2-E)*%
X118035200Y-120580000D03*
%TO.P,Q2,3,C*%
%TO.N,/HPM5300RDC MAINENTRY/04-RDC_EXCT/VOPA*%
X120035200Y-121530000D03*
%TD*%
D23*
%TO.P,C63,1*%
%TO.N,VDD_SOC*%
X140865200Y-114910000D03*
%TO.P,C63,2*%
%TO.N,GND*%
X142415200Y-114910000D03*
%TD*%
D22*
%TO.P,R20,1*%
%TO.N,Net-(C7-Pad1)*%
X128250000Y-108015000D03*
%TO.P,R20,2*%
%TO.N,Net-(Q1-B)*%
X128250000Y-109665000D03*
%TD*%
D19*
%TO.P,R7,1*%
%TO.N,GND*%
X130145000Y-127390000D03*
%TO.P,R7,2*%
%TO.N,/HPM5300RDC MAINENTRY/03-HPM5300_IO/JTAG_TCK*%
X131795000Y-127390000D03*
%TD*%
D26*
%TO.P,TP1,1,1*%
%TO.N,Net-(R37-Pad1)*%
X138760000Y-111870000D03*
%TD*%
D22*
%TO.P,R31,1*%
%TO.N,Net-(J1-CC2)*%
X189405200Y-128690000D03*
%TO.P,R31,2*%
%TO.N,GND*%
X189405200Y-130340000D03*
%TD*%
D21*
%TO.P,R70,1*%
%TO.N,Net-(U6B-VOUTB)*%
X125520200Y-93090000D03*
%TO.P,R70,2*%
%TO.N,/HPM5300RDC MAINENTRY/03-HPM5300_IO/PB14*%
X123870200Y-93090000D03*
%TD*%
D32*
%TO.P,C48,1*%
%TO.N,+3.3V*%
X148575200Y-114925000D03*
%TO.P,C48,2*%
%TO.N,GND*%
X148575200Y-116475000D03*
%TD*%
D21*
%TO.P,R117,1*%
%TO.N,/HPM5300RDC MAINENTRY/04-RDC_EXCT/VOPA*%
X133755000Y-88910000D03*
%TO.P,R117,2*%
%TO.N,/HPM5300RDC MAINENTRY/05-RDC_SINCOS/INH_CMOS*%
X132105000Y-88910000D03*
%TD*%
%TO.P,R26,1*%
%TO.N,/HPM5300RDC MAINENTRY/03-HPM5300_IO/PA10*%
X156175000Y-87590000D03*
%TO.P,R26,2*%
%TO.N,Net-(Q14-G)*%
X154525000Y-87590000D03*
%TD*%
%TO.P,R109,1*%
%TO.N,/HPM5300RDC MAINENTRY/07-MISC/CO_+*%
X184605000Y-95200000D03*
%TO.P,R109,2*%
%TO.N,Net-(U10-A)*%
X182955000Y-95200000D03*
%TD*%
D23*
%TO.P,C14,1*%
%TO.N,/HPM5300RDC MAINENTRY/03-HPM5300_IO/PB14*%
X123910200Y-91510000D03*
%TO.P,C14,2*%
%TO.N,GNDA*%
X125460200Y-91510000D03*
%TD*%
D21*
%TO.P,R37,1*%
%TO.N,Net-(R37-Pad1)*%
X142460200Y-113370000D03*
%TO.P,R37,2*%
%TO.N,Net-(U1B-USBVBUS)*%
X140810200Y-113370000D03*
%TD*%
D33*
%TO.P,C80,1*%
%TO.N,+5V*%
X178500000Y-109240000D03*
%TO.P,C80,2*%
%TO.N,GND*%
X178500000Y-107340000D03*
%TD*%
D21*
%TO.P,R39,1*%
%TO.N,/HPM5300RDC MAINENTRY/03-HPM5300_IO/PA13*%
X163405000Y-87630000D03*
%TO.P,R39,2*%
%TO.N,Net-(Q18-G)*%
X161755000Y-87630000D03*
%TD*%
D31*
%TO.P,C83,1*%
%TO.N,Net-(C83-Pad1)*%
X183250000Y-110550000D03*
%TO.P,C83,2*%
%TO.N,Net-(U16-VFB)*%
X181700000Y-110550000D03*
%TD*%
D34*
%TO.P,U16,1,GND*%
%TO.N,GND*%
X177000000Y-112950000D03*
%TO.P,U16,2,SW*%
%TO.N,Net-(U16-SW)*%
X177000000Y-112000000D03*
%TO.P,U16,3,VIN*%
%TO.N,+5V*%
X177000000Y-111050000D03*
%TO.P,U16,4,VFB*%
%TO.N,Net-(U16-VFB)*%
X179800000Y-111050000D03*
%TO.P,U16,5,EN*%
%TO.N,Net-(U16-EN)*%
X179800000Y-112000000D03*
%TO.P,U16,6,VBST*%
%TO.N,Net-(U16-VBST)*%
X179800000Y-112950000D03*
%TD*%
D21*
%TO.P,R87,1*%
%TO.N,/HPM5300RDC MAINENTRY/04-RDC_EXCT/VOPA*%
X119300200Y-94710000D03*
%TO.P,R87,2*%
%TO.N,/HPM5300RDC MAINENTRY/05-RDC_SINCOS/COS-*%
X117650200Y-94710000D03*
%TD*%
D18*
%TO.P,Q3,1,B*%
%TO.N,Net-(Q3-B)*%
X118075200Y-115670000D03*
%TO.P,Q3,2,E*%
%TO.N,Net-(Q3-E)*%
X118075200Y-113770000D03*
%TO.P,Q3,3,C*%
%TO.N,/HPM5300RDC MAINENTRY/04-RDC_EXCT/VOPA*%
X120075200Y-114720000D03*
%TD*%
D33*
%TO.P,C86,1*%
%TO.N,Net-(C83-Pad1)*%
X171000000Y-109255000D03*
%TO.P,C86,2*%
%TO.N,GND*%
X171000000Y-107355000D03*
%TD*%
D18*
%TO.P,Q8,1,B*%
%TO.N,Net-(Q5-E)*%
X114425200Y-119020000D03*
%TO.P,Q8,2,E*%
%TO.N,Net-(Q8-E)*%
X114425200Y-117120000D03*
%TO.P,Q8,3,C*%
%TO.N,/HPM5300RDC MAINENTRY/04-RDC_EXCT/VOPA*%
X116425200Y-118070000D03*
%TD*%
D28*
%TO.P,C8,1*%
%TO.N,Net-(Q1-B)*%
X129740000Y-109645000D03*
%TO.P,C8,2*%
%TO.N,Net-(U5A-INA-)*%
X129740000Y-108095000D03*
%TD*%
D20*
%TO.P,C45,1*%
%TO.N,+3.3V*%
X142420200Y-116460000D03*
%TO.P,C45,2*%
%TO.N,GND*%
X140870200Y-116460000D03*
%TD*%
D32*
%TO.P,C47,1*%
%TO.N,+3.3V*%
X145505200Y-114925000D03*
%TO.P,C47,2*%
%TO.N,GND*%
X145505200Y-116475000D03*
%TD*%
D22*
%TO.P,R99,1*%
%TO.N,Net-(LED6-F)*%
X142507346Y-94285000D03*
%TO.P,R99,2*%
%TO.N,/HPM5300RDC MAINENTRY/03-HPM5300_IO/PY01*%
X142507346Y-95935000D03*
%TD*%
D18*
%TO.P,Q17,1,G*%
%TO.N,Net-(Q16-D)*%
X161995200Y-96000000D03*
%TO.P,Q17,2,S*%
%TO.N,+3.3V*%
X161995200Y-94100000D03*
%TO.P,Q17,3,D*%
%TO.N,/HPM5300RDC MAINENTRY/07-MISC/DIG4_PWR*%
X163995200Y-95050000D03*
%TD*%
D31*
%TO.P,C82,1*%
%TO.N,Net-(U16-VBST)*%
X179115000Y-114450000D03*
%TO.P,C82,2*%
%TO.N,Net-(U16-SW)*%
X177565000Y-114450000D03*
%TD*%
D19*
%TO.P,R84,1*%
%TO.N,/HPM5300RDC MAINENTRY/05-RDC_SINCOS/COS+*%
X119200200Y-91500000D03*
%TO.P,R84,2*%
%TO.N,/HPM5300RDC MAINENTRY/05-RDC_SINCOS/ICOS+*%
X120850200Y-91500000D03*
%TD*%
%TO.P,R56,1*%
%TO.N,GNDA*%
X122805000Y-119410000D03*
%TO.P,R56,2*%
%TO.N,Net-(U5C-INC+)*%
X124455000Y-119410000D03*
%TD*%
D23*
%TO.P,C13,1*%
%TO.N,/HPM5300RDC MAINENTRY/03-HPM5300_IO/PB13*%
X124025200Y-100240000D03*
%TO.P,C13,2*%
%TO.N,GNDA*%
X125575200Y-100240000D03*
%TD*%
D33*
%TO.P,C87,1*%
%TO.N,+3.3V*%
X167100000Y-107355000D03*
%TO.P,C87,2*%
%TO.N,GND*%
X167100000Y-109255000D03*
%TD*%
D21*
%TO.P,R47,1*%
%TO.N,Net-(U5D-IND-)*%
X119620200Y-108660000D03*
%TO.P,R47,2*%
%TO.N,/HPM5300RDC MAINENTRY/04-RDC_EXCT/EXC-*%
X117970200Y-108660000D03*
%TD*%
%TO.P,R44,1*%
%TO.N,Net-(U5D-OUTD)*%
X122670200Y-108680000D03*
%TO.P,R44,2*%
%TO.N,Net-(U5D-IND-)*%
X121020200Y-108680000D03*
%TD*%
D19*
%TO.P,R76,1*%
%TO.N,/HPM5300RDC MAINENTRY/05-RDC_SINCOS/ISIN+*%
X120900200Y-98650000D03*
%TO.P,R76,2*%
%TO.N,Net-(U6A-VINA+)*%
X122550200Y-98650000D03*
%TD*%
D23*
%TO.P,C40,1*%
%TO.N,DCDC_IN*%
X150390200Y-103090000D03*
%TO.P,C40,2*%
%TO.N,DCDC_GND*%
X151940200Y-103090000D03*
%TD*%
D19*
%TO.P,R72,1*%
%TO.N,Net-(U6B-VINB-)*%
X123870200Y-94710000D03*
%TO.P,R72,2*%
%TO.N,Net-(U6B-VOUTB)*%
X125520200Y-94710000D03*
%TD*%
D35*
%TO.P,U6,1,VOUTA*%
%TO.N,Net-(U6A-VOUTA)*%
X131333700Y-99105000D03*
%TO.P,U6,2,VINA-*%
%TO.N,Net-(U6A-VINA-)*%
X130063700Y-99105000D03*
%TO.P,U6,3,VINA+*%
%TO.N,Net-(U6A-VINA+)*%
X128793700Y-99105000D03*
%TO.P,U6,4,VSS*%
%TO.N,GNDA*%
X127523700Y-99105000D03*
%TO.P,U6,5,VINB+*%
%TO.N,Net-(U6B-VINB+)*%
X127523700Y-93695000D03*
%TO.P,U6,6,VINB-*%
%TO.N,Net-(U6B-VINB-)*%
X128793700Y-93695000D03*
%TO.P,U6,7,VOUTB*%
%TO.N,Net-(U6B-VOUTB)*%
X130063700Y-93695000D03*
%TO.P,U6,8,VDD*%
%TO.N,/HPM5300RDC MAINENTRY/04-RDC_EXCT/VOPA*%
X131333700Y-93695000D03*
%TD*%
D20*
%TO.P,C20,1*%
%TO.N,+3.3V*%
X175675000Y-87990000D03*
%TO.P,C20,2*%
%TO.N,GND*%
X174125000Y-87990000D03*
%TD*%
D25*
%TO.P,R92,1*%
%TO.N,/HPM5300RDC MAINENTRY/03-HPM5300_IO/PY03*%
X146162038Y-95935000D03*
%TO.P,R92,2*%
%TO.N,Net-(LED6-E)*%
X146162038Y-94285000D03*
%TD*%
D19*
%TO.P,R74,1*%
%TO.N,Net-(U6B-VINB+)*%
X123850200Y-89900000D03*
%TO.P,R74,2*%
%TO.N,/HPM5300RDC MAINENTRY/03-HPM5300_IO/DAC1*%
X125500200Y-89900000D03*
%TD*%
D18*
%TO.P,Q18,1,G*%
%TO.N,Net-(Q18-G)*%
X161746542Y-86020000D03*
%TO.P,Q18,2,S*%
%TO.N,GND*%
X161746542Y-84120000D03*
%TO.P,Q18,3,D*%
%TO.N,Net-(Q18-D)*%
X163746542Y-85070000D03*
%TD*%
D27*
%TO.P,L5,1*%
%TO.N,/HPM5300RDC MAINENTRY/07-MISC/CO_-*%
X184390000Y-92170000D03*
%TO.P,L5,2,2*%
%TO.N,/HPM5300RDC MAINENTRY/07-MISC/CO_+*%
X184390000Y-89670000D03*
%TO.P,L5,3*%
%TO.N,/HPM5300RDC MAINENTRY/07-MISC/SEI_CLK_OUT_P*%
X188950000Y-89670000D03*
%TO.P,L5,4,4*%
%TO.N,/HPM5300RDC MAINENTRY/07-MISC/SEI_CLK_OUT_N*%
X188950000Y-92170000D03*
%TD*%
D28*
%TO.P,C19,1*%
%TO.N,/HPM5300RDC MAINENTRY/05-RDC_SINCOS/COS-*%
X117715200Y-93075000D03*
%TO.P,C19,2*%
%TO.N,/HPM5300RDC MAINENTRY/05-RDC_SINCOS/COS+*%
X117715200Y-91525000D03*
%TD*%
D21*
%TO.P,R29,1*%
%TO.N,+3.3V*%
X163575000Y-97750000D03*
%TO.P,R29,2*%
%TO.N,Net-(Q16-D)*%
X161925000Y-97750000D03*
%TD*%
D19*
%TO.P,R121,1*%
%TO.N,/HPM5300RDC MAINENTRY/03-HPM5300_IO/PA23*%
X191050000Y-103825000D03*
%TO.P,R121,2*%
%TO.N,Net-(J3-Pin_6)*%
X192700000Y-103825000D03*
%TD*%
D21*
%TO.P,R66,1*%
%TO.N,Net-(Q7-E)*%
X112805200Y-122140000D03*
%TO.P,R66,2*%
%TO.N,/HPM5300RDC MAINENTRY/04-RDC_EXCT/EXC+*%
X111155200Y-122140000D03*
%TD*%
D23*
%TO.P,C21,1*%
%TO.N,+3.3V*%
X181400000Y-100575000D03*
%TO.P,C21,2*%
%TO.N,GND*%
X182950000Y-100575000D03*
%TD*%
D19*
%TO.P,R77,1*%
%TO.N,/HPM5300RDC MAINENTRY/05-RDC_SINCOS/ICOS-*%
X120750200Y-94700000D03*
%TO.P,R77,2*%
%TO.N,Net-(U6B-VINB-)*%
X122400200Y-94700000D03*
%TD*%
%TO.P,R41,1*%
%TO.N,Net-(C7-Pad1)*%
X128165000Y-106490000D03*
%TO.P,R41,2*%
%TO.N,Net-(U5A-INA-)*%
X129815000Y-106490000D03*
%TD*%
D18*
%TO.P,Q19,1,G*%
%TO.N,Net-(Q18-D)*%
X165330100Y-86020000D03*
%TO.P,Q19,2,S*%
%TO.N,+3.3V*%
X165330100Y-84120000D03*
%TO.P,Q19,3,D*%
%TO.N,/HPM5300RDC MAINENTRY/07-MISC/DIG5_PWR*%
X167330100Y-85070000D03*
%TD*%
%TO.P,D1,1,K*%
%TO.N,/HPM5300RDC MAINENTRY/07-MISC/SEI_DATA_N*%
X198070000Y-99560000D03*
%TO.P,D1,2,K*%
%TO.N,/HPM5300RDC MAINENTRY/07-MISC/SEI_DATA_P*%
X198070000Y-97660000D03*
%TO.P,D1,3,A*%
%TO.N,GND*%
X200070000Y-98610000D03*
%TD*%
D20*
%TO.P,C57,1*%
%TO.N,Net-(U1C-VDD_OTPCAP)*%
X155575000Y-107120000D03*
%TO.P,C57,2*%
%TO.N,GND*%
X154025000Y-107120000D03*
%TD*%
D29*
%TO.P,D4,1*%
%TO.N,Net-(J3-Pin_1)*%
X192800024Y-124398984D03*
%TO.P,D4,2*%
%TO.N,GND*%
X191399976Y-124398984D03*
%TD*%
D19*
%TO.P,R73,1*%
%TO.N,Net-(U6A-VINA+)*%
X123970200Y-98630000D03*
%TO.P,R73,2*%
%TO.N,/HPM5300RDC MAINENTRY/03-HPM5300_IO/DAC0*%
X125620200Y-98630000D03*
%TD*%
D36*
%TO.P,U14,1,BY*%
%TO.N,/HPM5300RDC MAINENTRY/05-RDC_SINCOS/ICOS-*%
X136672000Y-81770000D03*
%TO.P,U14,2,BX*%
%TO.N,/HPM5300RDC MAINENTRY/05-RDC_SINCOS/ISIN-*%
X136672000Y-82420000D03*
%TO.P,U14,3,CY*%
%TO.N,GNDA*%
X136672000Y-83070000D03*
%TO.P,U14,4,OUT/IN_CX_OR_CY*%
X136672000Y-83720000D03*
%TO.P,U14,5,IN/OUT_CX*%
X136672000Y-84370000D03*
%TO.P,U14,6,INH*%
%TO.N,/HPM5300RDC MAINENTRY/05-RDC_SINCOS/INH_CMOS*%
X136672000Y-85020000D03*
%TO.P,U14,7,VEE*%
%TO.N,GNDA*%
X136672000Y-85670000D03*
%TO.P,U14,8,VSS*%
X136672000Y-86320000D03*
%TO.P,U14,9,C*%
X130940000Y-86320000D03*
%TO.P,U14,10,B*%
%TO.N,/HPM5300RDC MAINENTRY/05-RDC_SINCOS/CTRL_CMOS*%
X130940000Y-85670000D03*
%TO.P,U14,11,A*%
X130940000Y-85020000D03*
%TO.P,U14,12,AX*%
%TO.N,/HPM5300RDC MAINENTRY/05-RDC_SINCOS/ISIN+*%
X130940000Y-84370000D03*
%TO.P,U14,13,AY*%
%TO.N,/HPM5300RDC MAINENTRY/05-RDC_SINCOS/ICOS+*%
X130940000Y-83720000D03*
%TO.P,U14,14,OUT/IN_AX_OR_AY*%
%TO.N,/HPM5300RDC MAINENTRY/05-RDC_SINCOS/SIN+*%
X130940000Y-83070000D03*
%TO.P,U14,15,OUT/IN_BX_OR_BY*%
%TO.N,/HPM5300RDC MAINENTRY/05-RDC_SINCOS/SIN-*%
X130940000Y-82420000D03*
%TO.P,U14,16,VDD*%
%TO.N,/HPM5300RDC MAINENTRY/04-RDC_EXCT/VOPA*%
X130940000Y-81770000D03*
%TD*%
D19*
%TO.P,R88,1*%
%TO.N,/HPM5300RDC MAINENTRY/05-RDC_SINCOS/COS+*%
X117630200Y-89890000D03*
%TO.P,R88,2*%
%TO.N,GNDA*%
X119280200Y-89890000D03*
%TD*%
%TO.P,R122,1*%
%TO.N,/HPM5300RDC MAINENTRY/03-HPM5300_IO/PA20*%
X191125000Y-117075000D03*
%TO.P,R122,2*%
%TO.N,Net-(J3-Pin_3)*%
X192775000Y-117075000D03*
%TD*%
D21*
%TO.P,R18,1*%
%TO.N,+3.3V*%
X145418142Y-89050000D03*
%TO.P,R18,2*%
%TO.N,Net-(Q10-G)*%
X143768142Y-89050000D03*
%TD*%
D19*
%TO.P,R75,1*%
%TO.N,/HPM5300RDC MAINENTRY/05-RDC_SINCOS/ISIN-*%
X120920200Y-103310000D03*
%TO.P,R75,2*%
%TO.N,Net-(U6A-VINA-)*%
X122570200Y-103310000D03*
%TD*%
D25*
%TO.P,R119,1*%
%TO.N,/HPM5300RDC MAINENTRY/03-HPM5300_IO/PB10*%
X134480000Y-96265000D03*
%TO.P,R119,2*%
%TO.N,Net-(Q20-G)*%
X134480000Y-94615000D03*
%TD*%
D30*
%TO.P,U11,1,RO*%
%TO.N,/HPM5300RDC MAINENTRY/03-HPM5300_IO/PA19*%
X174125000Y-100598500D03*
%TO.P,U11,2,~{RE}*%
%TO.N,/HPM5300RDC MAINENTRY/03-HPM5300_IO/PA16*%
X174125000Y-99328500D03*
%TO.P,U11,3,DE*%
X174125000Y-98058500D03*
%TO.P,U11,4,DI*%
%TO.N,/HPM5300RDC MAINENTRY/03-HPM5300_IO/PA18*%
X174125000Y-96788500D03*
%TO.P,U11,5,GND*%
%TO.N,GND*%
X179535000Y-96788500D03*
%TO.P,U11,6,A*%
%TO.N,/HPM5300RDC MAINENTRY/07-MISC/DA_+*%
X179535000Y-98058500D03*
%TO.P,U11,7,B*%
%TO.N,/HPM5300RDC MAINENTRY/07-MISC/DA_-*%
X179535000Y-99328500D03*
%TO.P,U11,8,VCC*%
%TO.N,+3.3V*%
X179535000Y-100598500D03*
%TD*%
D23*
%TO.P,C54,1*%
%TO.N,+3.3V*%
X150370200Y-110850000D03*
%TO.P,C54,2*%
%TO.N,GND*%
X151920200Y-110850000D03*
%TD*%
D21*
%TO.P,FB6,1*%
%TO.N,DCDC_GND*%
X151970200Y-101530000D03*
%TO.P,FB6,2*%
%TO.N,GND*%
X150320200Y-101530000D03*
%TD*%
D20*
%TO.P,C55,1*%
%TO.N,+3.3V*%
X147870200Y-106040000D03*
%TO.P,C55,2*%
%TO.N,GND*%
X146320200Y-106040000D03*
%TD*%
D18*
%TO.P,Q12,1,G*%
%TO.N,Net-(Q12-G)*%
X147412314Y-86020000D03*
%TO.P,Q12,2,S*%
%TO.N,GND*%
X147412314Y-84120000D03*
%TO.P,Q12,3,D*%
%TO.N,Net-(Q12-D)*%
X149412314Y-85070000D03*
%TD*%
D37*
%TO.P,Q20,1,G*%
%TO.N,Net-(Q20-G)*%
X134586200Y-93062450D03*
%TO.P,Q20,2,S*%
%TO.N,GNDA*%
X132686200Y-93062450D03*
%TO.P,Q20,3,D*%
%TO.N,/HPM5300RDC MAINENTRY/05-RDC_SINCOS/INH_CMOS*%
X133636200Y-91062450D03*
%TD*%
D18*
%TO.P,Q14,1,G*%
%TO.N,Net-(Q14-G)*%
X154579428Y-86020000D03*
%TO.P,Q14,2,S*%
%TO.N,GND*%
X154579428Y-84120000D03*
%TO.P,Q14,3,D*%
%TO.N,Net-(Q14-D)*%
X156579428Y-85070000D03*
%TD*%
D21*
%TO.P,R54,1*%
%TO.N,GNDA*%
X128540000Y-119090000D03*
%TO.P,R54,2*%
%TO.N,Net-(U5B-INB+)*%
X126890000Y-119090000D03*
%TD*%
D19*
%TO.P,R123,1*%
%TO.N,/HPM5300RDC MAINENTRY/03-HPM5300_IO/PA21*%
X191100000Y-119675000D03*
%TO.P,R123,2*%
%TO.N,Net-(J3-Pin_2)*%
X192750000Y-119675000D03*
%TD*%
D25*
%TO.P,R96,1*%
%TO.N,/HPM5300RDC MAINENTRY/03-HPM5300_IO/PY06*%
X151644076Y-95935000D03*
%TO.P,R96,2*%
%TO.N,Net-(LED6-C)*%
X151644076Y-94285000D03*
%TD*%
D21*
%TO.P,R23,1*%
%TO.N,/HPM5300RDC MAINENTRY/03-HPM5300_IO/PA15*%
X141885000Y-87570000D03*
%TO.P,R23,2*%
%TO.N,Net-(Q11-G)*%
X140235000Y-87570000D03*
%TD*%
%TO.P,R46,1*%
%TO.N,Net-(U5D-IND+)*%
X119630200Y-107150000D03*
%TO.P,R46,2*%
%TO.N,/HPM5300RDC MAINENTRY/04-RDC_EXCT/EXC+*%
X117980200Y-107150000D03*
%TD*%
D19*
%TO.P,R53,1*%
%TO.N,Net-(U5B-INB+)*%
X126890000Y-117600000D03*
%TO.P,R53,2*%
%TO.N,/HPM5300RDC MAINENTRY/04-RDC_EXCT/VOPA*%
X128540000Y-117600000D03*
%TD*%
D18*
%TO.P,D5,1,K*%
%TO.N,/HPM5300RDC MAINENTRY/07-MISC/SEI_CLK_OUT_N*%
X198290000Y-91960000D03*
%TO.P,D5,2,K*%
%TO.N,/HPM5300RDC MAINENTRY/07-MISC/SEI_CLK_OUT_P*%
X198290000Y-90060000D03*
%TO.P,D5,3,A*%
%TO.N,GND*%
X200290000Y-91010000D03*
%TD*%
D25*
%TO.P,R118,1*%
%TO.N,/HPM5300RDC MAINENTRY/03-HPM5300_IO/PB11*%
X137040000Y-96285000D03*
%TO.P,R118,2*%
%TO.N,Net-(Q21-G)*%
X137040000Y-94635000D03*
%TD*%
%TO.P,R95,1*%
%TO.N,/HPM5300RDC MAINENTRY/03-HPM5300_IO/PY05*%
X149816730Y-95935000D03*
%TO.P,R95,2*%
%TO.N,Net-(LED6-DP)*%
X149816730Y-94285000D03*
%TD*%
D19*
%TO.P,R35,1*%
%TO.N,GND*%
X153975000Y-108630000D03*
%TO.P,R35,2*%
%TO.N,Net-(U1D-PA02{slash}TMR1.COMP1{slash}URT0.DE{slash}URT0.RTS{slash}I2C0.SCL{slash}CAN0.STBY{slash}ACMP.COMP0{slash}PWM1.P2{slash}TRGM0.P02{slash}ACMP.COMP1{slash}QEI1.F{slash}ADC1.DBG)*%
X155625000Y-108630000D03*
%TD*%
D21*
%TO.P,R68,1*%
%TO.N,Net-(Q9-E)*%
X112850200Y-115640000D03*
%TO.P,R68,2*%
%TO.N,/HPM5300RDC MAINENTRY/04-RDC_EXCT/EXC-*%
X111200200Y-115640000D03*
%TD*%
D36*
%TO.P,U15,1,BY*%
%TO.N,/HPM5300RDC MAINENTRY/05-RDC_SINCOS/ISIN-*%
X125446000Y-81835000D03*
%TO.P,U15,2,BX*%
%TO.N,/HPM5300RDC MAINENTRY/05-RDC_SINCOS/ICOS-*%
X125446000Y-82485000D03*
%TO.P,U15,3,CY*%
%TO.N,GNDA*%
X125446000Y-83135000D03*
%TO.P,U15,4,OUT/IN_CX_OR_CY*%
X125446000Y-83785000D03*
%TO.P,U15,5,IN/OUT_CX*%
X125446000Y-84435000D03*
%TO.P,U15,6,INH*%
%TO.N,/HPM5300RDC MAINENTRY/05-RDC_SINCOS/INH_CMOS*%
X125446000Y-85085000D03*
%TO.P,U15,7,VEE*%
%TO.N,GNDA*%
X125446000Y-85735000D03*
%TO.P,U15,8,VSS*%
X125446000Y-86385000D03*
%TO.P,U15,9,C*%
X119714000Y-86385000D03*
%TO.P,U15,10,B*%
%TO.N,/HPM5300RDC MAINENTRY/05-RDC_SINCOS/CTRL_CMOS*%
X119714000Y-85735000D03*
%TO.P,U15,11,A*%
X119714000Y-85085000D03*
%TO.P,U15,12,AX*%
%TO.N,/HPM5300RDC MAINENTRY/05-RDC_SINCOS/ICOS+*%
X119714000Y-84435000D03*
%TO.P,U15,13,AY*%
%TO.N,/HPM5300RDC MAINENTRY/05-RDC_SINCOS/ISIN+*%
X119714000Y-83785000D03*
%TO.P,U15,14,OUT/IN_AX_OR_AY*%
%TO.N,/HPM5300RDC MAINENTRY/05-RDC_SINCOS/COS+*%
X119714000Y-83135000D03*
%TO.P,U15,15,OUT/IN_BX_OR_BY*%
%TO.N,/HPM5300RDC MAINENTRY/05-RDC_SINCOS/COS-*%
X119714000Y-82485000D03*
%TO.P,U15,16,VDD*%
%TO.N,/HPM5300RDC MAINENTRY/04-RDC_EXCT/VOPA*%
X119714000Y-81835000D03*
%TD*%
D21*
%TO.P,R69,1*%
%TO.N,Net-(U6A-VOUTA)*%
X125605200Y-101760000D03*
%TO.P,R69,2*%
%TO.N,/HPM5300RDC MAINENTRY/03-HPM5300_IO/PB13*%
X123955200Y-101760000D03*
%TD*%
%TO.P,R63,1*%
%TO.N,Net-(Q4-E)*%
X112780200Y-125270000D03*
%TO.P,R63,2*%
%TO.N,/HPM5300RDC MAINENTRY/04-RDC_EXCT/VOPA*%
X111130200Y-125270000D03*
%TD*%
D29*
%TO.P,D6,1*%
%TO.N,Net-(J3-Pin_2)*%
X192600024Y-120998984D03*
%TO.P,D6,2*%
%TO.N,GND*%
X191199976Y-120998984D03*
%TD*%
D31*
%TO.P,C79,1*%
%TO.N,+5V*%
X180250000Y-109100000D03*
%TO.P,C79,2*%
%TO.N,GND*%
X180250000Y-107550000D03*
%TD*%
D19*
%TO.P,R106,1*%
%TO.N,GND*%
X161805000Y-89050000D03*
%TO.P,R106,2*%
%TO.N,/HPM5300RDC MAINENTRY/03-HPM5300_IO/PA13*%
X163455000Y-89050000D03*
%TD*%
D38*
%TO.P,L12,1,1*%
%TO.N,Net-(U16-SW)*%
X174593000Y-111675000D03*
%TO.P,L12,2,2*%
%TO.N,Net-(C83-Pad1)*%
X172257000Y-111675000D03*
%TD*%
D18*
%TO.P,Q5,1,B*%
%TO.N,Net-(Q3-B)*%
X120105200Y-117110000D03*
%TO.P,Q5,2,E*%
%TO.N,Net-(Q5-E)*%
X120105200Y-119010000D03*
%TO.P,Q5,3,C*%
%TO.N,GNDA*%
X118105200Y-118060000D03*
%TD*%
D25*
%TO.P,R93,1*%
%TO.N,/HPM5300RDC MAINENTRY/03-HPM5300_IO/PY04*%
X147989384Y-95935000D03*
%TO.P,R93,2*%
%TO.N,Net-(LED6-D)*%
X147989384Y-94285000D03*
%TD*%
D19*
%TO.P,R45,1*%
%TO.N,/HPM5300RDC MAINENTRY/VREF1{slash}2*%
X117980200Y-105600000D03*
%TO.P,R45,2*%
%TO.N,Net-(U5D-IND+)*%
X119630200Y-105600000D03*
%TD*%
%TO.P,R82,1*%
%TO.N,/HPM5300RDC MAINENTRY/05-RDC_SINCOS/SIN+*%
X119360200Y-100215000D03*
%TO.P,R82,2*%
%TO.N,/HPM5300RDC MAINENTRY/05-RDC_SINCOS/ISIN+*%
X121010200Y-100215000D03*
%TD*%
D39*
%TO.P,R89,1*%
%TO.N,/HPM5300RDC MAINENTRY/07-MISC/SEI_DATA_N*%
X192160000Y-99742500D03*
%TO.P,R89,2*%
%TO.N,/HPM5300RDC MAINENTRY/07-MISC/SEI_DATA_P*%
X192160000Y-97917500D03*
%TD*%
D37*
%TO.P,Q21,1,G*%
%TO.N,Net-(Q21-G)*%
X138106200Y-93102450D03*
%TO.P,Q21,2,S*%
%TO.N,GNDA*%
X136206200Y-93102450D03*
%TO.P,Q21,3,D*%
%TO.N,/HPM5300RDC MAINENTRY/05-RDC_SINCOS/CTRL_CMOS*%
X137156200Y-91102450D03*
%TD*%
D33*
%TO.P,C85,1*%
%TO.N,Net-(C83-Pad1)*%
X172975000Y-109255000D03*
%TO.P,C85,2*%
%TO.N,GND*%
X172975000Y-107355000D03*
%TD*%
D19*
%TO.P,R104,1*%
%TO.N,GND*%
X154495000Y-89050000D03*
%TO.P,R104,2*%
%TO.N,/HPM5300RDC MAINENTRY/03-HPM5300_IO/PA10*%
X156145000Y-89050000D03*
%TD*%
D33*
%TO.P,C81,1*%
%TO.N,+5V*%
X176500000Y-109240000D03*
%TO.P,C81,2*%
%TO.N,GND*%
X176500000Y-107340000D03*
%TD*%
D29*
%TO.P,D7,1*%
%TO.N,Net-(J3-Pin_3)*%
X192600024Y-118373984D03*
%TO.P,D7,2*%
%TO.N,GND*%
X191199976Y-118373984D03*
%TD*%
D18*
%TO.P,Q4,1,B*%
%TO.N,Net-(Q2-B)*%
X120017650Y-123873800D03*
%TO.P,Q4,2,E*%
%TO.N,Net-(Q4-E)*%
X120017650Y-125773800D03*
%TO.P,Q4,3,C*%
%TO.N,GNDA*%
X118017650Y-124823800D03*
%TD*%
D25*
%TO.P,R97,1*%
%TO.N,/HPM5300RDC MAINENTRY/03-HPM5300_IO/PY07*%
X153471428Y-95935000D03*
%TO.P,R97,2*%
%TO.N,Net-(LED6-G)*%
X153471428Y-94285000D03*
%TD*%
%TO.P,R43,1*%
%TO.N,GNDA*%
X133420000Y-115135000D03*
%TO.P,R43,2*%
%TO.N,Net-(U5A-INA+)*%
X133420000Y-113485000D03*
%TD*%
D32*
%TO.P,C62,1*%
%TO.N,VDD_SOC*%
X144790000Y-106025000D03*
%TO.P,C62,2*%
%TO.N,GND*%
X144790000Y-107575000D03*
%TD*%
D18*
%TO.P,Q13,1,G*%
%TO.N,Net-(Q12-D)*%
X150995871Y-86020000D03*
%TO.P,Q13,2,S*%
%TO.N,+3.3V*%
X150995871Y-84120000D03*
%TO.P,Q13,3,D*%
%TO.N,/HPM5300RDC MAINENTRY/07-MISC/DIG2_PWR*%
X152995871Y-85070000D03*
%TD*%
D40*
%TO.P,U5,1,OUTA*%
%TO.N,Net-(Q1-B)*%
X128620000Y-111590000D03*
%TO.P,U5,2,INA-*%
%TO.N,Net-(U5A-INA-)*%
X128620000Y-112240000D03*
%TO.P,U5,3,INA+*%
%TO.N,Net-(U5A-INA+)*%
X128620000Y-112890000D03*
%TO.P,U5,4,V+*%
%TO.N,/HPM5300RDC MAINENTRY/04-RDC_EXCT/VOPA*%
X128620000Y-113540000D03*
%TO.P,U5,5,INB+*%
%TO.N,Net-(U5B-INB+)*%
X128620000Y-114190000D03*
%TO.P,U5,6,INB-*%
%TO.N,Net-(U5B-INB-)*%
X128620000Y-114840000D03*
%TO.P,U5,7,OUTB*%
%TO.N,Net-(Q2-B)*%
X128620000Y-115490000D03*
%TO.P,U5,8,OUTC*%
%TO.N,Net-(Q3-B)*%
X123020000Y-115490000D03*
%TO.P,U5,9,INC-*%
%TO.N,Net-(U5C-INC-)*%
X123020000Y-114840000D03*
%TO.P,U5,10,INC+*%
%TO.N,Net-(U5C-INC+)*%
X123020000Y-114190000D03*
%TO.P,U5,11,V-*%
%TO.N,GNDA*%
X123020000Y-113540000D03*
%TO.P,U5,12,IND+*%
%TO.N,Net-(U5D-IND+)*%
X123020000Y-112890000D03*
%TO.P,U5,13,IND-*%
%TO.N,Net-(U5D-IND-)*%
X123020000Y-112240000D03*
%TO.P,U5,14,OUTD*%
%TO.N,Net-(U5D-OUTD)*%
X123020000Y-111590000D03*
%TD*%
D25*
%TO.P,R49,1*%
%TO.N,Net-(Q1-C)*%
X132820000Y-107685000D03*
%TO.P,R49,2*%
%TO.N,/HPM5300RDC MAINENTRY/04-RDC_EXCT/EXC_P*%
X132820000Y-106035000D03*
%TD*%
D28*
%TO.P,C50,1*%
%TO.N,VDD_SOC*%
X143965200Y-116470000D03*
%TO.P,C50,2*%
%TO.N,GND*%
X143965200Y-114920000D03*
%TD*%
D41*
%TO.N,GND*%
X131610000Y-121490000D03*
X188100000Y-113200000D03*
X179000000Y-124500000D03*
X155565200Y-113720000D03*
X189400000Y-132000000D03*
X153550000Y-89050000D03*
X140600000Y-81300000D03*
X171575000Y-101550000D03*
X141460000Y-84120000D03*
X167500000Y-103800000D03*
X170020000Y-125210000D03*
X150380000Y-99220000D03*
X191325000Y-125050000D03*
X169200000Y-118000000D03*
X160000000Y-121400000D03*
X134850000Y-116440000D03*
X160900000Y-89050000D03*
X186100000Y-132000000D03*
X171180000Y-132500000D03*
X137415200Y-114720000D03*
X173400000Y-95300000D03*
X151300000Y-111850000D03*
X178350000Y-104950000D03*
X200400000Y-118600000D03*
X190750000Y-121025000D03*
X176000000Y-116600000D03*
X130816400Y-119850000D03*
X180350000Y-102450000D03*
X179400000Y-82600000D03*
X156230000Y-106360000D03*
X149400000Y-113410000D03*
X179350000Y-102450000D03*
X149390000Y-109310000D03*
X156000000Y-99905000D03*
X188100000Y-115400000D03*
X142300000Y-123600000D03*
X176490000Y-106390000D03*
X179520000Y-95800000D03*
X186925000Y-114375000D03*
X185975000Y-100100000D03*
X147300000Y-110300000D03*
X174200000Y-118000000D03*
X172950000Y-99775000D03*
X130816400Y-118540000D03*
X174275200Y-123750000D03*
X183950000Y-100975000D03*
X200700000Y-94900000D03*
X165500000Y-110800000D03*
X146670000Y-82870000D03*
X148360000Y-99925000D03*
X149875200Y-120210000D03*
X173725000Y-83625000D03*
X176975000Y-113550000D03*
X125000000Y-132100000D03*
X190300000Y-83200000D03*
X129240000Y-127400000D03*
X190300000Y-114100000D03*
X176000000Y-117800000D03*
X164350000Y-92275000D03*
X131610000Y-120190000D03*
X186200000Y-111375000D03*
X130925000Y-121205000D03*
X163400000Y-118000000D03*
X179350000Y-104950000D03*
X200700000Y-108900000D03*
X144375200Y-120230000D03*
X129230000Y-131980000D03*
X171620700Y-106363864D03*
X171600000Y-118000000D03*
X186920619Y-113200000D03*
X178350000Y-102450000D03*
X172700000Y-102200000D03*
X188600000Y-87100000D03*
X132700000Y-116440000D03*
X134190000Y-116440000D03*
X137000000Y-122000000D03*
X136040000Y-107720000D03*
X185741238Y-113200000D03*
X180350000Y-103700000D03*
X139280000Y-119340000D03*
X187800000Y-100000000D03*
X180350000Y-104950000D03*
X163410000Y-110813332D03*
X177625000Y-97525000D03*
X167450000Y-110400000D03*
X168500000Y-102100000D03*
X178390000Y-120080000D03*
X154695200Y-99915000D03*
X143875200Y-101980000D03*
X179350000Y-103700000D03*
X159195200Y-102440000D03*
X189600000Y-111500000D03*
X171000000Y-106375000D03*
X191000000Y-85100000D03*
X185750000Y-114375000D03*
X160700000Y-83490000D03*
X201200000Y-101900000D03*
X199800000Y-113900000D03*
X130816400Y-117080000D03*
X188100000Y-114375000D03*
X190650000Y-118475000D03*
X184650000Y-116700000D03*
X139270000Y-89050000D03*
X166200000Y-118000000D03*
X182825000Y-116600000D03*
X148640000Y-105460000D03*
X119000000Y-131700000D03*
X191125000Y-105700000D03*
X163410000Y-109736666D03*
X188100000Y-118000000D03*
X154100000Y-103900000D03*
X142380200Y-110490000D03*
X184700000Y-82600000D03*
X178350000Y-103700000D03*
X145470000Y-108840000D03*
X176075000Y-97525000D03*
X131760000Y-116440000D03*
X156070000Y-94550000D03*
X147600000Y-112100000D03*
X163410000Y-108660000D03*
X146540000Y-89050000D03*
X188900000Y-84400000D03*
X201370000Y-91010000D03*
X181275000Y-108075000D03*
X200500000Y-122700000D03*
X170900000Y-97700000D03*
X174130000Y-86710000D03*
X201440000Y-98620000D03*
X140070000Y-116460000D03*
X165300000Y-109400000D03*
X153440000Y-84120000D03*
X172575000Y-93775000D03*
X188100000Y-116800000D03*
X178500492Y-106301931D03*
X184125000Y-113500000D03*
X147035200Y-114000000D03*
X140045200Y-112720000D03*
X169800000Y-81500000D03*
X155525200Y-112720000D03*
X190065200Y-124060000D03*
X155485200Y-109720000D03*
X145200000Y-110700000D03*
X190425000Y-101375000D03*
X143950000Y-114040000D03*
X183325000Y-101350000D03*
X155517897Y-99905000D03*
X168400000Y-91600000D03*
X171000000Y-95650000D03*
%TO.N,GNDA*%
X124275000Y-84425000D03*
X124750000Y-92550000D03*
X131875000Y-100650000D03*
X117500000Y-85100000D03*
X124050000Y-85740000D03*
X110630000Y-119680000D03*
X142000000Y-99100000D03*
X126225000Y-92505500D03*
X131975000Y-106150000D03*
X115500000Y-121530000D03*
X133400000Y-93050000D03*
X134750000Y-86550000D03*
X134360000Y-114580000D03*
X115510000Y-114710000D03*
X124175000Y-83125000D03*
X118010000Y-124090000D03*
X130625000Y-102525000D03*
X134680000Y-83070000D03*
X138200000Y-102700000D03*
X110900000Y-104100000D03*
X111700000Y-96900000D03*
X121410000Y-113500000D03*
X121800000Y-123090000D03*
X136190000Y-109380000D03*
X130960000Y-86910000D03*
X135780000Y-94360000D03*
X111400000Y-94100000D03*
X135675200Y-112010000D03*
X127585200Y-102675000D03*
X126225000Y-91171105D03*
X119720000Y-86920000D03*
X115700000Y-86900000D03*
X118120000Y-117140000D03*
X126425000Y-93325000D03*
X119275000Y-88900000D03*
X112800000Y-90000000D03*
X122020000Y-120580000D03*
X126540000Y-98700000D03*
X119450000Y-97180000D03*
X134975000Y-88325000D03*
X133825000Y-87425000D03*
X112100000Y-108100000D03*
X137030000Y-111190000D03*
X130440000Y-108940000D03*
X109800000Y-86700000D03*
X128520000Y-120120000D03*
X133560000Y-108560000D03*
X123325000Y-105675000D03*
X124225000Y-83775000D03*
X109700000Y-105800000D03*
X135550000Y-85650000D03*
X112330000Y-112920000D03*
X127267500Y-106957500D03*
X126725000Y-105800000D03*
X126690000Y-112800000D03*
%TO.N,+3.3V*%
X150325200Y-113230000D03*
X149290000Y-108130000D03*
X163995200Y-96050000D03*
X160162985Y-86780000D03*
X169250000Y-106250000D03*
X150980000Y-84890000D03*
X168000000Y-105500000D03*
X165750000Y-105500000D03*
X148410000Y-106710000D03*
X149940000Y-108120000D03*
X163660000Y-105640000D03*
X167330100Y-86390000D03*
X171080000Y-122570000D03*
X173980000Y-125070000D03*
X115710000Y-131020000D03*
X168000000Y-106250000D03*
X150580000Y-108120000D03*
X160785200Y-94100000D03*
X148580000Y-113990000D03*
X152995871Y-87450000D03*
X167050000Y-122540000D03*
X175690000Y-86510000D03*
X163640000Y-106960000D03*
X143840000Y-82880000D03*
X150295200Y-110220000D03*
X144070000Y-109040000D03*
X169250000Y-105500000D03*
X165330000Y-83230000D03*
X151800000Y-107620000D03*
X128930000Y-130430000D03*
X156920000Y-84130000D03*
X141645200Y-115220000D03*
X150375200Y-115560000D03*
X164400000Y-106310000D03*
X166750000Y-105500000D03*
X165750000Y-106250000D03*
X147890000Y-108580000D03*
X144160000Y-100900000D03*
X164350000Y-105650000D03*
X144885200Y-115590000D03*
X163650000Y-106230000D03*
X166750000Y-106250000D03*
X164400000Y-107020000D03*
X145828757Y-88459385D03*
X151210000Y-108110000D03*
%TO.N,Net-(U1B-USBVBUS)*%
X141370000Y-114040000D03*
%TO.N,+5VD*%
X190095200Y-125470000D03*
X186755200Y-125220000D03*
X185795200Y-124220000D03*
X185285200Y-125420000D03*
%TO.N,Net-(J1-CC1)*%
X186595200Y-127730000D03*
%TO.N,Net-(J1-CC2)*%
X189595200Y-127650000D03*
%TO.N,DCDC_GND*%
X151840000Y-104710200D03*
X151920200Y-102200000D03*
X151840000Y-105300000D03*
%TO.N,DCDC_IN*%
X151000000Y-105220000D03*
X151020000Y-105780000D03*
X150390200Y-105470000D03*
X150895200Y-106520000D03*
X149670000Y-106090000D03*
%TO.N,VDD_SOC*%
X143865200Y-117440000D03*
X152835200Y-114220000D03*
X160585000Y-99830000D03*
X149375200Y-117450000D03*
X143840000Y-106350000D03*
X140245200Y-108680000D03*
X152755200Y-109220000D03*
X160595000Y-99180000D03*
X160585000Y-100480000D03*
X160575000Y-101170000D03*
X140115200Y-114220000D03*
%TO.N,Net-(U1D-PA02{slash}TMR1.COMP1{slash}URT0.DE{slash}URT0.RTS{slash}I2C0.SCL{slash}CAN0.STBY{slash}ACMP.COMP0{slash}PWM1.P2{slash}TRGM0.P02{slash}ACMP.COMP1{slash}QEI1.F{slash}ADC1.DBG)*%
X155810000Y-108240000D03*
%TO.N,Net-(U1C-VDD_OTPCAP)*%
X155615000Y-106210000D03*
%TO.N,Net-(U6B-VOUTB)*%
X125660000Y-95875000D03*
X125650000Y-97150000D03*
%TO.N,VCC*%
X133125000Y-81950000D03*
X132875000Y-82750000D03*
X133125000Y-81275000D03*
X132575000Y-81550000D03*
X132575000Y-80950000D03*
X132575000Y-82225000D03*
%TO.N,Net-(C7-Pad1)*%
X125540000Y-123030000D03*
%TO.N,Net-(U5C-INC-)*%
X121480000Y-114910000D03*
%TO.N,Net-(U5B-INB-)*%
X130010000Y-122060000D03*
%TO.N,+5V*%
X181380000Y-122950000D03*
X177400000Y-108800000D03*
X181000000Y-116200000D03*
X179450000Y-108875000D03*
X136245000Y-106645000D03*
X181000000Y-117000000D03*
X135845000Y-106245000D03*
X177600000Y-109600000D03*
X179975000Y-117000000D03*
X181797676Y-93611876D03*
X180000000Y-116200000D03*
X177000000Y-110200000D03*
X135475000Y-105875000D03*
X179600000Y-109800000D03*
X180000000Y-115400000D03*
X181370000Y-125370000D03*
X184175000Y-115050000D03*
X180954866Y-115395752D03*
X180725000Y-108800000D03*
X180600000Y-109800000D03*
%TO.N,Net-(LED6-B)*%
X144050000Y-93060000D03*
%TO.N,Net-(LED6-F)*%
X142310000Y-92940000D03*
%TO.N,Net-(LED6-A)*%
X140680000Y-93050000D03*
%TO.N,Net-(U4-IN)*%
X133810000Y-104980000D03*
X124995000Y-107920000D03*
X125090000Y-110640000D03*
X132459300Y-105027592D03*
X126060200Y-110590000D03*
X127100000Y-110610000D03*
%TO.N,Net-(C83-Pad1)*%
X183951111Y-112022778D03*
%TO.N,/HPM5300RDC MAINENTRY/03-HPM5300_IO/PB10*%
X140300000Y-102200000D03*
%TO.N,/HPM5300RDC MAINENTRY/04-RDC_EXCT/EXC_P*%
X131110000Y-115960000D03*
%TO.N,/HPM5300RDC MAINENTRY/04-RDC_EXCT/EXC_N*%
X131195200Y-110630000D03*
%TO.N,/HPM5300RDC MAINENTRY/04-RDC_EXCT/EXC+*%
X111220200Y-124380000D03*
%TO.N,/HPM5300RDC MAINENTRY/04-RDC_EXCT/EXC-*%
X111250200Y-114890000D03*
%TO.N,/HPM5300RDC MAINENTRY/03-HPM5300_IO/PB13*%
X124025200Y-100990000D03*
%TO.N,/HPM5300RDC MAINENTRY/03-HPM5300_IO/PB14*%
X127350000Y-96000000D03*
%TO.N,/HPM5300RDC MAINENTRY/04-RDC_EXCT/VOPA*%
X120050000Y-120800000D03*
X121390000Y-117930000D03*
X119450000Y-104280000D03*
X120070000Y-113710000D03*
X130920000Y-114530000D03*
X134580000Y-90120000D03*
X130940000Y-81120000D03*
X116430000Y-117120000D03*
X119720000Y-81070000D03*
X133375000Y-96650000D03*
X131333700Y-95200000D03*
X133400000Y-95600000D03*
X109670000Y-125240000D03*
X126650000Y-89150000D03*
X133400000Y-94400000D03*
X109340000Y-118730000D03*
X131775000Y-97250000D03*
X116480000Y-124080000D03*
X128510000Y-116570000D03*
X133375000Y-97250000D03*
X128200000Y-89600000D03*
X132575000Y-97250000D03*
X129750000Y-91550000D03*
X132175000Y-96650000D03*
X134560000Y-108450000D03*
X119340000Y-95760000D03*
X126800000Y-89600000D03*
X137720000Y-89930000D03*
X129700000Y-90450000D03*
X130975000Y-96650000D03*
X131340000Y-95800000D03*
%TO.N,/HPM5300RDC MAINENTRY/VREF1{slash}2*%
X117990000Y-104480000D03*
%TO.N,/HPM5300RDC MAINENTRY/03-HPM5300_IO/DAC1*%
X126775000Y-95725000D03*
%TO.N,/HPM5300RDC MAINENTRY/RESETN*%
X156825000Y-118075000D03*
X149570000Y-112370000D03*
%TO.N,/HPM5300RDC MAINENTRY/06-DEBUGGER/DP1*%
X188620000Y-127620000D03*
X187590000Y-127620000D03*
%TO.N,/HPM5300RDC MAINENTRY/03-HPM5300_IO/JTAG_TDI*%
X154050000Y-125860000D03*
X138420000Y-125860000D03*
%TO.N,/HPM5300RDC MAINENTRY/03-HPM5300_IO/JTAG_TMS*%
X151870000Y-126270000D03*
X143520000Y-126270000D03*
%TO.N,/HPM5300RDC MAINENTRY/03-HPM5300_IO/JTAG_TCK*%
X152370000Y-126760000D03*
X146030000Y-126760000D03*
%TO.N,/HPM5300RDC MAINENTRY/03-HPM5300_IO/JTAG_TDO*%
X152910000Y-125410000D03*
X151100000Y-125410000D03*
%TO.N,/HPM5300RDC MAINENTRY/03-HPM5300_IO/PA22*%
X146875200Y-124280000D03*
%TO.N,/HPM5300RDC MAINENTRY/03-HPM5300_IO/PA21*%
X147375200Y-123754800D03*
%TO.N,/HPM5300RDC MAINENTRY/03-HPM5300_IO/PA20*%
X147875200Y-123210000D03*
%TO.N,/HPM5300RDC MAINENTRY/03-HPM5300_IO/PA15*%
X156620000Y-110720000D03*
%TO.N,/HPM5300RDC MAINENTRY/03-HPM5300_IO/PA12*%
X158700000Y-112220000D03*
X149900000Y-89070000D03*
X166430000Y-90290000D03*
%TO.N,/HPM5300RDC MAINENTRY/03-HPM5300_IO/PA10*%
X156740000Y-115220000D03*
X168160000Y-88090000D03*
X156950000Y-88260000D03*
%TO.N,/HPM5300RDC MAINENTRY/03-HPM5300_IO/PA14*%
X157270000Y-111220000D03*
%TO.N,/HPM5300RDC MAINENTRY/03-HPM5300_IO/PA13*%
X157970000Y-111720000D03*
%TO.N,/HPM5300RDC MAINENTRY/05-RDC_SINCOS/ISIN-*%
X122590000Y-81840000D03*
X133820000Y-82420000D03*
X121720000Y-101765000D03*
%TO.N,/HPM5300RDC MAINENTRY/05-RDC_SINCOS/ISIN+*%
X134230000Y-84360000D03*
X122130000Y-83785000D03*
X121720000Y-100215000D03*
%TO.N,/HPM5300RDC MAINENTRY/05-RDC_SINCOS/ICOS-*%
X120860200Y-93960000D03*
X134700000Y-81750000D03*
X121670000Y-82490000D03*
%TO.N,/HPM5300RDC MAINENTRY/05-RDC_SINCOS/ICOS+*%
X135230000Y-83740000D03*
X120720200Y-90730000D03*
X121280000Y-84470000D03*
%TO.N,/HPM5300RDC MAINENTRY/03-HPM5300_IO/PA19*%
X148375200Y-122210000D03*
%TO.N,/HPM5300RDC MAINENTRY/03-HPM5300_IO/PY03*%
X146170000Y-97250000D03*
%TO.N,/HPM5300RDC MAINENTRY/03-HPM5300_IO/PY04*%
X147990000Y-97885300D03*
%TO.N,/HPM5300RDC MAINENTRY/03-HPM5300_IO/PA16*%
X151375200Y-121710000D03*
%TO.N,/HPM5300RDC MAINENTRY/03-HPM5300_IO/PY05*%
X147370000Y-104660000D03*
%TO.N,/HPM5300RDC MAINENTRY/03-HPM5300_IO/PY06*%
X147870000Y-102330000D03*
%TO.N,/HPM5300RDC MAINENTRY/03-HPM5300_IO/PY07*%
X148370000Y-104680000D03*
%TO.N,/HPM5300RDC MAINENTRY/03-HPM5300_IO/PY00*%
X140770000Y-97180000D03*
%TO.N,/HPM5300RDC MAINENTRY/03-HPM5300_IO/PY01*%
X142440000Y-97180000D03*
%TO.N,/HPM5300RDC MAINENTRY/03-HPM5300_IO/PY02*%
X144230000Y-97250000D03*
%TO.N,/HPM5300RDC MAINENTRY/02-HPM5300_MISC/USB0_P*%
X137040113Y-115665200D03*
%TO.N,/HPM5300RDC MAINENTRY/02-HPM5300_MISC/USB0_N*%
X137040113Y-116274800D03*
%TO.N,/HPM5300RDC MAINENTRY/03-HPM5300_IO/PA17*%
X150875200Y-120730000D03*
%TO.N,/HPM5300RDC MAINENTRY/03-HPM5300_IO/PA18*%
X148875200Y-121160000D03*
%TO.N,/HPM5300RDC MAINENTRY/03-HPM5300_IO/PA23*%
X146380000Y-122710000D03*
%TO.N,/HPM5300RDC MAINENTRY/03-HPM5300_IO/PB07*%
X136800000Y-105850000D03*
%TO.N,/HPM5300RDC MAINENTRY/03-HPM5300_IO/PB11*%
X140900000Y-102000000D03*
%TO.N,/HPM5300RDC MAINENTRY/03-HPM5300_IO/PA01*%
X166730000Y-120750000D03*
X170150000Y-120025000D03*
%TO.N,/HPM5300RDC MAINENTRY/03-HPM5300_IO/PA11*%
X158250000Y-115190000D03*
%TO.N,/HPM5300RDC MAINENTRY/05-RDC_SINCOS/CTRL_CMOS*%
X135730000Y-88100000D03*
X133600000Y-85525000D03*
%TO.N,/HPM5300RDC MAINENTRY/03-HPM5300_IO/DAC0*%
X132175000Y-104169500D03*
X126594500Y-98175000D03*
%TD*%
D42*
%TO.N,GND*%
X171925000Y-107350000D02*
X171925000Y-106668164D01*
X147412314Y-84120000D02*
X147412314Y-83612314D01*
D43*
X186535200Y-130335000D02*
X184594150Y-130335000D01*
D44*
X150370200Y-101530000D02*
X150370200Y-99229800D01*
D42*
X151920200Y-110850000D02*
X151920200Y-111229800D01*
D43*
X191125000Y-105198960D02*
X191174976Y-105148984D01*
D42*
X142380200Y-109070000D02*
X142370200Y-109070000D01*
X151920200Y-111229800D02*
X151300000Y-111850000D01*
X143965200Y-114920000D02*
X142425200Y-114920000D01*
X174125000Y-90008500D02*
X174295000Y-90178500D01*
X150210000Y-114220000D02*
X149400000Y-113410000D01*
X144790000Y-107575000D02*
X144790000Y-108160000D01*
X140255000Y-89050000D02*
X139270000Y-89050000D01*
X146320200Y-107590000D02*
X146320200Y-107989800D01*
X149750000Y-116050000D02*
X149750000Y-114810200D01*
X140245200Y-84120000D02*
X141460000Y-84120000D01*
X167450000Y-109600000D02*
X167450000Y-110400000D01*
X157135000Y-94180000D02*
X157040000Y-94275000D01*
X146320200Y-107989800D02*
X145470000Y-108840000D01*
X154065000Y-108540000D02*
X153975000Y-108630000D01*
X145505200Y-116475000D02*
X145505200Y-116805200D01*
X167100000Y-109250000D02*
X167450000Y-109600000D01*
X142380200Y-111800000D02*
X142410200Y-111830000D01*
X161330000Y-84120000D02*
X160700000Y-83490000D01*
X179535000Y-96788500D02*
X179535000Y-95815000D01*
X154579428Y-84120000D02*
X153440000Y-84120000D01*
X171005000Y-107350000D02*
X171925000Y-107350000D01*
X176500000Y-106400000D02*
X176500000Y-107340000D01*
D45*
X184100000Y-113525000D02*
X184125000Y-113500000D01*
D42*
X149325000Y-116475000D02*
X149750000Y-116050000D01*
X142380200Y-109070000D02*
X142380200Y-110490000D01*
D45*
X183300000Y-113525000D02*
X184100000Y-113525000D01*
D43*
X189405200Y-130340000D02*
X191101250Y-130340000D01*
X200070000Y-98610000D02*
X201430000Y-98610000D01*
D42*
X176490000Y-106390000D02*
X176500000Y-106400000D01*
X156345000Y-94275000D02*
X156070000Y-94550000D01*
X177000000Y-113525000D02*
X177000000Y-112950000D01*
D46*
X183350000Y-100975000D02*
X182950000Y-100575000D01*
D42*
X130145000Y-127390000D02*
X129250000Y-127390000D01*
X171000000Y-106375000D02*
X171000000Y-107350000D01*
X142380200Y-110490000D02*
X142380200Y-111800000D01*
X140875000Y-117970000D02*
X140875000Y-116464800D01*
X161746542Y-84120000D02*
X161330000Y-84120000D01*
X144790000Y-108160000D02*
X145470000Y-108840000D01*
D43*
X201430000Y-98610000D02*
X201440000Y-98620000D01*
D42*
X148575200Y-116475000D02*
X149325000Y-116475000D01*
X176300000Y-107340000D02*
X176500000Y-107340000D01*
X145505200Y-116475000D02*
X145505200Y-116455000D01*
X158505200Y-94180000D02*
X157135000Y-94180000D01*
X145505200Y-116455000D02*
X147035200Y-114925000D01*
X171925000Y-107350000D02*
X172975000Y-107350000D01*
X129250000Y-127390000D02*
X129240000Y-127400000D01*
D43*
X191125000Y-105700000D02*
X191125000Y-105198960D01*
D42*
X181275000Y-108075000D02*
X180750000Y-107550000D01*
D45*
X172710000Y-102190000D02*
X172700000Y-102200000D01*
D42*
X142425200Y-114920000D02*
X142415200Y-114910000D01*
X174725000Y-107750000D02*
X175890000Y-107750000D01*
X129240000Y-131970000D02*
X129230000Y-131980000D01*
X154065000Y-105610000D02*
X154065000Y-103935000D01*
X146320200Y-106040000D02*
X146320200Y-107590000D01*
X143965200Y-114920000D02*
X143965200Y-114055200D01*
X154495000Y-89050000D02*
X153550000Y-89050000D01*
X140870200Y-116460000D02*
X140070000Y-116460000D01*
X140875000Y-116464800D02*
X140870200Y-116460000D01*
D43*
X191325000Y-125050000D02*
X191325000Y-124473960D01*
D42*
X176975000Y-113550000D02*
X177000000Y-113525000D01*
X147435000Y-89050000D02*
X146540000Y-89050000D01*
X147035200Y-114000000D02*
X147035200Y-114925000D01*
X161805000Y-89050000D02*
X160900000Y-89050000D01*
D45*
X173530000Y-102190000D02*
X172710000Y-102190000D01*
D42*
X150340200Y-114220000D02*
X150210000Y-114220000D01*
X143965200Y-114055200D02*
X143950000Y-114040000D01*
X157040000Y-94275000D02*
X156345000Y-94275000D01*
X178500000Y-106302423D02*
X178500000Y-107340000D01*
D46*
X183950000Y-100975000D02*
X183350000Y-100975000D01*
D42*
X154065000Y-103935000D02*
X154100000Y-103900000D01*
D44*
X150370200Y-99229800D02*
X150380000Y-99220000D01*
D42*
X171000000Y-107355000D02*
X171005000Y-107350000D01*
X174125000Y-87990000D02*
X174125000Y-90008500D01*
X171925000Y-106668164D02*
X171620700Y-106363864D01*
D43*
X200290000Y-91010000D02*
X201370000Y-91010000D01*
D42*
X154065000Y-105610000D02*
X154065000Y-108540000D01*
D43*
X190650000Y-118475000D02*
X191153124Y-118475000D01*
D42*
X180750000Y-107550000D02*
X180250000Y-107550000D01*
X175890000Y-107750000D02*
X176300000Y-107340000D01*
D43*
X191173960Y-121025000D02*
X191199976Y-120998984D01*
X191325000Y-124473960D02*
X191399976Y-124398984D01*
X190750000Y-121025000D02*
X191173960Y-121025000D01*
D42*
X178500492Y-106301931D02*
X178500000Y-106302423D01*
X147412314Y-83612314D02*
X146670000Y-82870000D01*
X130165000Y-131970000D02*
X129240000Y-131970000D01*
D43*
X184594150Y-130335000D02*
X183525100Y-131404050D01*
D42*
X150370200Y-109310000D02*
X149390000Y-109310000D01*
D43*
X191101250Y-130340000D02*
X192165300Y-131404050D01*
X191153124Y-118475000D02*
X191219962Y-118408162D01*
D42*
X174125000Y-86715000D02*
X174130000Y-86710000D01*
X174125000Y-87990000D02*
X174125000Y-86715000D01*
X179535000Y-95815000D02*
X179520000Y-95800000D01*
X149750000Y-114810200D02*
X150340200Y-114220000D01*
X142370200Y-109070000D02*
X140820200Y-107520000D01*
D43*
%TO.N,GNDA*%
X125446000Y-85735000D02*
X124055000Y-85735000D01*
D42*
X122805000Y-119795000D02*
X122020000Y-120580000D01*
D43*
X132698650Y-93050000D02*
X132686200Y-93062450D01*
D42*
X119275000Y-88900000D02*
X119280200Y-88905200D01*
X128540000Y-119090000D02*
X128540000Y-120100000D01*
X118105200Y-117154800D02*
X118120000Y-117140000D01*
X111180200Y-114040000D02*
X111210000Y-114040000D01*
D43*
X122815000Y-123090000D02*
X121800000Y-123090000D01*
X125446000Y-84435000D02*
X124285000Y-84435000D01*
D42*
X126540000Y-98700000D02*
X127118700Y-98700000D01*
D43*
X125446000Y-85735000D02*
X126025000Y-85735000D01*
X125446000Y-85735000D02*
X125446000Y-86385000D01*
D42*
X133805000Y-115135000D02*
X134360000Y-114580000D01*
X111210000Y-114040000D02*
X112330000Y-112920000D01*
X119440200Y-98645000D02*
X119440200Y-97189800D01*
D43*
X136652000Y-85650000D02*
X136672000Y-85670000D01*
D42*
X125886105Y-91510000D02*
X125460200Y-91510000D01*
X122805000Y-119410000D02*
X122805000Y-119795000D01*
X123020000Y-113540000D02*
X121450000Y-113540000D01*
X119440200Y-97189800D02*
X119450000Y-97180000D01*
X115500000Y-114720000D02*
X115510000Y-114710000D01*
X131345000Y-106150000D02*
X131230000Y-106035000D01*
D43*
X136672000Y-83070000D02*
X134680000Y-83070000D01*
D42*
X118017650Y-124823800D02*
X118017650Y-124097650D01*
D43*
X119714000Y-86385000D02*
X119714000Y-86914000D01*
X124285000Y-84435000D02*
X124275000Y-84425000D01*
X136206200Y-93102450D02*
X136206200Y-93933800D01*
X136672000Y-86320000D02*
X136672000Y-85670000D01*
X130940000Y-86320000D02*
X130940000Y-86890000D01*
D42*
X126225000Y-91171105D02*
X125886105Y-91510000D01*
X115493800Y-121523800D02*
X115500000Y-121530000D01*
X124235000Y-83785000D02*
X124225000Y-83775000D01*
X131975000Y-106150000D02*
X131345000Y-106150000D01*
X126540000Y-98700000D02*
X126540000Y-99275200D01*
D43*
X133400000Y-93050000D02*
X132698650Y-93050000D01*
D42*
X130935000Y-106035000D02*
X131230000Y-106035000D01*
D43*
X135550000Y-85650000D02*
X136652000Y-85650000D01*
X130940000Y-86890000D02*
X130960000Y-86910000D01*
X136672000Y-84370000D02*
X136672000Y-83070000D01*
X119714000Y-86914000D02*
X119720000Y-86920000D01*
X125446000Y-83135000D02*
X124185000Y-83135000D01*
D42*
X127118700Y-98700000D02*
X127523700Y-99105000D01*
D43*
X125446000Y-83135000D02*
X125446000Y-84435000D01*
D42*
X118017650Y-124097650D02*
X118010000Y-124090000D01*
D43*
X124185000Y-83135000D02*
X124175000Y-83125000D01*
D42*
X121450000Y-113540000D02*
X121410000Y-113500000D01*
X114425200Y-114720000D02*
X115500000Y-114720000D01*
X133630000Y-115305000D02*
X133660000Y-115275000D01*
X111150200Y-120600000D02*
X111150200Y-120200200D01*
D43*
X124055000Y-85735000D02*
X124050000Y-85740000D01*
D42*
X114457650Y-121523800D02*
X115493800Y-121523800D01*
X119280200Y-88905200D02*
X119280200Y-89890000D01*
X125446000Y-83785000D02*
X124235000Y-83785000D01*
D43*
X136206200Y-93933800D02*
X135780000Y-94360000D01*
D42*
X126540000Y-99275200D02*
X125575200Y-100240000D01*
X118105200Y-118060000D02*
X118105200Y-117154800D01*
X111150200Y-120200200D02*
X110630000Y-119680000D01*
X128540000Y-120100000D02*
X128520000Y-120120000D01*
X133420000Y-115135000D02*
X133805000Y-115135000D01*
X123325000Y-105675000D02*
X122645200Y-105675000D01*
X122645200Y-105675000D02*
X122610200Y-105640000D01*
%TO.N,+3.3V*%
X175231500Y-93988500D02*
X174295000Y-93988500D01*
X179201500Y-100598500D02*
X179535000Y-100598500D01*
X175170000Y-103700000D02*
X175220000Y-103750000D01*
X152995871Y-88427955D02*
X152553826Y-88870000D01*
X142420200Y-116460000D02*
X142420200Y-117965200D01*
X130150000Y-128940000D02*
X130150000Y-130415000D01*
X141645200Y-115685000D02*
X141645200Y-115220000D01*
X158162985Y-84120000D02*
X156930000Y-84120000D01*
X130125000Y-130440000D02*
X128940000Y-130440000D01*
X143828757Y-84120000D02*
X144090000Y-84120000D01*
X142420200Y-116460000D02*
X141645200Y-115685000D01*
X143828757Y-84120000D02*
X143828757Y-82891243D01*
X147870200Y-107590000D02*
X147870200Y-108560200D01*
X151990200Y-107429800D02*
X151800000Y-107620000D01*
X160162985Y-86780000D02*
X160162985Y-88396525D01*
X175220000Y-103750000D02*
X176050000Y-103750000D01*
X160162985Y-88396525D02*
X159689510Y-88870000D01*
X175675000Y-86525000D02*
X175690000Y-86510000D01*
X150995871Y-84120000D02*
X150995871Y-84874129D01*
X142370200Y-107520000D02*
X142550000Y-107520000D01*
D46*
X181400000Y-100575000D02*
X179558500Y-100575000D01*
D42*
X143828757Y-82891243D02*
X143840000Y-82880000D01*
X175675000Y-87990000D02*
X175675000Y-86525000D01*
X148575200Y-113994800D02*
X148580000Y-113990000D01*
X145828757Y-88459385D02*
X145418142Y-88870000D01*
D45*
X175175000Y-103750000D02*
X173175000Y-105750000D01*
D42*
X167330100Y-86390000D02*
X167330100Y-88365100D01*
X161995200Y-94100000D02*
X160785200Y-94100000D01*
X131655000Y-131970000D02*
X130125000Y-130440000D01*
X148575200Y-114925000D02*
X148575200Y-113994800D01*
X145505200Y-114925000D02*
X145505200Y-114970000D01*
X131715000Y-131970000D02*
X131655000Y-131970000D01*
X152995871Y-87450000D02*
X152995871Y-88427955D01*
X130150000Y-130415000D02*
X130125000Y-130440000D01*
X147870200Y-108560200D02*
X147890000Y-108580000D01*
X147870200Y-106040000D02*
X147870200Y-107590000D01*
X163995200Y-97335000D02*
X163510200Y-97820000D01*
X151990200Y-106120000D02*
X151990200Y-107429800D01*
X175675000Y-87990000D02*
X175675000Y-93545000D01*
D46*
X179558500Y-100575000D02*
X179535000Y-100598500D01*
D42*
X165330100Y-84120000D02*
X165330100Y-83230100D01*
X163995200Y-96050000D02*
X163995200Y-97335000D01*
D45*
X173175000Y-105750000D02*
X169750000Y-105750000D01*
D42*
X165330100Y-83230100D02*
X165330000Y-83230000D01*
X175675000Y-93545000D02*
X175231500Y-93988500D01*
X142550000Y-107520000D02*
X144070000Y-109040000D01*
X128940000Y-130440000D02*
X128930000Y-130430000D01*
X145505200Y-114970000D02*
X144885200Y-115590000D01*
X142420200Y-117965200D02*
X142425000Y-117970000D01*
X156930000Y-84120000D02*
X156920000Y-84130000D01*
X176050000Y-103750000D02*
X179201500Y-100598500D01*
X150995871Y-84874129D02*
X150980000Y-84890000D01*
X167330100Y-88365100D02*
X166825200Y-88870000D01*
%TO.N,Net-(U1B-USBVBUS)*%
X140860200Y-113320000D02*
X140810200Y-113370000D01*
X140860200Y-111830000D02*
X140860200Y-113320000D01*
X140810200Y-113370000D02*
X140810200Y-113480200D01*
X140810200Y-113480200D02*
X141370000Y-114040000D01*
%TO.N,Net-(J1-CC1)*%
X186595200Y-127730000D02*
X186595200Y-128625000D01*
X186595200Y-128625000D02*
X186535200Y-128685000D01*
%TO.N,Net-(J1-CC2)*%
X189595200Y-128500000D02*
X189405200Y-128690000D01*
X189595200Y-127650000D02*
X189595200Y-128500000D01*
D44*
%TO.N,DCDC_GND*%
X151920200Y-104630000D02*
X151920200Y-101530000D01*
D43*
X151840000Y-105300000D02*
X151840000Y-104710200D01*
X151840000Y-104710200D02*
X151920200Y-104630000D01*
D42*
%TO.N,DCDC_IN*%
X150370200Y-104630000D02*
X150410000Y-104630000D01*
X150740200Y-106520000D02*
X150340200Y-106120000D01*
D44*
X150390200Y-105470000D02*
X150390200Y-106070000D01*
D42*
X150410000Y-104630000D02*
X151000000Y-105220000D01*
D44*
X150390200Y-103090000D02*
X150390200Y-105470000D01*
D42*
X151020000Y-105780000D02*
X150680200Y-105780000D01*
X150895200Y-106520000D02*
X150740200Y-106520000D01*
X150680200Y-105780000D02*
X150340200Y-106120000D01*
D44*
X150390200Y-106070000D02*
X150340200Y-106120000D01*
D43*
%TO.N,VDD_SOC*%
X147035200Y-116475000D02*
X147035200Y-117115200D01*
D42*
X144790000Y-106025000D02*
X144165000Y-106025000D01*
X152665200Y-109310000D02*
X152755200Y-109220000D01*
X144165000Y-106025000D02*
X143840000Y-106350000D01*
X151920200Y-109310000D02*
X152665200Y-109310000D01*
X151890200Y-114220000D02*
X152835200Y-114220000D01*
D43*
X147035200Y-117115200D02*
X147370000Y-117450000D01*
X140805200Y-114910000D02*
X140115200Y-114220000D01*
D42*
X143965200Y-116470000D02*
X143965200Y-117340000D01*
D43*
X140865200Y-114910000D02*
X140805200Y-114910000D01*
X147370000Y-117450000D02*
X149375200Y-117450000D01*
D47*
%TO.N,Net-(R37-Pad1)*%
X141640000Y-110940000D02*
X141450000Y-110750000D01*
X142460200Y-113370000D02*
X141640000Y-112549800D01*
X139880000Y-110750000D02*
X138760000Y-111870000D01*
X141450000Y-110750000D02*
X139880000Y-110750000D01*
X141640000Y-112549800D02*
X141640000Y-110940000D01*
D42*
%TO.N,Net-(U1C-VDD_OTPCAP)*%
X155615000Y-105610000D02*
X155615000Y-106210000D01*
X155615000Y-106210000D02*
X155615000Y-107080000D01*
X155615000Y-107080000D02*
X155575000Y-107120000D01*
%TO.N,Net-(U6A-VOUTA)*%
X127960000Y-101760000D02*
X125605200Y-101760000D01*
X129830000Y-97370000D02*
X129440000Y-97760000D01*
X125605200Y-103245000D02*
X125660200Y-103300000D01*
X129440000Y-100280000D02*
X127960000Y-101760000D01*
X131333700Y-98043700D02*
X130660000Y-97370000D01*
X129440000Y-97760000D02*
X129440000Y-100280000D01*
X131333700Y-99105000D02*
X131333700Y-98043700D01*
X125605200Y-101760000D02*
X125605200Y-103245000D01*
X130660000Y-97370000D02*
X129830000Y-97370000D01*
%TO.N,Net-(U6A-VINA-)*%
X126870000Y-104200000D02*
X124375000Y-104200000D01*
X130063700Y-101006300D02*
X126870000Y-104200000D01*
X124010200Y-103835200D02*
X124010200Y-103300000D01*
X130063700Y-99105000D02*
X130063700Y-101006300D01*
X124375000Y-104200000D02*
X124010200Y-103835200D01*
X122580200Y-103300000D02*
X122570200Y-103310000D01*
X124010200Y-103300000D02*
X122580200Y-103300000D01*
%TO.N,Net-(U6A-VINA+)*%
X128793700Y-99105000D02*
X128793700Y-98668700D01*
X127800000Y-97675000D02*
X124550000Y-97675000D01*
X128793700Y-98668700D02*
X127800000Y-97675000D01*
X124550000Y-97675000D02*
X123970200Y-98254800D01*
X123970200Y-98254800D02*
X123970200Y-98630000D01*
X122550200Y-98650000D02*
X123950200Y-98650000D01*
X123950200Y-98650000D02*
X123970200Y-98630000D01*
%TO.N,Net-(U6B-VINB+)*%
X124670000Y-88250000D02*
X126500000Y-88250000D01*
X122370200Y-89890000D02*
X123840200Y-89890000D01*
X127523700Y-89273700D02*
X127523700Y-93695000D01*
X126500000Y-88250000D02*
X127523700Y-89273700D01*
X123840200Y-89890000D02*
X123850200Y-89900000D01*
X123850200Y-89900000D02*
X123850200Y-89069800D01*
X123850200Y-89069800D02*
X124670000Y-88250000D01*
%TO.N,Net-(U6B-VINB-)*%
X123860200Y-94700000D02*
X123870200Y-94710000D01*
X122400200Y-94700000D02*
X123860200Y-94700000D01*
X127930000Y-96700000D02*
X124890000Y-96700000D01*
X123870200Y-95680200D02*
X123870200Y-94710000D01*
X124890000Y-96700000D02*
X123870200Y-95680200D01*
X128793700Y-93695000D02*
X128793700Y-95836300D01*
X128793700Y-95836300D02*
X127930000Y-96700000D01*
%TO.N,Net-(U6B-VOUTB)*%
X125660000Y-95875000D02*
X125660000Y-94849800D01*
X125650000Y-97150000D02*
X125700000Y-97200000D01*
X129300000Y-97200000D02*
X130063700Y-96436300D01*
X125520200Y-93090000D02*
X125520200Y-94710000D01*
X125660000Y-94849800D02*
X125520200Y-94710000D01*
X125700000Y-97200000D02*
X129300000Y-97200000D01*
X130063700Y-96436300D02*
X130063700Y-93695000D01*
%TO.N,Net-(C7-Pad1)*%
X125521800Y-120840000D02*
X125521800Y-122750000D01*
X126745000Y-108015000D02*
X125521800Y-109238200D01*
X128165000Y-106490000D02*
X128165000Y-107930000D01*
X125521800Y-123048200D02*
X125480000Y-123090000D01*
X125480000Y-123090000D02*
X124365000Y-123090000D01*
X125521800Y-122750000D02*
X125521800Y-123011800D01*
X125521800Y-109238200D02*
X125521800Y-120840000D01*
X128250000Y-108015000D02*
X126745000Y-108015000D01*
X125521800Y-122750000D02*
X125521800Y-123048200D01*
X125521800Y-123011800D02*
X125540000Y-123030000D01*
X128165000Y-107930000D02*
X128250000Y-108015000D01*
%TO.N,Net-(Q1-B)*%
X128250000Y-109665000D02*
X128250000Y-111220000D01*
X129885000Y-109590000D02*
X129845000Y-109630000D01*
X128250000Y-109665000D02*
X129720000Y-109665000D01*
X128620000Y-111590000D02*
X131781350Y-111590000D01*
X128250000Y-111220000D02*
X128620000Y-111590000D01*
X131781350Y-111590000D02*
X131947550Y-111756200D01*
X129720000Y-109665000D02*
X129740000Y-109645000D01*
%TO.N,Net-(U5A-INA-)*%
X129190000Y-108780000D02*
X127270000Y-108780000D01*
X129740000Y-108230000D02*
X129190000Y-108780000D01*
X127270000Y-108780000D02*
X126668200Y-109381800D01*
X129815000Y-108020000D02*
X129740000Y-108095000D01*
X126668200Y-109381800D02*
X126668200Y-111392200D01*
X129740000Y-108095000D02*
X129740000Y-108230000D01*
X129815000Y-106490000D02*
X129815000Y-108020000D01*
X126668200Y-111392200D02*
X127516000Y-112240000D01*
X127516000Y-112240000D02*
X128620000Y-112240000D01*
%TO.N,Net-(U5C-INC-)*%
X122950000Y-114910000D02*
X123020000Y-114840000D01*
X121480000Y-114910000D02*
X122950000Y-114910000D01*
%TO.N,Net-(Q1-C)*%
X132820000Y-108624800D02*
X133915200Y-109720000D01*
X132820000Y-107685000D02*
X132820000Y-108624800D01*
X133915200Y-109720000D02*
X133915200Y-110860000D01*
%TO.N,Net-(Q2-B)*%
X120017650Y-123873800D02*
X126076200Y-123873800D01*
X129350000Y-116220000D02*
X128620000Y-115490000D01*
X129350000Y-120600000D02*
X129350000Y-116220000D01*
X118035200Y-122480000D02*
X119429000Y-123873800D01*
X119429000Y-123873800D02*
X120017650Y-123873800D01*
X126076200Y-123873800D02*
X129350000Y-120600000D01*
%TO.N,Net-(Q2-E)*%
X118015200Y-120600000D02*
X118035200Y-120580000D01*
X112800200Y-120600000D02*
X118015200Y-120600000D01*
%TO.N,Net-(Q3-B)*%
X119515200Y-117110000D02*
X118075200Y-115670000D01*
X120105200Y-117110000D02*
X119515200Y-117110000D01*
X122450000Y-117110000D02*
X120105200Y-117110000D01*
X123020000Y-116540000D02*
X122450000Y-117110000D01*
X123020000Y-115490000D02*
X123020000Y-116540000D01*
%TO.N,Net-(Q3-E)*%
X113100200Y-113770000D02*
X112830200Y-114040000D01*
X118075200Y-113770000D02*
X113100200Y-113770000D01*
%TO.N,Net-(Q4-E)*%
X120017650Y-125773800D02*
X114501400Y-125773800D01*
X113945200Y-125270000D02*
X114475200Y-125800000D01*
X114501400Y-125773800D02*
X114475200Y-125800000D01*
X112780200Y-125270000D02*
X113945200Y-125270000D01*
%TO.N,Net-(Q5-E)*%
X113740000Y-119020000D02*
X113090200Y-119020000D01*
X113750000Y-119010000D02*
X113740000Y-119020000D01*
X114425200Y-119020000D02*
X113740000Y-119020000D01*
X113090200Y-119020000D02*
X112860200Y-118790000D01*
X120105200Y-119010000D02*
X113750000Y-119010000D01*
%TO.N,Net-(Q6-E)*%
X112750200Y-123700000D02*
X114275200Y-123700000D01*
X114275200Y-123700000D02*
X114475200Y-123900000D01*
%TO.N,Net-(Q7-E)*%
X113139000Y-122473800D02*
X112805200Y-122140000D01*
X116457650Y-122473800D02*
X113139000Y-122473800D01*
%TO.N,Net-(Q8-E)*%
X112930200Y-117120000D02*
X112860200Y-117190000D01*
X114425200Y-117120000D02*
X112930200Y-117120000D01*
%TO.N,Net-(Q9-E)*%
X112880200Y-115670000D02*
X112850200Y-115640000D01*
X116425200Y-115670000D02*
X112880200Y-115670000D01*
%TO.N,Net-(U5D-OUTD)*%
X122680200Y-108670000D02*
X122670200Y-108680000D01*
X122680200Y-107170000D02*
X122680200Y-108670000D01*
X122670200Y-111240200D02*
X123020000Y-111590000D01*
X122670200Y-108680000D02*
X122670200Y-111240200D01*
%TO.N,Net-(U5A-INA+)*%
X129477200Y-112890000D02*
X129077000Y-112890000D01*
X131880000Y-113485000D02*
X131850000Y-113515000D01*
X131850000Y-113515000D02*
X131225000Y-112890000D01*
X133420000Y-113485000D02*
X131880000Y-113485000D01*
X131225000Y-112890000D02*
X128620000Y-112890000D01*
%TO.N,Net-(U5D-IND-)*%
X121000200Y-108660000D02*
X121020200Y-108680000D01*
X119620200Y-108660000D02*
X121000200Y-108660000D01*
X123020000Y-112240000D02*
X121640000Y-112240000D01*
X121020200Y-111620200D02*
X121020200Y-108680000D01*
X121640000Y-112240000D02*
X121020200Y-111620200D01*
%TO.N,Net-(U5D-IND+)*%
X118790000Y-107990200D02*
X119630200Y-107150000D01*
X119630200Y-107150000D02*
X119630200Y-105600000D01*
X121050000Y-112890000D02*
X118790000Y-110630000D01*
X118790000Y-110630000D02*
X118790000Y-107990200D01*
X123020000Y-112890000D02*
X121050000Y-112890000D01*
%TO.N,Net-(U5B-INB-)*%
X129630000Y-114840000D02*
X128620000Y-114840000D01*
X130010000Y-122060000D02*
X130010000Y-115220000D01*
X130010000Y-115220000D02*
X129630000Y-114840000D01*
%TO.N,Net-(U5B-INB+)*%
X126890000Y-114816000D02*
X127516000Y-114190000D01*
X127516000Y-114190000D02*
X128620000Y-114190000D01*
X126890000Y-119090000D02*
X126890000Y-114816000D01*
%TO.N,Net-(U5C-INC+)*%
X123020000Y-114190000D02*
X124124000Y-114190000D01*
X124460000Y-114526000D02*
X124460000Y-114840000D01*
X124460000Y-114840000D02*
X124455000Y-114845000D01*
X124455000Y-114845000D02*
X124455000Y-119410000D01*
X124124000Y-114190000D02*
X124460000Y-114526000D01*
D44*
%TO.N,+5V*%
X184150000Y-115025000D02*
X184175000Y-115050000D01*
X183300000Y-115025000D02*
X184150000Y-115025000D01*
D42*
%TO.N,Net-(LED6-E)*%
X145575200Y-91820000D02*
X145575200Y-93698162D01*
X145575200Y-93698162D02*
X146162038Y-94285000D01*
%TO.N,Net-(LED6-D)*%
X148115200Y-94159184D02*
X147989384Y-94285000D01*
X148115200Y-91820000D02*
X148115200Y-94159184D01*
%TO.N,Net-(LED6-DP)*%
X150655200Y-93446530D02*
X149816730Y-94285000D01*
X149694285Y-94015715D02*
X149694285Y-94255000D01*
X150655200Y-91820000D02*
X150655200Y-93446530D01*
%TO.N,Net-(LED6-C)*%
X153195200Y-91820000D02*
X151644076Y-93371124D01*
X151644076Y-93371124D02*
X151644076Y-94285000D01*
X151497142Y-94255000D02*
X151497142Y-94212858D01*
%TO.N,Net-(LED6-G)*%
X155735200Y-91820000D02*
X153471428Y-94083772D01*
X153471428Y-94083772D02*
X153471428Y-94285000D01*
%TO.N,Net-(LED6-B)*%
X144334692Y-94285000D02*
X144334692Y-93344692D01*
X144334692Y-93344692D02*
X144050000Y-93060000D01*
%TO.N,Net-(LED6-F)*%
X142310000Y-94245000D02*
X142310000Y-92940000D01*
%TO.N,Net-(LED6-A)*%
X140680000Y-94245000D02*
X140680000Y-93050000D01*
%TO.N,Net-(Q10-G)*%
X142245200Y-85070000D02*
X142878757Y-85070000D01*
X142878757Y-85070000D02*
X143828757Y-86020000D01*
X143828757Y-86020000D02*
X143828757Y-88809385D01*
X143828757Y-88809385D02*
X143768142Y-88870000D01*
%TO.N,Net-(Q11-G)*%
X140245200Y-87559800D02*
X140235000Y-87570000D01*
X140245200Y-86020000D02*
X140245200Y-87559800D01*
%TO.N,Net-(Q12-G)*%
X147412314Y-87547314D02*
X147435000Y-87570000D01*
X147412314Y-86020000D02*
X147412314Y-87547314D01*
%TO.N,Net-(Q12-D)*%
X150995871Y-88777955D02*
X150903826Y-88870000D01*
X150995871Y-86020000D02*
X150995871Y-88777955D01*
X150045871Y-85070000D02*
X150995871Y-86020000D01*
X149412314Y-85070000D02*
X150045871Y-85070000D01*
%TO.N,Net-(Q14-G)*%
X154579428Y-86020000D02*
X154579428Y-87535572D01*
X154579428Y-87535572D02*
X154525000Y-87590000D01*
%TO.N,Net-(Q14-D)*%
X157212985Y-85070000D02*
X158162985Y-86020000D01*
X158162985Y-88746525D02*
X158039510Y-88870000D01*
X158162985Y-86020000D02*
X158162985Y-88746525D01*
X156579428Y-85070000D02*
X157212985Y-85070000D01*
%TO.N,Net-(Q16-G)*%
X158520200Y-96080000D02*
X160170200Y-97730000D01*
X158505200Y-96080000D02*
X158520200Y-96080000D01*
%TO.N,Net-(Q16-D)*%
X161125200Y-95130000D02*
X161995200Y-96000000D01*
X161995200Y-96000000D02*
X161995200Y-97685000D01*
X161995200Y-97685000D02*
X161860200Y-97820000D01*
X160505200Y-95130000D02*
X161125200Y-95130000D01*
%TO.N,Net-(Q18-G)*%
X161746542Y-87621542D02*
X161755000Y-87630000D01*
X161746542Y-86020000D02*
X161746542Y-87621542D01*
%TO.N,Net-(Q18-D)*%
X163746542Y-85070000D02*
X164380100Y-85070000D01*
X165330100Y-88715100D02*
X165175200Y-88870000D01*
X165330100Y-86020000D02*
X165330100Y-88715100D01*
X164380100Y-85070000D02*
X165330100Y-86020000D01*
D45*
%TO.N,Net-(U16-VBST)*%
X178820000Y-114450000D02*
X179175000Y-114450000D01*
X179800000Y-113825000D02*
X179800000Y-112950000D01*
X179175000Y-114450000D02*
X179800000Y-113825000D01*
D48*
%TO.N,Net-(U16-SW)*%
X177000000Y-112000000D02*
X174918000Y-112000000D01*
D45*
X176425000Y-112000000D02*
X176000000Y-112425000D01*
X176700000Y-114450000D02*
X177860000Y-114450000D01*
X177000000Y-112000000D02*
X176425000Y-112000000D01*
X176000000Y-113750000D02*
X176700000Y-114450000D01*
X176000000Y-112425000D02*
X176000000Y-113750000D01*
D48*
X174918000Y-112000000D02*
X174593000Y-111675000D01*
D46*
%TO.N,Net-(C83-Pad1)*%
X183150000Y-108850000D02*
X179975000Y-105675000D01*
X173900000Y-108840000D02*
X174340000Y-109280000D01*
X173900000Y-107250000D02*
X173900000Y-108840000D01*
X179975000Y-105675000D02*
X175475000Y-105675000D01*
X175475000Y-105675000D02*
X173900000Y-107250000D01*
X183200000Y-112025000D02*
X183150000Y-111975000D01*
D42*
X183251111Y-112025000D02*
X183948889Y-112025000D01*
D46*
X183150000Y-111975000D02*
X183150000Y-108850000D01*
%TO.N,Net-(U16-VFB)*%
X181700000Y-110550000D02*
X181700000Y-111991666D01*
X181200000Y-111050000D02*
X181700000Y-110550000D01*
X179800000Y-111050000D02*
X181200000Y-111050000D01*
X181700000Y-111991666D02*
X181650000Y-112041666D01*
D49*
X181650000Y-112041666D02*
X181650000Y-113525000D01*
D43*
%TO.N,Net-(U10-A)*%
X181855000Y-94100000D02*
X182955000Y-95200000D01*
X179816500Y-94100000D02*
X181855000Y-94100000D01*
X179705000Y-93988500D02*
X179816500Y-94100000D01*
%TO.N,Net-(U10-B)*%
X179705000Y-92718500D02*
X182003500Y-92718500D01*
X182003500Y-92718500D02*
X182905000Y-93620000D01*
%TO.N,/HPM5300RDC MAINENTRY/03-HPM5300_IO/PB10*%
X139430000Y-102200000D02*
X134480000Y-97250000D01*
X134480000Y-97250000D02*
X134480000Y-96265000D01*
X140300000Y-102200000D02*
X139430000Y-102200000D01*
D42*
%TO.N,/HPM5300RDC MAINENTRY/04-RDC_EXCT/EXC_P*%
X134130000Y-115960000D02*
X135040000Y-115050000D01*
X135040000Y-111078600D02*
X135040000Y-115050000D01*
X135470000Y-106640000D02*
X135470000Y-110648600D01*
X131110000Y-115960000D02*
X134130000Y-115960000D01*
X132820000Y-106035000D02*
X134340000Y-106035000D01*
X134350000Y-106025000D02*
X134855000Y-106025000D01*
X134855000Y-106025000D02*
X135470000Y-106640000D01*
X135470000Y-110648600D02*
X135040000Y-111078600D01*
X134340000Y-106035000D02*
X134350000Y-106025000D01*
%TO.N,/HPM5300RDC MAINENTRY/04-RDC_EXCT/EXC_N*%
X131915200Y-109910000D02*
X131915200Y-108400200D01*
X131195200Y-110630000D02*
X131915200Y-109910000D01*
X131915200Y-108400200D02*
X131330000Y-107815000D01*
%TO.N,/HPM5300RDC MAINENTRY/04-RDC_EXCT/EXC+*%
X111100200Y-123700000D02*
X111100200Y-124260000D01*
X111155200Y-123645000D02*
X111100200Y-123700000D01*
X115095200Y-105715000D02*
X116530200Y-107150000D01*
X111155200Y-122140000D02*
X111155200Y-123645000D01*
X111100200Y-124260000D02*
X111220200Y-124380000D01*
X116530200Y-107150000D02*
X117980200Y-107150000D01*
%TO.N,/HPM5300RDC MAINENTRY/04-RDC_EXCT/EXC-*%
X117105200Y-109525000D02*
X117970200Y-108660000D01*
X115095200Y-109525000D02*
X117105200Y-109525000D01*
X111200200Y-114940000D02*
X111250200Y-114890000D01*
X111200200Y-116390000D02*
X111200200Y-117180000D01*
X111200200Y-115640000D02*
X111200200Y-116390000D01*
X111200200Y-115640000D02*
X111200200Y-114940000D01*
X111200200Y-117180000D02*
X111210200Y-117190000D01*
%TO.N,/HPM5300RDC MAINENTRY/03-HPM5300_IO/PB13*%
X124025200Y-101690000D02*
X123955200Y-101760000D01*
X124025200Y-100990000D02*
X124025200Y-101690000D01*
X124025200Y-100240000D02*
X124025200Y-100990000D01*
%TO.N,/HPM5300RDC MAINENTRY/03-HPM5300_IO/PB14*%
X123870200Y-93090000D02*
X123870200Y-91550000D01*
D43*
X127075000Y-96275000D02*
X125225000Y-96275000D01*
X127350000Y-96000000D02*
X127075000Y-96275000D01*
X124658084Y-95708084D02*
X124658084Y-93877884D01*
X125225000Y-96275000D02*
X124658084Y-95708084D01*
D42*
X123870200Y-91550000D02*
X123910200Y-91510000D01*
D43*
X124658084Y-93877884D02*
X123870200Y-93090000D01*
D42*
%TO.N,/HPM5300RDC MAINENTRY/05-RDC_SINCOS/SIN-*%
X119325200Y-101740000D02*
X119350200Y-101765000D01*
D43*
X126593648Y-79792200D02*
X129368648Y-82567200D01*
D42*
X117845200Y-101740000D02*
X119325200Y-101740000D01*
D43*
X108992200Y-98643648D02*
X108992200Y-89866352D01*
X110526353Y-100177801D02*
X108992200Y-98643648D01*
X115095200Y-101905000D02*
X113368001Y-100177801D01*
D42*
X115095200Y-101905000D02*
X117680200Y-101905000D01*
X117680200Y-101905000D02*
X117845200Y-101740000D01*
X117845200Y-101740000D02*
X117845200Y-103220000D01*
D43*
X108992200Y-89866352D02*
X119066352Y-79792200D01*
X129368648Y-82567200D02*
X129927300Y-82567200D01*
X119066352Y-79792200D02*
X126593648Y-79792200D01*
X113368001Y-100177801D02*
X110526353Y-100177801D01*
X130074500Y-82420000D02*
X130940000Y-82420000D01*
X129927300Y-82567200D02*
X130074500Y-82420000D01*
D42*
X117845200Y-103220000D02*
X117770200Y-103295000D01*
D43*
%TO.N,/HPM5300RDC MAINENTRY/05-RDC_SINCOS/SIN+*%
X115095200Y-98095000D02*
X113368001Y-99822199D01*
X109347800Y-98496352D02*
X109347800Y-90013648D01*
X130074500Y-83070000D02*
X130940000Y-83070000D01*
D42*
X119335200Y-100190000D02*
X119360200Y-100215000D01*
X115095200Y-98095000D02*
X117190200Y-100190000D01*
D43*
X126446352Y-80147800D02*
X129221352Y-82922800D01*
D42*
X117845200Y-100190000D02*
X119335200Y-100190000D01*
X117190200Y-100190000D02*
X117845200Y-100190000D01*
D43*
X109347800Y-90013648D02*
X119213648Y-80147800D01*
X113368001Y-99822199D02*
X110673647Y-99822199D01*
X129927300Y-82922800D02*
X130074500Y-83070000D01*
D42*
X117790200Y-98645000D02*
X117790200Y-100135000D01*
D43*
X119213648Y-80147800D02*
X126446352Y-80147800D01*
D42*
X117790200Y-100135000D02*
X117845200Y-100190000D01*
D43*
X129221352Y-82922800D02*
X129927300Y-82922800D01*
X110673647Y-99822199D02*
X109347800Y-98496352D01*
D42*
%TO.N,/HPM5300RDC MAINENTRY/05-RDC_SINCOS/COS-*%
X117650200Y-93140000D02*
X117715200Y-93075000D01*
D43*
X115095200Y-94285000D02*
X113368001Y-92557801D01*
D42*
X116305200Y-93075000D02*
X117715200Y-93075000D01*
X119205200Y-93075000D02*
X119210200Y-93080000D01*
D43*
X118701300Y-82632200D02*
X118848500Y-82485000D01*
D42*
X115095200Y-94285000D02*
X116305200Y-93075000D01*
D43*
X118848500Y-82485000D02*
X119714000Y-82485000D01*
X117876352Y-82632200D02*
X118701300Y-82632200D01*
D42*
X117650200Y-94710000D02*
X117650200Y-93140000D01*
D43*
X110992200Y-91693648D02*
X110992200Y-89516352D01*
D42*
X117715200Y-93075000D02*
X119205200Y-93075000D01*
D43*
X111856353Y-92557801D02*
X110992200Y-91693648D01*
X110992200Y-89516352D02*
X117876352Y-82632200D01*
X113368001Y-92557801D02*
X111856353Y-92557801D01*
D42*
%TO.N,/HPM5300RDC MAINENTRY/05-RDC_SINCOS/COS+*%
X117740200Y-91500000D02*
X117715200Y-91525000D01*
D43*
X111347800Y-91546352D02*
X111347800Y-89663648D01*
D42*
X115095200Y-90475000D02*
X116145200Y-91525000D01*
X117630200Y-91440000D02*
X117715200Y-91525000D01*
X116145200Y-91525000D02*
X117715200Y-91525000D01*
D43*
X112003647Y-92202199D02*
X111347800Y-91546352D01*
D42*
X119200200Y-91500000D02*
X117740200Y-91500000D01*
D43*
X118023648Y-82987800D02*
X118701300Y-82987800D01*
X113368001Y-92202199D02*
X112003647Y-92202199D01*
X111347800Y-89663648D02*
X118023648Y-82987800D01*
X118701300Y-82987800D02*
X118848500Y-83135000D01*
X118848500Y-83135000D02*
X119714000Y-83135000D01*
X115095200Y-90475000D02*
X113368001Y-92202199D01*
D42*
X117630200Y-89890000D02*
X117630200Y-91440000D01*
D43*
%TO.N,/HPM5300RDC MAINENTRY/04-RDC_EXCT/VOPA*%
X130940000Y-81770000D02*
X130940000Y-81120000D01*
X133755000Y-89295000D02*
X134580000Y-90120000D01*
X133755000Y-88910000D02*
X133755000Y-89295000D01*
D42*
X119420200Y-104250200D02*
X119450000Y-104280000D01*
X116475200Y-124850000D02*
X116475200Y-124084800D01*
X134560000Y-108450000D02*
X134350000Y-108240000D01*
X119300200Y-94710000D02*
X119300200Y-95720200D01*
X131333700Y-95793700D02*
X131333700Y-95200000D01*
X122865000Y-117910000D02*
X121410000Y-117910000D01*
X120075200Y-113715200D02*
X120070000Y-113710000D01*
D43*
X119714000Y-81076000D02*
X119720000Y-81070000D01*
D42*
X130920000Y-114530000D02*
X131555000Y-115165000D01*
X116425200Y-118070000D02*
X116425200Y-117124800D01*
X109700000Y-125270000D02*
X109670000Y-125240000D01*
D43*
X119714000Y-81835000D02*
X119714000Y-81076000D01*
D42*
X131340000Y-95800000D02*
X131333700Y-95793700D01*
X134350000Y-108240000D02*
X134350000Y-107675000D01*
X121410000Y-117910000D02*
X121390000Y-117930000D01*
X128540000Y-116600000D02*
X128510000Y-116570000D01*
X129930000Y-113540000D02*
X130920000Y-114530000D01*
D43*
X137720000Y-89930000D02*
X137720000Y-89235000D01*
D42*
X120035200Y-120814800D02*
X120050000Y-120800000D01*
X119420200Y-103295000D02*
X119420200Y-104250200D01*
X128620000Y-113540000D02*
X129930000Y-113540000D01*
X120035200Y-121530000D02*
X120035200Y-120814800D01*
X119300200Y-95720200D02*
X119340000Y-95760000D01*
X116425200Y-117124800D02*
X116430000Y-117120000D01*
X116475200Y-124084800D02*
X116480000Y-124080000D01*
X131555000Y-115165000D02*
X131850000Y-115165000D01*
X120075200Y-114720000D02*
X120075200Y-113715200D01*
X131333700Y-95200000D02*
X131333700Y-93695000D01*
D43*
X137720000Y-89235000D02*
X137445000Y-88960000D01*
D42*
X128540000Y-117600000D02*
X128540000Y-116600000D01*
X111210200Y-118790000D02*
X109400000Y-118790000D01*
X111130200Y-125270000D02*
X109700000Y-125270000D01*
X109400000Y-118790000D02*
X109340000Y-118730000D01*
%TO.N,/HPM5300RDC MAINENTRY/VREF1{slash}2*%
X117980200Y-104489800D02*
X117990000Y-104480000D01*
X117980200Y-105600000D02*
X117980200Y-104489800D01*
D43*
%TO.N,/HPM5300RDC MAINENTRY/03-HPM5300_IO/DAC1*%
X126875000Y-90600000D02*
X126175000Y-89900000D01*
X125425000Y-89975200D02*
X125500200Y-89900000D01*
X126175000Y-89900000D02*
X125500200Y-89900000D01*
X126875000Y-95625000D02*
X126875000Y-90600000D01*
X126775000Y-95725000D02*
X126875000Y-95625000D01*
D42*
%TO.N,/HPM5300RDC MAINENTRY/07-MISC/SEI_DATA_N*%
X195265200Y-100495000D02*
X197135000Y-100495000D01*
X192912500Y-100495000D02*
X192160000Y-99742500D01*
X197135000Y-100495000D02*
X198070000Y-99560000D01*
X195265200Y-100495000D02*
X192912500Y-100495000D01*
X192160000Y-99742500D02*
X189607500Y-99742500D01*
X189607500Y-99742500D02*
X189260000Y-100090000D01*
%TO.N,/HPM5300RDC MAINENTRY/07-MISC/SEI_DATA_P*%
X192160000Y-97917500D02*
X189587500Y-97917500D01*
X197095000Y-96685000D02*
X198070000Y-97660000D01*
X195265200Y-96685000D02*
X197095000Y-96685000D01*
X195265200Y-96685000D02*
X193392500Y-96685000D01*
X189587500Y-97917500D02*
X189260000Y-97590000D01*
X193392500Y-96685000D02*
X192160000Y-97917500D01*
D43*
%TO.N,/HPM5300RDC MAINENTRY/RESETN*%
X156825000Y-118075000D02*
X156820000Y-118070000D01*
X153120000Y-112370000D02*
X149570000Y-112370000D01*
X156820000Y-116070000D02*
X153120000Y-112370000D01*
X156820000Y-118070000D02*
X156820000Y-116070000D01*
D42*
%TO.N,/HPM5300RDC MAINENTRY/07-MISC/SEI_CLK_OUT_N*%
X197375000Y-92875000D02*
X198290000Y-91960000D01*
X192160000Y-91942500D02*
X189177500Y-91942500D01*
X193092500Y-92875000D02*
X192160000Y-91942500D01*
X195265200Y-92875000D02*
X193092500Y-92875000D01*
X195265200Y-92875000D02*
X197375000Y-92875000D01*
X189177500Y-91942500D02*
X188950000Y-92170000D01*
%TO.N,/HPM5300RDC MAINENTRY/07-MISC/SEI_CLK_OUT_P*%
X195265200Y-89065000D02*
X193212500Y-89065000D01*
X193212500Y-89065000D02*
X192160000Y-90117500D01*
X195265200Y-89065000D02*
X197295000Y-89065000D01*
X189557500Y-90117500D02*
X188920000Y-89480000D01*
X197295000Y-89065000D02*
X198290000Y-90060000D01*
X192160000Y-90117500D02*
X189557500Y-90117500D01*
D47*
%TO.N,/HPM5300RDC MAINENTRY/06-DEBUGGER/DP1*%
X187590000Y-127620000D02*
X188620000Y-127620000D01*
D43*
%TO.N,/HPM5300RDC MAINENTRY/03-HPM5300_IO/JTAG_TDI*%
X131775000Y-130440000D02*
X133845000Y-132510000D01*
X140110000Y-125860000D02*
X138420000Y-125860000D01*
X154050000Y-125860000D02*
X140110000Y-125860000D01*
X139700000Y-130650000D02*
X137840000Y-132510000D01*
X133845000Y-132510000D02*
X134210000Y-132510000D01*
X137840000Y-132510000D02*
X134210000Y-132510000D01*
%TO.N,/HPM5300RDC MAINENTRY/03-HPM5300_IO/JTAG_TMS*%
X137900000Y-129440000D02*
X141030000Y-129440000D01*
X137900000Y-129440000D02*
X133720000Y-129440000D01*
X131800000Y-128940000D02*
X133220000Y-128940000D01*
X133220000Y-128940000D02*
X133720000Y-129440000D01*
X151870000Y-126270000D02*
X143520000Y-126270000D01*
X141030000Y-129440000D02*
X142240000Y-130650000D01*
%TO.N,/HPM5300RDC MAINENTRY/03-HPM5300_IO/JTAG_TCK*%
X146030000Y-126760000D02*
X133300000Y-126760000D01*
X132670000Y-127390000D02*
X133300000Y-126760000D01*
X152370000Y-126760000D02*
X146030000Y-126760000D01*
X131795000Y-127390000D02*
X132670000Y-127390000D01*
%TO.N,/HPM5300RDC MAINENTRY/03-HPM5300_IO/JTAG_TDO*%
X152910000Y-125410000D02*
X151100000Y-125410000D01*
%TO.N,/HPM5300RDC MAINENTRY/03-HPM5300_IO/PA22*%
X177990000Y-121430000D02*
X189770000Y-121430000D01*
X191415000Y-123075000D02*
X191390000Y-123075000D01*
X146875200Y-124280000D02*
X175140000Y-124280000D01*
X175140000Y-124280000D02*
X177990000Y-121430000D01*
X189770000Y-121430000D02*
X191415000Y-123075000D01*
%TO.N,/HPM5300RDC MAINENTRY/03-HPM5300_IO/PA21*%
X147375200Y-123754800D02*
X172875200Y-123754800D01*
X191090000Y-120000000D02*
X191415000Y-119675000D01*
X179004408Y-120500000D02*
X179504408Y-120000000D01*
X176130000Y-120500000D02*
X179004408Y-120500000D01*
X179504408Y-120000000D02*
X191090000Y-120000000D01*
X172875200Y-123754800D02*
X176130000Y-120500000D01*
%TO.N,/HPM5300RDC MAINENTRY/03-HPM5300_IO/PA20*%
X191415000Y-117400000D02*
X191009210Y-117400000D01*
X171610000Y-123210000D02*
X147875200Y-123210000D01*
X191009210Y-117400000D02*
X188988210Y-119421000D01*
X175399000Y-119421000D02*
X171610000Y-123210000D01*
X188988210Y-119421000D02*
X175399000Y-119421000D01*
D47*
%TO.N,/HPM5300RDC MAINENTRY/07-MISC/DA_-*%
X182552399Y-98992400D02*
X181350000Y-98992400D01*
X184700000Y-100090000D02*
X183649999Y-100090000D01*
X181013900Y-99328500D02*
X179535000Y-99328500D01*
X181350000Y-98992400D02*
X181013900Y-99328500D01*
X183649999Y-100090000D02*
X182552399Y-98992400D01*
%TO.N,/HPM5300RDC MAINENTRY/07-MISC/DA_+*%
X181350000Y-98687600D02*
X182552399Y-98687600D01*
X180720900Y-98058500D02*
X179535000Y-98058500D01*
X183649999Y-97590000D02*
X182552399Y-98687600D01*
X184700000Y-97590000D02*
X183649999Y-97590000D01*
X181350000Y-98687600D02*
X180720900Y-98058500D01*
%TO.N,/HPM5300RDC MAINENTRY/07-MISC/CO_-*%
X184390000Y-92170000D02*
X185270000Y-92170000D01*
X180761500Y-91448500D02*
X179705000Y-91448500D01*
X182242399Y-91072400D02*
X181137600Y-91072400D01*
X181137600Y-91072400D02*
X180761500Y-91448500D01*
X184390000Y-92170000D02*
X183339999Y-92170000D01*
X185680000Y-92580000D02*
X185680000Y-93150000D01*
X185680000Y-93150000D02*
X185210000Y-93620000D01*
X183339999Y-92170000D02*
X182242399Y-91072400D01*
X185270000Y-92170000D02*
X185680000Y-92580000D01*
X185210000Y-93620000D02*
X184555000Y-93620000D01*
%TO.N,/HPM5300RDC MAINENTRY/07-MISC/CO_+*%
X180528500Y-90178500D02*
X179705000Y-90178500D01*
X186290000Y-90490000D02*
X186290000Y-94370000D01*
X186290000Y-94370000D02*
X185460000Y-95200000D01*
X185460000Y-95200000D02*
X184605000Y-95200000D01*
X182242399Y-90767600D02*
X181117600Y-90767600D01*
X183339999Y-89670000D02*
X182242399Y-90767600D01*
X185470000Y-89670000D02*
X186290000Y-90490000D01*
X184390000Y-89670000D02*
X185470000Y-89670000D01*
X184390000Y-89670000D02*
X183339999Y-89670000D01*
X181117600Y-90767600D02*
X180528500Y-90178500D01*
D42*
%TO.N,/HPM5300RDC MAINENTRY/07-MISC/DIG4_PWR*%
X163160000Y-93070000D02*
X163995200Y-93905200D01*
X163995200Y-93905200D02*
X163995200Y-95050000D01*
X159525200Y-93070000D02*
X163160000Y-93070000D01*
X158275200Y-91820000D02*
X159525200Y-93070000D01*
%TO.N,/HPM5300RDC MAINENTRY/07-MISC/DIG5_PWR*%
X160815200Y-81660000D02*
X166490000Y-81660000D01*
X166490000Y-81660000D02*
X167330100Y-82500100D01*
X167330100Y-82500100D02*
X167330100Y-85070000D01*
%TO.N,/HPM5300RDC MAINENTRY/07-MISC/DIG3_PWR*%
X155735200Y-81660000D02*
X157095200Y-83020000D01*
X159400000Y-83020000D02*
X159960000Y-83580000D01*
X160162985Y-85070000D02*
X160162985Y-83782985D01*
X160162985Y-83782985D02*
X159960000Y-83580000D01*
X157095200Y-83020000D02*
X159220000Y-83020000D01*
X159220000Y-83020000D02*
X159400000Y-83020000D01*
%TO.N,/HPM5300RDC MAINENTRY/07-MISC/DIG2_PWR*%
X152995871Y-85070000D02*
X152995871Y-81859329D01*
X152995871Y-81859329D02*
X153195200Y-81660000D01*
%TO.N,/HPM5300RDC MAINENTRY/07-MISC/DIG1_PWR*%
X145828757Y-81913557D02*
X145575200Y-81660000D01*
X145828757Y-85070000D02*
X145828757Y-81913557D01*
D43*
%TO.N,/HPM5300RDC MAINENTRY/03-HPM5300_IO/PA15*%
X156620000Y-100910000D02*
X156620000Y-97440000D01*
X156620000Y-110720000D02*
X156620000Y-100910000D01*
X143215000Y-90360000D02*
X141905000Y-89050000D01*
D42*
X141885000Y-87570000D02*
X141885000Y-89030000D01*
X141885000Y-89030000D02*
X141905000Y-89050000D01*
D43*
X157070000Y-92660000D02*
X157070000Y-90740000D01*
X156690000Y-90360000D02*
X143215000Y-90360000D01*
X155400000Y-96220000D02*
X155400000Y-94330000D01*
X155400000Y-94330000D02*
X157070000Y-92660000D01*
X157070000Y-90740000D02*
X156690000Y-90360000D01*
X156620000Y-97440000D02*
X155400000Y-96220000D01*
%TO.N,/HPM5300RDC MAINENTRY/03-HPM5300_IO/PA12*%
X158700000Y-112220000D02*
X158700000Y-105300000D01*
X149900000Y-89070000D02*
X149105000Y-89070000D01*
X166430000Y-97570000D02*
X166430000Y-90290000D01*
X149105000Y-89070000D02*
X149085000Y-89050000D01*
X158700000Y-105300000D02*
X166430000Y-97570000D01*
D42*
X149085000Y-87570000D02*
X149085000Y-89050000D01*
%TO.N,/HPM5300RDC MAINENTRY/03-HPM5300_IO/PA10*%
X156940000Y-88250000D02*
X156950000Y-88260000D01*
X156175000Y-87590000D02*
X156175000Y-88250000D01*
D43*
X159300000Y-112460000D02*
X159300000Y-105350000D01*
X167160000Y-97490000D02*
X167160000Y-90330000D01*
X167160000Y-90330000D02*
X168160000Y-89330000D01*
D42*
X156175000Y-88250000D02*
X156940000Y-88250000D01*
X156175000Y-89020000D02*
X156145000Y-89050000D01*
D43*
X159300000Y-105350000D02*
X167160000Y-97490000D01*
X156740000Y-115020000D02*
X159300000Y-112460000D01*
X156740000Y-115220000D02*
X156740000Y-115020000D01*
D42*
X156175000Y-88250000D02*
X156175000Y-89020000D01*
D43*
X168160000Y-89330000D02*
X168160000Y-88090000D01*
%TO.N,/HPM5300RDC MAINENTRY/03-HPM5300_IO/PA14*%
X157270000Y-97010000D02*
X157040000Y-96780000D01*
X157280000Y-97730000D02*
X157270000Y-97720000D01*
X157040000Y-96780000D02*
X157040000Y-95925000D01*
X158520200Y-97730000D02*
X157280000Y-97730000D01*
X157270000Y-97720000D02*
X157270000Y-97010000D01*
X157270000Y-111220000D02*
X157270000Y-97720000D01*
%TO.N,/HPM5300RDC MAINENTRY/03-HPM5300_IO/PA13*%
X163455000Y-90035000D02*
X163455000Y-89050000D01*
D42*
X163405000Y-89000000D02*
X163455000Y-89050000D01*
D43*
X157970000Y-105290000D02*
X165500000Y-97760000D01*
X165500000Y-97760000D02*
X165500000Y-92080000D01*
X165500000Y-92080000D02*
X163455000Y-90035000D01*
X157970000Y-111720000D02*
X157970000Y-105290000D01*
D42*
X163405000Y-87630000D02*
X163405000Y-89000000D01*
%TO.N,/HPM5300RDC MAINENTRY/05-RDC_SINCOS/ISIN-*%
X120920200Y-103310000D02*
X120920200Y-101845000D01*
X121000200Y-101765000D02*
X121720000Y-101765000D01*
X121720000Y-101765000D02*
X122470200Y-101765000D01*
D43*
X122595000Y-81835000D02*
X122590000Y-81840000D01*
D42*
X122470200Y-101765000D02*
X122505200Y-101800000D01*
D43*
X133820000Y-82420000D02*
X136672000Y-82420000D01*
D42*
X120920200Y-101845000D02*
X121000200Y-101765000D01*
D43*
X125446000Y-81835000D02*
X122595000Y-81835000D01*
D42*
%TO.N,/HPM5300RDC MAINENTRY/05-RDC_SINCOS/ISIN+*%
X121010200Y-100215000D02*
X121720000Y-100215000D01*
X120900200Y-98650000D02*
X120900200Y-100105000D01*
X120900200Y-100105000D02*
X121010200Y-100215000D01*
D43*
X130950000Y-84360000D02*
X130940000Y-84370000D01*
X122130000Y-83785000D02*
X119714000Y-83785000D01*
X134230000Y-84360000D02*
X130950000Y-84360000D01*
D42*
X121720000Y-100215000D02*
X122440200Y-100215000D01*
X122440200Y-100215000D02*
X122505200Y-100150000D01*
%TO.N,/HPM5300RDC MAINENTRY/05-RDC_SINCOS/ICOS-*%
X120860200Y-93080000D02*
X120860200Y-93960000D01*
D43*
X134700000Y-81750000D02*
X134720000Y-81770000D01*
X121675000Y-82485000D02*
X125446000Y-82485000D01*
D42*
X120860200Y-93080000D02*
X122330200Y-93080000D01*
X122330200Y-93080000D02*
X122355200Y-93105000D01*
D43*
X121670000Y-82490000D02*
X121675000Y-82485000D01*
X134720000Y-81770000D02*
X136672000Y-81770000D01*
D42*
X120860200Y-93960000D02*
X120860200Y-94590000D01*
X120860200Y-94590000D02*
X120750200Y-94700000D01*
X136622000Y-81820000D02*
X136672000Y-81770000D01*
D43*
%TO.N,/HPM5300RDC MAINENTRY/05-RDC_SINCOS/ICOS+*%
X121245000Y-84435000D02*
X121280000Y-84470000D01*
X119714000Y-84435000D02*
X121245000Y-84435000D01*
D42*
X120720200Y-90730000D02*
X120720200Y-91370000D01*
X120720200Y-89890000D02*
X120720200Y-90730000D01*
D43*
X135230000Y-83740000D02*
X130960000Y-83740000D01*
D42*
X122310200Y-91500000D02*
X122355200Y-91455000D01*
D43*
X130960000Y-83740000D02*
X130940000Y-83720000D01*
D42*
X120720200Y-91370000D02*
X120850200Y-91500000D01*
X120850200Y-91500000D02*
X122310200Y-91500000D01*
D43*
%TO.N,/HPM5300RDC MAINENTRY/03-HPM5300_IO/PA19*%
X162124000Y-116854420D02*
X162124000Y-106376000D01*
X156768420Y-122210000D02*
X162124000Y-116854420D01*
X172200000Y-102850000D02*
X173050000Y-103700000D01*
X148375200Y-122210000D02*
X156768420Y-122210000D01*
X173050000Y-103700000D02*
X173520000Y-103700000D01*
X167901500Y-100598500D02*
X172430000Y-100598500D01*
X172200000Y-100623500D02*
X172200000Y-102850000D01*
X172430000Y-100598500D02*
X174125000Y-100598500D01*
X162124000Y-106376000D02*
X167901500Y-100598500D01*
%TO.N,/HPM5300RDC MAINENTRY/03-HPM5300_IO/PY03*%
X146170000Y-97250000D02*
X146170000Y-95942962D01*
X146170000Y-95942962D02*
X146162038Y-95935000D01*
%TO.N,/HPM5300RDC MAINENTRY/03-HPM5300_IO/PY04*%
X147989384Y-97884684D02*
X147989384Y-95935000D01*
X147990000Y-97885300D02*
X147989384Y-97884684D01*
%TO.N,/HPM5300RDC MAINENTRY/03-HPM5300_IO/PA16*%
X175780000Y-99970000D02*
X175780000Y-101590000D01*
X175780000Y-101590000D02*
X175180000Y-102190000D01*
X168471500Y-99328500D02*
X174125000Y-99328500D01*
X151375200Y-121710000D02*
X156660000Y-121710000D01*
X174125000Y-99328500D02*
X175138500Y-99328500D01*
X161630000Y-106170000D02*
X168471500Y-99328500D01*
X156660000Y-121710000D02*
X161630000Y-116740000D01*
X161630000Y-116740000D02*
X161630000Y-106170000D01*
X174125000Y-98058500D02*
X174125000Y-99328500D01*
X175138500Y-99328500D02*
X175780000Y-99970000D01*
%TO.N,/HPM5300RDC MAINENTRY/03-HPM5300_IO/PY05*%
X147370000Y-104660000D02*
X147370000Y-99460000D01*
X147370000Y-99460000D02*
X149816730Y-97013270D01*
X149816730Y-97013270D02*
X149816730Y-95935000D01*
%TO.N,/HPM5300RDC MAINENTRY/03-HPM5300_IO/PY06*%
X151644076Y-96565924D02*
X151644076Y-95935000D01*
X147870000Y-99640000D02*
X150490000Y-97020000D01*
X147870000Y-102330000D02*
X147870000Y-99640000D01*
X150490000Y-97020000D02*
X151190000Y-97020000D01*
X151190000Y-97020000D02*
X151644076Y-96565924D01*
%TO.N,/HPM5300RDC MAINENTRY/03-HPM5300_IO/PY07*%
X148370000Y-100760000D02*
X149290000Y-99840000D01*
X148370000Y-104680000D02*
X148370000Y-100760000D01*
X153471428Y-96828572D02*
X153471428Y-95935000D01*
X151090000Y-97380000D02*
X152920000Y-97380000D01*
X149290000Y-99840000D02*
X149290000Y-99180000D01*
X149290000Y-99180000D02*
X151090000Y-97380000D01*
X152920000Y-97380000D02*
X153471428Y-96828572D01*
%TO.N,/HPM5300RDC MAINENTRY/03-HPM5300_IO/PY00*%
X140770000Y-96025000D02*
X140680000Y-95935000D01*
X140770000Y-97180000D02*
X140770000Y-96025000D01*
%TO.N,/HPM5300RDC MAINENTRY/03-HPM5300_IO/PY01*%
X142440000Y-96002346D02*
X142507346Y-95935000D01*
X142440000Y-97180000D02*
X142440000Y-96002346D01*
%TO.N,/HPM5300RDC MAINENTRY/03-HPM5300_IO/PY02*%
X144230000Y-96039692D02*
X144334692Y-95935000D01*
X144230000Y-97250000D02*
X144230000Y-96039692D01*
D47*
%TO.N,/HPM5300RDC MAINENTRY/02-HPM5300_MISC/USB0_P*%
X137192513Y-115817600D02*
X137942400Y-115817600D01*
X137040113Y-115665200D02*
X137192513Y-115817600D01*
X137942400Y-115817600D02*
X138700000Y-115060000D01*
%TO.N,/HPM5300RDC MAINENTRY/02-HPM5300_MISC/USB0_N*%
X137842400Y-116122400D02*
X137540000Y-116122400D01*
X138710000Y-116990000D02*
X137842400Y-116122400D01*
X137040113Y-116274800D02*
X137192513Y-116122400D01*
X137192513Y-116122400D02*
X137540000Y-116122400D01*
D43*
%TO.N,/HPM5300RDC MAINENTRY/03-HPM5300_IO/PA17*%
X156510000Y-120730000D02*
X157580000Y-119660000D01*
X150875200Y-120730000D02*
X156510000Y-120730000D01*
X157580000Y-114990000D02*
X160015000Y-112555000D01*
X168470000Y-96980000D02*
X168470000Y-94430000D01*
X168470000Y-94430000D02*
X171451500Y-91448500D01*
X160015000Y-112555000D02*
X160015000Y-105435000D01*
X171451500Y-91448500D02*
X174295000Y-91448500D01*
X157580000Y-119660000D02*
X157580000Y-114990000D01*
X160015000Y-105435000D02*
X168470000Y-96980000D01*
%TO.N,/HPM5300RDC MAINENTRY/03-HPM5300_IO/PA18*%
X161130000Y-105820000D02*
X170161500Y-96788500D01*
X156630000Y-121160000D02*
X161130000Y-116660000D01*
X148875200Y-121160000D02*
X156630000Y-121160000D01*
X161130000Y-116660000D02*
X161130000Y-105820000D01*
X170161500Y-96788500D02*
X174125000Y-96788500D01*
%TO.N,/HPM5300RDC MAINENTRY/03-HPM5300_IO/PA23*%
X165260000Y-122710000D02*
X166380000Y-121590000D01*
X192400000Y-102400000D02*
X191365000Y-103435000D01*
X191365000Y-103435000D02*
X191365000Y-104000000D01*
X193200000Y-113925000D02*
X196625000Y-113925000D01*
X146380000Y-122710000D02*
X165260000Y-122710000D01*
X198875000Y-111675000D02*
X198875000Y-103400000D01*
X171910000Y-121590000D02*
X174654000Y-118846000D01*
X198875000Y-103400000D02*
X197875000Y-102400000D01*
X174654000Y-118846000D02*
X188279000Y-118846000D01*
X166380000Y-121590000D02*
X171910000Y-121590000D01*
X196625000Y-113925000D02*
X198875000Y-111675000D01*
X197875000Y-102400000D02*
X192400000Y-102400000D01*
X188279000Y-118846000D02*
X193200000Y-113925000D01*
%TO.N,/HPM5300RDC MAINENTRY/03-HPM5300_IO/PB07*%
X121060200Y-105640000D02*
X121060200Y-105464800D01*
D42*
X121030200Y-105670000D02*
X121060200Y-105640000D01*
D43*
X135500000Y-104550000D02*
X136800000Y-105850000D01*
X121010000Y-105589800D02*
X121060200Y-105640000D01*
D42*
X121030200Y-107170000D02*
X121030200Y-105670000D01*
D43*
X121975000Y-104550000D02*
X135500000Y-104550000D01*
X121060200Y-105464800D02*
X121975000Y-104550000D01*
%TO.N,/HPM5300RDC MAINENTRY/03-HPM5300_IO/PB11*%
X140900000Y-102000000D02*
X140900000Y-101100000D01*
X140900000Y-101100000D02*
X137040000Y-97240000D01*
X137040000Y-97240000D02*
X137040000Y-96285000D01*
%TO.N,/HPM5300RDC MAINENTRY/03-HPM5300_IO/PA01*%
X170150000Y-120025000D02*
X169425000Y-120750000D01*
X169425000Y-120750000D02*
X166730000Y-120750000D01*
%TO.N,/HPM5300RDC MAINENTRY/03-HPM5300_IO/PA11*%
X158250000Y-115190000D02*
X158360000Y-115190000D01*
X160615000Y-105535000D02*
X169300000Y-96850000D01*
X158360000Y-115190000D02*
X160615000Y-112935000D01*
X160615000Y-112935000D02*
X160615000Y-105535000D01*
X169300000Y-96850000D02*
X169300000Y-95050000D01*
X169300000Y-95050000D02*
X171631500Y-92718500D01*
X171631500Y-92718500D02*
X174295000Y-92718500D01*
%TO.N,Net-(Q20-G)*%
X134480000Y-93168650D02*
X134586200Y-93062450D01*
X134480000Y-94615000D02*
X134480000Y-93168650D01*
%TO.N,/HPM5300RDC MAINENTRY/05-RDC_SINCOS/INH_CMOS*%
X133636200Y-91062450D02*
X132105000Y-89531250D01*
X130380000Y-87430000D02*
X130540000Y-87430000D01*
X134550000Y-85640000D02*
X132760000Y-87430000D01*
X132105000Y-87445000D02*
X132090000Y-87430000D01*
X132090000Y-87430000D02*
X130540000Y-87430000D01*
X136672000Y-85020000D02*
X135170000Y-85020000D01*
X135170000Y-85020000D02*
X134550000Y-85640000D01*
X132105000Y-89531250D02*
X132105000Y-88910000D01*
X128635000Y-85085000D02*
X129610000Y-86060000D01*
X125446000Y-85085000D02*
X128635000Y-85085000D01*
X132760000Y-87430000D02*
X132090000Y-87430000D01*
X129610000Y-86060000D02*
X129610000Y-86660000D01*
X132105000Y-88910000D02*
X132105000Y-87445000D01*
X129610000Y-86660000D02*
X130380000Y-87430000D01*
%TO.N,Net-(Q21-G)*%
X137040000Y-94635000D02*
X137040000Y-94168650D01*
X137040000Y-94168650D02*
X138106200Y-93102450D01*
%TO.N,/HPM5300RDC MAINENTRY/05-RDC_SINCOS/CTRL_CMOS*%
X137156200Y-90321200D02*
X135795000Y-88960000D01*
X135730000Y-88895000D02*
X135795000Y-88960000D01*
X131280000Y-90850000D02*
X131280000Y-89210000D01*
X121125000Y-85735000D02*
X119714000Y-85735000D01*
X135020000Y-92000000D02*
X132430000Y-92000000D01*
X135917550Y-91102450D02*
X135020000Y-92000000D01*
X131085000Y-85525000D02*
X133600000Y-85525000D01*
X137156200Y-91102450D02*
X135917550Y-91102450D01*
X132430000Y-92000000D02*
X131280000Y-90850000D01*
X129590000Y-87520000D02*
X122910000Y-87520000D01*
X119714000Y-85085000D02*
X119714000Y-85735000D01*
X130940000Y-85020000D02*
X130940000Y-85670000D01*
X122910000Y-87520000D02*
X121125000Y-85735000D01*
X130940000Y-85670000D02*
X131085000Y-85525000D01*
X137156200Y-91102450D02*
X137156200Y-90321200D01*
X135730000Y-88100000D02*
X135730000Y-88895000D01*
X131280000Y-89210000D02*
X129590000Y-87520000D01*
D42*
%TO.N,/HPM5300RDC MAINENTRY/03-HPM5300_IO/DAC0*%
X126075200Y-98175000D02*
X125620200Y-98630000D01*
X126594500Y-98175000D02*
X126075200Y-98175000D01*
X132175000Y-104169500D02*
X132200000Y-104144500D01*
D43*
X126594500Y-98175000D02*
X126594500Y-98037343D01*
%TO.N,Net-(J3-Pin_1)*%
X194985200Y-123075000D02*
X192525024Y-123075000D01*
X192750000Y-123075000D02*
X192750000Y-124348960D01*
X192525024Y-123075000D02*
X192450024Y-123150000D01*
X192750000Y-124348960D02*
X192800024Y-124398984D01*
X195265200Y-123355000D02*
X194985200Y-123075000D01*
%TO.N,Net-(J3-Pin_2)*%
X192600024Y-120998984D02*
X192600024Y-119824976D01*
X192880000Y-119545000D02*
X195265200Y-119545000D01*
X192600024Y-119824976D02*
X192880000Y-119545000D01*
%TO.N,Net-(J3-Pin_3)*%
X192435000Y-118208960D02*
X192620010Y-118393970D01*
X192620010Y-118393970D02*
X192620010Y-118408162D01*
X193600200Y-117400000D02*
X195265200Y-115735000D01*
X192435000Y-117400000D02*
X192435000Y-118208960D01*
X192435000Y-117400000D02*
X193600200Y-117400000D01*
%TO.N,Net-(J3-Pin_6)*%
X194960200Y-104000000D02*
X195265200Y-104305000D01*
X194720200Y-104850000D02*
X195265200Y-104305000D01*
X192385000Y-104000000D02*
X192385000Y-104958960D01*
X192500024Y-104115024D02*
X192385000Y-104000000D01*
X192385000Y-104958960D02*
X192575024Y-105148984D01*
X192385000Y-104000000D02*
X194960200Y-104000000D01*
D49*
%TO.N,Net-(U16-EN)*%
X180650000Y-112618600D02*
X180650000Y-114025000D01*
X180650000Y-114025000D02*
X181650000Y-115025000D01*
X179800000Y-112000000D02*
X180031400Y-112000000D01*
X180031400Y-112000000D02*
X180650000Y-112618600D01*
%TD*%
%TA.AperFunction,Conductor*%
%TO.N,DCDC_IN*%
G36*
X149182088Y-102210000D02*
G01*
X149245200Y-102210000D01*
X151041200Y-102210000D01*
X151108239Y-102229685D01*
X151153994Y-102282489D01*
X151165200Y-102334000D01*
X151165200Y-105948140D01*
X151161774Y-105977087D01*
X151160178Y-105983733D01*
X151160177Y-105983740D01*
X151154500Y-106031702D01*
X151154500Y-107346000D01*
X151134815Y-107413039D01*
X151082011Y-107458794D01*
X151030500Y-107470000D01*
X149059200Y-107470000D01*
X148992161Y-107450315D01*
X148946406Y-107397511D01*
X148935200Y-107346000D01*
X148935200Y-105787080D01*
X148954885Y-105720041D01*
X148969148Y-105702342D01*
X148970665Y-105700252D01*
X148970671Y-105700247D01*
X149028727Y-105586305D01*
X149028727Y-105586303D01*
X149028728Y-105586302D01*
X149048732Y-105460002D01*
X149048732Y-105459997D01*
X149028728Y-105333697D01*
X149024042Y-105324500D01*
X148970671Y-105219753D01*
X148970668Y-105219750D01*
X148964932Y-105211854D01*
X148966228Y-105210911D01*
X148938034Y-105159277D01*
X148935200Y-105132919D01*
X148935200Y-102330185D01*
X148954885Y-102263146D01*
X149007689Y-102217391D01*
X149055325Y-102206246D01*
X149155595Y-102203112D01*
X149182088Y-102210000D01*
G37*
%TD.AperFunction*%
%TD*%
%TA.AperFunction,Conductor*%
%TO.N,+3.3V*%
G36*
X170193039Y-105019685D02*
G01*
X170238794Y-105072489D01*
X170250000Y-105124000D01*
X170250000Y-107053598D01*
X170243042Y-107094552D01*
X170214632Y-107175742D01*
X170214630Y-107175750D01*
X170194435Y-107354996D01*
X170194435Y-107355003D01*
X170214630Y-107534246D01*
X170214632Y-107534256D01*
X170243041Y-107615442D01*
X170250000Y-107656397D01*
X170250000Y-107876000D01*
X170230315Y-107943039D01*
X170177511Y-107988794D01*
X170126000Y-108000000D01*
X163374000Y-108000000D01*
X163306961Y-107980315D01*
X163261206Y-107927511D01*
X163250000Y-107876000D01*
X163250000Y-105801362D01*
X163269685Y-105734323D01*
X163286319Y-105713681D01*
X163963681Y-105036319D01*
X164025004Y-105002834D01*
X164051362Y-105000000D01*
X170126000Y-105000000D01*
X170193039Y-105019685D01*
G37*
%TD.AperFunction*%
%TD*%
%TA.AperFunction,Conductor*%
%TO.N,Net-(C83-Pad1)*%
G36*
X174015677Y-108519685D02*
G01*
X174036319Y-108536319D01*
X174500000Y-109000000D01*
X175270500Y-109000000D01*
X175337539Y-109019685D01*
X175383294Y-109072489D01*
X175394500Y-109124000D01*
X175394500Y-109876000D01*
X175374815Y-109943039D01*
X175322011Y-109988794D01*
X175270500Y-110000000D01*
X173499999Y-110000000D01*
X173250000Y-110249999D01*
X173250000Y-112948638D01*
X173230315Y-113015677D01*
X173213681Y-113036319D01*
X173036319Y-113213681D01*
X172974996Y-113247166D01*
X172948638Y-113250000D01*
X168801362Y-113250000D01*
X168734323Y-113230315D01*
X168713681Y-113213681D01*
X168536319Y-113036319D01*
X168502834Y-112974996D01*
X168500000Y-112948638D01*
X168500000Y-108624000D01*
X168519685Y-108556961D01*
X168572489Y-108511206D01*
X168624000Y-108500000D01*
X173948638Y-108500000D01*
X174015677Y-108519685D01*
G37*
%TD.AperFunction*%
%TD*%
%TA.AperFunction,Conductor*%
%TO.N,+5V*%
G36*
X181050147Y-108413514D02*
G01*
X181132294Y-108455370D01*
X181183091Y-108503344D01*
X181200000Y-108565855D01*
X181200000Y-109976000D01*
X181180315Y-110043039D01*
X181127511Y-110088794D01*
X181076000Y-110100000D01*
X177500000Y-110100000D01*
X177500000Y-111201000D01*
X177480315Y-111268039D01*
X177427511Y-111313794D01*
X177376000Y-111325000D01*
X176424000Y-111325000D01*
X176356961Y-111305315D01*
X176311206Y-111252511D01*
X176300000Y-111201000D01*
X176300000Y-110500000D01*
X175900000Y-110100000D01*
X175724000Y-110100000D01*
X175656961Y-110080315D01*
X175611206Y-110027511D01*
X175600000Y-109976000D01*
X175600000Y-108551362D01*
X175619685Y-108484323D01*
X175636319Y-108463681D01*
X175663681Y-108436319D01*
X175725004Y-108402834D01*
X175751362Y-108400000D01*
X180993854Y-108400000D01*
X181050147Y-108413514D01*
G37*
%TD.AperFunction*%
%TD*%
%TA.AperFunction,Conductor*%
%TO.N,+3.3V*%
G36*
X153023039Y-105549685D02*
G01*
X153068794Y-105602489D01*
X153080000Y-105654000D01*
X153080000Y-108481000D01*
X153060315Y-108548039D01*
X153007511Y-108593794D01*
X152956000Y-108605000D01*
X148904000Y-108605000D01*
X148836961Y-108585315D01*
X148791206Y-108532511D01*
X148780000Y-108481000D01*
X148780000Y-107814000D01*
X148799685Y-107746961D01*
X148852489Y-107701206D01*
X148904000Y-107690000D01*
X151360000Y-107690000D01*
X151360000Y-106031707D01*
X151373515Y-105975412D01*
X151408727Y-105906305D01*
X151408727Y-105906303D01*
X151408728Y-105906302D01*
X151428732Y-105780002D01*
X151428732Y-105779997D01*
X151426062Y-105763140D01*
X151435017Y-105693846D01*
X151480013Y-105640394D01*
X151546764Y-105619755D01*
X151604826Y-105633256D01*
X151713695Y-105688727D01*
X151713697Y-105688727D01*
X151713699Y-105688728D01*
X151839998Y-105708732D01*
X151840000Y-105708732D01*
X151840002Y-105708732D01*
X151966302Y-105688728D01*
X151966303Y-105688727D01*
X151966305Y-105688727D01*
X152080247Y-105630671D01*
X152144600Y-105566317D01*
X152205921Y-105532834D01*
X152232280Y-105530000D01*
X152956000Y-105530000D01*
X153023039Y-105549685D01*
G37*
%TD.AperFunction*%
%TD*%
%TA.AperFunction,Conductor*%
%TO.N,+5VD*%
G36*
X190442540Y-123229685D02*
G01*
X190488295Y-123282489D01*
X190499500Y-123333999D01*
X190499501Y-123381518D01*
X190514354Y-123475304D01*
X190571950Y-123588342D01*
X190571952Y-123588344D01*
X190571953Y-123588346D01*
X190618880Y-123635272D01*
X190652366Y-123696595D01*
X190655200Y-123722954D01*
X190655200Y-123812218D01*
X190635515Y-123879257D01*
X190582711Y-123925012D01*
X190513553Y-123934956D01*
X190449997Y-123905931D01*
X190420715Y-123868513D01*
X190395871Y-123819753D01*
X190395867Y-123819749D01*
X190395866Y-123819747D01*
X190305452Y-123729333D01*
X190305448Y-123729330D01*
X190305447Y-123729329D01*
X190241203Y-123696595D01*
X190191502Y-123671271D01*
X190065202Y-123651268D01*
X190065198Y-123651268D01*
X189938897Y-123671271D01*
X189824954Y-123729328D01*
X189824947Y-123729333D01*
X189734533Y-123819747D01*
X189734528Y-123819754D01*
X189676471Y-123933697D01*
X189656468Y-124059997D01*
X189656468Y-124060002D01*
X189676471Y-124186302D01*
X189734528Y-124300245D01*
X189734533Y-124300252D01*
X189824947Y-124390666D01*
X189824950Y-124390668D01*
X189824953Y-124390671D01*
X189938895Y-124448727D01*
X189938897Y-124448728D01*
X190065198Y-124468732D01*
X190065200Y-124468732D01*
X190065202Y-124468732D01*
X190191502Y-124448728D01*
X190191503Y-124448727D01*
X190191505Y-124448727D01*
X190305447Y-124390671D01*
X190395871Y-124300247D01*
X190420715Y-124251486D01*
X190468689Y-124200690D01*
X190536510Y-124183895D01*
X190602645Y-124206432D01*
X190646097Y-124261147D01*
X190655200Y-124307781D01*
X190655200Y-126886000D01*
X190635515Y-126953039D01*
X190582711Y-126998794D01*
X190531200Y-127010000D01*
X184449400Y-127010000D01*
X184382361Y-126990315D01*
X184336606Y-126937511D01*
X184325400Y-126886000D01*
X184325400Y-126779093D01*
X184325399Y-126779089D01*
X184310269Y-126644800D01*
X184310266Y-126644787D01*
X184252159Y-126478727D01*
X184245200Y-126437772D01*
X184245200Y-123334000D01*
X184264885Y-123266961D01*
X184317689Y-123221206D01*
X184369200Y-123210000D01*
X190375501Y-123210000D01*
X190442540Y-123229685D01*
G37*
%TD.AperFunction*%
%TD*%
M02*
