%TF.GenerationSoftware,KiCad,Pcbnew,7.0.9*%
%TF.CreationDate,2025-05-07T10:44:47+08:00*%
%TF.ProjectId,HPM5300RDCRevB,48504d35-3330-4305-9244-43526576422e,REVC*%
%TF.SameCoordinates,Original*%
%TF.FileFunction,Paste,Bot*%
%TF.FilePolarity,Positive*%
%FSLAX46Y46*%
G04 Gerber Fmt 4.6, Leading zero omitted, Abs format (unit mm)*
G04 Created by KiCad (PCBNEW 7.0.9) date 2025-05-07 10:44:47*
%MOMM*%
%LPD*%
G01*
G04 APERTURE LIST*
G04 Aperture macros list*
%AMRoundRect*
0 Rectangle with rounded corners*
0 $1 Rounding radius*
0 $2 $3 $4 $5 $6 $7 $8 $9 X,Y pos of 4 corners*
0 Add a 4 corners polygon primitive as box body*
4,1,4,$2,$3,$4,$5,$6,$7,$8,$9,$2,$3,0*
0 Add four circle primitives for the rounded corners*
1,1,$1+$1,$2,$3*
1,1,$1+$1,$4,$5*
1,1,$1+$1,$6,$7*
1,1,$1+$1,$8,$9*
0 Add four rect primitives between the rounded corners*
20,1,$1+$1,$2,$3,$4,$5,0*
20,1,$1+$1,$4,$5,$6,$7,0*
20,1,$1+$1,$6,$7,$8,$9,0*
20,1,$1+$1,$8,$9,$2,$3,0*%
G04 Aperture macros list end*
%ADD10C,0.120000*%
%ADD11RoundRect,0.050800X-0.625000X-0.350000X0.625000X-0.350000X0.625000X0.350000X-0.625000X0.350000X0*%
%ADD12RoundRect,0.200000X-0.200000X-0.275000X0.200000X-0.275000X0.200000X0.275000X-0.200000X0.275000X0*%
%ADD13RoundRect,0.225000X0.225000X0.250000X-0.225000X0.250000X-0.225000X-0.250000X0.225000X-0.250000X0*%
%ADD14RoundRect,0.200000X0.200000X0.275000X-0.200000X0.275000X-0.200000X-0.275000X0.200000X-0.275000X0*%
%ADD15RoundRect,0.050800X0.625000X0.350000X-0.625000X0.350000X-0.625000X-0.350000X0.625000X-0.350000X0*%
%ADD16RoundRect,0.200000X-0.275000X0.200000X-0.275000X-0.200000X0.275000X-0.200000X0.275000X0.200000X0*%
%ADD17RoundRect,0.225000X-0.225000X-0.250000X0.225000X-0.250000X0.225000X0.250000X-0.225000X0.250000X0*%
%ADD18RoundRect,0.250000X-0.450000X0.262500X-0.450000X-0.262500X0.450000X-0.262500X0.450000X0.262500X0*%
%ADD19RoundRect,0.200000X0.275000X-0.200000X0.275000X0.200000X-0.275000X0.200000X-0.275000X-0.200000X0*%
%ADD20R,1.400000X0.900000*%
%ADD21RoundRect,0.225000X0.250000X-0.225000X0.250000X0.225000X-0.250000X0.225000X-0.250000X-0.225000X0*%
%ADD22R,0.406400X0.406400*%
%ADD23O,1.950000X0.568000*%
%ADD24C,0.950000*%
%ADD25RoundRect,0.225000X-0.250000X0.225000X-0.250000X-0.225000X0.250000X-0.225000X0.250000X0.225000X0*%
%ADD26C,1.200000*%
%ADD27R,1.000000X0.550000*%
%ADD28O,0.568000X1.950000*%
%ADD29O,1.731000X0.343000*%
%ADD30RoundRect,0.050800X-0.350000X0.625000X-0.350000X-0.625000X0.350000X-0.625000X0.350000X0.625000X0*%
%ADD31R,1.635000X2.160000*%
%ADD32RoundRect,0.250000X0.450000X-0.262500X0.450000X0.262500X-0.450000X0.262500X-0.450000X-0.262500X0*%
%ADD33R,1.700000X0.400000*%
G04 APERTURE END LIST*
%TO.C,L12*%
D10*
X175410000Y-110695000D02*
X175410000Y-112655000D01*
X175310000Y-112755000D01*
X173840000Y-112755000D01*
X173740000Y-112655000D01*
X173740000Y-112142000D01*
X173840000Y-112042000D01*
X174231000Y-112042000D01*
X174331000Y-111942000D01*
X174331000Y-111408000D01*
X174231000Y-111308000D01*
X173840000Y-111308000D01*
X173740000Y-111208000D01*
X173740000Y-110695000D01*
X173840000Y-110595000D01*
X175310000Y-110595000D01*
X175410000Y-110695000D01*
G36*
X175410000Y-110695000D02*
G01*
X175410000Y-112655000D01*
X175310000Y-112755000D01*
X173840000Y-112755000D01*
X173740000Y-112655000D01*
X173740000Y-112142000D01*
X173840000Y-112042000D01*
X174231000Y-112042000D01*
X174331000Y-111942000D01*
X174331000Y-111408000D01*
X174231000Y-111308000D01*
X173840000Y-111308000D01*
X173740000Y-111208000D01*
X173740000Y-110695000D01*
X173840000Y-110595000D01*
X175310000Y-110595000D01*
X175410000Y-110695000D01*
G37*
X173110000Y-110695000D02*
X173110000Y-111208000D01*
X173010000Y-111308000D01*
X172619000Y-111308000D01*
X172519000Y-111408000D01*
X172519000Y-111942000D01*
X172619000Y-112042000D01*
X173010000Y-112042000D01*
X173110000Y-112142000D01*
X173110000Y-112655000D01*
X173010000Y-112755000D01*
X171540000Y-112755000D01*
X171440000Y-112655000D01*
X171440000Y-110695000D01*
X171540000Y-110595000D01*
X173010000Y-110595000D01*
X173110000Y-110695000D01*
G36*
X173110000Y-110695000D02*
G01*
X173110000Y-111208000D01*
X173010000Y-111308000D01*
X172619000Y-111308000D01*
X172519000Y-111408000D01*
X172519000Y-111942000D01*
X172619000Y-112042000D01*
X173010000Y-112042000D01*
X173110000Y-112142000D01*
X173110000Y-112655000D01*
X173010000Y-112755000D01*
X171540000Y-112755000D01*
X171440000Y-112655000D01*
X171440000Y-110695000D01*
X171540000Y-110595000D01*
X173010000Y-110595000D01*
X173110000Y-110695000D01*
G37*
%TD*%
D11*
%TO.C,Q7*%
X116457650Y-120573800D03*
X116457650Y-122473800D03*
X114457650Y-121523800D03*
%TD*%
D12*
%TO.C,R60*%
X147435000Y-89050000D03*
X149085000Y-89050000D03*
%TD*%
%TO.C,R71*%
X124010200Y-103300000D03*
X125660200Y-103300000D03*
%TD*%
D13*
%TO.C,C7*%
X124365000Y-123090000D03*
X122815000Y-123090000D03*
%TD*%
D14*
%TO.C,R22*%
X183300000Y-113525000D03*
X181650000Y-113525000D03*
%TD*%
%TO.C,R24*%
X149085000Y-87570000D03*
X147435000Y-87570000D03*
%TD*%
D15*
%TO.C,Q1*%
X131947550Y-111756200D03*
X131947550Y-109856200D03*
X133947550Y-110806200D03*
%TD*%
D12*
%TO.C,R28*%
X158520200Y-97730000D03*
X160170200Y-97730000D03*
%TD*%
D16*
%TO.C,R100*%
X144334692Y-94285000D03*
X144334692Y-95935000D03*
%TD*%
D13*
%TO.C,C46*%
X142370200Y-107520000D03*
X140820200Y-107520000D03*
%TD*%
D12*
%TO.C,R86*%
X117790200Y-98645000D03*
X119440200Y-98645000D03*
%TD*%
D14*
%TO.C,R125*%
X183300000Y-115025000D03*
X181650000Y-115025000D03*
%TD*%
D17*
%TO.C,C43*%
X140860200Y-111830000D03*
X142410200Y-111830000D03*
%TD*%
D18*
%TO.C,R91*%
X192160000Y-90117500D03*
X192160000Y-91942500D03*
%TD*%
D12*
%TO.C,R83*%
X119210200Y-93080000D03*
X120860200Y-93080000D03*
%TD*%
D13*
%TO.C,C38*%
X151920200Y-109310000D03*
X150370200Y-109310000D03*
%TD*%
D12*
%TO.C,R17*%
X121030200Y-107170000D03*
X122680200Y-107170000D03*
%TD*%
D13*
%TO.C,C59*%
X142425000Y-117970000D03*
X140875000Y-117970000D03*
%TD*%
D19*
%TO.C,R80*%
X122355200Y-93105000D03*
X122355200Y-91455000D03*
%TD*%
D14*
%TO.C,R25*%
X152553826Y-89050000D03*
X150903826Y-89050000D03*
%TD*%
%TO.C,R64*%
X112860200Y-118790000D03*
X111210200Y-118790000D03*
%TD*%
D13*
%TO.C,C1*%
X131715000Y-131970000D03*
X130165000Y-131970000D03*
%TD*%
%TO.C,C36*%
X151890200Y-114220000D03*
X150340200Y-114220000D03*
%TD*%
D20*
%TO.C,L1*%
X184700000Y-100090000D03*
X184700000Y-97590000D03*
X189260000Y-97590000D03*
X189260000Y-100090000D03*
%TD*%
D16*
%TO.C,R105*%
X157040000Y-94275000D03*
X157040000Y-95925000D03*
%TD*%
D21*
%TO.C,C51*%
X147035200Y-116475000D03*
X147035200Y-114925000D03*
%TD*%
D16*
%TO.C,R48*%
X134350000Y-106025000D03*
X134350000Y-107675000D03*
%TD*%
D14*
%TO.C,R27*%
X159689510Y-89050000D03*
X158039510Y-89050000D03*
%TD*%
D15*
%TO.C,Q11*%
X140245200Y-86020000D03*
X140245200Y-84120000D03*
X142245200Y-85070000D03*
%TD*%
D22*
%TO.C,D8*%
X192575024Y-105148984D03*
X191174976Y-105148984D03*
%TD*%
D11*
%TO.C,Q9*%
X116425200Y-113770000D03*
X116425200Y-115670000D03*
X114425200Y-114720000D03*
%TD*%
D14*
%TO.C,R116*%
X137445000Y-88960000D03*
X135795000Y-88960000D03*
%TD*%
D16*
%TO.C,R98*%
X140680000Y-94285000D03*
X140680000Y-95935000D03*
%TD*%
D23*
%TO.C,U10*%
X174295000Y-93988500D03*
X174295000Y-92718500D03*
X174295000Y-91448500D03*
X174295000Y-90178500D03*
X179705000Y-90178500D03*
X179705000Y-91448500D03*
X179705000Y-92718500D03*
X179705000Y-93988500D03*
%TD*%
D18*
%TO.C,FB1*%
X169050000Y-107412500D03*
X169050000Y-109237500D03*
%TD*%
D12*
%TO.C,R124*%
X191100000Y-123075000D03*
X192750000Y-123075000D03*
%TD*%
D17*
%TO.C,C44*%
X140830200Y-109070000D03*
X142380200Y-109070000D03*
%TD*%
D14*
%TO.C,R85*%
X119420200Y-103295000D03*
X117770200Y-103295000D03*
%TD*%
%TO.C,R55*%
X124515000Y-117910000D03*
X122865000Y-117910000D03*
%TD*%
D12*
%TO.C,R90*%
X173525000Y-103750000D03*
X175175000Y-103750000D03*
%TD*%
%TO.C,R61*%
X111150200Y-120600000D03*
X112800200Y-120600000D03*
%TD*%
%TO.C,R15*%
X181650000Y-112041666D03*
X183300000Y-112041666D03*
%TD*%
D15*
%TO.C,Q6*%
X114475200Y-125800000D03*
X114475200Y-123900000D03*
X116475200Y-124850000D03*
%TD*%
D16*
%TO.C,R50*%
X131230000Y-106035000D03*
X131230000Y-107685000D03*
%TD*%
D12*
%TO.C,R81*%
X119350200Y-101765000D03*
X121000200Y-101765000D03*
%TD*%
%TO.C,R67*%
X111210200Y-117190000D03*
X112860200Y-117190000D03*
%TD*%
D14*
%TO.C,R110*%
X184555000Y-93620000D03*
X182905000Y-93620000D03*
%TD*%
D19*
%TO.C,R79*%
X122505200Y-101800000D03*
X122505200Y-100150000D03*
%TD*%
D24*
%TO.C,C84*%
X174725000Y-109300000D03*
X174725000Y-107750000D03*
%TD*%
D15*
%TO.C,Q10*%
X143828757Y-86020000D03*
X143828757Y-84120000D03*
X145828757Y-85070000D03*
%TD*%
D13*
%TO.C,C61*%
X155615000Y-105610000D03*
X154065000Y-105610000D03*
%TD*%
D12*
%TO.C,FB4*%
X150340200Y-106120000D03*
X151990200Y-106120000D03*
%TD*%
D21*
%TO.C,C15*%
X117845200Y-101740000D03*
X117845200Y-100190000D03*
%TD*%
D17*
%TO.C,C49*%
X146320200Y-107590000D03*
X147870200Y-107590000D03*
%TD*%
D15*
%TO.C,Q15*%
X158162985Y-86020000D03*
X158162985Y-84120000D03*
X160162985Y-85070000D03*
%TD*%
%TO.C,Q16*%
X158505200Y-96080000D03*
X158505200Y-94180000D03*
X160505200Y-95130000D03*
%TD*%
D12*
%TO.C,R78*%
X120720200Y-89890000D03*
X122370200Y-89890000D03*
%TD*%
D14*
%TO.C,R40*%
X166825200Y-89050000D03*
X165175200Y-89050000D03*
%TD*%
D12*
%TO.C,R58*%
X140255000Y-89050000D03*
X141905000Y-89050000D03*
%TD*%
D17*
%TO.C,C6*%
X121060200Y-105640000D03*
X122610200Y-105640000D03*
%TD*%
D14*
%TO.C,R8*%
X131775000Y-130440000D03*
X130125000Y-130440000D03*
%TD*%
%TO.C,R3*%
X131800000Y-128940000D03*
X130150000Y-128940000D03*
%TD*%
D12*
%TO.C,R62*%
X111180200Y-114040000D03*
X112830200Y-114040000D03*
%TD*%
D16*
%TO.C,R30*%
X186535200Y-128685000D03*
X186535200Y-130335000D03*
%TD*%
%TO.C,R42*%
X131850000Y-113515000D03*
X131850000Y-115165000D03*
%TD*%
D12*
%TO.C,R65*%
X111100200Y-123700000D03*
X112750200Y-123700000D03*
%TD*%
D17*
%TO.C,C22*%
X150370200Y-104630000D03*
X151920200Y-104630000D03*
%TD*%
D12*
%TO.C,R94*%
X173530000Y-102190000D03*
X175180000Y-102190000D03*
%TD*%
D15*
%TO.C,Q2*%
X118035200Y-122480000D03*
X118035200Y-120580000D03*
X120035200Y-121530000D03*
%TD*%
D17*
%TO.C,C63*%
X140865200Y-114910000D03*
X142415200Y-114910000D03*
%TD*%
D16*
%TO.C,R20*%
X128250000Y-108015000D03*
X128250000Y-109665000D03*
%TD*%
D12*
%TO.C,R7*%
X130145000Y-127390000D03*
X131795000Y-127390000D03*
%TD*%
D16*
%TO.C,R31*%
X189405200Y-128690000D03*
X189405200Y-130340000D03*
%TD*%
D14*
%TO.C,R70*%
X125520200Y-93090000D03*
X123870200Y-93090000D03*
%TD*%
D25*
%TO.C,C48*%
X148575200Y-114925000D03*
X148575200Y-116475000D03*
%TD*%
D14*
%TO.C,R117*%
X133755000Y-88910000D03*
X132105000Y-88910000D03*
%TD*%
%TO.C,R26*%
X156175000Y-87590000D03*
X154525000Y-87590000D03*
%TD*%
%TO.C,R109*%
X184605000Y-95200000D03*
X182955000Y-95200000D03*
%TD*%
D17*
%TO.C,C14*%
X123910200Y-91510000D03*
X125460200Y-91510000D03*
%TD*%
D14*
%TO.C,R37*%
X142460200Y-113370000D03*
X140810200Y-113370000D03*
%TD*%
D26*
%TO.C,C80*%
X178500000Y-109240000D03*
X178500000Y-107340000D03*
%TD*%
D14*
%TO.C,R39*%
X163405000Y-87630000D03*
X161755000Y-87630000D03*
%TD*%
D24*
%TO.C,C83*%
X183250000Y-110550000D03*
X181700000Y-110550000D03*
%TD*%
D27*
%TO.C,U16*%
X177000000Y-112950000D03*
X177000000Y-112000000D03*
X177000000Y-111050000D03*
X179800000Y-111050000D03*
X179800000Y-112000000D03*
X179800000Y-112950000D03*
%TD*%
D14*
%TO.C,R87*%
X119300200Y-94710000D03*
X117650200Y-94710000D03*
%TD*%
D15*
%TO.C,Q3*%
X118075200Y-115670000D03*
X118075200Y-113770000D03*
X120075200Y-114720000D03*
%TD*%
D26*
%TO.C,C86*%
X171000000Y-109255000D03*
X171000000Y-107355000D03*
%TD*%
D15*
%TO.C,Q8*%
X114425200Y-119020000D03*
X114425200Y-117120000D03*
X116425200Y-118070000D03*
%TD*%
D21*
%TO.C,C8*%
X129740000Y-109645000D03*
X129740000Y-108095000D03*
%TD*%
D13*
%TO.C,C45*%
X142420200Y-116460000D03*
X140870200Y-116460000D03*
%TD*%
D25*
%TO.C,C47*%
X145505200Y-114925000D03*
X145505200Y-116475000D03*
%TD*%
D16*
%TO.C,R99*%
X142507346Y-94285000D03*
X142507346Y-95935000D03*
%TD*%
D15*
%TO.C,Q17*%
X161995200Y-96000000D03*
X161995200Y-94100000D03*
X163995200Y-95050000D03*
%TD*%
D24*
%TO.C,C82*%
X179115000Y-114450000D03*
X177565000Y-114450000D03*
%TD*%
D12*
%TO.C,R84*%
X119200200Y-91500000D03*
X120850200Y-91500000D03*
%TD*%
%TO.C,R56*%
X122805000Y-119410000D03*
X124455000Y-119410000D03*
%TD*%
D17*
%TO.C,C13*%
X124025200Y-100240000D03*
X125575200Y-100240000D03*
%TD*%
D26*
%TO.C,C87*%
X167100000Y-107355000D03*
X167100000Y-109255000D03*
%TD*%
D14*
%TO.C,R47*%
X119620200Y-108660000D03*
X117970200Y-108660000D03*
%TD*%
%TO.C,R44*%
X122670200Y-108680000D03*
X121020200Y-108680000D03*
%TD*%
D12*
%TO.C,R76*%
X120900200Y-98650000D03*
X122550200Y-98650000D03*
%TD*%
D17*
%TO.C,C40*%
X150390200Y-103090000D03*
X151940200Y-103090000D03*
%TD*%
D12*
%TO.C,R72*%
X123870200Y-94710000D03*
X125520200Y-94710000D03*
%TD*%
D28*
%TO.C,U6*%
X131333700Y-99105000D03*
X130063700Y-99105000D03*
X128793700Y-99105000D03*
X127523700Y-99105000D03*
X127523700Y-93695000D03*
X128793700Y-93695000D03*
X130063700Y-93695000D03*
X131333700Y-93695000D03*
%TD*%
D13*
%TO.C,C20*%
X175675000Y-87990000D03*
X174125000Y-87990000D03*
%TD*%
D19*
%TO.C,R92*%
X146162038Y-95935000D03*
X146162038Y-94285000D03*
%TD*%
D12*
%TO.C,R74*%
X123850200Y-89900000D03*
X125500200Y-89900000D03*
%TD*%
D15*
%TO.C,Q18*%
X161746542Y-86020000D03*
X161746542Y-84120000D03*
X163746542Y-85070000D03*
%TD*%
D20*
%TO.C,L5*%
X184390000Y-92170000D03*
X184390000Y-89670000D03*
X188950000Y-89670000D03*
X188950000Y-92170000D03*
%TD*%
D21*
%TO.C,C19*%
X117715200Y-93075000D03*
X117715200Y-91525000D03*
%TD*%
D14*
%TO.C,R29*%
X163575000Y-97750000D03*
X161925000Y-97750000D03*
%TD*%
D12*
%TO.C,R121*%
X191050000Y-103825000D03*
X192700000Y-103825000D03*
%TD*%
D14*
%TO.C,R66*%
X112805200Y-122140000D03*
X111155200Y-122140000D03*
%TD*%
D17*
%TO.C,C21*%
X181400000Y-100575000D03*
X182950000Y-100575000D03*
%TD*%
D12*
%TO.C,R77*%
X120750200Y-94700000D03*
X122400200Y-94700000D03*
%TD*%
%TO.C,R41*%
X128165000Y-106490000D03*
X129815000Y-106490000D03*
%TD*%
D15*
%TO.C,Q19*%
X165330100Y-86020000D03*
X165330100Y-84120000D03*
X167330100Y-85070000D03*
%TD*%
%TO.C,D1*%
X198070000Y-99560000D03*
X198070000Y-97660000D03*
X200070000Y-98610000D03*
%TD*%
D13*
%TO.C,C57*%
X155575000Y-107120000D03*
X154025000Y-107120000D03*
%TD*%
D22*
%TO.C,D4*%
X192800024Y-124398984D03*
X191399976Y-124398984D03*
%TD*%
D12*
%TO.C,R73*%
X123970200Y-98630000D03*
X125620200Y-98630000D03*
%TD*%
D29*
%TO.C,U14*%
X136672000Y-81770000D03*
X136672000Y-82420000D03*
X136672000Y-83070000D03*
X136672000Y-83720000D03*
X136672000Y-84370000D03*
X136672000Y-85020000D03*
X136672000Y-85670000D03*
X136672000Y-86320000D03*
X130940000Y-86320000D03*
X130940000Y-85670000D03*
X130940000Y-85020000D03*
X130940000Y-84370000D03*
X130940000Y-83720000D03*
X130940000Y-83070000D03*
X130940000Y-82420000D03*
X130940000Y-81770000D03*
%TD*%
D12*
%TO.C,R88*%
X117630200Y-89890000D03*
X119280200Y-89890000D03*
%TD*%
%TO.C,R122*%
X191125000Y-117075000D03*
X192775000Y-117075000D03*
%TD*%
D14*
%TO.C,R18*%
X145418142Y-89050000D03*
X143768142Y-89050000D03*
%TD*%
D12*
%TO.C,R75*%
X120920200Y-103310000D03*
X122570200Y-103310000D03*
%TD*%
D19*
%TO.C,R119*%
X134480000Y-96265000D03*
X134480000Y-94615000D03*
%TD*%
D23*
%TO.C,U11*%
X174125000Y-100598500D03*
X174125000Y-99328500D03*
X174125000Y-98058500D03*
X174125000Y-96788500D03*
X179535000Y-96788500D03*
X179535000Y-98058500D03*
X179535000Y-99328500D03*
X179535000Y-100598500D03*
%TD*%
D17*
%TO.C,C54*%
X150370200Y-110850000D03*
X151920200Y-110850000D03*
%TD*%
D14*
%TO.C,FB6*%
X151970200Y-101530000D03*
X150320200Y-101530000D03*
%TD*%
D13*
%TO.C,C55*%
X147870200Y-106040000D03*
X146320200Y-106040000D03*
%TD*%
D15*
%TO.C,Q12*%
X147412314Y-86020000D03*
X147412314Y-84120000D03*
X149412314Y-85070000D03*
%TD*%
D30*
%TO.C,Q20*%
X134586200Y-93062450D03*
X132686200Y-93062450D03*
X133636200Y-91062450D03*
%TD*%
D15*
%TO.C,Q14*%
X154579428Y-86020000D03*
X154579428Y-84120000D03*
X156579428Y-85070000D03*
%TD*%
D14*
%TO.C,R54*%
X128540000Y-119090000D03*
X126890000Y-119090000D03*
%TD*%
D12*
%TO.C,R123*%
X191100000Y-119675000D03*
X192750000Y-119675000D03*
%TD*%
D19*
%TO.C,R96*%
X151644076Y-95935000D03*
X151644076Y-94285000D03*
%TD*%
D14*
%TO.C,R23*%
X141885000Y-87570000D03*
X140235000Y-87570000D03*
%TD*%
%TO.C,R46*%
X119630200Y-107150000D03*
X117980200Y-107150000D03*
%TD*%
D12*
%TO.C,R53*%
X126890000Y-117600000D03*
X128540000Y-117600000D03*
%TD*%
D15*
%TO.C,D5*%
X198290000Y-91960000D03*
X198290000Y-90060000D03*
X200290000Y-91010000D03*
%TD*%
D19*
%TO.C,R118*%
X137040000Y-96285000D03*
X137040000Y-94635000D03*
%TD*%
%TO.C,R95*%
X149816730Y-95935000D03*
X149816730Y-94285000D03*
%TD*%
D12*
%TO.C,R35*%
X153975000Y-108630000D03*
X155625000Y-108630000D03*
%TD*%
D14*
%TO.C,R68*%
X112850200Y-115640000D03*
X111200200Y-115640000D03*
%TD*%
D29*
%TO.C,U15*%
X125446000Y-81835000D03*
X125446000Y-82485000D03*
X125446000Y-83135000D03*
X125446000Y-83785000D03*
X125446000Y-84435000D03*
X125446000Y-85085000D03*
X125446000Y-85735000D03*
X125446000Y-86385000D03*
X119714000Y-86385000D03*
X119714000Y-85735000D03*
X119714000Y-85085000D03*
X119714000Y-84435000D03*
X119714000Y-83785000D03*
X119714000Y-83135000D03*
X119714000Y-82485000D03*
X119714000Y-81835000D03*
%TD*%
D14*
%TO.C,R69*%
X125605200Y-101760000D03*
X123955200Y-101760000D03*
%TD*%
%TO.C,R63*%
X112780200Y-125270000D03*
X111130200Y-125270000D03*
%TD*%
D22*
%TO.C,D6*%
X192600024Y-120998984D03*
X191199976Y-120998984D03*
%TD*%
D24*
%TO.C,C79*%
X180250000Y-109100000D03*
X180250000Y-107550000D03*
%TD*%
D12*
%TO.C,R106*%
X161805000Y-89050000D03*
X163455000Y-89050000D03*
%TD*%
D31*
%TO.C,L12*%
X174593000Y-111675000D03*
X172257000Y-111675000D03*
%TD*%
D11*
%TO.C,Q5*%
X120105200Y-117110000D03*
X120105200Y-119010000D03*
X118105200Y-118060000D03*
%TD*%
D19*
%TO.C,R93*%
X147989384Y-95935000D03*
X147989384Y-94285000D03*
%TD*%
D12*
%TO.C,R45*%
X117980200Y-105600000D03*
X119630200Y-105600000D03*
%TD*%
%TO.C,R82*%
X119360200Y-100215000D03*
X121010200Y-100215000D03*
%TD*%
D32*
%TO.C,R89*%
X192160000Y-99742500D03*
X192160000Y-97917500D03*
%TD*%
D30*
%TO.C,Q21*%
X138106200Y-93102450D03*
X136206200Y-93102450D03*
X137156200Y-91102450D03*
%TD*%
D26*
%TO.C,C85*%
X172975000Y-109255000D03*
X172975000Y-107355000D03*
%TD*%
D12*
%TO.C,R104*%
X154495000Y-89050000D03*
X156145000Y-89050000D03*
%TD*%
D26*
%TO.C,C81*%
X176500000Y-109240000D03*
X176500000Y-107340000D03*
%TD*%
D22*
%TO.C,D7*%
X192600024Y-118373984D03*
X191199976Y-118373984D03*
%TD*%
D11*
%TO.C,Q4*%
X120017650Y-123873800D03*
X120017650Y-125773800D03*
X118017650Y-124823800D03*
%TD*%
D19*
%TO.C,R97*%
X153471428Y-95935000D03*
X153471428Y-94285000D03*
%TD*%
%TO.C,R43*%
X133420000Y-115135000D03*
X133420000Y-113485000D03*
%TD*%
D25*
%TO.C,C62*%
X144790000Y-106025000D03*
X144790000Y-107575000D03*
%TD*%
D15*
%TO.C,Q13*%
X150995871Y-86020000D03*
X150995871Y-84120000D03*
X152995871Y-85070000D03*
%TD*%
D33*
%TO.C,U5*%
X128620000Y-111590000D03*
X128620000Y-112240000D03*
X128620000Y-112890000D03*
X128620000Y-113540000D03*
X128620000Y-114190000D03*
X128620000Y-114840000D03*
X128620000Y-115490000D03*
X123020000Y-115490000D03*
X123020000Y-114840000D03*
X123020000Y-114190000D03*
X123020000Y-113540000D03*
X123020000Y-112890000D03*
X123020000Y-112240000D03*
X123020000Y-111590000D03*
%TD*%
D19*
%TO.C,R49*%
X132820000Y-107685000D03*
X132820000Y-106035000D03*
%TD*%
D21*
%TO.C,C50*%
X143965200Y-116470000D03*
X143965200Y-114920000D03*
%TD*%
M02*
