%TF.GenerationSoftware,KiCad,Pcbnew,7.0.9*%
%TF.CreationDate,2025-05-07T10:44:47+08:00*%
%TF.ProjectId,HPM5300RDCRevB,48504d35-3330-4305-9244-43526576422e,REVC*%
%TF.SameCoordinates,Original*%
%TF.FileFunction,Paste,Top*%
%TF.FilePolarity,Positive*%
%FSLAX46Y46*%
G04 Gerber Fmt 4.6, Leading zero omitted, Abs format (unit mm)*
G04 Created by KiCad (PCBNEW 7.0.9) date 2025-05-07 10:44:47*
%MOMM*%
%LPD*%
G01*
G04 APERTURE LIST*
G04 Aperture macros list*
%AMRoundRect*
0 Rectangle with rounded corners*
0 $1 Rounding radius*
0 $2 $3 $4 $5 $6 $7 $8 $9 X,Y pos of 4 corners*
0 Add a 4 corners polygon primitive as box body*
4,1,4,$2,$3,$4,$5,$6,$7,$8,$9,$2,$3,0*
0 Add four circle primitives for the rounded corners*
1,1,$1+$1,$2,$3*
1,1,$1+$1,$4,$5*
1,1,$1+$1,$6,$7*
1,1,$1+$1,$8,$9*
0 Add four rect primitives between the rounded corners*
20,1,$1+$1,$2,$3,$4,$5,0*
20,1,$1+$1,$4,$5,$6,$7,0*
20,1,$1+$1,$6,$7,$8,$9,0*
20,1,$1+$1,$8,$9,$2,$3,0*%
G04 Aperture macros list end*
%ADD10C,0.005100*%
%ADD11C,0.120000*%
%ADD12RoundRect,0.200000X0.200000X0.275000X-0.200000X0.275000X-0.200000X-0.275000X0.200000X-0.275000X0*%
%ADD13RoundRect,0.225000X0.225000X0.250000X-0.225000X0.250000X-0.225000X-0.250000X0.225000X-0.250000X0*%
%ADD14R,0.750000X0.400000*%
%ADD15C,1.200000*%
%ADD16R,1.400000X0.300000*%
%ADD17RoundRect,0.225000X0.250000X-0.225000X0.250000X0.225000X-0.250000X0.225000X-0.250000X-0.225000X0*%
%ADD18RoundRect,0.050000X-0.150000X-0.650000X0.150000X-0.650000X0.150000X0.650000X-0.150000X0.650000X0*%
%ADD19R,0.980000X2.340000*%
%ADD20R,3.600000X2.340000*%
%ADD21RoundRect,0.200000X-0.275000X0.200000X-0.275000X-0.200000X0.275000X-0.200000X0.275000X0.200000X0*%
%ADD22RoundRect,0.225000X-0.250000X0.225000X-0.250000X-0.225000X0.250000X-0.225000X0.250000X0.225000X0*%
%ADD23RoundRect,0.200000X0.275000X-0.200000X0.275000X0.200000X-0.275000X0.200000X-0.275000X-0.200000X0*%
%ADD24C,1.500000*%
%ADD25R,1.016000X0.508000*%
%ADD26O,1.016000X0.508000*%
%ADD27RoundRect,0.250000X-0.650000X1.000000X-0.650000X-1.000000X0.650000X-1.000000X0.650000X1.000000X0*%
%ADD28RoundRect,0.050800X-0.849650X-0.599450X0.849650X-0.599450X0.849650X0.599450X-0.849650X0.599450X0*%
%ADD29RoundRect,0.050800X0.400050X-0.400050X0.400050X0.400050X-0.400050X0.400050X-0.400050X-0.400050X0*%
%ADD30R,1.635000X2.160000*%
%ADD31RoundRect,0.225000X-0.225000X-0.250000X0.225000X-0.250000X0.225000X0.250000X-0.225000X0.250000X0*%
%ADD32C,0.950000*%
%ADD33R,1.200000X1.400000*%
%ADD34R,1.650000X4.500000*%
%ADD35RoundRect,0.200000X-0.200000X-0.275000X0.200000X-0.275000X0.200000X0.275000X-0.200000X0.275000X0*%
%ADD36RoundRect,0.250000X0.650000X-1.000000X0.650000X1.000000X-0.650000X1.000000X-0.650000X-1.000000X0*%
%ADD37R,4.700000X1.250000*%
%ADD38RoundRect,0.050800X-0.400050X0.400050X-0.400050X-0.400050X0.400050X-0.400050X0.400050X0.400050X0*%
%ADD39RoundRect,0.225000X-0.225000X-0.375000X0.225000X-0.375000X0.225000X0.375000X-0.225000X0.375000X0*%
%ADD40RoundRect,0.050800X-0.350000X0.625000X-0.350000X-0.625000X0.350000X-0.625000X0.350000X0.625000X0*%
%ADD41RoundRect,0.250000X0.262500X0.450000X-0.262500X0.450000X-0.262500X-0.450000X0.262500X-0.450000X0*%
%ADD42O,1.865000X0.630000*%
%ADD43R,2.400000X3.300000*%
%ADD44O,2.700000X1.150000*%
%ADD45R,0.700000X1.000000*%
%ADD46R,0.700000X0.600000*%
%ADD47RoundRect,0.075000X0.725000X0.075000X-0.725000X0.075000X-0.725000X-0.075000X0.725000X-0.075000X0*%
%ADD48RoundRect,0.075000X0.075000X0.725000X-0.075000X0.725000X-0.075000X-0.725000X0.075000X-0.725000X0*%
%ADD49R,1.260000X3.610000*%
%ADD50R,1.000000X0.550000*%
G04 APERTURE END LIST*
%TO.C,J1*%
D10*
X184895200Y-127169050D02*
X184395200Y-127169050D01*
X184395200Y-125979050D01*
X184895200Y-125979050D01*
X184895200Y-127169050D01*
G36*
X184895200Y-127169050D02*
G01*
X184395200Y-127169050D01*
X184395200Y-125979050D01*
X184895200Y-125979050D01*
X184895200Y-127169050D01*
G37*
X185695300Y-127169050D02*
X185195300Y-127169050D01*
X185195300Y-125979050D01*
X185695300Y-125979050D01*
X185695300Y-127169050D01*
G36*
X185695300Y-127169050D02*
G01*
X185195300Y-127169050D01*
X185195300Y-125979050D01*
X185695300Y-125979050D01*
X185695300Y-127169050D01*
G37*
X186245200Y-127219050D02*
X185945200Y-127219050D01*
X185945200Y-125929050D01*
X186245200Y-125929050D01*
X186245200Y-127219050D01*
G36*
X186245200Y-127219050D02*
G01*
X185945200Y-127219050D01*
X185945200Y-125929050D01*
X186245200Y-125929050D01*
X186245200Y-127219050D01*
G37*
X186745300Y-127219050D02*
X186445400Y-127219050D01*
X186445400Y-125929050D01*
X186745300Y-125929050D01*
X186745300Y-127219050D01*
G36*
X186745300Y-127219050D02*
G01*
X186445400Y-127219050D01*
X186445400Y-125929050D01*
X186745300Y-125929050D01*
X186745300Y-127219050D01*
G37*
X187245200Y-127219050D02*
X186945200Y-127219050D01*
X186945200Y-125929050D01*
X187245200Y-125929050D01*
X187245200Y-127219050D01*
G36*
X187245200Y-127219050D02*
G01*
X186945200Y-127219050D01*
X186945200Y-125929050D01*
X187245200Y-125929050D01*
X187245200Y-127219050D01*
G37*
X187745300Y-127219050D02*
X187445300Y-127219050D01*
X187445300Y-125929050D01*
X187745300Y-125929050D01*
X187745300Y-127219050D01*
G36*
X187745300Y-127219050D02*
G01*
X187445300Y-127219050D01*
X187445300Y-125929050D01*
X187745300Y-125929050D01*
X187745300Y-127219050D01*
G37*
X188245100Y-127219050D02*
X187945200Y-127219050D01*
X187945200Y-125929050D01*
X188245100Y-125929050D01*
X188245100Y-127219050D01*
G36*
X188245100Y-127219050D02*
G01*
X187945200Y-127219050D01*
X187945200Y-125929050D01*
X188245100Y-125929050D01*
X188245100Y-127219050D01*
G37*
X188745300Y-127219050D02*
X188445300Y-127219050D01*
X188445300Y-125929050D01*
X188745300Y-125929050D01*
X188745300Y-127219050D01*
G36*
X188745300Y-127219050D02*
G01*
X188445300Y-127219050D01*
X188445300Y-125929050D01*
X188745300Y-125929050D01*
X188745300Y-127219050D01*
G37*
X189244900Y-127219050D02*
X188944900Y-127219050D01*
X188944900Y-125929050D01*
X189244900Y-125929050D01*
X189244900Y-127219050D01*
G36*
X189244900Y-127219050D02*
G01*
X188944900Y-127219050D01*
X188944900Y-125929050D01*
X189244900Y-125929050D01*
X189244900Y-127219050D01*
G37*
X189745300Y-127219050D02*
X189445300Y-127219050D01*
X189445300Y-125929050D01*
X189745300Y-125929050D01*
X189745300Y-127219050D01*
G36*
X189745300Y-127219050D02*
G01*
X189445300Y-127219050D01*
X189445300Y-125929050D01*
X189745300Y-125929050D01*
X189745300Y-127219050D01*
G37*
X190495400Y-127169250D02*
X189995400Y-127169250D01*
X189995400Y-125979250D01*
X190495400Y-125979250D01*
X190495400Y-127169250D01*
G36*
X190495400Y-127169250D02*
G01*
X189995400Y-127169250D01*
X189995400Y-125979250D01*
X190495400Y-125979250D01*
X190495400Y-127169250D01*
G37*
X191295400Y-127169050D02*
X190795400Y-127169050D01*
X190795400Y-125979050D01*
X191295400Y-125979050D01*
X191295400Y-127169050D01*
G36*
X191295400Y-127169050D02*
G01*
X190795400Y-127169050D01*
X190795400Y-125979050D01*
X191295400Y-125979050D01*
X191295400Y-127169050D01*
G37*
X183570000Y-126225550D02*
X183599800Y-126228550D01*
X183629400Y-126233050D01*
X183658700Y-126238950D01*
X183687700Y-126246350D01*
X183716300Y-126255150D01*
X183744400Y-126265350D01*
X183771900Y-126276950D01*
X183798900Y-126289950D01*
X183825200Y-126304250D01*
X183850700Y-126319850D01*
X183875400Y-126336750D01*
X183899300Y-126354850D01*
X183922200Y-126374050D01*
X183944100Y-126394350D01*
X183965000Y-126415850D01*
X183984800Y-126438250D01*
X184003500Y-126461650D01*
X184020900Y-126485950D01*
X184037100Y-126511050D01*
X184052100Y-126536950D01*
X184065800Y-126563550D01*
X184078000Y-126590850D01*
X184089000Y-126618650D01*
X184098500Y-126647050D01*
X184106600Y-126675850D01*
X184113300Y-126705050D01*
X184118500Y-126734450D01*
X184122200Y-126764150D01*
X184124400Y-126794050D01*
X184125200Y-126823950D01*
X184125200Y-127623950D01*
X184124400Y-127653750D01*
X184122200Y-127683650D01*
X184118500Y-127713350D01*
X184113300Y-127742850D01*
X184106600Y-127771950D01*
X184098500Y-127800750D01*
X184089000Y-127829150D01*
X184078000Y-127856950D01*
X184065800Y-127884250D01*
X184052100Y-127910850D01*
X184037100Y-127936750D01*
X184020900Y-127961950D01*
X184003500Y-127986150D01*
X183984800Y-128009550D01*
X183965000Y-128032050D01*
X183944100Y-128053450D01*
X183922200Y-128073750D01*
X183899300Y-128092950D01*
X183875400Y-128111050D01*
X183850700Y-128127950D01*
X183825200Y-128143550D01*
X183798900Y-128157850D01*
X183771900Y-128170850D01*
X183744400Y-128182450D01*
X183716300Y-128192650D01*
X183687700Y-128201450D01*
X183658700Y-128208850D01*
X183629400Y-128214750D01*
X183599800Y-128219250D01*
X183570000Y-128222250D01*
X183540100Y-128223750D01*
X183510200Y-128223750D01*
X183480300Y-128222250D01*
X183450600Y-128219250D01*
X183421000Y-128214750D01*
X183391700Y-128208850D01*
X183362700Y-128201450D01*
X183334100Y-128192650D01*
X183306000Y-128182450D01*
X183278400Y-128170850D01*
X183251400Y-128157850D01*
X183225200Y-128143550D01*
X183199600Y-128127950D01*
X183174900Y-128111050D01*
X183151100Y-128092950D01*
X183128200Y-128073750D01*
X183106200Y-128053450D01*
X183085300Y-128032050D01*
X183065500Y-128009550D01*
X183046900Y-127986150D01*
X183029400Y-127961950D01*
X183013200Y-127936750D01*
X182998200Y-127910850D01*
X182984600Y-127884250D01*
X182972300Y-127856950D01*
X182961400Y-127829150D01*
X182951800Y-127800750D01*
X182943700Y-127771950D01*
X182937100Y-127742850D01*
X182931900Y-127713350D01*
X182928100Y-127683650D01*
X182925900Y-127653750D01*
X182925200Y-127623950D01*
X182925200Y-126823950D01*
X182925900Y-126794050D01*
X182928100Y-126764150D01*
X182931900Y-126734450D01*
X182937100Y-126705050D01*
X182943700Y-126675850D01*
X182951800Y-126647050D01*
X182961400Y-126618650D01*
X182972300Y-126590850D01*
X182984600Y-126563550D01*
X182998200Y-126536950D01*
X183013200Y-126511050D01*
X183029400Y-126485950D01*
X183046900Y-126461650D01*
X183065500Y-126438250D01*
X183085300Y-126415850D01*
X183106200Y-126394350D01*
X183128200Y-126374050D01*
X183151100Y-126354850D01*
X183174900Y-126336750D01*
X183199600Y-126319850D01*
X183225200Y-126304250D01*
X183251400Y-126289950D01*
X183278400Y-126276950D01*
X183306000Y-126265350D01*
X183334100Y-126255150D01*
X183362700Y-126246350D01*
X183391700Y-126238950D01*
X183421000Y-126233050D01*
X183450600Y-126228550D01*
X183480300Y-126225550D01*
X183510200Y-126224050D01*
X183540100Y-126224050D01*
X183570000Y-126225550D01*
G36*
X183570000Y-126225550D02*
G01*
X183599800Y-126228550D01*
X183629400Y-126233050D01*
X183658700Y-126238950D01*
X183687700Y-126246350D01*
X183716300Y-126255150D01*
X183744400Y-126265350D01*
X183771900Y-126276950D01*
X183798900Y-126289950D01*
X183825200Y-126304250D01*
X183850700Y-126319850D01*
X183875400Y-126336750D01*
X183899300Y-126354850D01*
X183922200Y-126374050D01*
X183944100Y-126394350D01*
X183965000Y-126415850D01*
X183984800Y-126438250D01*
X184003500Y-126461650D01*
X184020900Y-126485950D01*
X184037100Y-126511050D01*
X184052100Y-126536950D01*
X184065800Y-126563550D01*
X184078000Y-126590850D01*
X184089000Y-126618650D01*
X184098500Y-126647050D01*
X184106600Y-126675850D01*
X184113300Y-126705050D01*
X184118500Y-126734450D01*
X184122200Y-126764150D01*
X184124400Y-126794050D01*
X184125200Y-126823950D01*
X184125200Y-127623950D01*
X184124400Y-127653750D01*
X184122200Y-127683650D01*
X184118500Y-127713350D01*
X184113300Y-127742850D01*
X184106600Y-127771950D01*
X184098500Y-127800750D01*
X184089000Y-127829150D01*
X184078000Y-127856950D01*
X184065800Y-127884250D01*
X184052100Y-127910850D01*
X184037100Y-127936750D01*
X184020900Y-127961950D01*
X184003500Y-127986150D01*
X183984800Y-128009550D01*
X183965000Y-128032050D01*
X183944100Y-128053450D01*
X183922200Y-128073750D01*
X183899300Y-128092950D01*
X183875400Y-128111050D01*
X183850700Y-128127950D01*
X183825200Y-128143550D01*
X183798900Y-128157850D01*
X183771900Y-128170850D01*
X183744400Y-128182450D01*
X183716300Y-128192650D01*
X183687700Y-128201450D01*
X183658700Y-128208850D01*
X183629400Y-128214750D01*
X183599800Y-128219250D01*
X183570000Y-128222250D01*
X183540100Y-128223750D01*
X183510200Y-128223750D01*
X183480300Y-128222250D01*
X183450600Y-128219250D01*
X183421000Y-128214750D01*
X183391700Y-128208850D01*
X183362700Y-128201450D01*
X183334100Y-128192650D01*
X183306000Y-128182450D01*
X183278400Y-128170850D01*
X183251400Y-128157850D01*
X183225200Y-128143550D01*
X183199600Y-128127950D01*
X183174900Y-128111050D01*
X183151100Y-128092950D01*
X183128200Y-128073750D01*
X183106200Y-128053450D01*
X183085300Y-128032050D01*
X183065500Y-128009550D01*
X183046900Y-127986150D01*
X183029400Y-127961950D01*
X183013200Y-127936750D01*
X182998200Y-127910850D01*
X182984600Y-127884250D01*
X182972300Y-127856950D01*
X182961400Y-127829150D01*
X182951800Y-127800750D01*
X182943700Y-127771950D01*
X182937100Y-127742850D01*
X182931900Y-127713350D01*
X182928100Y-127683650D01*
X182925900Y-127653750D01*
X182925200Y-127623950D01*
X182925200Y-126823950D01*
X182925900Y-126794050D01*
X182928100Y-126764150D01*
X182931900Y-126734450D01*
X182937100Y-126705050D01*
X182943700Y-126675850D01*
X182951800Y-126647050D01*
X182961400Y-126618650D01*
X182972300Y-126590850D01*
X182984600Y-126563550D01*
X182998200Y-126536950D01*
X183013200Y-126511050D01*
X183029400Y-126485950D01*
X183046900Y-126461650D01*
X183065500Y-126438250D01*
X183085300Y-126415850D01*
X183106200Y-126394350D01*
X183128200Y-126374050D01*
X183151100Y-126354850D01*
X183174900Y-126336750D01*
X183199600Y-126319850D01*
X183225200Y-126304250D01*
X183251400Y-126289950D01*
X183278400Y-126276950D01*
X183306000Y-126265350D01*
X183334100Y-126255150D01*
X183362700Y-126246350D01*
X183391700Y-126238950D01*
X183421000Y-126233050D01*
X183450600Y-126228550D01*
X183480300Y-126225550D01*
X183510200Y-126224050D01*
X183540100Y-126224050D01*
X183570000Y-126225550D01*
G37*
X183570000Y-130505650D02*
X183599800Y-130508650D01*
X183629400Y-130513150D01*
X183658700Y-130519050D01*
X183687700Y-130526450D01*
X183716300Y-130535250D01*
X183744400Y-130545450D01*
X183771900Y-130557050D01*
X183798900Y-130570050D01*
X183825200Y-130584350D01*
X183850700Y-130599950D01*
X183875400Y-130616850D01*
X183899300Y-130634850D01*
X183922200Y-130654150D01*
X183944100Y-130674450D01*
X183965000Y-130695850D01*
X183984800Y-130718350D01*
X184003500Y-130741750D01*
X184020900Y-130765950D01*
X184037100Y-130791150D01*
X184052100Y-130817050D01*
X184065800Y-130843650D01*
X184078000Y-130870950D01*
X184089000Y-130898750D01*
X184098500Y-130927150D01*
X184106600Y-130955950D01*
X184113300Y-130985050D01*
X184118500Y-131014550D01*
X184122200Y-131044250D01*
X184124400Y-131074050D01*
X184125200Y-131103950D01*
X184125200Y-131703950D01*
X184124400Y-131733850D01*
X184122200Y-131763750D01*
X184118500Y-131793450D01*
X184113300Y-131822850D01*
X184106600Y-131852050D01*
X184098500Y-131880850D01*
X184089000Y-131909150D01*
X184078000Y-131937050D01*
X184065800Y-131964350D01*
X184052100Y-131990950D01*
X184037100Y-132016850D01*
X184020900Y-132041950D01*
X184003500Y-132066250D01*
X183984800Y-132089650D01*
X183965000Y-132112050D01*
X183944100Y-132133450D01*
X183922200Y-132153850D01*
X183899300Y-132173050D01*
X183875400Y-132191150D01*
X183850700Y-132207950D01*
X183825200Y-132223550D01*
X183798900Y-132237950D01*
X183771900Y-132250850D01*
X183744400Y-132262550D01*
X183716300Y-132272750D01*
X183687700Y-132281550D01*
X183658700Y-132288950D01*
X183629400Y-132294850D01*
X183599800Y-132299350D01*
X183570000Y-132302350D01*
X183540100Y-132303850D01*
X183510200Y-132303850D01*
X183480300Y-132302350D01*
X183450600Y-132299350D01*
X183421000Y-132294850D01*
X183391700Y-132288950D01*
X183362700Y-132281550D01*
X183334100Y-132272750D01*
X183306000Y-132262550D01*
X183278400Y-132250850D01*
X183251400Y-132237950D01*
X183225200Y-132223550D01*
X183199600Y-132207950D01*
X183174900Y-132191150D01*
X183151100Y-132173050D01*
X183128200Y-132153850D01*
X183106200Y-132133450D01*
X183085300Y-132112050D01*
X183065500Y-132089650D01*
X183046900Y-132066250D01*
X183029400Y-132041950D01*
X183013200Y-132016850D01*
X182998200Y-131990950D01*
X182984600Y-131964350D01*
X182972300Y-131937050D01*
X182961400Y-131909150D01*
X182951800Y-131880850D01*
X182943700Y-131852050D01*
X182937100Y-131822850D01*
X182931900Y-131793450D01*
X182928100Y-131763750D01*
X182925900Y-131733850D01*
X182925200Y-131703950D01*
X182925200Y-131103950D01*
X182925900Y-131074050D01*
X182928100Y-131044250D01*
X182931900Y-131014550D01*
X182937100Y-130985050D01*
X182943700Y-130955950D01*
X182951800Y-130927150D01*
X182961400Y-130898750D01*
X182972300Y-130870950D01*
X182984600Y-130843650D01*
X182998200Y-130817050D01*
X183013200Y-130791150D01*
X183029400Y-130765950D01*
X183046900Y-130741750D01*
X183065500Y-130718350D01*
X183085300Y-130695850D01*
X183106200Y-130674450D01*
X183128200Y-130654150D01*
X183151100Y-130634850D01*
X183174900Y-130616850D01*
X183199600Y-130599950D01*
X183225200Y-130584350D01*
X183251400Y-130570050D01*
X183278400Y-130557050D01*
X183306000Y-130545450D01*
X183334100Y-130535250D01*
X183362700Y-130526450D01*
X183391700Y-130519050D01*
X183421000Y-130513150D01*
X183450600Y-130508650D01*
X183480300Y-130505650D01*
X183510200Y-130504150D01*
X183540100Y-130504150D01*
X183570000Y-130505650D01*
G36*
X183570000Y-130505650D02*
G01*
X183599800Y-130508650D01*
X183629400Y-130513150D01*
X183658700Y-130519050D01*
X183687700Y-130526450D01*
X183716300Y-130535250D01*
X183744400Y-130545450D01*
X183771900Y-130557050D01*
X183798900Y-130570050D01*
X183825200Y-130584350D01*
X183850700Y-130599950D01*
X183875400Y-130616850D01*
X183899300Y-130634850D01*
X183922200Y-130654150D01*
X183944100Y-130674450D01*
X183965000Y-130695850D01*
X183984800Y-130718350D01*
X184003500Y-130741750D01*
X184020900Y-130765950D01*
X184037100Y-130791150D01*
X184052100Y-130817050D01*
X184065800Y-130843650D01*
X184078000Y-130870950D01*
X184089000Y-130898750D01*
X184098500Y-130927150D01*
X184106600Y-130955950D01*
X184113300Y-130985050D01*
X184118500Y-131014550D01*
X184122200Y-131044250D01*
X184124400Y-131074050D01*
X184125200Y-131103950D01*
X184125200Y-131703950D01*
X184124400Y-131733850D01*
X184122200Y-131763750D01*
X184118500Y-131793450D01*
X184113300Y-131822850D01*
X184106600Y-131852050D01*
X184098500Y-131880850D01*
X184089000Y-131909150D01*
X184078000Y-131937050D01*
X184065800Y-131964350D01*
X184052100Y-131990950D01*
X184037100Y-132016850D01*
X184020900Y-132041950D01*
X184003500Y-132066250D01*
X183984800Y-132089650D01*
X183965000Y-132112050D01*
X183944100Y-132133450D01*
X183922200Y-132153850D01*
X183899300Y-132173050D01*
X183875400Y-132191150D01*
X183850700Y-132207950D01*
X183825200Y-132223550D01*
X183798900Y-132237950D01*
X183771900Y-132250850D01*
X183744400Y-132262550D01*
X183716300Y-132272750D01*
X183687700Y-132281550D01*
X183658700Y-132288950D01*
X183629400Y-132294850D01*
X183599800Y-132299350D01*
X183570000Y-132302350D01*
X183540100Y-132303850D01*
X183510200Y-132303850D01*
X183480300Y-132302350D01*
X183450600Y-132299350D01*
X183421000Y-132294850D01*
X183391700Y-132288950D01*
X183362700Y-132281550D01*
X183334100Y-132272750D01*
X183306000Y-132262550D01*
X183278400Y-132250850D01*
X183251400Y-132237950D01*
X183225200Y-132223550D01*
X183199600Y-132207950D01*
X183174900Y-132191150D01*
X183151100Y-132173050D01*
X183128200Y-132153850D01*
X183106200Y-132133450D01*
X183085300Y-132112050D01*
X183065500Y-132089650D01*
X183046900Y-132066250D01*
X183029400Y-132041950D01*
X183013200Y-132016850D01*
X182998200Y-131990950D01*
X182984600Y-131964350D01*
X182972300Y-131937050D01*
X182961400Y-131909150D01*
X182951800Y-131880850D01*
X182943700Y-131852050D01*
X182937100Y-131822850D01*
X182931900Y-131793450D01*
X182928100Y-131763750D01*
X182925900Y-131733850D01*
X182925200Y-131703950D01*
X182925200Y-131103950D01*
X182925900Y-131074050D01*
X182928100Y-131044250D01*
X182931900Y-131014550D01*
X182937100Y-130985050D01*
X182943700Y-130955950D01*
X182951800Y-130927150D01*
X182961400Y-130898750D01*
X182972300Y-130870950D01*
X182984600Y-130843650D01*
X182998200Y-130817050D01*
X183013200Y-130791150D01*
X183029400Y-130765950D01*
X183046900Y-130741750D01*
X183065500Y-130718350D01*
X183085300Y-130695850D01*
X183106200Y-130674450D01*
X183128200Y-130654150D01*
X183151100Y-130634850D01*
X183174900Y-130616850D01*
X183199600Y-130599950D01*
X183225200Y-130584350D01*
X183251400Y-130570050D01*
X183278400Y-130557050D01*
X183306000Y-130545450D01*
X183334100Y-130535250D01*
X183362700Y-130526450D01*
X183391700Y-130519050D01*
X183421000Y-130513150D01*
X183450600Y-130508650D01*
X183480300Y-130505650D01*
X183510200Y-130504150D01*
X183540100Y-130504150D01*
X183570000Y-130505650D01*
G37*
X192210100Y-126225550D02*
X192239800Y-126228550D01*
X192269400Y-126233050D01*
X192298700Y-126238950D01*
X192327700Y-126246350D01*
X192356300Y-126255150D01*
X192384400Y-126265350D01*
X192412000Y-126276950D01*
X192439000Y-126289950D01*
X192465200Y-126304250D01*
X192490800Y-126319850D01*
X192515500Y-126336750D01*
X192539300Y-126354850D01*
X192562200Y-126374050D01*
X192584200Y-126394350D01*
X192605100Y-126415850D01*
X192624900Y-126438250D01*
X192643500Y-126461650D01*
X192661000Y-126485950D01*
X192677200Y-126511050D01*
X192692200Y-126536950D01*
X192705800Y-126563550D01*
X192718100Y-126590850D01*
X192729000Y-126618650D01*
X192738600Y-126647050D01*
X192746700Y-126675850D01*
X192753300Y-126705050D01*
X192758500Y-126734450D01*
X192762300Y-126764150D01*
X192764500Y-126794050D01*
X192765200Y-126823950D01*
X192765200Y-127623950D01*
X192764500Y-127653750D01*
X192762300Y-127683650D01*
X192758500Y-127713350D01*
X192753300Y-127742850D01*
X192746700Y-127771950D01*
X192738600Y-127800750D01*
X192729000Y-127829150D01*
X192718100Y-127856950D01*
X192705800Y-127884250D01*
X192692200Y-127910850D01*
X192677200Y-127936750D01*
X192661000Y-127961950D01*
X192643500Y-127986150D01*
X192624900Y-128009550D01*
X192605100Y-128032050D01*
X192584200Y-128053450D01*
X192562200Y-128073750D01*
X192539300Y-128092950D01*
X192515500Y-128111050D01*
X192490800Y-128127950D01*
X192465200Y-128143550D01*
X192439000Y-128157850D01*
X192412000Y-128170850D01*
X192384400Y-128182450D01*
X192356300Y-128192650D01*
X192327700Y-128201450D01*
X192298700Y-128208850D01*
X192269400Y-128214750D01*
X192239800Y-128219250D01*
X192210100Y-128222250D01*
X192180200Y-128223750D01*
X192150300Y-128223750D01*
X192120400Y-128222250D01*
X192090600Y-128219250D01*
X192061000Y-128214750D01*
X192031700Y-128208850D01*
X192002700Y-128201450D01*
X191974100Y-128192650D01*
X191946000Y-128182450D01*
X191918500Y-128170850D01*
X191891500Y-128157850D01*
X191865200Y-128143550D01*
X191839700Y-128127950D01*
X191815000Y-128111050D01*
X191791100Y-128092950D01*
X191768200Y-128073750D01*
X191746300Y-128053450D01*
X191725400Y-128032050D01*
X191705600Y-128009550D01*
X191687000Y-127986150D01*
X191669500Y-127961950D01*
X191653300Y-127936750D01*
X191638300Y-127910850D01*
X191624600Y-127884250D01*
X191612400Y-127856950D01*
X191601400Y-127829150D01*
X191591900Y-127800750D01*
X191583800Y-127771950D01*
X191577100Y-127742850D01*
X191571900Y-127713350D01*
X191568200Y-127683650D01*
X191566000Y-127653750D01*
X191565200Y-127623950D01*
X191565200Y-126823950D01*
X191566000Y-126794050D01*
X191568200Y-126764150D01*
X191571900Y-126734450D01*
X191577100Y-126705050D01*
X191583800Y-126675850D01*
X191591900Y-126647050D01*
X191601400Y-126618650D01*
X191612400Y-126590850D01*
X191624600Y-126563550D01*
X191638300Y-126536950D01*
X191653300Y-126511050D01*
X191669500Y-126485950D01*
X191687000Y-126461650D01*
X191705600Y-126438250D01*
X191725400Y-126415850D01*
X191746300Y-126394350D01*
X191768200Y-126374050D01*
X191791100Y-126354850D01*
X191815000Y-126336750D01*
X191839700Y-126319850D01*
X191865200Y-126304250D01*
X191891500Y-126289950D01*
X191918500Y-126276950D01*
X191946000Y-126265350D01*
X191974100Y-126255150D01*
X192002700Y-126246350D01*
X192031700Y-126238950D01*
X192061000Y-126233050D01*
X192090600Y-126228550D01*
X192120400Y-126225550D01*
X192150300Y-126224050D01*
X192180200Y-126224050D01*
X192210100Y-126225550D01*
G36*
X192210100Y-126225550D02*
G01*
X192239800Y-126228550D01*
X192269400Y-126233050D01*
X192298700Y-126238950D01*
X192327700Y-126246350D01*
X192356300Y-126255150D01*
X192384400Y-126265350D01*
X192412000Y-126276950D01*
X192439000Y-126289950D01*
X192465200Y-126304250D01*
X192490800Y-126319850D01*
X192515500Y-126336750D01*
X192539300Y-126354850D01*
X192562200Y-126374050D01*
X192584200Y-126394350D01*
X192605100Y-126415850D01*
X192624900Y-126438250D01*
X192643500Y-126461650D01*
X192661000Y-126485950D01*
X192677200Y-126511050D01*
X192692200Y-126536950D01*
X192705800Y-126563550D01*
X192718100Y-126590850D01*
X192729000Y-126618650D01*
X192738600Y-126647050D01*
X192746700Y-126675850D01*
X192753300Y-126705050D01*
X192758500Y-126734450D01*
X192762300Y-126764150D01*
X192764500Y-126794050D01*
X192765200Y-126823950D01*
X192765200Y-127623950D01*
X192764500Y-127653750D01*
X192762300Y-127683650D01*
X192758500Y-127713350D01*
X192753300Y-127742850D01*
X192746700Y-127771950D01*
X192738600Y-127800750D01*
X192729000Y-127829150D01*
X192718100Y-127856950D01*
X192705800Y-127884250D01*
X192692200Y-127910850D01*
X192677200Y-127936750D01*
X192661000Y-127961950D01*
X192643500Y-127986150D01*
X192624900Y-128009550D01*
X192605100Y-128032050D01*
X192584200Y-128053450D01*
X192562200Y-128073750D01*
X192539300Y-128092950D01*
X192515500Y-128111050D01*
X192490800Y-128127950D01*
X192465200Y-128143550D01*
X192439000Y-128157850D01*
X192412000Y-128170850D01*
X192384400Y-128182450D01*
X192356300Y-128192650D01*
X192327700Y-128201450D01*
X192298700Y-128208850D01*
X192269400Y-128214750D01*
X192239800Y-128219250D01*
X192210100Y-128222250D01*
X192180200Y-128223750D01*
X192150300Y-128223750D01*
X192120400Y-128222250D01*
X192090600Y-128219250D01*
X192061000Y-128214750D01*
X192031700Y-128208850D01*
X192002700Y-128201450D01*
X191974100Y-128192650D01*
X191946000Y-128182450D01*
X191918500Y-128170850D01*
X191891500Y-128157850D01*
X191865200Y-128143550D01*
X191839700Y-128127950D01*
X191815000Y-128111050D01*
X191791100Y-128092950D01*
X191768200Y-128073750D01*
X191746300Y-128053450D01*
X191725400Y-128032050D01*
X191705600Y-128009550D01*
X191687000Y-127986150D01*
X191669500Y-127961950D01*
X191653300Y-127936750D01*
X191638300Y-127910850D01*
X191624600Y-127884250D01*
X191612400Y-127856950D01*
X191601400Y-127829150D01*
X191591900Y-127800750D01*
X191583800Y-127771950D01*
X191577100Y-127742850D01*
X191571900Y-127713350D01*
X191568200Y-127683650D01*
X191566000Y-127653750D01*
X191565200Y-127623950D01*
X191565200Y-126823950D01*
X191566000Y-126794050D01*
X191568200Y-126764150D01*
X191571900Y-126734450D01*
X191577100Y-126705050D01*
X191583800Y-126675850D01*
X191591900Y-126647050D01*
X191601400Y-126618650D01*
X191612400Y-126590850D01*
X191624600Y-126563550D01*
X191638300Y-126536950D01*
X191653300Y-126511050D01*
X191669500Y-126485950D01*
X191687000Y-126461650D01*
X191705600Y-126438250D01*
X191725400Y-126415850D01*
X191746300Y-126394350D01*
X191768200Y-126374050D01*
X191791100Y-126354850D01*
X191815000Y-126336750D01*
X191839700Y-126319850D01*
X191865200Y-126304250D01*
X191891500Y-126289950D01*
X191918500Y-126276950D01*
X191946000Y-126265350D01*
X191974100Y-126255150D01*
X192002700Y-126246350D01*
X192031700Y-126238950D01*
X192061000Y-126233050D01*
X192090600Y-126228550D01*
X192120400Y-126225550D01*
X192150300Y-126224050D01*
X192180200Y-126224050D01*
X192210100Y-126225550D01*
G37*
X192210100Y-130505650D02*
X192239800Y-130508650D01*
X192269400Y-130513150D01*
X192298700Y-130519050D01*
X192327700Y-130526450D01*
X192356300Y-130535250D01*
X192384400Y-130545450D01*
X192412000Y-130557050D01*
X192439000Y-130570050D01*
X192465200Y-130584350D01*
X192490800Y-130599950D01*
X192515500Y-130616850D01*
X192539300Y-130634850D01*
X192562200Y-130654150D01*
X192584200Y-130674450D01*
X192605100Y-130695850D01*
X192624900Y-130718350D01*
X192643500Y-130741750D01*
X192661000Y-130765950D01*
X192677200Y-130791150D01*
X192692200Y-130817050D01*
X192705800Y-130843650D01*
X192718100Y-130870950D01*
X192729000Y-130898750D01*
X192738600Y-130927150D01*
X192746700Y-130955950D01*
X192753300Y-130985050D01*
X192758500Y-131014550D01*
X192762300Y-131044250D01*
X192764500Y-131074050D01*
X192765200Y-131103950D01*
X192765200Y-131703950D01*
X192764500Y-131733850D01*
X192762300Y-131763750D01*
X192758500Y-131793450D01*
X192753300Y-131822850D01*
X192746700Y-131852050D01*
X192738600Y-131880850D01*
X192729000Y-131909150D01*
X192718100Y-131937050D01*
X192705800Y-131964350D01*
X192692200Y-131990950D01*
X192677200Y-132016850D01*
X192661000Y-132041950D01*
X192643500Y-132066250D01*
X192624900Y-132089650D01*
X192605100Y-132112050D01*
X192584200Y-132133450D01*
X192562200Y-132153850D01*
X192539300Y-132173050D01*
X192515500Y-132191150D01*
X192490800Y-132207950D01*
X192465200Y-132223550D01*
X192439000Y-132237950D01*
X192412000Y-132250850D01*
X192384400Y-132262550D01*
X192356300Y-132272750D01*
X192327700Y-132281550D01*
X192298700Y-132288950D01*
X192269400Y-132294850D01*
X192239800Y-132299350D01*
X192210100Y-132302350D01*
X192180200Y-132303850D01*
X192150300Y-132303850D01*
X192120400Y-132302350D01*
X192090600Y-132299350D01*
X192061000Y-132294850D01*
X192031700Y-132288950D01*
X192002700Y-132281550D01*
X191974100Y-132272750D01*
X191946000Y-132262550D01*
X191918500Y-132250850D01*
X191891500Y-132237950D01*
X191865200Y-132223550D01*
X191839700Y-132207950D01*
X191815000Y-132191150D01*
X191791100Y-132173050D01*
X191768200Y-132153850D01*
X191746300Y-132133450D01*
X191725400Y-132112050D01*
X191705600Y-132089650D01*
X191687000Y-132066250D01*
X191669500Y-132041950D01*
X191653300Y-132016850D01*
X191638300Y-131990950D01*
X191624600Y-131964350D01*
X191612400Y-131937050D01*
X191601400Y-131909150D01*
X191591900Y-131880850D01*
X191583800Y-131852050D01*
X191577100Y-131822850D01*
X191571900Y-131793450D01*
X191568200Y-131763750D01*
X191566000Y-131733850D01*
X191565200Y-131703950D01*
X191565200Y-131103950D01*
X191566000Y-131074050D01*
X191568200Y-131044250D01*
X191571900Y-131014550D01*
X191577100Y-130985050D01*
X191583800Y-130955950D01*
X191591900Y-130927150D01*
X191601400Y-130898750D01*
X191612400Y-130870950D01*
X191624600Y-130843650D01*
X191638300Y-130817050D01*
X191653300Y-130791150D01*
X191669500Y-130765950D01*
X191687000Y-130741750D01*
X191705600Y-130718350D01*
X191725400Y-130695850D01*
X191746300Y-130674450D01*
X191768200Y-130654150D01*
X191791100Y-130634850D01*
X191815000Y-130616850D01*
X191839700Y-130599950D01*
X191865200Y-130584350D01*
X191891500Y-130570050D01*
X191918500Y-130557050D01*
X191946000Y-130545450D01*
X191974100Y-130535250D01*
X192002700Y-130526450D01*
X192031700Y-130519050D01*
X192061000Y-130513150D01*
X192090600Y-130508650D01*
X192120400Y-130505650D01*
X192150300Y-130504150D01*
X192180200Y-130504150D01*
X192210100Y-130505650D01*
G36*
X192210100Y-130505650D02*
G01*
X192239800Y-130508650D01*
X192269400Y-130513150D01*
X192298700Y-130519050D01*
X192327700Y-130526450D01*
X192356300Y-130535250D01*
X192384400Y-130545450D01*
X192412000Y-130557050D01*
X192439000Y-130570050D01*
X192465200Y-130584350D01*
X192490800Y-130599950D01*
X192515500Y-130616850D01*
X192539300Y-130634850D01*
X192562200Y-130654150D01*
X192584200Y-130674450D01*
X192605100Y-130695850D01*
X192624900Y-130718350D01*
X192643500Y-130741750D01*
X192661000Y-130765950D01*
X192677200Y-130791150D01*
X192692200Y-130817050D01*
X192705800Y-130843650D01*
X192718100Y-130870950D01*
X192729000Y-130898750D01*
X192738600Y-130927150D01*
X192746700Y-130955950D01*
X192753300Y-130985050D01*
X192758500Y-131014550D01*
X192762300Y-131044250D01*
X192764500Y-131074050D01*
X192765200Y-131103950D01*
X192765200Y-131703950D01*
X192764500Y-131733850D01*
X192762300Y-131763750D01*
X192758500Y-131793450D01*
X192753300Y-131822850D01*
X192746700Y-131852050D01*
X192738600Y-131880850D01*
X192729000Y-131909150D01*
X192718100Y-131937050D01*
X192705800Y-131964350D01*
X192692200Y-131990950D01*
X192677200Y-132016850D01*
X192661000Y-132041950D01*
X192643500Y-132066250D01*
X192624900Y-132089650D01*
X192605100Y-132112050D01*
X192584200Y-132133450D01*
X192562200Y-132153850D01*
X192539300Y-132173050D01*
X192515500Y-132191150D01*
X192490800Y-132207950D01*
X192465200Y-132223550D01*
X192439000Y-132237950D01*
X192412000Y-132250850D01*
X192384400Y-132262550D01*
X192356300Y-132272750D01*
X192327700Y-132281550D01*
X192298700Y-132288950D01*
X192269400Y-132294850D01*
X192239800Y-132299350D01*
X192210100Y-132302350D01*
X192180200Y-132303850D01*
X192150300Y-132303850D01*
X192120400Y-132302350D01*
X192090600Y-132299350D01*
X192061000Y-132294850D01*
X192031700Y-132288950D01*
X192002700Y-132281550D01*
X191974100Y-132272750D01*
X191946000Y-132262550D01*
X191918500Y-132250850D01*
X191891500Y-132237950D01*
X191865200Y-132223550D01*
X191839700Y-132207950D01*
X191815000Y-132191150D01*
X191791100Y-132173050D01*
X191768200Y-132153850D01*
X191746300Y-132133450D01*
X191725400Y-132112050D01*
X191705600Y-132089650D01*
X191687000Y-132066250D01*
X191669500Y-132041950D01*
X191653300Y-132016850D01*
X191638300Y-131990950D01*
X191624600Y-131964350D01*
X191612400Y-131937050D01*
X191601400Y-131909150D01*
X191591900Y-131880850D01*
X191583800Y-131852050D01*
X191577100Y-131822850D01*
X191571900Y-131793450D01*
X191568200Y-131763750D01*
X191566000Y-131733850D01*
X191565200Y-131703950D01*
X191565200Y-131103950D01*
X191566000Y-131074050D01*
X191568200Y-131044250D01*
X191571900Y-131014550D01*
X191577100Y-130985050D01*
X191583800Y-130955950D01*
X191591900Y-130927150D01*
X191601400Y-130898750D01*
X191612400Y-130870950D01*
X191624600Y-130843650D01*
X191638300Y-130817050D01*
X191653300Y-130791150D01*
X191669500Y-130765950D01*
X191687000Y-130741750D01*
X191705600Y-130718350D01*
X191725400Y-130695850D01*
X191746300Y-130674450D01*
X191768200Y-130654150D01*
X191791100Y-130634850D01*
X191815000Y-130616850D01*
X191839700Y-130599950D01*
X191865200Y-130584350D01*
X191891500Y-130570050D01*
X191918500Y-130557050D01*
X191946000Y-130545450D01*
X191974100Y-130535250D01*
X192002700Y-130526450D01*
X192031700Y-130519050D01*
X192061000Y-130513150D01*
X192090600Y-130508650D01*
X192120400Y-130505650D01*
X192150300Y-130504150D01*
X192180200Y-130504150D01*
X192210100Y-130505650D01*
G37*
%TO.C,L4*%
D11*
X154135000Y-99745000D02*
X154135000Y-101705000D01*
X154035000Y-101805000D01*
X152565000Y-101805000D01*
X152465000Y-101705000D01*
X152465000Y-101192000D01*
X152565000Y-101092000D01*
X152956000Y-101092000D01*
X153056000Y-100992000D01*
X153056000Y-100458000D01*
X152956000Y-100358000D01*
X152565000Y-100358000D01*
X152465000Y-100258000D01*
X152465000Y-99745000D01*
X152565000Y-99645000D01*
X154035000Y-99645000D01*
X154135000Y-99745000D01*
G36*
X154135000Y-99745000D02*
G01*
X154135000Y-101705000D01*
X154035000Y-101805000D01*
X152565000Y-101805000D01*
X152465000Y-101705000D01*
X152465000Y-101192000D01*
X152565000Y-101092000D01*
X152956000Y-101092000D01*
X153056000Y-100992000D01*
X153056000Y-100458000D01*
X152956000Y-100358000D01*
X152565000Y-100358000D01*
X152465000Y-100258000D01*
X152465000Y-99745000D01*
X152565000Y-99645000D01*
X154035000Y-99645000D01*
X154135000Y-99745000D01*
G37*
X151835000Y-99745000D02*
X151835000Y-100258000D01*
X151735000Y-100358000D01*
X151344000Y-100358000D01*
X151244000Y-100458000D01*
X151244000Y-100992000D01*
X151344000Y-101092000D01*
X151735000Y-101092000D01*
X151835000Y-101192000D01*
X151835000Y-101705000D01*
X151735000Y-101805000D01*
X150265000Y-101805000D01*
X150165000Y-101705000D01*
X150165000Y-99745000D01*
X150265000Y-99645000D01*
X151735000Y-99645000D01*
X151835000Y-99745000D01*
G36*
X151835000Y-99745000D02*
G01*
X151835000Y-100258000D01*
X151735000Y-100358000D01*
X151344000Y-100358000D01*
X151244000Y-100458000D01*
X151244000Y-100992000D01*
X151344000Y-101092000D01*
X151735000Y-101092000D01*
X151835000Y-101192000D01*
X151835000Y-101705000D01*
X151735000Y-101805000D01*
X150265000Y-101805000D01*
X150165000Y-101705000D01*
X150165000Y-99745000D01*
X150265000Y-99645000D01*
X151735000Y-99645000D01*
X151835000Y-99745000D01*
G37*
%TD*%
D12*
%TO.C,R51*%
X112820200Y-122060000D03*
X111170200Y-122060000D03*
%TD*%
D13*
%TO.C,C42*%
X134375000Y-121500000D03*
X132825000Y-121500000D03*
%TD*%
D14*
%TO.C,L9*%
X183720200Y-120430000D03*
X181870200Y-120430000D03*
X181870200Y-119630000D03*
X183720200Y-119630000D03*
%TD*%
D15*
%TO.C,C24*%
X190450000Y-104300000D03*
X190450000Y-102400000D03*
%TD*%
D16*
%TO.C,U9*%
X177041990Y-121080000D03*
X177041990Y-120580000D03*
X177041990Y-120080000D03*
X177041990Y-119580000D03*
X177041990Y-119080000D03*
X172641990Y-119080000D03*
X172641990Y-119580000D03*
X172641990Y-120080000D03*
X172641990Y-120580000D03*
X172641990Y-121080000D03*
%TD*%
D17*
%TO.C,C17*%
X131715200Y-113560000D03*
X131715200Y-112010000D03*
%TD*%
D13*
%TO.C,C11*%
X112770200Y-123660000D03*
X111220200Y-123660000D03*
%TD*%
D18*
%TO.C,J1*%
X184495200Y-126573950D03*
X185295300Y-126573950D03*
X186595300Y-126573950D03*
X187595300Y-126573950D03*
X188095100Y-126573950D03*
X189094900Y-126573950D03*
X190395400Y-126574150D03*
X191195200Y-126573950D03*
X190895200Y-126573950D03*
X190095100Y-126574150D03*
X189595300Y-126573950D03*
X188595300Y-126573950D03*
X187095100Y-126573950D03*
X186095100Y-126573950D03*
X185595300Y-126573950D03*
X184795200Y-126573950D03*
%TD*%
D17*
%TO.C,C28*%
X176100000Y-100100000D03*
X176100000Y-98550000D03*
%TD*%
D12*
%TO.C,R16*%
X131515000Y-123010000D03*
X129865000Y-123010000D03*
%TD*%
D17*
%TO.C,C76*%
X129710200Y-104975000D03*
X129710200Y-103425000D03*
%TD*%
D19*
%TO.C,U17*%
X125225000Y-87870000D03*
X127525000Y-87870000D03*
X129825000Y-87870000D03*
D20*
X127525000Y-82130000D03*
%TD*%
D17*
%TO.C,C58*%
X149175200Y-101475000D03*
X149175200Y-99925000D03*
%TD*%
D12*
%TO.C,R11*%
X124750000Y-91825000D03*
X123100000Y-91825000D03*
%TD*%
D21*
%TO.C,R120*%
X128235200Y-103375000D03*
X128235200Y-105025000D03*
%TD*%
D22*
%TO.C,C64*%
X126225000Y-90275000D03*
X126225000Y-91825000D03*
%TD*%
D23*
%TO.C,R6*%
X179150000Y-100150000D03*
X179150000Y-98500000D03*
%TD*%
D22*
%TO.C,C16*%
X124445200Y-111980000D03*
X124445200Y-113530000D03*
%TD*%
%TO.C,C77*%
X128160200Y-100425000D03*
X128160200Y-101975000D03*
%TD*%
D23*
%TO.C,R114*%
X131200000Y-105025000D03*
X131200000Y-103375000D03*
%TD*%
D21*
%TO.C,R4*%
X184050000Y-102525000D03*
X184050000Y-104175000D03*
%TD*%
D24*
%TO.C,C27*%
X185950000Y-104225000D03*
X185950000Y-101275000D03*
%TD*%
D23*
%TO.C,R111*%
X125235200Y-105025000D03*
X125235200Y-103375000D03*
%TD*%
D25*
%TO.C,U4*%
X127538200Y-111865002D03*
D26*
X127538200Y-112815012D03*
X127538200Y-113764998D03*
X130332200Y-113764998D03*
X130332200Y-111865002D03*
%TD*%
D24*
%TO.C,C25*%
X188275000Y-104225000D03*
X188275000Y-101275000D03*
%TD*%
D27*
%TO.C,D12*%
X128650000Y-91050000D03*
X128650000Y-95050000D03*
%TD*%
D21*
%TO.C,R115*%
X129670200Y-100395000D03*
X129670200Y-102045000D03*
%TD*%
D12*
%TO.C,R13*%
X135115000Y-107760000D03*
X133465000Y-107760000D03*
%TD*%
D28*
%TO.C,SW2*%
X174068900Y-131251100D03*
X180871100Y-131251100D03*
X180871100Y-128248900D03*
X174068900Y-128248900D03*
%TD*%
D12*
%TO.C,R32*%
X177290200Y-122760000D03*
X175640200Y-122760000D03*
%TD*%
D23*
%TO.C,R2*%
X126035200Y-113580000D03*
X126035200Y-111930000D03*
%TD*%
D29*
%TO.C,LED4*%
X118250900Y-127900000D03*
X116549100Y-127900000D03*
%TD*%
D30*
%TO.C,L4*%
X153318000Y-100725000D03*
X150982000Y-100725000D03*
%TD*%
D17*
%TO.C,C5*%
X168630000Y-125505000D03*
X168630000Y-123955000D03*
%TD*%
%TO.C,C56*%
X147695200Y-101475000D03*
X147695200Y-99925000D03*
%TD*%
D31*
%TO.C,C34*%
X156215000Y-103420000D03*
X157765000Y-103420000D03*
%TD*%
D32*
%TO.C,C2*%
X132275000Y-86550000D03*
X133825000Y-86550000D03*
%TD*%
D23*
%TO.C,R113*%
X126730200Y-102025000D03*
X126730200Y-100375000D03*
%TD*%
D33*
%TO.C,X1*%
X134760000Y-119920000D03*
X134760000Y-117720000D03*
X133060000Y-117720000D03*
X133060000Y-119920000D03*
%TD*%
D17*
%TO.C,C37*%
X155100000Y-101465000D03*
X155100000Y-99915000D03*
%TD*%
D15*
%TO.C,C71*%
X132200000Y-88325000D03*
X134100000Y-88325000D03*
%TD*%
D34*
%TO.C,C23*%
X186150000Y-108225000D03*
X186150000Y-117225000D03*
%TD*%
D35*
%TO.C,R38*%
X119845000Y-130290000D03*
X121495000Y-130290000D03*
%TD*%
%TO.C,R1*%
X126060200Y-109560000D03*
X127710200Y-109560000D03*
%TD*%
D36*
%TO.C,D10*%
X178325000Y-116175000D03*
X178325000Y-112175000D03*
%TD*%
D31*
%TO.C,C29*%
X178750000Y-107600000D03*
X180300000Y-107600000D03*
%TD*%
D27*
%TO.C,D11*%
X132325000Y-91025000D03*
X132325000Y-95025000D03*
%TD*%
D37*
%TO.C,L2*%
X173325000Y-108525000D03*
X173325000Y-111775000D03*
%TD*%
D23*
%TO.C,R19*%
X167030000Y-125515000D03*
X167030000Y-123865000D03*
%TD*%
D13*
%TO.C,C12*%
X112770200Y-114060000D03*
X111220200Y-114060000D03*
%TD*%
D38*
%TO.C,LED1*%
X176949100Y-93800000D03*
X178650900Y-93800000D03*
%TD*%
D12*
%TO.C,R9*%
X175625000Y-126170000D03*
X173975000Y-126170000D03*
%TD*%
D31*
%TO.C,C26*%
X133515000Y-109400000D03*
X135065000Y-109400000D03*
%TD*%
D39*
%TO.C,D2*%
X181377700Y-124220000D03*
X184677700Y-124220000D03*
%TD*%
D31*
%TO.C,C4*%
X126110200Y-107920000D03*
X127660200Y-107920000D03*
%TD*%
D22*
%TO.C,C41*%
X131520000Y-117695000D03*
X131520000Y-119245000D03*
%TD*%
D40*
%TO.C,D3*%
X163753800Y-125522450D03*
X165653800Y-125522450D03*
X164703800Y-123522450D03*
%TD*%
D29*
%TO.C,LED5*%
X118270000Y-130330000D03*
X116568200Y-130330000D03*
%TD*%
D41*
%TO.C,L6*%
X134952500Y-105370000D03*
X133127500Y-105370000D03*
%TD*%
D35*
%TO.C,R14*%
X173550000Y-93750000D03*
X175200000Y-93750000D03*
%TD*%
%TO.C,R34*%
X119825000Y-125390000D03*
X121475000Y-125390000D03*
%TD*%
%TO.C,R57*%
X111170200Y-125260000D03*
X112820200Y-125260000D03*
%TD*%
D42*
%TO.C,U3*%
X182032000Y-105585000D03*
X182032000Y-104315000D03*
X182032000Y-103045000D03*
X182032000Y-101775000D03*
X176668000Y-101775000D03*
X176668000Y-103045000D03*
X176668000Y-104315000D03*
X176668000Y-105585000D03*
D43*
X179350000Y-103680000D03*
%TD*%
D12*
%TO.C,R12*%
X124750000Y-90300000D03*
X123100000Y-90300000D03*
%TD*%
%TO.C,R5*%
X183475000Y-100175000D03*
X181825000Y-100175000D03*
%TD*%
D44*
%TO.C,C35*%
X170825000Y-114075000D03*
X170825000Y-117025000D03*
%TD*%
D13*
%TO.C,C10*%
X112770200Y-118860000D03*
X111220200Y-118860000D03*
%TD*%
D31*
%TO.C,C3*%
X172720200Y-122790000D03*
X174270200Y-122790000D03*
%TD*%
%TO.C,C31*%
X129440000Y-106450000D03*
X130990000Y-106450000D03*
%TD*%
D36*
%TO.C,D9*%
X172825000Y-105475000D03*
X172825000Y-101475000D03*
%TD*%
D12*
%TO.C,R52*%
X112820200Y-117260000D03*
X111170200Y-117260000D03*
%TD*%
%TO.C,R21*%
X159650000Y-99975000D03*
X158000000Y-99975000D03*
%TD*%
D21*
%TO.C,R112*%
X126730200Y-103375000D03*
X126730200Y-105025000D03*
%TD*%
%TO.C,R10*%
X177625000Y-98500000D03*
X177625000Y-100150000D03*
%TD*%
D45*
%TO.C,U8*%
X188835200Y-123980000D03*
D46*
X188835200Y-122280000D03*
X186835200Y-122280000D03*
X186835200Y-124180000D03*
%TD*%
D47*
%TO.C,U1*%
X154050200Y-117220000D03*
X154050200Y-116720000D03*
X154050200Y-116220000D03*
X154050200Y-115720000D03*
X154050200Y-115220000D03*
X154050200Y-114720000D03*
X154050200Y-114220000D03*
X154050200Y-113720000D03*
X154050200Y-113220000D03*
X154050200Y-112720000D03*
X154050200Y-112220000D03*
X154050200Y-111720000D03*
X154050200Y-111220000D03*
X154050200Y-110720000D03*
X154050200Y-110220000D03*
X154050200Y-109720000D03*
X154050200Y-109220000D03*
X154050200Y-108720000D03*
X154050200Y-108220000D03*
X154050200Y-107720000D03*
X154050200Y-107220000D03*
X154050200Y-106720000D03*
X154050200Y-106220000D03*
X154050200Y-105720000D03*
X154050200Y-105220000D03*
D48*
X152375200Y-103545000D03*
X151875200Y-103545000D03*
X151375200Y-103545000D03*
X150875200Y-103545000D03*
X150375200Y-103545000D03*
X149875200Y-103545000D03*
X149375200Y-103545000D03*
X148875200Y-103545000D03*
X148375200Y-103545000D03*
X147875200Y-103545000D03*
X147375200Y-103545000D03*
X146875200Y-103545000D03*
X146375200Y-103545000D03*
X145875200Y-103545000D03*
X145375200Y-103545000D03*
X144875200Y-103545000D03*
X144375200Y-103545000D03*
X143875200Y-103545000D03*
X143375200Y-103545000D03*
X142875200Y-103545000D03*
X142375200Y-103545000D03*
X141875200Y-103545000D03*
X141375200Y-103545000D03*
X140875200Y-103545000D03*
X140375200Y-103545000D03*
D47*
X138700200Y-105220000D03*
X138700200Y-105720000D03*
X138700200Y-106220000D03*
X138700200Y-106720000D03*
X138700200Y-107220000D03*
X138700200Y-107720000D03*
X138700200Y-108220000D03*
X138700200Y-108720000D03*
X138700200Y-109220000D03*
X138700200Y-109720000D03*
X138700200Y-110220000D03*
X138700200Y-110720000D03*
X138700200Y-111220000D03*
X138700200Y-111720000D03*
X138700200Y-112220000D03*
X138700200Y-112720000D03*
X138700200Y-113220000D03*
X138700200Y-113720000D03*
X138700200Y-114220000D03*
X138700200Y-114720000D03*
X138700200Y-115220000D03*
X138700200Y-115720000D03*
X138700200Y-116220000D03*
X138700200Y-116720000D03*
X138700200Y-117220000D03*
D48*
X140375200Y-118895000D03*
X140875200Y-118895000D03*
X141375200Y-118895000D03*
X141875200Y-118895000D03*
X142375200Y-118895000D03*
X142875200Y-118895000D03*
X143375200Y-118895000D03*
X143875200Y-118895000D03*
X144375200Y-118895000D03*
X144875200Y-118895000D03*
X145375200Y-118895000D03*
X145875200Y-118895000D03*
X146375200Y-118895000D03*
X146875200Y-118895000D03*
X147375200Y-118895000D03*
X147875200Y-118895000D03*
X148375200Y-118895000D03*
X148875200Y-118895000D03*
X149375200Y-118895000D03*
X149875200Y-118895000D03*
X150375200Y-118895000D03*
X150875200Y-118895000D03*
X151375200Y-118895000D03*
X151875200Y-118895000D03*
X152375200Y-118895000D03*
%TD*%
D17*
%TO.C,C18*%
X133275200Y-113560000D03*
X133275200Y-112010000D03*
%TD*%
D44*
%TO.C,C52*%
X174093888Y-114075000D03*
X174093888Y-117025000D03*
%TD*%
%TO.C,C33*%
X167556112Y-114075000D03*
X167556112Y-117025000D03*
%TD*%
D49*
%TO.C,C78*%
X162000000Y-104355000D03*
X162000000Y-110945000D03*
%TD*%
D35*
%TO.C,R36*%
X119815000Y-127890000D03*
X121465000Y-127890000D03*
%TD*%
D17*
%TO.C,C39*%
X156600000Y-101450000D03*
X156600000Y-99900000D03*
%TD*%
D35*
%TO.C,R59*%
X111170200Y-115660000D03*
X112820200Y-115660000D03*
%TD*%
D50*
%TO.C,U2*%
X129045200Y-107980000D03*
X129045200Y-108930000D03*
X129045200Y-109880000D03*
X131845200Y-109880000D03*
X131845200Y-108930000D03*
X131845200Y-107980000D03*
%TD*%
D44*
%TO.C,C30*%
X164287222Y-114075000D03*
X164287222Y-117025000D03*
%TD*%
D13*
%TO.C,C9*%
X112770200Y-120460000D03*
X111220200Y-120460000D03*
%TD*%
D29*
%TO.C,LED3*%
X118350000Y-125330000D03*
X116648200Y-125330000D03*
%TD*%
D17*
%TO.C,C32*%
X134785200Y-113560000D03*
X134785200Y-112010000D03*
%TD*%
D23*
%TO.C,R33*%
X136530000Y-119615000D03*
X136530000Y-117965000D03*
%TD*%
D28*
%TO.C,SW3*%
X164358900Y-131301100D03*
X171161100Y-131301100D03*
X171161100Y-128298900D03*
X164358900Y-128298900D03*
%TD*%
D32*
%TO.C,C88*%
X125525000Y-94875000D03*
X125525000Y-93325000D03*
%TD*%
M02*
