M48
; DRILL file {KiCad 7.0.2} date Sat Jul  8 17:01:32 2023
; FORMAT={-:-/ absolute / metric / decimal}
; #@! TF.CreationDate,2023-07-08T17:01:32+08:00
; #@! TF.GenerationSoftware,Kicad,Pcbnew,7.0.2
; #@! TF.FileFunction,Plated,1,4,PTH
FMAT,2
METRIC
; #@! TA.AperFunction,Plated,PTH,ViaDrill
T1C0.254
; #@! TA.AperFunction,Plated,PTH,ViaDrill
T2C0.300
; #@! TA.AperFunction,Plated,PTH,ComponentDrill
T3C0.700
; #@! TA.AperFunction,Plated,PTH,ComponentDrill
T4C1.000
; #@! TA.AperFunction,Plated,PTH,ComponentDrill
T5C1.100
; #@! TA.AperFunction,Plated,PTH,ComponentDrill
T6C1.390
; #@! TA.AperFunction,Plated,PTH,ComponentDrill
T7C3.500
%
G90
G05
T1
X108.241Y-66.235
X108.241Y-68.521
X108.241Y-70.807
X108.241Y-73.093
X108.241Y-75.379
X108.241Y-77.665
X108.241Y-79.951
X108.285Y-82.511
X108.285Y-84.797
X108.285Y-87.083
X108.285Y-89.369
X108.285Y-91.655
X108.285Y-93.941
X108.285Y-96.227
X108.285Y-99.111
X108.285Y-101.397
X108.285Y-103.683
X108.285Y-105.969
X108.285Y-108.255
X108.285Y-110.541
X108.285Y-112.827
X108.585Y-115.455
X109.54Y-84.842
X109.615Y-74.375
X109.67Y-101.42
X109.715Y-82.44
X109.715Y-87.24
X109.715Y-89.64
X109.715Y-92.04
X109.715Y-94.44
X109.715Y-96.84
X109.715Y-99.24
X109.715Y-102.44
X109.715Y-107.24
X109.715Y-109.64
X109.715Y-112.04
X109.731Y-83.338
X109.731Y-83.947
X109.731Y-85.738
X109.731Y-86.347
X109.731Y-88.138
X109.731Y-88.747
X109.731Y-100.138
X109.731Y-100.748
X109.731Y-103.338
X109.731Y-103.948
X109.731Y-105.738
X109.731Y-106.348
X110.105Y-77.655
X110.955Y-71.101
X110.98Y-70.576
X111.005Y-69.526
X111.005Y-70.051
X111.825Y-120.425
X112.125Y-67.891
X112.295Y-80.045
X112.309Y-80.938
X112.309Y-81.547
X112.309Y-90.538
X112.309Y-91.147
X112.309Y-92.938
X112.309Y-93.547
X112.309Y-95.338
X112.309Y-95.948
X112.309Y-97.738
X112.309Y-98.348
X112.309Y-108.138
X112.309Y-108.748
X112.309Y-110.538
X112.309Y-111.148
X112.309Y-112.938
X112.309Y-113.548
X112.309Y-115.338
X112.309Y-115.948
X112.309Y-117.738
X112.309Y-118.348
X112.325Y-119.246
X112.559Y-123.945
X112.745Y-102.595
X112.795Y-71.055
X112.925Y-103.845
X112.965Y-67.531
X113.055Y-99.305
X113.125Y-70.025
X113.265Y-94.885
X113.275Y-87.375
X113.285Y-89.635
X113.335Y-84.865
X113.375Y-106.855
X113.815Y-73.515
X113.945Y-71.511
X114.075Y-109.635
X114.093Y-80.938
X114.093Y-81.547
X114.105Y-70.035
X114.115Y-102.44
X114.115Y-112.04
X114.115Y-119.24
X114.131Y-90.538
X114.131Y-91.147
X114.131Y-92.938
X114.131Y-93.547
X114.131Y-95.338
X114.131Y-95.948
X114.131Y-97.738
X114.131Y-98.348
X114.131Y-100.138
X114.131Y-100.748
X114.131Y-103.338
X114.131Y-103.948
X114.131Y-105.738
X114.131Y-106.348
X114.131Y-108.138
X114.131Y-108.748
X114.131Y-110.538
X114.131Y-111.148
X114.131Y-112.938
X114.131Y-113.548
X114.131Y-115.338
X114.131Y-115.948
X114.131Y-117.738
X114.131Y-118.348
X114.145Y-80.04
X114.385Y-71.066
X114.385Y-73.525
X114.605Y-65.465
X114.845Y-123.945
X115.099Y-77.665
X115.185Y-136.255
X115.185Y-138.205
X115.445Y-67.855
X115.445Y-71.035
X115.785Y-136.655
X115.785Y-137.905
X115.885Y-67.035
X116.095Y-67.655
X116.385Y-70.541
X116.415Y-71.291
X116.709Y-83.338
X116.709Y-83.947
X116.709Y-85.738
X116.709Y-86.347
X116.925Y-65.985
X116.955Y-116.875
X117.075Y-62.245
X117.085Y-121.805
X117.125Y-98.715
X117.155Y-93.125
X117.344Y-88.138
X117.344Y-88.747
X117.365Y-94.545
X117.385Y-77.665
X117.535Y-76.855
X117.545Y-102.335
X117.605Y-87.155
X117.655Y-96.265
X118.135Y-134.855
X118.157Y-79.632
X118.195Y-123.345
X118.295Y-118.085
X118.306Y-66.884
X118.385Y-69.075
X118.985Y-87.655
X119.035Y-112.605
X119.045Y-114.295
X119.185Y-68.145
X119.465Y-71.235
X119.485Y-76.455
X119.675Y-77.715
X119.715Y-70.275
X119.745Y-96.305
X119.935Y-86.685
X119.985Y-62.345
X119.985Y-79.025
X120.065Y-115.825
X120.065Y-118.111
X120.11Y-75.093
X120.115Y-97.605
X120.245Y-80.465
X120.365Y-67.725
X120.465Y-133.005
X120.555Y-135.635
X121.505Y-97.025
X121.615Y-85.625
X121.675Y-88.045
X121.685Y-98.265
X121.755Y-81.675
X121.795Y-75.485
X121.805Y-77.885
X122.195Y-92.955
X122.45Y-69.476
X122.615Y-102.235
X122.705Y-82.995
X123.06Y-69.476
X123.328Y-127.505
X123.335Y-128.755
X123.395Y-84.87
X123.545Y-78.825
X123.555Y-75.56
X123.813Y-63.873
X123.905Y-88.135
X123.935Y-90.335
X124.025Y-79.445
X124.565Y-99.525
X124.71Y-129.255
X124.725Y-63.885
X124.845Y-84.885
X124.985Y-77.355
X125.125Y-108.505
X125.275Y-94.995
X125.335Y-80.655
X125.413Y-63.873
X125.413Y-68.273
X125.565Y-108.505
X125.645Y-134.185
X125.885Y-93.215
X125.955Y-102.885
X125.972Y-63.873
X125.972Y-68.273
X126.025Y-86.265
X126.025Y-108.505
X126.035Y-129.195
X126.095Y-65.635
X126.225Y-64.945
X126.243Y-131.1
X126.243Y-135.5
X126.615Y-107.995
X126.765Y-94.985
X126.77Y-131.1
X126.77Y-135.5
X126.855Y-76.635
X126.895Y-70.325
X126.895Y-96.305
X126.965Y-73.615
X127.013Y-63.873
X127.013Y-68.273
X127.017Y-78.667
X127.405Y-87.465
X127.525Y-97.025
X127.572Y-63.873
X127.572Y-68.273
X127.645Y-134.195
X127.705Y-83.085
X127.895Y-89.06
X128.065Y-107.995
X128.255Y-64.945
X128.331Y-124.757
X128.365Y-88.07
X128.395Y-122.755
X128.415Y-121.075
X128.445Y-73.535
X128.455Y-69.745
X128.465Y-71.845
X128.485Y-111.455
X128.493Y-63.795
X128.525Y-68.315
X128.643Y-131.1
X128.643Y-135.5
X128.675Y-117.965
X129.015Y-80.575
X129.17Y-131.1
X129.17Y-135.5
X129.413Y-63.873
X129.413Y-68.273
X129.425Y-84.785
X129.465Y-107.995
X129.585Y-111.455
X129.735Y-114.005
X129.972Y-63.873
X129.972Y-68.273
X130.145Y-134.205
X130.515Y-65.205
X130.855Y-126.055
X130.921Y-60.525
X131.013Y-63.873
X131.043Y-131.1
X131.043Y-135.5
X131.165Y-86.515
X131.365Y-125.525
X131.465Y-82.905
X131.545Y-96.625
X131.57Y-131.1
X131.57Y-135.5
X131.572Y-63.873
X131.835Y-77.255
X131.885Y-74.655
X132.215Y-93.06
X132.485Y-121.805
X132.485Y-123.455
X132.493Y-63.795
X132.613Y-68.273
X132.625Y-118.85
X132.665Y-68.955
X132.665Y-93.35
X132.675Y-120.685
X132.675Y-134.225
X132.865Y-64.735
X133.172Y-68.273
X133.207Y-60.525
X133.315Y-63.805
X133.425Y-78.745
X133.443Y-131.1
X133.443Y-135.5
X133.495Y-84.925
X133.97Y-131.1
X133.97Y-135.5
X134.213Y-63.873
X134.213Y-68.273
X134.245Y-77.465
X134.455Y-75.625
X134.485Y-119.805
X134.625Y-65.285
X134.772Y-63.873
X134.772Y-68.273
X134.785Y-118.365
X134.835Y-117.525
X134.895Y-97.845
X134.9Y-94.25
X134.975Y-124.825
X135.493Y-60.525
X135.635Y-120.305
X135.785Y-81.135
X135.813Y-63.873
X135.813Y-68.273
X135.835Y-108.205
X135.843Y-131.1
X135.843Y-135.5
X135.845Y-108.682
X135.845Y-109.158
X135.845Y-109.635
X136.285Y-134.005
X136.335Y-95.82
X136.37Y-131.1
X136.37Y-135.5
X136.372Y-63.873
X136.372Y-68.273
X136.385Y-74.155
X136.425Y-118.365
X136.435Y-65.105
X136.435Y-118.905
X136.475Y-99.105
X136.705Y-102.445
X136.755Y-105.825
X136.835Y-72.655
X136.875Y-118.385
X136.895Y-69.445
X137.025Y-93.4
X137.045Y-76.985
X137.11Y-95.175
X137.24Y-109.755
X137.285Y-116.755
X137.413Y-63.873
X137.413Y-68.273
X137.635Y-82.835
X137.779Y-60.525
X137.805Y-64.535
X137.81Y-108.1
X137.845Y-110.365
X137.895Y-134.085
X137.945Y-112.715
X137.972Y-63.873
X137.972Y-68.273
X138.243Y-135.5
X138.315Y-89.61
X138.335Y-74.105
X138.38Y-109.81
X138.415Y-76.065
X138.445Y-112.715
X138.645Y-63.885
X138.77Y-135.5
X138.8Y-70.3
X138.835Y-141.205
X138.845Y-69.145
X138.935Y-112.705
X138.95Y-96.7
X138.95Y-97.84
X138.95Y-98.98
X138.95Y-100.12
X138.95Y-101.26
X138.95Y-103.54
X138.95Y-104.68
X138.95Y-105.82
X138.95Y-106.96
X138.95Y-110.38
X138.96Y-108.1
X139.35Y-70.325
X139.46Y-114.14
X139.52Y-97.27
X139.52Y-98.41
X139.52Y-100.69
X139.52Y-101.83
X139.52Y-104.11
X139.52Y-105.25
X139.52Y-107.53
X139.52Y-109.81
X139.545Y-102.97
X139.595Y-84.805
X139.813Y-63.873
X139.843Y-131.1
X139.843Y-135.5
X139.91Y-114.14
X139.935Y-109.255
X140.065Y-60.525
X140.09Y-97.84
X140.09Y-98.98
X140.09Y-100.12
X140.09Y-101.26
X140.09Y-102.4
X140.09Y-103.54
X140.09Y-105.82
X140.09Y-106.96
X140.245Y-108.1
X140.25Y-92.45
X140.37Y-114.145
X140.37Y-131.1
X140.37Y-135.5
X140.372Y-63.873
X140.485Y-141.105
X140.66Y-96.13
X140.66Y-97.27
X140.66Y-98.41
X140.66Y-100.69
X140.66Y-101.83
X140.66Y-102.97
X140.66Y-104.11
X140.66Y-105.25
X140.66Y-106.39
X140.66Y-107.53
X140.845Y-69.145
X140.845Y-71.295
X141.115Y-86.765
X141.19Y-65.495
X141.23Y-98.98
X141.23Y-100.12
X141.23Y-103.54
X141.23Y-104.68
X141.245Y-105.81
X141.295Y-111.46
X141.315Y-111.0
X141.335Y-116.005
X141.385Y-72.705
X141.413Y-63.873
X141.413Y-68.273
X141.535Y-112.03
X141.585Y-122.155
X141.62Y-115.42
X141.625Y-112.85
X141.735Y-114.655
X141.745Y-65.495
X141.78Y-110.77
X141.8Y-96.13
X141.8Y-97.27
X141.8Y-99.55
X141.8Y-100.69
X141.8Y-101.83
X141.818Y-93.925
X141.972Y-63.873
X141.972Y-68.273
X142.125Y-134.205
X142.235Y-64.68
X142.243Y-135.5
X142.243Y-131.1
X142.335Y-83.785
X142.351Y-60.525
X142.37Y-96.7
X142.37Y-97.84
X142.37Y-98.98
X142.37Y-102.4
X142.37Y-103.54
X142.37Y-104.68
X142.37Y-105.82
X142.37Y-106.96
X142.485Y-80.105
X142.685Y-82.115
X142.77Y-135.5
X142.77Y-131.1
X142.94Y-96.13
X142.94Y-97.27
X142.94Y-100.69
X142.94Y-101.83
X142.94Y-102.97
X142.94Y-106.39
X142.94Y-108.67
X143.135Y-74.455
X143.135Y-123.055
X143.205Y-63.835
X143.285Y-122.405
X143.51Y-96.7
X143.51Y-97.84
X143.51Y-98.98
X143.51Y-104.68
X143.523Y-107.965
X143.813Y-63.873
X143.813Y-68.273
X143.905Y-70.175
X144.08Y-96.13
X144.08Y-97.27
X144.08Y-108.67
X144.089Y-107.484
X144.315Y-70.625
X144.315Y-71.205
X144.372Y-63.873
X144.372Y-68.273
X144.385Y-121.605
X144.637Y-60.525
X144.643Y-131.1
X144.643Y-135.5
X144.65Y-98.98
X144.65Y-96.7
X144.65Y-97.84
X144.65Y-106.96
X144.65Y-108.1
X144.725Y-112.275
X145.145Y-65.245
X145.17Y-131.1
X145.17Y-135.5
X145.22Y-96.13
X145.22Y-97.27
X145.22Y-100.69
X145.22Y-101.83
X145.22Y-106.39
X145.22Y-108.67
X145.22Y-102.97
X145.225Y-111.025
X145.233Y-112.275
X145.235Y-114.055
X145.275Y-103.925
X145.285Y-76.545
X145.3Y-92.025
X145.413Y-63.873
X145.615Y-130.065
X145.695Y-65.245
X145.725Y-120.295
X145.79Y-96.7
X145.79Y-105.82
X145.79Y-106.96
X145.79Y-108.1
X145.795Y-97.825
X145.895Y-125.595
X145.972Y-63.873
X146.176Y-68.655
X146.255Y-134.185
X146.327Y-127.075
X146.36Y-96.13
X146.36Y-97.27
X146.36Y-99.55
X146.36Y-107.53
X146.36Y-108.67
X146.905Y-63.935
X146.93Y-96.7
X146.93Y-97.84
X146.93Y-106.96
X146.93Y-108.1
X147.043Y-131.1
X147.043Y-135.5
X147.315Y-101.83
X147.5Y-96.13
X147.5Y-97.27
X147.5Y-99.55
X147.5Y-102.97
X147.5Y-105.25
X147.5Y-106.39
X147.5Y-107.53
X147.5Y-108.67
X147.505Y-104.11
X147.57Y-131.1
X147.57Y-135.5
X147.79Y-69.647
X147.795Y-65.225
X147.813Y-63.873
X148.07Y-96.7
X148.07Y-97.84
X148.07Y-103.445
X148.07Y-106.96
X148.07Y-108.1
X148.125Y-126.045
X148.372Y-63.873
X148.4Y-69.647
X148.545Y-134.175
X148.555Y-70.625
X148.605Y-100.675
X148.64Y-93.85
X148.64Y-96.13
X148.64Y-97.27
X148.64Y-98.41
X148.64Y-99.55
X148.64Y-107.53
X148.64Y-108.67
X148.655Y-101.995
X148.685Y-129.185
X148.935Y-111.645
X148.975Y-114.05
X148.975Y-125.255
X149.022Y-113.147
X149.21Y-96.7
X149.21Y-101.26
X149.21Y-103.54
X149.21Y-108.1
X149.413Y-63.873
X149.413Y-68.273
X149.443Y-131.1
X149.443Y-135.5
X149.675Y-105.255
X149.721Y-60.525
X149.78Y-96.13
X149.78Y-97.27
X149.78Y-98.41
X149.78Y-99.55
X149.78Y-100.69
X149.78Y-101.83
X149.78Y-102.97
X149.78Y-108.67
X149.785Y-104.1
X149.805Y-71.795
X149.805Y-75.035
X149.815Y-82.835
X149.838Y-78.93
X149.97Y-131.1
X149.97Y-135.5
X149.972Y-63.873
X149.972Y-68.273
X150.165Y-98.98
X150.35Y-96.7
X150.35Y-97.84
X150.35Y-100.12
X150.35Y-101.26
X150.35Y-102.4
X150.35Y-103.54
X150.35Y-104.68
X150.35Y-105.82
X150.35Y-106.96
X150.453Y-127.086
X150.535Y-124.255
X150.555Y-123.355
X150.585Y-122.555
X150.605Y-125.655
X150.775Y-98.41
X150.845Y-123.845
X150.865Y-64.705
X150.893Y-63.795
X150.92Y-96.13
X150.92Y-97.27
X150.92Y-99.55
X150.92Y-100.69
X150.92Y-101.83
X150.92Y-102.97
X150.92Y-104.11
X150.92Y-105.25
X150.92Y-106.39
X150.92Y-107.53
X150.925Y-111.0
X151.47Y-96.74
X151.49Y-100.12
X151.49Y-102.4
X151.49Y-103.54
X151.49Y-104.68
X151.49Y-106.96
X151.49Y-108.1
X151.49Y-109.24
X151.62Y-105.81
X151.675Y-99.045
X151.813Y-63.873
X151.813Y-68.273
X151.945Y-115.445
X152.007Y-60.525
X152.06Y-93.85
X152.06Y-94.99
X152.06Y-110.95
X152.065Y-119.875
X152.372Y-63.873
X152.372Y-68.273
X152.875Y-93.7
X152.995Y-64.945
X153.175Y-109.805
X153.245Y-121.085
X153.285Y-94.57
X153.345Y-76.445
X153.345Y-79.585
X153.395Y-82.935
X153.413Y-63.873
X153.413Y-68.273
X153.435Y-74.195
X153.475Y-127.195
X153.485Y-71.855
X153.645Y-104.28
X153.795Y-135.195
X153.972Y-63.873
X153.972Y-68.273
X154.048Y-130.74
X154.293Y-60.525
X154.395Y-68.935
X154.395Y-100.805
X154.535Y-124.685
X154.565Y-99.465
X154.755Y-107.53
X154.893Y-63.795
X154.995Y-130.945
X155.445Y-64.945
X155.555Y-76.195
X155.695Y-130.945
X155.813Y-63.873
X155.813Y-68.273
X156.175Y-99.845
X156.372Y-63.873
X156.372Y-68.273
X156.579Y-60.525
X157.405Y-134.705
X157.413Y-63.873
X157.413Y-68.273
X157.755Y-112.865
X157.765Y-110.885
X157.945Y-90.605
X157.972Y-63.873
X157.972Y-68.273
X158.095Y-133.795
X158.725Y-75.685
X158.725Y-78.805
X158.765Y-73.105
X158.865Y-60.525
X158.9Y-133.8
X158.965Y-91.555
X159.013Y-63.873
X159.013Y-68.273
X159.015Y-65.045
X159.405Y-88.04
X159.465Y-69.505
X159.572Y-63.873
X159.572Y-68.273
X159.695Y-133.795
X159.885Y-127.245
X160.495Y-135.505
X160.613Y-63.873
X160.613Y-68.273
X160.975Y-87.445
X161.145Y-124.435
X161.151Y-60.525
X161.172Y-63.873
X161.172Y-68.273
X161.295Y-135.505
X161.645Y-78.805
X161.685Y-70.605
X161.705Y-75.735
X161.715Y-73.095
X162.093Y-63.795
X162.095Y-135.505
X162.098Y-65.645
X162.925Y-64.775
X163.085Y-97.015
X163.245Y-127.094
X163.437Y-60.525
X163.445Y-74.34
X163.515Y-124.545
X163.525Y-84.405
X163.535Y-82.935
X163.545Y-69.165
X163.545Y-70.24
X163.575Y-99.845
X163.585Y-102.285
X163.595Y-72.565
X163.605Y-101.465
X163.625Y-85.8
X163.645Y-103.965
X163.725Y-107.28
X163.881Y-106.49
X164.335Y-87.455
X164.385Y-69.248
X164.41Y-68.248
X164.495Y-66.825
X164.665Y-109.285
X164.715Y-110.375
X164.836Y-102.86
X164.855Y-132.355
X164.875Y-101.195
X165.285Y-112.635
X165.525Y-61.525
X165.531Y-108.395
X165.535Y-64.105
X165.631Y-105.28
X165.636Y-102.06
X165.636Y-102.9
X165.638Y-106.102
X165.659Y-101.311
X165.701Y-104.395
X166.185Y-63.905
X166.331Y-104.555
X166.406Y-105.305
X166.436Y-98.1
X166.506Y-106.18
X166.508Y-102.172
X166.65Y-81.625
X166.65Y-84.354
X166.67Y-85.718
X166.695Y-75.295
X166.695Y-75.728
X166.695Y-76.162
X166.695Y-76.595
X166.735Y-83.25
X166.81Y-79.98
X166.825Y-78.9
X167.133Y-101.997
X167.359Y-68.135
X167.455Y-101.515
X167.485Y-83.6
X167.525Y-85.1
X167.535Y-82.305
X167.556Y-104.405
X167.585Y-74.555
X167.806Y-105.83
X167.906Y-102.805
X168.105Y-66.105
X168.431Y-103.18
X168.665Y-60.935
X168.715Y-91.445
X168.745Y-107.035
X169.12Y-99.259
X169.235Y-137.145
X169.495Y-66.105
X169.636Y-102.9
X169.645Y-68.135
X170.285Y-97.095
X170.321Y-103.775
X170.396Y-100.475
X170.396Y-101.3
X170.396Y-102.1
X170.396Y-104.5
X170.411Y-106.115
X170.436Y-98.06
X170.436Y-102.9
X170.595Y-68.395
X170.915Y-61.955
X170.925Y-90.435
X170.975Y-80.264
X170.975Y-82.975
X171.135Y-63.895
X171.166Y-103.73
X171.196Y-99.7
X171.196Y-101.3
X171.205Y-109.305
X171.236Y-105.26
X171.275Y-61.365
X171.485Y-128.55
X171.59Y-67.15
X171.59Y-68.421
X171.685Y-124.985
X171.725Y-113.525
X171.985Y-128.55
X172.085Y-131.2
X172.105Y-108.08
X172.145Y-106.305
X172.153Y-104.88
X172.335Y-71.135
X172.345Y-70.095
X172.345Y-72.196
X172.395Y-105.735
X172.455Y-101.68
X172.465Y-92.305
X172.495Y-117.435
X172.515Y-102.48
X172.605Y-97.68
X172.945Y-70.095
X173.095Y-105.245
X173.114Y-68.526
X173.145Y-67.145
X173.285Y-75.005
X173.285Y-75.955
X173.335Y-74.255
X173.38Y-73.51
X173.635Y-110.863
X173.75Y-84.85
X173.835Y-78.955
X173.835Y-81.705
X174.065Y-63.385
X174.065Y-107.377
X174.085Y-131.95
X174.125Y-99.855
X174.165Y-102.885
X174.195Y-109.293
X174.425Y-99.185
X174.595Y-68.545
X174.745Y-121.705
X174.759Y-78.185
X174.795Y-108.935
X174.835Y-126.015
X174.885Y-115.215
X175.135Y-103.811
X175.375Y-87.695
X175.735Y-84.031
X175.745Y-69.345
X175.995Y-136.945
X176.185Y-60.545
X176.265Y-112.275
X176.355Y-103.085
X176.485Y-99.405
X176.755Y-108.225
X176.765Y-125.165
X177.045Y-78.185
X177.145Y-62.185
X177.165Y-64.245
X177.355Y-95.465
X177.745Y-118.615
X177.845Y-92.129
X178.089Y-68.265
X178.255Y-81.735
X178.285Y-130.85
X178.285Y-131.3
X178.345Y-61.875
X178.455Y-63.545
X178.485Y-134.85
X179.035Y-134.85
X179.059Y-78.995
X179.119Y-74.585
X179.315Y-122.415
X179.785Y-63.535
X179.87Y-66.055
X179.87Y-66.605
X179.925Y-137.575
X180.285Y-65.8
X180.32Y-66.29
X180.375Y-68.265
X180.525Y-64.315
X180.785Y-77.165
X180.785Y-77.715
X181.2Y-76.91
X181.235Y-77.4
X181.345Y-78.995
X181.405Y-74.585
X181.735Y-94.35
X181.785Y-65.205
X182.485Y-131.05
X182.585Y-127.05
X182.585Y-127.505
X182.65Y-86.575
X182.735Y-130.3
X183.085Y-127.05
X183.085Y-127.505
X183.184Y-67.647
X183.475Y-85.555
X184.42Y-87.195
X184.435Y-88.655
X184.535Y-62.605
X184.535Y-122.55
X184.735Y-90.15
X185.05Y-85.55
X185.575Y-70.725
X185.85Y-93.88
X186.085Y-88.605
X186.135Y-124.605
X186.135Y-125.555
X186.415Y-130.045
X186.425Y-129.585
X186.435Y-129.115
X186.655Y-63.795
X186.825Y-137.845
X186.855Y-76.375
X187.145Y-78.995
X187.35Y-81.875
X187.375Y-107.563
X187.375Y-112.135
X187.555Y-92.973
X187.555Y-97.545
X187.555Y-102.117
X187.625Y-71.295
X187.625Y-71.905
X187.745Y-74.355
X187.969Y-83.67
X187.969Y-84.28
X188.205Y-87.345
X188.585Y-137.825
X188.845Y-60.835
X189.015Y-137.275
X189.355Y-77.0
X189.385Y-65.515
X189.405Y-64.265
X189.635Y-134.3
X189.715Y-134.765
X189.825Y-84.725
X189.848Y-70.295
X189.848Y-70.905
X189.975Y-72.325
X189.975Y-81.725
X190.034Y-82.67
X190.034Y-83.28
X190.035Y-134.0
X190.1Y-69.675
X190.135Y-134.5
X190.385Y-130.005
X190.735Y-131.005
X190.805Y-90.675
X190.805Y-92.961
X190.935Y-125.809
X191.131Y-60.835
X191.211Y-134.248
X191.261Y-132.598
X191.4Y-85.375
X191.68Y-78.115
X191.71Y-76.025
X193.115Y-90.675
X193.115Y-92.961
X193.225Y-77.545
X193.695Y-119.165
X193.865Y-69.555
X193.865Y-71.841
X194.735Y-119.155
X195.435Y-106.855
X195.617Y-64.965
X195.617Y-67.251
X195.617Y-69.537
X195.617Y-71.823
X195.617Y-73.855
X195.617Y-76.141
X195.617Y-78.427
X195.617Y-80.713
X195.617Y-82.999
X195.617Y-85.285
X195.617Y-87.571
X195.617Y-90.619
X195.617Y-92.905
X195.617Y-95.191
X195.617Y-97.477
X195.617Y-99.763
X195.617Y-102.049
X195.617Y-104.335
X195.635Y-118.655
X195.885Y-120.055
X195.885Y-122.341
X195.885Y-124.627
X195.885Y-126.913
X195.885Y-129.199
X195.885Y-131.485
X195.885Y-133.771
T2
X113.695Y-141.615
X114.055Y-58.575
X118.029Y-141.615
X122.363Y-141.615
X123.095Y-58.855
X125.461Y-58.575
X126.697Y-141.615
X131.031Y-141.615
X131.164Y-58.575
X131.495Y-124.515
X134.745Y-121.335
X134.755Y-129.675
X134.905Y-130.725
X135.365Y-141.615
X136.866Y-58.575
X137.965Y-130.905
X139.415Y-125.155
X140.045Y-123.745
X140.345Y-128.085
X142.569Y-58.575
X144.195Y-141.845
X147.225Y-141.835
X148.272Y-58.575
X150.175Y-141.875
X153.245Y-141.805
X153.975Y-58.575
X161.625Y-58.765
X166.005Y-58.765
X166.775Y-141.845
X189.885Y-58.925
X189.965Y-141.535
T4
X114.045Y-60.285
X114.545Y-126.705
X114.545Y-129.355
X114.545Y-132.005
X116.585Y-60.285
X117.085Y-126.705
X117.085Y-129.355
X117.085Y-132.005
X119.125Y-60.285
X122.875Y-115.955
X123.045Y-111.505
X124.005Y-119.115
X124.005Y-123.427
X125.415Y-115.955
X125.585Y-111.505
X126.545Y-119.115
X126.545Y-123.427
X135.825Y-128.405
X138.365Y-128.405
X157.305Y-122.555
X159.845Y-122.555
X162.575Y-122.54
X165.115Y-122.54
X169.295Y-141.205
X171.185Y-58.865
X171.835Y-141.205
X173.725Y-58.865
X174.485Y-141.205
X177.025Y-141.205
X177.765Y-58.865
X179.695Y-141.185
X180.305Y-58.865
X182.235Y-141.185
X184.345Y-58.865
X184.895Y-141.185
X186.885Y-58.865
X187.435Y-141.185
T5
X190.53Y-94.854
X190.53Y-97.394
X190.53Y-99.934
X190.53Y-102.474
X190.53Y-105.014
X190.53Y-107.554
X190.53Y-110.094
X190.53Y-112.634
X190.53Y-115.174
X190.53Y-117.714
X193.07Y-94.854
X193.07Y-97.394
X193.07Y-99.934
X193.07Y-102.474
X193.07Y-105.014
X193.07Y-107.554
X193.07Y-110.094
X193.07Y-112.634
X193.07Y-115.174
X193.07Y-117.714
T6
X157.585Y-59.15
X177.085Y-120.6
T7
X109.945Y-140.045
X110.125Y-60.348
X193.725Y-60.43
X193.725Y-139.83
T3
G00X190.1Y-66.78
M15
G01X189.1Y-66.78
M16
G05
G00X190.1Y-75.42
M15
G01X189.1Y-75.42
M16
G05
G00X190.1Y-79.155
M15
G01X189.1Y-79.155
M16
G05
G00X190.1Y-87.795
M15
G01X189.1Y-87.795
M16
G05
G00X194.13Y-66.78
M15
G01X193.43Y-66.78
M16
G05
G00X194.13Y-75.42
M15
G01X193.43Y-75.42
M16
G05
G00X194.13Y-79.155
M15
G01X193.43Y-79.155
M16
G05
G00X194.13Y-87.795
M15
G01X193.43Y-87.795
M16
G05
T0
M30
