G04 #@! TF.GenerationSoftware,KiCad,Pcbnew,7.0.2*
G04 #@! TF.CreationDate,2023-07-08T17:01:21+08:00*
G04 #@! TF.ProjectId,HPM1500_DDR3_CORE_RevB,48504d31-3530-4305-9f44-4452335f434f,rev?*
G04 #@! TF.SameCoordinates,Original*
G04 #@! TF.FileFunction,Soldermask,Top*
G04 #@! TF.FilePolarity,Negative*
%FSLAX46Y46*%
G04 Gerber Fmt 4.6, Leading zero omitted, Abs format (unit mm)*
G04 Created by KiCad (PCBNEW 7.0.2) date 2023-07-08 17:01:21*
%MOMM*%
%LPD*%
G01*
G04 APERTURE LIST*
G04 Aperture macros list*
%AMRoundRect*
0 Rectangle with rounded corners*
0 $1 Rounding radius*
0 $2 $3 $4 $5 $6 $7 $8 $9 X,Y pos of 4 corners*
0 Add a 4 corners polygon primitive as box body*
4,1,4,$2,$3,$4,$5,$6,$7,$8,$9,$2,$3,0*
0 Add four circle primitives for the rounded corners*
1,1,$1+$1,$2,$3*
1,1,$1+$1,$4,$5*
1,1,$1+$1,$6,$7*
1,1,$1+$1,$8,$9*
0 Add four rect primitives between the rounded corners*
20,1,$1+$1,$2,$3,$4,$5,0*
20,1,$1+$1,$4,$5,$6,$7,0*
20,1,$1+$1,$6,$7,$8,$9,0*
20,1,$1+$1,$8,$9,$2,$3,0*%
G04 Aperture macros list end*
%ADD10RoundRect,0.135000X-0.135000X-0.185000X0.135000X-0.185000X0.135000X0.185000X-0.135000X0.185000X0*%
%ADD11RoundRect,0.200000X0.200000X0.275000X-0.200000X0.275000X-0.200000X-0.275000X0.200000X-0.275000X0*%
%ADD12RoundRect,0.135000X-0.185000X0.135000X-0.185000X-0.135000X0.185000X-0.135000X0.185000X0.135000X0*%
%ADD13O,0.889000X1.143000*%
%ADD14C,0.635000*%
%ADD15RoundRect,0.250000X0.262500X0.450000X-0.262500X0.450000X-0.262500X-0.450000X0.262500X-0.450000X0*%
%ADD16RoundRect,0.200000X-0.200000X-0.275000X0.200000X-0.275000X0.200000X0.275000X-0.200000X0.275000X0*%
%ADD17RoundRect,0.150000X0.650000X0.150000X-0.650000X0.150000X-0.650000X-0.150000X0.650000X-0.150000X0*%
%ADD18RoundRect,0.050800X-0.625000X-0.350000X0.625000X-0.350000X0.625000X0.350000X-0.625000X0.350000X0*%
%ADD19C,1.700000*%
%ADD20O,1.700000X1.700000*%
%ADD21RoundRect,0.200000X-0.275000X0.200000X-0.275000X-0.200000X0.275000X-0.200000X0.275000X0.200000X0*%
%ADD22R,0.750000X0.400000*%
%ADD23RoundRect,0.135000X0.185000X-0.135000X0.185000X0.135000X-0.185000X0.135000X-0.185000X-0.135000X0*%
%ADD24C,1.625600*%
%ADD25C,0.500000*%
%ADD26RoundRect,0.150000X-0.512500X-0.150000X0.512500X-0.150000X0.512500X0.150000X-0.512500X0.150000X0*%
%ADD27RoundRect,0.050800X-0.350000X0.625000X-0.350000X-0.625000X0.350000X-0.625000X0.350000X0.625000X0*%
%ADD28C,2.001600*%
%ADD29RoundRect,0.050800X0.599450X-0.849650X0.599450X0.849650X-0.599450X0.849650X-0.599450X-0.849650X0*%
%ADD30RoundRect,0.135000X0.135000X0.185000X-0.135000X0.185000X-0.135000X-0.185000X0.135000X-0.185000X0*%
%ADD31RoundRect,0.050800X-0.400050X0.400050X-0.400050X-0.400050X0.400050X-0.400050X0.400050X0.400050X0*%
%ADD32R,0.550000X1.000000*%
%ADD33R,1.400000X0.300000*%
%ADD34O,1.143000X0.889000*%
%ADD35RoundRect,0.250000X-0.262500X-0.450000X0.262500X-0.450000X0.262500X0.450000X-0.262500X0.450000X0*%
%ADD36RoundRect,0.200000X0.275000X-0.200000X0.275000X0.200000X-0.275000X0.200000X-0.275000X-0.200000X0*%
%ADD37R,1.700000X1.700000*%
%ADD38C,4.500000*%
%ADD39RoundRect,0.250000X-1.075000X0.375000X-1.075000X-0.375000X1.075000X-0.375000X1.075000X0.375000X0*%
%ADD40R,1.168400X1.168400*%
%ADD41R,0.914400X1.168400*%
%ADD42R,0.950000X1.150000*%
%ADD43R,2.120000X1.400000*%
%ADD44C,0.421600*%
%ADD45O,0.421600X0.301600*%
%ADD46O,0.301600X0.421600*%
%ADD47RoundRect,0.050800X-0.900450X-0.849650X0.900450X-0.849650X0.900450X0.849650X-0.900450X0.849650X0*%
%ADD48RoundRect,0.050800X-0.549900X-0.750550X0.549900X-0.750550X0.549900X0.750550X-0.549900X0.750550X0*%
%ADD49C,0.350000*%
%ADD50R,0.600000X1.070000*%
%ADD51R,1.000000X0.550000*%
%ADD52RoundRect,0.050800X-0.199400X0.299700X-0.199400X-0.299700X0.199400X-0.299700X0.199400X0.299700X0*%
%ADD53RoundRect,0.050800X-1.000000X-0.450000X1.000000X-0.450000X1.000000X0.450000X-1.000000X0.450000X0*%
%ADD54C,0.700000*%
%ADD55O,2.101600X1.301600*%
%ADD56RoundRect,0.050000X0.650000X-0.150000X0.650000X0.150000X-0.650000X0.150000X-0.650000X-0.150000X0*%
%ADD57R,0.508000X1.016000*%
%ADD58O,0.508000X1.016000*%
%ADD59C,0.800000*%
%ADD60C,0.762000*%
%ADD61C,1.200000*%
G04 APERTURE END LIST*
D10*
X146917000Y-127075000D03*
X147937000Y-127075000D03*
D11*
X169873000Y-80264285D03*
X168223000Y-80264285D03*
D12*
X175765000Y-71973000D03*
X175765000Y-72993000D03*
D13*
X165950000Y-78900000D03*
X164426000Y-78900000D03*
D14*
X173635000Y-109285000D03*
X173635000Y-110301000D03*
D15*
X169337500Y-75925000D03*
X167512500Y-75925000D03*
D11*
X166033000Y-85721425D03*
X164383000Y-85721425D03*
D16*
X171563009Y-80250000D03*
X173213009Y-80250000D03*
D17*
X147225000Y-68505000D03*
X147225000Y-67235000D03*
X147225000Y-65965000D03*
X147225000Y-64695000D03*
X140025000Y-64695000D03*
X140025000Y-65965000D03*
X140025000Y-67235000D03*
X140025000Y-68505000D03*
D18*
X147509450Y-130001200D03*
X147509450Y-128101200D03*
X145509450Y-129051200D03*
D19*
X179695000Y-141185000D03*
D20*
X182235000Y-141185000D03*
D12*
X171750000Y-62890000D03*
X171750000Y-63910000D03*
D14*
X163075000Y-97625000D03*
X163075000Y-98641000D03*
X184576100Y-93420000D03*
X185592100Y-93420000D03*
D21*
X120645000Y-115045000D03*
X120645000Y-116695000D03*
D19*
X114545000Y-129355000D03*
D20*
X117085000Y-129355000D03*
D22*
X183350000Y-83275000D03*
X181500000Y-83275000D03*
X181500000Y-82475000D03*
X183350000Y-82475000D03*
D12*
X177755000Y-60845000D03*
X177755000Y-61865000D03*
D11*
X139560000Y-126125000D03*
X137910000Y-126125000D03*
D23*
X179145000Y-61865000D03*
X179145000Y-60845000D03*
D14*
X163176000Y-108552000D03*
X163176000Y-109568000D03*
X164422702Y-69703100D03*
X163406702Y-69703100D03*
X185737000Y-77015000D03*
X186753000Y-77015000D03*
D24*
X193070000Y-117714000D03*
X190530000Y-117714000D03*
X193070000Y-115174000D03*
X190530000Y-115174000D03*
X193070000Y-112634000D03*
X190530000Y-112634000D03*
X193070000Y-110094000D03*
X190530000Y-110094000D03*
X193070000Y-107554000D03*
X190530000Y-107554000D03*
X193070000Y-105014000D03*
X190530000Y-105014000D03*
X193070000Y-102474000D03*
X190530000Y-102474000D03*
X193070000Y-99934000D03*
X190530000Y-99934000D03*
X193070000Y-97394000D03*
X190530000Y-97394000D03*
X193070000Y-94854000D03*
X190530000Y-94854000D03*
D25*
X123805000Y-66675000D03*
D14*
X173605000Y-102891000D03*
X173605000Y-101875000D03*
D12*
X175765000Y-70015000D03*
X175765000Y-71035000D03*
D25*
X125385000Y-70640000D03*
D26*
X173112500Y-61475000D03*
X173112500Y-62425000D03*
X173112500Y-63375000D03*
X175387500Y-63375000D03*
X175387500Y-61475000D03*
D14*
X173655000Y-106581000D03*
X173655000Y-105565000D03*
X169890000Y-71983000D03*
X169890000Y-70967000D03*
D27*
X182685000Y-63535000D03*
X184585000Y-63535000D03*
X183635000Y-61535000D03*
D28*
X157585000Y-59150000D03*
D29*
X180136100Y-136106100D03*
X180136100Y-129303900D03*
X177133900Y-129303900D03*
X177133900Y-136106100D03*
D12*
X151027000Y-126057000D03*
X151027000Y-127077000D03*
D14*
X163105000Y-101117000D03*
X163105000Y-102133000D03*
D30*
X165575000Y-127635000D03*
X164555000Y-127635000D03*
D14*
X164447702Y-75903100D03*
X163431702Y-75903100D03*
D31*
X119584100Y-128105000D03*
X121285900Y-128105000D03*
X119584100Y-129444425D03*
X121285900Y-129444425D03*
D14*
X189727000Y-130685000D03*
X190743000Y-130685000D03*
D12*
X177935000Y-62875000D03*
X177935000Y-63895000D03*
D19*
X174485000Y-141205000D03*
D20*
X177025000Y-141205000D03*
D25*
X130435000Y-67505000D03*
D14*
X176725000Y-61833000D03*
X176725000Y-60817000D03*
X173645000Y-107377000D03*
X173645000Y-108393000D03*
D21*
X121720000Y-122825000D03*
X121720000Y-124475000D03*
D14*
X187395000Y-69001000D03*
X187395000Y-67985000D03*
D15*
X184385000Y-128449000D03*
X182560000Y-128449000D03*
D14*
X164378000Y-68765000D03*
X163362000Y-68765000D03*
D11*
X169873000Y-82992855D03*
X168223000Y-82992855D03*
D30*
X179135000Y-127705000D03*
X178115000Y-127705000D03*
D14*
X186385000Y-89247000D03*
X186385000Y-90263000D03*
D32*
X186935000Y-129603000D03*
X187885000Y-129603000D03*
X188835000Y-129603000D03*
X188835000Y-126803000D03*
X187885000Y-126803000D03*
X186935000Y-126803000D03*
D33*
X181675000Y-85575000D03*
X181675000Y-86075000D03*
X181675000Y-86575000D03*
X181675000Y-87075000D03*
X181675000Y-87575000D03*
X186075000Y-87575000D03*
X186075000Y-87075000D03*
X186075000Y-86575000D03*
X186075000Y-86075000D03*
X186075000Y-85575000D03*
D14*
X184125000Y-89192000D03*
X184125000Y-90208000D03*
D10*
X186675000Y-125563000D03*
X187695000Y-125563000D03*
D34*
X124710000Y-128467000D03*
X124710000Y-126943000D03*
D35*
X122112500Y-109155000D03*
X123937500Y-109155000D03*
D36*
X127285000Y-128530000D03*
X127285000Y-126880000D03*
D13*
X171626009Y-85764285D03*
X173150009Y-85764285D03*
D14*
X163106000Y-103292000D03*
X163106000Y-104308000D03*
D37*
X165115000Y-122540000D03*
D20*
X162575000Y-122540000D03*
D19*
X114545000Y-126705000D03*
D20*
X117085000Y-126705000D03*
D25*
X165216100Y-97680000D03*
X166016000Y-97680000D03*
X166816100Y-97680000D03*
X170015900Y-97680000D03*
X170816000Y-97680000D03*
X171615900Y-97680000D03*
X165216100Y-98480100D03*
X166016000Y-98480100D03*
X166816100Y-98480100D03*
X170015900Y-98480100D03*
X170816000Y-98480100D03*
X171615900Y-98480100D03*
X165216100Y-99280000D03*
X166016000Y-99280000D03*
X166816100Y-99280000D03*
X170015900Y-99280000D03*
X170816000Y-99280000D03*
X171615900Y-99280000D03*
X165216100Y-100080100D03*
X166016000Y-100080100D03*
X166816100Y-100080100D03*
X170015900Y-100080100D03*
X170816000Y-100080100D03*
X171615900Y-100080100D03*
X165216100Y-100879900D03*
X166016000Y-100879900D03*
X166816100Y-100879900D03*
X170015900Y-100879900D03*
X170816000Y-100879900D03*
X171615900Y-100879900D03*
X165216100Y-101680000D03*
X166016000Y-101680000D03*
X166816100Y-101680000D03*
X170015900Y-101680000D03*
X170816000Y-101680000D03*
X171615900Y-101680000D03*
X165216100Y-102480100D03*
X166016000Y-102480100D03*
X166816100Y-102480100D03*
X170015900Y-102480100D03*
X170816000Y-102480100D03*
X171615900Y-102480100D03*
X165216100Y-103280000D03*
X166016000Y-103280000D03*
X166816100Y-103280000D03*
X170015900Y-103280000D03*
X170816000Y-103280000D03*
X171615900Y-103280000D03*
X165216100Y-104080100D03*
X166016000Y-104080100D03*
X166816100Y-104080100D03*
X170015900Y-104080100D03*
X170816000Y-104080100D03*
X171615900Y-104080100D03*
X165216100Y-104879900D03*
X166016000Y-104879900D03*
X166816100Y-104879900D03*
X170015900Y-104879900D03*
X170816000Y-104879900D03*
X171615900Y-104879900D03*
X165216100Y-105680000D03*
X166016000Y-105680000D03*
X166816100Y-105680000D03*
X170015900Y-105680000D03*
X170816000Y-105680000D03*
X171615900Y-105680000D03*
X165216100Y-106480100D03*
X166016000Y-106480100D03*
X166816100Y-106480100D03*
X170015900Y-106480100D03*
X170816000Y-106480100D03*
X171615900Y-106480100D03*
X165216100Y-107279900D03*
X166016000Y-107279900D03*
X166816100Y-107279900D03*
X170015900Y-107279900D03*
X170816000Y-107279900D03*
X171615900Y-107279900D03*
X165216100Y-108080000D03*
X166016000Y-108080000D03*
X166816100Y-108080000D03*
X170015900Y-108080000D03*
X170816000Y-108080000D03*
X171615900Y-108080000D03*
X165216100Y-108879900D03*
X166016000Y-108879900D03*
X166816100Y-108879900D03*
X170015900Y-108879900D03*
X170816000Y-108879900D03*
X171615900Y-108879900D03*
X165216100Y-109680000D03*
X166016000Y-109680000D03*
X166816100Y-109680000D03*
X170015900Y-109680000D03*
X170816000Y-109680000D03*
X171615900Y-109680000D03*
D38*
X193725000Y-60430000D03*
D13*
X185723000Y-78135000D03*
X187247000Y-78135000D03*
D16*
X171563009Y-84400000D03*
X173213009Y-84400000D03*
D39*
X167905000Y-70385000D03*
X167905000Y-73185000D03*
D40*
X186425500Y-81882800D03*
D41*
X184647500Y-81882800D03*
X184647500Y-84067200D03*
X186552500Y-84067200D03*
D11*
X166013000Y-82992855D03*
X164363000Y-82992855D03*
D14*
X174425000Y-98663000D03*
X174425000Y-97647000D03*
D30*
X149078800Y-132383800D03*
X148058800Y-132383800D03*
D13*
X189747000Y-131868000D03*
X191271000Y-131868000D03*
D42*
X184427000Y-68755000D03*
X181043000Y-68755000D03*
D34*
X128585000Y-128467000D03*
X128585000Y-126943000D03*
D25*
X122945000Y-79790000D03*
D38*
X109945000Y-140045000D03*
D31*
X181653200Y-93415000D03*
X183355000Y-93415000D03*
D23*
X151945000Y-114665000D03*
X151945000Y-113645000D03*
D13*
X170873000Y-73555000D03*
X172397000Y-73555000D03*
D14*
X185735000Y-127447000D03*
X185735000Y-128463000D03*
D37*
X184345000Y-58865000D03*
D20*
X186885000Y-58865000D03*
D30*
X172175000Y-127435000D03*
X171155000Y-127435000D03*
D19*
X169295000Y-141205000D03*
D20*
X171835000Y-141205000D03*
D43*
X186745000Y-131572000D03*
X186745000Y-135628000D03*
D11*
X169873000Y-84357140D03*
X168223000Y-84357140D03*
D14*
X119983000Y-79575000D03*
X118967000Y-79575000D03*
D44*
X117885900Y-68545000D03*
D45*
X117885900Y-69045400D03*
X117885900Y-69545800D03*
X117885900Y-70046100D03*
X117885900Y-70546500D03*
X117885900Y-71046900D03*
X117885900Y-71547300D03*
D44*
X117885900Y-72045100D03*
X117885900Y-72545500D03*
X117885900Y-73045900D03*
X117885900Y-73546300D03*
X117885900Y-74046600D03*
X117885900Y-74547000D03*
X117885900Y-75047400D03*
D46*
X117385500Y-68545000D03*
D44*
X117385500Y-69045400D03*
X117385500Y-69545800D03*
X117385500Y-70046100D03*
X117385500Y-70546500D03*
X117385500Y-71046900D03*
X117385500Y-71547300D03*
X117385500Y-72045100D03*
X117385500Y-72545500D03*
X117385500Y-73045900D03*
X117385500Y-73546300D03*
X117385500Y-74046600D03*
X117385500Y-74547000D03*
X117385500Y-75047400D03*
D46*
X116885100Y-68545000D03*
D44*
X116885100Y-69045400D03*
X116885100Y-69545800D03*
X116885100Y-70046100D03*
X116885100Y-70546500D03*
X116885100Y-71046900D03*
X116885100Y-71547300D03*
X116885100Y-72045100D03*
X116885100Y-72545500D03*
X116885100Y-73045900D03*
X116885100Y-73546300D03*
X116885100Y-74046600D03*
X116885100Y-74547000D03*
X116885100Y-75047400D03*
D46*
X116384800Y-68545000D03*
D44*
X116384800Y-69045400D03*
X116384800Y-69545800D03*
X116384800Y-70046100D03*
X116384800Y-74046600D03*
X116384800Y-74547000D03*
X116384800Y-75047400D03*
X115884400Y-68545000D03*
X115884400Y-69045400D03*
X115884400Y-69545800D03*
X115884400Y-70546500D03*
X115884400Y-71046900D03*
X115884400Y-71547300D03*
X115884400Y-72045100D03*
X115884400Y-72545500D03*
X115884400Y-73045900D03*
X115884400Y-74046600D03*
X115884400Y-74547000D03*
X115884400Y-75047400D03*
X115384000Y-68545000D03*
X115384000Y-69045400D03*
X115384000Y-69545800D03*
X115384000Y-70546500D03*
X115384000Y-73045900D03*
X115384000Y-74046600D03*
X115384000Y-74547000D03*
X115384000Y-75047400D03*
X114883600Y-68545000D03*
X114883600Y-69045400D03*
X114883600Y-69545800D03*
X114883600Y-70546500D03*
X114883600Y-73045900D03*
X114883600Y-74046600D03*
X114883600Y-74547000D03*
X114883600Y-75047400D03*
X114385800Y-68545000D03*
X114385800Y-69045400D03*
X114385800Y-69545800D03*
X114385800Y-70546500D03*
X114385800Y-73045900D03*
X114385800Y-74046600D03*
X114385800Y-74547000D03*
X114385800Y-75047400D03*
X113885400Y-68545000D03*
X113885400Y-69045400D03*
X113885400Y-69545800D03*
X113885400Y-70546500D03*
X113885400Y-73045900D03*
X113885400Y-74046600D03*
X113885400Y-74547000D03*
X113885400Y-75047400D03*
X113385000Y-68545000D03*
X113385000Y-69045400D03*
X113385000Y-69545800D03*
X113385000Y-70546500D03*
X113385000Y-71046900D03*
X113385000Y-71547300D03*
X113385000Y-72045100D03*
X113385000Y-72545500D03*
X113385000Y-73045900D03*
X113385000Y-74046600D03*
X113385000Y-74547000D03*
X113385000Y-75047400D03*
X112884600Y-68545000D03*
X112884600Y-69045400D03*
X112884600Y-69545800D03*
X112884600Y-74046600D03*
X112884600Y-74547000D03*
X112884600Y-75047400D03*
D46*
X112384300Y-68545000D03*
D44*
X112384300Y-69045400D03*
X112384300Y-69545800D03*
X112384300Y-70046100D03*
X112384300Y-70546500D03*
X112384300Y-71046900D03*
X112384300Y-71547300D03*
X112384300Y-72045100D03*
X112384300Y-72545500D03*
X112384300Y-73045900D03*
X112384300Y-73546300D03*
X112384300Y-74046600D03*
X112384300Y-74547000D03*
X112384300Y-75047400D03*
D46*
X111883900Y-68545000D03*
D44*
X111883900Y-69045400D03*
X111883900Y-69545800D03*
X111883900Y-70046100D03*
X111883900Y-70546500D03*
X111883900Y-71046900D03*
X111883900Y-71547300D03*
X111883900Y-72045100D03*
X111883900Y-72545500D03*
X111883900Y-73045900D03*
X111883900Y-73546300D03*
X111883900Y-74046600D03*
X111883900Y-74547000D03*
X111883900Y-75047400D03*
X111383500Y-68545000D03*
X111383500Y-69045400D03*
X111383500Y-69545800D03*
X111383500Y-70046100D03*
X111383500Y-70546500D03*
X111383500Y-71046900D03*
X111383500Y-71547300D03*
X111383500Y-72045100D03*
X111383500Y-72545500D03*
X111383500Y-73045900D03*
X111383500Y-73546300D03*
X111383500Y-74046600D03*
X111383500Y-74547000D03*
X111383500Y-75047400D03*
D31*
X119584100Y-126774000D03*
X121285900Y-126774000D03*
D47*
X179613000Y-77355000D03*
X183997000Y-77355000D03*
D13*
X183703000Y-131795000D03*
X182179000Y-131795000D03*
X170873000Y-74755000D03*
X172397000Y-74755000D03*
D48*
X155915000Y-136295900D03*
X158455000Y-136295900D03*
X158455000Y-127294100D03*
X155915000Y-127294100D03*
D11*
X166013000Y-80264285D03*
X164363000Y-80264285D03*
D14*
X191672000Y-77545000D03*
X192688000Y-77545000D03*
D49*
X138380000Y-94420000D03*
X139520000Y-94420000D03*
X140660000Y-94420000D03*
X141800000Y-94420000D03*
X142940000Y-94420000D03*
X144080000Y-94420000D03*
X145220000Y-94420000D03*
X146360000Y-94420000D03*
X147500000Y-94420000D03*
X148640000Y-94420000D03*
X149780000Y-94420000D03*
X150920000Y-94420000D03*
X152060000Y-94420000D03*
X137240000Y-105820000D03*
X138380000Y-105820000D03*
X139520000Y-105820000D03*
X140660000Y-105820000D03*
X141800000Y-105820000D03*
X142940000Y-105820000D03*
X144080000Y-105820000D03*
X145220000Y-105820000D03*
X146360000Y-105820000D03*
X147500000Y-105820000D03*
X148640000Y-105820000D03*
X149780000Y-105820000D03*
X150920000Y-105820000D03*
X152060000Y-105820000D03*
X153200000Y-105820000D03*
X137810000Y-106390000D03*
X138950000Y-106390000D03*
X140090000Y-106390000D03*
X141230000Y-106390000D03*
X142370000Y-106390000D03*
X143510000Y-106390000D03*
X144650000Y-106390000D03*
X145790000Y-106390000D03*
X146930000Y-106390000D03*
X148070000Y-106390000D03*
X149210000Y-106390000D03*
X150350000Y-106390000D03*
X151490000Y-106390000D03*
X152630000Y-106390000D03*
X137240000Y-106960000D03*
X138380000Y-106960000D03*
X139520000Y-106960000D03*
X140660000Y-106960000D03*
X141800000Y-106960000D03*
X142940000Y-106960000D03*
X144080000Y-106960000D03*
X145220000Y-106960000D03*
X146360000Y-106960000D03*
X147500000Y-106960000D03*
X148640000Y-106960000D03*
X149780000Y-106960000D03*
X150920000Y-106960000D03*
X152060000Y-106960000D03*
X153200000Y-106960000D03*
X137810000Y-107530000D03*
X138950000Y-107530000D03*
X140090000Y-107530000D03*
X141230000Y-107530000D03*
X142370000Y-107530000D03*
X143510000Y-107530000D03*
X144650000Y-107530000D03*
X145790000Y-107530000D03*
X146930000Y-107530000D03*
X148070000Y-107530000D03*
X149210000Y-107530000D03*
X150350000Y-107530000D03*
X151490000Y-107530000D03*
X152630000Y-107530000D03*
X137240000Y-108100000D03*
X138380000Y-108100000D03*
X139520000Y-108100000D03*
X140660000Y-108100000D03*
X141800000Y-108100000D03*
X142940000Y-108100000D03*
X144080000Y-108100000D03*
X145220000Y-108100000D03*
X146360000Y-108100000D03*
X147500000Y-108100000D03*
X148640000Y-108100000D03*
X149780000Y-108100000D03*
X150920000Y-108100000D03*
X152060000Y-108100000D03*
X153200000Y-108100000D03*
X137810000Y-108670000D03*
X138950000Y-108670000D03*
X140090000Y-108670000D03*
X141230000Y-108670000D03*
X142370000Y-108670000D03*
X143510000Y-108670000D03*
X144650000Y-108670000D03*
X145790000Y-108670000D03*
X146930000Y-108670000D03*
X148070000Y-108670000D03*
X149210000Y-108670000D03*
X150350000Y-108670000D03*
X151490000Y-108670000D03*
X152630000Y-108670000D03*
X137240000Y-109240000D03*
X138380000Y-109240000D03*
X139520000Y-109240000D03*
X140660000Y-109240000D03*
X141800000Y-109240000D03*
X142940000Y-109240000D03*
X144080000Y-109240000D03*
X145220000Y-109240000D03*
X146360000Y-109240000D03*
X147500000Y-109240000D03*
X148640000Y-109240000D03*
X149780000Y-109240000D03*
X150920000Y-109240000D03*
X152060000Y-109240000D03*
X153200000Y-109240000D03*
X137810000Y-109810000D03*
X138950000Y-109810000D03*
X140090000Y-109810000D03*
X141230000Y-109810000D03*
X142370000Y-109810000D03*
X143510000Y-109810000D03*
X144650000Y-109810000D03*
X145790000Y-109810000D03*
X146930000Y-109810000D03*
X148070000Y-109810000D03*
X149210000Y-109810000D03*
X150350000Y-109810000D03*
X151490000Y-109810000D03*
X152630000Y-109810000D03*
X138380000Y-110380000D03*
X139520000Y-110380000D03*
X140660000Y-110380000D03*
X141800000Y-110380000D03*
X142940000Y-110380000D03*
X144080000Y-110380000D03*
X145220000Y-110380000D03*
X146360000Y-110380000D03*
X147500000Y-110380000D03*
X148640000Y-110380000D03*
X149780000Y-110380000D03*
X150920000Y-110380000D03*
X152060000Y-110380000D03*
X137810000Y-94990000D03*
X138950000Y-94990000D03*
X140090000Y-94990000D03*
X141230000Y-94990000D03*
X142370000Y-94990000D03*
X143510000Y-94990000D03*
X144650000Y-94990000D03*
X145790000Y-94990000D03*
X146930000Y-94990000D03*
X148070000Y-94990000D03*
X149210000Y-94990000D03*
X150350000Y-94990000D03*
X151490000Y-94990000D03*
X152630000Y-94990000D03*
X137240000Y-95560000D03*
X138380000Y-95560000D03*
X139520000Y-95560000D03*
X140660000Y-95560000D03*
X141800000Y-95560000D03*
X142940000Y-95560000D03*
X144080000Y-95560000D03*
X145220000Y-95560000D03*
X146360000Y-95560000D03*
X147500000Y-95560000D03*
X148640000Y-95560000D03*
X149780000Y-95560000D03*
X150920000Y-95560000D03*
X152060000Y-95560000D03*
X153200000Y-95560000D03*
X137810000Y-96130000D03*
X138950000Y-96130000D03*
X140090000Y-96130000D03*
X141230000Y-96130000D03*
X142370000Y-96130000D03*
X143510000Y-96130000D03*
X144650000Y-96130000D03*
X145790000Y-96130000D03*
X146930000Y-96130000D03*
X148070000Y-96130000D03*
X149210000Y-96130000D03*
X150350000Y-96130000D03*
X151490000Y-96130000D03*
X152630000Y-96130000D03*
X137240000Y-96700000D03*
X138380000Y-96700000D03*
X139520000Y-96700000D03*
X140660000Y-96700000D03*
X141800000Y-96700000D03*
X142940000Y-96700000D03*
X144080000Y-96700000D03*
X145220000Y-96700000D03*
X146360000Y-96700000D03*
X147500000Y-96700000D03*
X148640000Y-96700000D03*
X149780000Y-96700000D03*
X150920000Y-96700000D03*
X152060000Y-96700000D03*
X153200000Y-96700000D03*
X137810000Y-97270000D03*
X138950000Y-97270000D03*
X140090000Y-97270000D03*
X141230000Y-97270000D03*
X142370000Y-97270000D03*
X143510000Y-97270000D03*
X144650000Y-97270000D03*
X145790000Y-97270000D03*
X146930000Y-97270000D03*
X148070000Y-97270000D03*
X149210000Y-97270000D03*
X150350000Y-97270000D03*
X151490000Y-97270000D03*
X152630000Y-97270000D03*
X137240000Y-97840000D03*
X138380000Y-97840000D03*
X139520000Y-97840000D03*
X140660000Y-97840000D03*
X141800000Y-97840000D03*
X142940000Y-97840000D03*
X144080000Y-97840000D03*
X145220000Y-97840000D03*
X146360000Y-97840000D03*
X147500000Y-97840000D03*
X148640000Y-97840000D03*
X149780000Y-97840000D03*
X150920000Y-97840000D03*
X152060000Y-97840000D03*
X153200000Y-97840000D03*
X137810000Y-98410000D03*
X138950000Y-98410000D03*
X140090000Y-98410000D03*
X141230000Y-98410000D03*
X142370000Y-98410000D03*
X143510000Y-98410000D03*
X144650000Y-98410000D03*
X145790000Y-98410000D03*
X146930000Y-98410000D03*
X148070000Y-98410000D03*
X149210000Y-98410000D03*
X150350000Y-98410000D03*
X151490000Y-98410000D03*
X152630000Y-98410000D03*
X137240000Y-98980000D03*
X138380000Y-98980000D03*
X139520000Y-98980000D03*
X140660000Y-98980000D03*
X141800000Y-98980000D03*
X142940000Y-98980000D03*
X144080000Y-98980000D03*
X145220000Y-98980000D03*
X146360000Y-98980000D03*
X147500000Y-98980000D03*
X148640000Y-98980000D03*
X149780000Y-98980000D03*
X150920000Y-98980000D03*
X152060000Y-98980000D03*
X153200000Y-98980000D03*
X137810000Y-99550000D03*
X138950000Y-99550000D03*
X140090000Y-99550000D03*
X141230000Y-99550000D03*
X142370000Y-99550000D03*
X143510000Y-99550000D03*
X144650000Y-99550000D03*
X145790000Y-99550000D03*
X146930000Y-99550000D03*
X148070000Y-99550000D03*
X149210000Y-99550000D03*
X150350000Y-99550000D03*
X151490000Y-99550000D03*
X152630000Y-99550000D03*
X137240000Y-100120000D03*
X138380000Y-100120000D03*
X139520000Y-100120000D03*
X140660000Y-100120000D03*
X141800000Y-100120000D03*
X142940000Y-100120000D03*
X144080000Y-100120000D03*
X145220000Y-100120000D03*
X146360000Y-100120000D03*
X147500000Y-100120000D03*
X148640000Y-100120000D03*
X149780000Y-100120000D03*
X150920000Y-100120000D03*
X152060000Y-100120000D03*
X153200000Y-100120000D03*
X137810000Y-100690000D03*
X138950000Y-100690000D03*
X140090000Y-100690000D03*
X141230000Y-100690000D03*
X142370000Y-100690000D03*
X143510000Y-100690000D03*
X144650000Y-100690000D03*
X145790000Y-100690000D03*
X146930000Y-100690000D03*
X148070000Y-100690000D03*
X149210000Y-100690000D03*
X150350000Y-100690000D03*
X151490000Y-100690000D03*
X152630000Y-100690000D03*
X137240000Y-101260000D03*
X138380000Y-101260000D03*
X139520000Y-101260000D03*
X140660000Y-101260000D03*
X141800000Y-101260000D03*
X142940000Y-101260000D03*
X144080000Y-101260000D03*
X145220000Y-101260000D03*
X146360000Y-101260000D03*
X147500000Y-101260000D03*
X148640000Y-101260000D03*
X149780000Y-101260000D03*
X150920000Y-101260000D03*
X152060000Y-101260000D03*
X153200000Y-101260000D03*
X137810000Y-101830000D03*
X138950000Y-101830000D03*
X140090000Y-101830000D03*
X141230000Y-101830000D03*
X142370000Y-101830000D03*
X143510000Y-101830000D03*
X144650000Y-101830000D03*
X145790000Y-101830000D03*
X146930000Y-101830000D03*
X148070000Y-101830000D03*
X149210000Y-101830000D03*
X150350000Y-101830000D03*
X151490000Y-101830000D03*
X152630000Y-101830000D03*
X137240000Y-102400000D03*
X138380000Y-102400000D03*
X139520000Y-102400000D03*
X140660000Y-102400000D03*
X141800000Y-102400000D03*
X142940000Y-102400000D03*
X144080000Y-102400000D03*
X145220000Y-102400000D03*
X146360000Y-102400000D03*
X147500000Y-102400000D03*
X148640000Y-102400000D03*
X149780000Y-102400000D03*
X150920000Y-102400000D03*
X152060000Y-102400000D03*
X153200000Y-102400000D03*
X137810000Y-102970000D03*
X138950000Y-102970000D03*
X140090000Y-102970000D03*
X141230000Y-102970000D03*
X142370000Y-102970000D03*
X143510000Y-102970000D03*
X144650000Y-102970000D03*
X145790000Y-102970000D03*
X146930000Y-102970000D03*
X148070000Y-102970000D03*
X149210000Y-102970000D03*
X150350000Y-102970000D03*
X151490000Y-102970000D03*
X152630000Y-102970000D03*
X137240000Y-103540000D03*
X138380000Y-103540000D03*
X139520000Y-103540000D03*
X140660000Y-103540000D03*
X141800000Y-103540000D03*
X142940000Y-103540000D03*
X144080000Y-103540000D03*
X145220000Y-103540000D03*
X146360000Y-103540000D03*
X147500000Y-103540000D03*
X148640000Y-103540000D03*
X149780000Y-103540000D03*
X150920000Y-103540000D03*
X152060000Y-103540000D03*
X153200000Y-103540000D03*
X137810000Y-104110000D03*
X138950000Y-104110000D03*
X140090000Y-104110000D03*
X141230000Y-104110000D03*
X142370000Y-104110000D03*
X143510000Y-104110000D03*
X144650000Y-104110000D03*
X145790000Y-104110000D03*
X146930000Y-104110000D03*
X148070000Y-104110000D03*
X149210000Y-104110000D03*
X150350000Y-104110000D03*
X151490000Y-104110000D03*
X152630000Y-104110000D03*
X137240000Y-104680000D03*
X138380000Y-104680000D03*
X139520000Y-104680000D03*
X140660000Y-104680000D03*
X141800000Y-104680000D03*
X142940000Y-104680000D03*
X144080000Y-104680000D03*
X145220000Y-104680000D03*
X146360000Y-104680000D03*
X147500000Y-104680000D03*
X148640000Y-104680000D03*
X149780000Y-104680000D03*
X150920000Y-104680000D03*
X152060000Y-104680000D03*
X153200000Y-104680000D03*
X137810000Y-105250000D03*
X138950000Y-105250000D03*
X140090000Y-105250000D03*
X141230000Y-105250000D03*
X142370000Y-105250000D03*
X143510000Y-105250000D03*
X144650000Y-105250000D03*
X145790000Y-105250000D03*
X146930000Y-105250000D03*
X148070000Y-105250000D03*
X149210000Y-105250000D03*
X150350000Y-105250000D03*
X151490000Y-105250000D03*
X152630000Y-105250000D03*
D19*
X184895000Y-141185000D03*
D20*
X187435000Y-141185000D03*
D14*
X183613000Y-134445000D03*
X182597000Y-134445000D03*
D30*
X164405000Y-67740000D03*
X163385000Y-67740000D03*
D25*
X128615000Y-70810000D03*
D29*
X166585000Y-136107200D03*
X166585000Y-129305000D03*
X163582800Y-129305000D03*
X163582800Y-136107200D03*
D47*
X178751000Y-66155000D03*
X183135000Y-66155000D03*
D14*
X174915000Y-72983000D03*
X174915000Y-71967000D03*
D40*
X184600500Y-70712800D03*
D41*
X182822500Y-70712800D03*
X182822500Y-72897200D03*
X184727500Y-72897200D03*
D19*
X114045000Y-60285000D03*
D20*
X116585000Y-60285000D03*
X119125000Y-60285000D03*
D36*
X126035000Y-128530000D03*
X126035000Y-126880000D03*
D12*
X119145000Y-119837000D03*
X119145000Y-120857000D03*
D13*
X171590000Y-66450000D03*
X173114000Y-66450000D03*
D14*
X173625000Y-104791000D03*
X173625000Y-103775000D03*
X183175000Y-89192000D03*
X183175000Y-90208000D03*
D25*
X125955000Y-69530000D03*
D14*
X173575000Y-98663000D03*
X173575000Y-97647000D03*
X178139000Y-126735000D03*
X179155000Y-126735000D03*
D10*
X155985000Y-125863000D03*
X157005000Y-125863000D03*
D23*
X176775000Y-63885000D03*
X176775000Y-62865000D03*
D50*
X186050000Y-63790000D03*
X187950000Y-63790000D03*
X187000000Y-61320000D03*
D13*
X165950000Y-84357140D03*
X164426000Y-84357140D03*
D14*
X122319000Y-129454425D03*
X123335000Y-129454425D03*
D28*
X177085000Y-120600000D03*
D14*
X174555000Y-107389000D03*
X174555000Y-108405000D03*
D19*
X114545000Y-132005000D03*
D20*
X117085000Y-132005000D03*
D13*
X165950000Y-81628570D03*
X164426000Y-81628570D03*
D14*
X164577000Y-126645000D03*
X165593000Y-126645000D03*
D13*
X169810000Y-85721425D03*
X168286000Y-85721425D03*
X183715000Y-130345000D03*
X182191000Y-130345000D03*
D51*
X173715000Y-71975000D03*
X173715000Y-71025000D03*
X173715000Y-70075000D03*
X170915000Y-70075000D03*
X170915000Y-71025000D03*
X170915000Y-71975000D03*
D37*
X122875000Y-115955000D03*
D20*
X125415000Y-115955000D03*
D14*
X164457702Y-75013100D03*
X163441702Y-75013100D03*
D21*
X121720000Y-118480000D03*
X121720000Y-120130000D03*
D14*
X171827000Y-68975000D03*
X172843000Y-68975000D03*
X169290000Y-61948000D03*
X169290000Y-60932000D03*
X169325000Y-74515000D03*
X168309000Y-74515000D03*
D52*
X118494800Y-124154300D03*
X119795200Y-124154300D03*
X119145000Y-122335700D03*
D34*
X186235000Y-68905000D03*
X186235000Y-67381000D03*
D12*
X174525000Y-103755000D03*
X174525000Y-104775000D03*
D30*
X151028800Y-132383800D03*
X150008800Y-132383800D03*
D14*
X173575000Y-99857000D03*
X173575000Y-100873000D03*
D12*
X170250000Y-60940000D03*
X170250000Y-61960000D03*
D25*
X126655000Y-66455000D03*
D10*
X148967000Y-126125000D03*
X149987000Y-126125000D03*
D13*
X171626009Y-78950000D03*
X173150009Y-78950000D03*
D14*
X140845000Y-69817000D03*
X140845000Y-70833000D03*
D38*
X193725000Y-139830000D03*
D14*
X171775000Y-60942000D03*
X171775000Y-61958000D03*
D25*
X129465000Y-68910000D03*
D13*
X169810000Y-81628570D03*
X168286000Y-81628570D03*
D37*
X157305000Y-122555000D03*
D20*
X159845000Y-122555000D03*
D14*
X163176000Y-107348000D03*
X163176000Y-106332000D03*
D12*
X180195000Y-86885000D03*
X180195000Y-87905000D03*
D14*
X171725000Y-112957000D03*
X171725000Y-111941000D03*
D37*
X138365000Y-128405000D03*
D20*
X135825000Y-128405000D03*
D12*
X174525000Y-105557000D03*
X174525000Y-106577000D03*
D14*
X189839000Y-125623000D03*
X188823000Y-125623000D03*
D25*
X124015000Y-80040000D03*
D53*
X117082400Y-119556400D03*
X117085000Y-121055000D03*
D10*
X186667000Y-124605000D03*
X187687000Y-124605000D03*
D13*
X169810000Y-78900000D03*
X168286000Y-78900000D03*
X171626009Y-81650000D03*
X173150009Y-81650000D03*
X189731000Y-133298000D03*
X191255000Y-133298000D03*
D25*
X124375000Y-68550000D03*
D37*
X171185000Y-58865000D03*
D20*
X173725000Y-58865000D03*
D37*
X177765000Y-58865000D03*
D20*
X180305000Y-58865000D03*
D16*
X171563009Y-82950000D03*
X173213009Y-82950000D03*
D37*
X124005000Y-119115000D03*
D20*
X126545000Y-119115000D03*
D14*
X148969000Y-128120000D03*
X149985000Y-128120000D03*
D54*
X190129900Y-73990200D03*
X190129900Y-68210200D03*
D55*
X189599900Y-75420500D03*
X189600000Y-66780300D03*
X193779900Y-75420400D03*
X193780000Y-66780200D03*
D56*
X188949800Y-74450200D03*
X188949800Y-73650100D03*
X188949800Y-72350100D03*
X188949800Y-71350100D03*
X188949800Y-70850300D03*
X188949800Y-69850500D03*
X188950000Y-68550000D03*
X188949800Y-67750200D03*
X188949800Y-68050200D03*
X188950000Y-68850300D03*
X188949800Y-69350100D03*
X188949800Y-70350100D03*
X188949800Y-71850300D03*
X188949800Y-72850300D03*
X188949800Y-73350100D03*
X188949800Y-74150200D03*
D30*
X159005000Y-125863000D03*
X157985000Y-125863000D03*
D37*
X123045000Y-111505000D03*
D20*
X125585000Y-111505000D03*
D22*
X181370000Y-72225000D03*
X179520000Y-72225000D03*
X179520000Y-71425000D03*
X181370000Y-71425000D03*
D14*
X139920000Y-69837000D03*
X139920000Y-70853000D03*
D13*
X183715000Y-133195000D03*
X182191000Y-133195000D03*
D57*
X164514700Y-71056100D03*
D58*
X163564690Y-71056100D03*
X162614704Y-71056100D03*
X162614704Y-73850100D03*
X164514700Y-73850100D03*
D13*
X171590000Y-67850000D03*
X173114000Y-67850000D03*
D54*
X190129900Y-86365000D03*
X190129900Y-80585000D03*
D55*
X189599900Y-87795300D03*
X189600000Y-79155100D03*
X193779900Y-87795200D03*
X193780000Y-79155000D03*
D56*
X188949800Y-86825000D03*
X188949800Y-86024900D03*
X188949800Y-84724900D03*
X188949800Y-83724900D03*
X188949800Y-83225100D03*
X188949800Y-82225300D03*
X188950000Y-80924800D03*
X188949800Y-80125000D03*
X188949800Y-80425000D03*
X188950000Y-81225100D03*
X188949800Y-81724900D03*
X188949800Y-82724900D03*
X188949800Y-84225100D03*
X188949800Y-85225100D03*
X188949800Y-85724900D03*
X188949800Y-86525000D03*
D13*
X170873000Y-76005000D03*
X172397000Y-76005000D03*
D14*
X171217000Y-126535000D03*
X172233000Y-126535000D03*
X148969000Y-127075000D03*
X149985000Y-127075000D03*
D29*
X173336100Y-136106100D03*
X173336100Y-129303900D03*
X170333900Y-129303900D03*
X170333900Y-136106100D03*
D14*
X192688000Y-76695000D03*
X191672000Y-76695000D03*
D42*
X185627000Y-80005000D03*
X182243000Y-80005000D03*
D25*
X125425000Y-65075000D03*
D37*
X124005000Y-123427500D03*
D20*
X126545000Y-123427500D03*
D38*
X110124958Y-60347821D03*
D12*
X170565000Y-66815000D03*
X170565000Y-67835000D03*
D25*
X129495000Y-64495000D03*
D14*
X189415000Y-62297000D03*
X189415000Y-63313000D03*
X122311575Y-126894000D03*
X123327575Y-126894000D03*
X122319000Y-128104425D03*
X123335000Y-128104425D03*
D30*
X147170800Y-132383800D03*
X146150800Y-132383800D03*
D10*
X188825000Y-124605000D03*
X189845000Y-124605000D03*
D59*
X120394988Y-134570106D03*
D60*
X121994988Y-133320106D03*
X162995188Y-133320106D03*
D61*
X164595188Y-134570106D03*
D59*
X113219894Y-77542488D03*
D60*
X114469894Y-79142488D03*
X114469894Y-120142688D03*
D61*
X113219894Y-121742688D03*
D59*
X120394988Y-64720106D03*
D60*
X121994988Y-63470106D03*
X162995188Y-63470106D03*
D61*
X164595188Y-64720106D03*
M02*
